# Blender 3.6.5
# www.blender.org
mtllib U2E_anim58.mtl
o CameraBox
v -99.015549 -140.246170 5.011456
v -99.002052 -140.445602 5.018325
v -99.019676 -140.239563 5.211295
v -99.006180 -140.438995 5.218164
v -98.816040 -140.232544 5.015125
v -98.802544 -140.431976 5.021995
v -98.820168 -140.225937 5.214964
v -98.806671 -140.425369 5.221834
vn -0.9975 -0.0681 -0.0183
vn -0.0206 0.0330 0.9992
vn 0.9975 0.0681 0.0183
vn 0.0206 -0.0330 -0.9992
vn -0.0675 0.9971 -0.0344
vn 0.0675 -0.9971 0.0344
s 0
usemtl None
f 2//1 3//1 1//1
f 8//3 5//3 7//3
f 6//4 1//4 5//4
f 4//6 6//6 8//6
f 2//1 4//1 3//1
f 8//3 6//3 5//3
f 6//4 2//4 1//4
f 4//6 2//6 6//6
usemtl UpDir
f 4//2 7//2 3//2
f 4//2 8//2 7//2
usemtl LookingDir
f 7//5 1//5 3//5
f 7//5 5//5 1//5
o _laatta01
v -97.656250 -7.812500 0.128906
v -97.656250 11.718750 0.128906
v -54.687500 11.718750 0.128906
v -54.687500 -7.812500 0.128906
v -50.781250 11.718750 0.128906
v 39.062500 11.718750 0.128906
v 39.062500 -7.812500 0.128906
v -50.781250 -7.812500 0.128906
v -101.562500 11.718750 0.128906
v -101.562500 -31.250000 0.128906
v -117.187500 -31.250000 0.128906
v -117.187500 11.718750 0.128906
v -117.187500 -82.031250 0.128906
v -101.562500 -82.031250 0.128906
v -101.562500 -105.468750 0.128906
v -78.125000 -105.468750 0.128906
v -78.125000 -125.000000 0.128906
v -117.187500 -125.000000 0.128906
vn -0.0000 -0.0000 1.0000
s 0
usemtl WHITE#NEON
f 12//7 10//7 9//7
f 16//7 14//7 13//7
f 20//7 18//7 17//7
f 25//7 23//7 26//7
f 21//7 23//7 22//7
f 12//7 11//7 10//7
f 16//7 15//7 14//7
f 20//7 19//7 18//7
f 25//7 24//7 23//7
f 21//7 26//7 23//7
o fcirto01
v -95.593750 -117.921875 11.671875
v -95.593750 -117.921875 9.718750
v -97.546875 -117.921875 9.718750
v -97.546875 -117.921875 11.671875
v -95.593750 -117.921875 7.765625
v -95.593750 -117.921875 5.812500
v -97.546875 -117.921875 5.812500
v -97.546875 -117.921875 7.765625
v -95.593750 -117.921875 3.859375
v -95.593750 -117.921875 1.906250
v -97.546875 -117.921875 1.906250
v -97.546875 -117.921875 3.859375
v -99.500000 -117.921875 7.765625
v -99.500000 -117.921875 5.812500
v -101.453125 -117.921875 5.812500
v -101.453125 -117.921875 7.765625
v -99.500000 -117.921875 3.859375
v -99.500000 -117.921875 1.906250
v -101.453125 -117.921875 1.906250
v -101.453125 -117.921875 3.859375
v -99.500000 -117.921875 11.671875
v -99.500000 -117.921875 9.718750
v -101.453125 -117.921875 9.718750
v -101.453125 -117.921875 11.671875
v -87.519531 -117.921875 11.671875
v -87.519531 -117.921875 9.718750
v -89.472656 -117.921875 9.718750
v -89.472656 -117.921875 11.671875
v -87.519531 -117.921875 7.765625
v -87.519531 -117.921875 5.812500
v -89.472656 -117.921875 5.812500
v -89.472656 -117.921875 7.765625
v -87.519531 -117.921875 3.859375
v -87.519531 -117.921875 1.906250
v -89.472656 -117.921875 1.906250
v -89.472656 -117.921875 3.859375
v -91.425781 -117.921875 7.765625
v -91.425781 -117.921875 5.812500
v -93.378906 -117.921875 5.812500
v -93.378906 -117.921875 7.765625
v -91.425781 -117.921875 3.859375
v -91.425781 -117.921875 1.906250
v -93.378906 -117.921875 1.906250
v -93.378906 -117.921875 3.859375
v -91.425781 -117.921875 11.671875
v -91.425781 -117.921875 9.718750
v -93.378906 -117.921875 9.718750
v -93.378906 -117.921875 11.671875
vn -0.0000 -1.0000 -0.0000
s 0
usemtl C_GROUND
f 30//8 28//8 27//8
f 34//8 32//8 31//8
f 38//8 36//8 35//8
f 42//8 40//8 39//8
f 46//8 44//8 43//8
f 50//8 48//8 47//8
f 54//8 52//8 51//8
f 58//8 56//8 55//8
f 62//8 60//8 59//8
f 66//8 64//8 63//8
f 70//8 68//8 67//8
f 74//8 72//8 71//8
f 30//8 29//8 28//8
f 34//8 33//8 32//8
f 38//8 37//8 36//8
f 42//8 41//8 40//8
f 46//8 45//8 44//8
f 50//8 49//8 48//8
f 54//8 53//8 52//8
f 58//8 57//8 56//8
f 62//8 61//8 60//8
f 66//8 65//8 64//8
f 70//8 69//8 68//8
f 74//8 73//8 72//8
o s01
v -93.905869 -128.490860 4.242638
v -93.888794 -128.558929 4.337367
v -93.880646 -128.604462 4.483013
v -93.886459 -128.600784 4.632271
v -93.897079 -128.553986 4.789170
v -93.915787 -128.485077 4.894828
v -93.900543 -128.531525 4.639729
v -93.898544 -128.535980 4.490442
v -94.372803 -128.742004 4.145565
v -94.344193 -128.867691 4.256345
v -94.327789 -128.955383 4.437599
v -94.330093 -128.950775 4.626176
v -94.357239 -128.863037 4.822065
v -94.388626 -128.732498 4.954871
v -94.364304 -128.821503 4.637150
v -94.358154 -128.825348 4.448601
v -95.153015 -129.157013 3.975887
v -95.122467 -129.294037 4.133884
v -95.105743 -129.385345 4.374097
v -95.112396 -129.381241 4.625513
v -95.137009 -129.288635 4.884274
v -95.174896 -129.147156 5.060206
v -95.144333 -129.243500 4.636470
v -95.137665 -129.247620 4.385054
v -95.738312 -129.299454 3.967777
v -95.711548 -129.437286 4.121817
v -95.691818 -129.523956 4.365965
v -95.697693 -129.523682 4.617403
v -95.723068 -129.427246 4.872213
v -95.760193 -129.289581 5.052096
v -95.729630 -129.385956 4.628360
v -95.727570 -129.386993 4.376894
v -96.300461 -129.204529 4.045320
v -96.272049 -129.330109 4.179674
v -96.255890 -129.417694 4.392362
v -96.262283 -129.413712 4.612344
v -96.285828 -129.325104 4.835765
v -96.317398 -129.194458 4.992146
v -96.292618 -129.283691 4.619416
v -96.286255 -129.287659 4.403363
v -96.639877 -129.144821 4.089458
v -96.623108 -129.212723 4.219550
v -96.615372 -129.258072 4.416275
v -96.621582 -129.254181 4.612683
v -96.636429 -129.207947 4.816703
v -96.655396 -129.138916 4.957724
v -96.639481 -129.185699 4.620112
v -96.633240 -129.189590 4.419775
v -96.384964 -128.546478 4.485934
v -96.417191 -128.405151 4.437931
v -96.486435 -128.122772 4.459772
v -96.523453 -127.981720 4.529616
v -96.524384 -127.981255 4.643562
v -96.492126 -128.122604 4.687635
v -96.422882 -128.404968 4.665794
v -96.389679 -128.546799 4.595922
v -96.022247 -128.857925 4.403734
v -96.099930 -128.529846 4.315291
v -96.257156 -127.872757 4.366297
v -96.337479 -127.539894 4.505724
v -96.343185 -127.539726 4.733586
v -96.265488 -127.867798 4.822029
v -96.108215 -128.524902 4.767094
v -96.024078 -128.856995 4.627696
v -95.611588 -128.758850 4.406671
v -95.689316 -128.430756 4.322157
v -95.846542 -127.773659 4.373163
v -95.926086 -127.444641 4.512612
v -95.932556 -127.440620 4.740453
v -95.854874 -127.768692 4.828895
v -95.697601 -128.425812 4.773960
v -95.617294 -128.758667 4.634533
v -94.722137 -128.250122 4.498261
v -94.768402 -128.059509 4.461728
v -94.860229 -127.685577 4.490865
v -94.902756 -127.497612 4.560469
v -94.861160 -127.685104 4.604810
v -94.769333 -128.059052 4.575674
v -94.285690 -126.913536 4.366603
v -94.300552 -126.843864 4.472289
v -94.315781 -126.793976 4.629138
v -94.320816 -126.794128 4.778418
v -94.312683 -126.839684 4.924064
v -94.295609 -126.907745 5.018793
v -94.302933 -126.862625 4.770989
v -94.301712 -126.863243 4.621681
v -94.813339 -126.904602 4.287604
v -94.849365 -126.770973 4.424289
v -94.872665 -126.682480 4.620206
v -94.874176 -126.681709 4.804876
v -94.858551 -126.765572 4.986108
v -94.829193 -126.895088 5.100840
v -94.843842 -126.811737 4.797804
v -94.842300 -126.812515 4.609204
v -95.700974 -126.888710 4.158488
v -95.735016 -126.746445 4.334448
v -95.763458 -126.654617 4.593181
v -95.766266 -126.649750 4.840696
v -95.749573 -126.741035 5.084838
v -95.718994 -126.878090 5.238906
v -95.734329 -126.787483 4.829739
v -95.727707 -126.791580 4.582252
v -96.287033 -127.027313 4.150355
v -96.320312 -126.888893 4.326337
v -96.349533 -126.793213 4.585049
v -96.351547 -126.792191 4.832585
v -96.335648 -126.879646 5.076706
v -96.305054 -127.016693 5.230774
v -96.319626 -126.929924 4.821628
v -96.317612 -126.930954 4.574091
v -96.741028 -127.367111 4.191288
v -96.777206 -127.233406 4.347618
v -96.800751 -127.144791 4.571039
v -96.806381 -127.144653 4.791044
v -96.791000 -127.228394 5.003709
v -96.761810 -127.357819 5.138086
v -96.776001 -127.274696 4.780043
v -96.770370 -127.274834 4.560038
v -97.019745 -127.567459 4.217353
v -97.034851 -127.497658 4.354472
v -97.050476 -127.447594 4.558471
v -97.055939 -127.447533 4.758830
v -97.048203 -127.492874 4.955555
v -97.035217 -127.561577 5.081689
v -97.038040 -127.516029 4.751401
v -97.035629 -127.520706 4.551036
v -95.665298 -128.773117 4.508459
v -95.721725 -128.788727 4.476627
v -95.980423 -128.849243 4.443333
v -96.006958 -128.858261 4.502097
v -95.981155 -128.848877 4.533704
v -95.722229 -128.788452 4.539494
v -95.449234 -129.289795 4.528080
v -95.521515 -129.304779 4.464681
v -95.843536 -129.386292 4.399523
v -95.882843 -129.393539 4.521046
v -95.845810 -129.381683 4.584171
v -95.522552 -129.304260 4.590415
v -95.980545 -127.455070 4.614378
v -96.037781 -127.466827 4.582524
v -96.295700 -127.531189 4.549253
v -96.326813 -127.537148 4.607965
v -96.296432 -127.530815 4.639623
v -96.038254 -127.466583 4.641461
v -96.025986 -126.899162 4.717798
v -96.094452 -126.913361 4.658357
v -96.416443 -126.994888 4.589269
v -96.455750 -127.002136 4.710793
v -96.422562 -126.991058 4.773889
v -96.099289 -126.913628 4.780133
vn 0.9709 0.2381 0.0261
vn 0.4772 -0.5174 -0.7103
vn 0.5919 -0.7032 -0.3939
vn 0.6155 -0.7877 0.0269
vn 0.5639 -0.7217 0.4014
vn 0.4418 -0.5854 0.6798
vn -0.5097 0.8175 -0.2680
vn -0.5302 0.8472 -0.0346
vn -0.4985 0.8294 0.2522
vn 0.4459 -0.6317 -0.6341
vn 0.4759 -0.8106 -0.3412
vn 0.4818 -0.8758 0.0271
vn 0.4535 -0.8246 0.3382
vn 0.4124 -0.6645 0.6232
vn -0.4779 0.8485 -0.2274
vn -0.4744 0.8799 -0.0270
vn -0.4941 0.8448 0.2056
vn 0.1878 -0.7156 -0.6728
vn 0.2286 -0.9114 -0.3420
vn 0.2364 -0.9716 0.0066
vn 0.2155 -0.9060 0.3643
vn 0.1772 -0.7636 0.6209
vn -0.2270 0.9460 -0.2315
vn -0.2364 0.9716 -0.0060
vn -0.2276 0.9510 0.2094
vn -0.2129 -0.7358 -0.6428
vn -0.2109 -0.9094 -0.3584
vn -0.1913 -0.9815 0.0122
vn -0.1892 -0.9194 0.3447
vn -0.1968 -0.7716 0.6049
vn 0.1869 0.9581 -0.2170
vn 0.1789 0.9838 -0.0128
vn 0.1808 0.9596 0.2156
vn -0.2104 -0.8775 -0.4310
vn -0.3311 -0.9223 -0.1995
vn -0.4058 -0.9139 0.0052
vn -0.3205 -0.9286 0.1871
vn -0.1884 -0.8918 0.4112
vn 0.1734 0.9766 -0.1271
vn 0.2719 0.9623 -0.0103
vn 0.2753 0.9534 0.1237
vn -0.9677 -0.2515 -0.0194
vn -0.9708 -0.2392 -0.0207
vn -0.4702 -0.3318 -0.8178
vn -0.3657 -0.0153 -0.9306
vn -0.5698 0.1967 -0.7979
vn -0.9232 0.3837 -0.0233
vn -0.5887 0.0775 0.8047
vn -0.3610 -0.1632 0.9182
vn -0.4413 -0.4401 0.7820
vn -0.6517 -0.7584 -0.0022
vn 0.0724 -0.2327 -0.9699
vn -0.0019 0.0769 -0.9970
vn -0.0713 0.3746 -0.9245
vn -0.2251 0.9740 -0.0236
vn -0.0748 0.2430 0.9671
vn 0.0033 -0.0825 0.9966
vn 0.0738 -0.3701 0.9261
vn 0.2345 -0.9721 0.0066
vn 0.2021 -0.1368 -0.9698
vn 0.1087 0.1037 -0.9886
vn 0.0786 0.3618 -0.9290
vn 0.0524 0.9985 -0.0161
vn 0.1907 0.2658 0.9450
vn 0.2174 -0.0227 0.9758
vn 0.3084 -0.2908 0.9057
vn 0.4954 -0.8686 0.0130
vn 0.9713 0.2377 0.0069
vn 0.9802 0.1969 0.0202
vn 0.0948 0.8372 -0.5386
vn 0.1507 0.9462 -0.2863
vn 0.1962 0.9805 0.0077
vn 0.2009 0.8955 0.3971
vn 0.1732 0.6748 0.7174
vn -0.0631 -0.9630 -0.2619
vn -0.0935 -0.9956 0.0034
vn -0.0961 -0.9592 0.2660
vn 0.1118 0.7251 -0.6795
vn 0.0663 0.9123 -0.4042
vn 0.0314 0.9995 -0.0039
vn 0.0475 0.9367 0.3470
vn 0.0929 0.7530 0.6514
vn -0.0519 -0.9754 -0.2141
vn -0.0267 -0.9995 0.0158
vn -0.0310 -0.9616 0.2726
vn -0.1707 0.7585 -0.6289
vn -0.2172 0.9121 -0.3476
vn -0.2301 0.9732 -0.0059
vn -0.2257 0.9073 0.3547
vn -0.1790 0.7172 0.6735
vn 0.2278 -0.9509 -0.2097
vn 0.2364 -0.9716 0.0060
vn 0.2207 -0.9476 0.2311
vn -0.5026 0.5961 -0.6261
vn -0.5736 0.7389 -0.3535
vn -0.6142 0.7890 -0.0162
vn -0.6007 0.7394 0.3040
vn -0.5384 0.5737 0.6172
vn 0.6119 -0.7690 -0.1849
vn 0.6023 -0.7982 0.0082
vn 0.5857 -0.7802 0.2197
vn -0.5541 0.7155 -0.4254
vn -0.7013 0.6781 -0.2201
vn -0.7709 0.6366 -0.0212
vn -0.7540 0.5908 0.2871
vn -0.6209 0.4928 0.6096
vn 0.6117 -0.7649 -0.2019
vn 0.6763 -0.7364 0.0178
vn 0.6570 -0.7173 0.2318
vn -0.9802 -0.1960 -0.0268
vn -0.2337 0.9723 -0.0059
vn 0.6148 0.2284 -0.7549
vn 0.1754 0.0907 -0.9803
vn -0.9264 -0.2106 -0.3122
vn -0.8346 -0.1750 0.5223
vn -0.0418 0.0837 0.9956
vn 0.4119 0.2461 0.8774
vn 0.2337 -0.9723 0.0059
vn 0.6203 0.1922 -0.7605
vn 0.1707 0.1509 -0.9737
vn -0.9354 -0.1654 -0.3124
vn -0.8173 -0.3115 0.4847
vn 0.0385 -0.2391 0.9702
vn 0.6566 -0.1145 0.7455
vn 0.9552 0.2952 -0.0234
vn 0.9802 0.1966 0.0228
vn 0.9621 0.2708 0.0309
vn 0.9626 0.2703 0.0208
vn 0.9801 0.1983 0.0072
vn 0.4784 -0.6701 -0.5676
vn 0.5726 -0.7728 -0.2737
vn 0.6184 -0.7846 0.0435
vn 0.5498 -0.7895 0.2727
vn 0.4423 -0.7134 0.5435
vn -0.4740 0.8609 -0.1850
vn -0.5298 0.8475 -0.0324
vn -0.5362 0.8275 0.1665
vn 0.4412 -0.5348 -0.7207
vn 0.4864 -0.7684 -0.4159
vn 0.4819 -0.8758 0.0274
vn 0.4611 -0.7842 0.4151
vn 0.4088 -0.6007 0.6870
vn -0.4577 0.8464 -0.2721
vn -0.4755 0.8791 -0.0335
vn -0.4766 0.8415 0.2545
vn 0.1855 -0.7243 -0.6641
vn 0.2194 -0.9068 -0.3600
vn 0.2298 -0.9730 0.0220
vn 0.2091 -0.9142 0.3471
vn 0.1645 -0.7511 0.6394
vn -0.2296 0.9730 -0.0220
vn -0.2336 0.9474 0.2186
vn -0.2080 -0.7466 -0.6319
vn -0.1899 -0.9300 -0.3148
vn -0.1853 -0.9827 -0.0033
vn -0.1832 -0.9253 0.3320
vn -0.1821 -0.7987 0.5736
vn 0.1781 0.9622 -0.2060
vn 0.1749 0.9846 -0.0027
vn 0.1900 0.9611 0.2007
vn -0.3124 -0.7260 -0.6126
vn -0.4020 -0.8570 -0.3224
vn -0.4056 -0.9141 0.0047
vn -0.3863 -0.8706 0.3046
vn -0.2864 -0.7629 0.5796
vn 0.2656 0.9414 -0.2077
vn 0.2715 0.9624 -0.0097
vn 0.1962 0.9568 0.2144
vn -0.9702 -0.2418 -0.0123
vn -0.9805 -0.1948 -0.0272
vn -0.9554 -0.2937 -0.0301
vn -0.9429 -0.3322 -0.0229
vn -0.9677 -0.2517 -0.0147
vn -0.9704 -0.2400 0.0262
vn -0.9709 -0.2358 -0.0424
vn -0.9712 -0.2351 -0.0401
vn -0.9744 -0.2246 -0.0070
vn -0.9732 -0.2275 -0.0346
vn -0.4593 -0.3778 -0.8040
vn -0.3619 -0.0166 -0.9321
vn -0.5764 0.2361 -0.7823
vn -0.9218 0.3875 -0.0091
vn -0.5967 0.1116 0.7947
vn -0.3569 -0.1587 0.9206
vn -0.4290 -0.4780 0.7665
vn -0.6451 -0.7635 -0.0299
vn 0.0661 -0.2451 -0.9672
vn -0.0738 0.3701 -0.9261
vn -0.2345 0.9721 -0.0066
vn 0.0739 -0.3700 0.9261
vn 0.2349 -0.9720 0.0059
vn 0.2111 -0.1966 -0.9575
vn 0.1085 0.1027 -0.9888
vn 0.0635 0.4024 -0.9132
vn 0.1803 0.2956 0.9381
vn 0.2222 -0.0283 0.9746
vn 0.3093 -0.3029 0.9014
vn 0.9713 0.2377 0.0100
vn 0.9712 0.2381 0.0044
vn 0.9759 0.2182 0.0071
vn 0.9604 0.2766 0.0328
vn 0.9904 0.1266 0.0559
vn 0.9344 0.3561 0.0061
vn 0.1550 0.7265 -0.6694
vn 0.1871 0.9034 -0.3858
vn 0.1990 0.9800 -0.0024
vn 0.1608 0.9445 0.2864
vn 0.1066 0.8165 0.5674
vn -0.1008 -0.9793 -0.1754
vn -0.0451 -0.9807 0.1905
vn 0.0842 0.7828 -0.6166
vn 0.0395 0.9430 -0.3304
vn 0.0350 0.9992 -0.0193
vn 0.0708 0.9076 0.4139
vn 0.1259 0.6736 0.7283
vn -0.0357 -0.9640 -0.2635
vn -0.0238 -0.9997 0.0040
vn -0.0495 -0.9742 0.2202
vn -0.1735 0.7492 -0.6393
vn -0.2100 0.9091 -0.3599
vn -0.2361 0.9715 -0.0218
vn -0.2208 0.9135 0.3416
vn 0.2336 -0.9474 -0.2186
vn 0.2296 -0.9730 0.0223
vn 0.2209 -0.9475 0.2314
vn -0.5030 0.6306 -0.5911
vn -0.5712 0.7467 -0.3407
vn -0.6120 0.7908 -0.0083
vn -0.6069 0.7236 0.3288
vn -0.5380 0.5457 0.6425
vn 0.6019 -0.7723 -0.2032
vn 0.6044 -0.7965 0.0160
vn 0.5955 -0.7669 0.2393
vn -0.5788 0.5487 -0.6032
vn -0.7247 0.6109 -0.3187
vn -0.7706 0.6370 -0.0201
vn -0.7213 0.6682 0.1824
vn -0.5947 0.6787 0.4309
vn 0.6799 -0.7256 -0.1059
vn 0.6791 -0.7336 0.0253
vn 0.5865 -0.7978 0.1397
vn -0.9801 -0.1983 -0.0072
vn -0.9679 -0.2501 -0.0263
vn -0.9801 -0.1968 -0.0267
vn -0.9856 -0.1675 -0.0235
vn -0.9676 -0.2522 -0.0058
vn -0.2152 0.9720 -0.0949
vn -0.2281 0.9717 0.0618
vn -0.3354 0.9421 -0.0066
vn 0.4415 0.1916 -0.8766
vn 0.1023 0.1068 -0.9890
vn -0.8765 -0.2184 -0.4291
vn -0.7493 -0.1288 0.6496
vn -0.0391 0.0831 0.9958
vn 0.5905 0.2757 0.7584
vn 0.2396 -0.9657 0.0999
vn 0.2530 -0.9624 -0.0992
vn 0.1982 -0.9801 0.0057
vn 0.4534 0.1664 -0.8757
vn 0.1034 0.0972 -0.9899
vn -0.8654 -0.1594 -0.4750
vn -0.6601 -0.2921 0.6921
vn 0.0503 -0.2300 0.9719
vn 0.4424 -0.1290 0.8875
s 0
usemtl LIGHT_BLUE
f 82//9 78//9 76//9
f 76//10 84//10 83//10
f 77//11 85//11 84//11
f 87//13 86//13 78//13
f 88//14 87//14 79//14
f 81//15 89//15 88//15
f 82//16 90//16 89//16
f 75//17 83//17 90//17
f 84//18 92//18 91//18
f 85//19 93//19 92//19
f 95//21 94//21 86//21
f 96//22 95//22 87//22
f 97//23 96//23 88//23
f 90//24 98//24 97//24
f 83//25 91//25 98//25
f 92//26 100//26 99//26
f 101//27 100//27 92//27
f 103//29 102//29 94//29
f 96//30 104//30 103//30
f 105//31 104//31 96//31
f 106//32 105//32 97//32
f 99//33 106//33 98//33
f 108//34 107//34 99//34
f 109//35 108//35 100//35
f 103//37 111//37 110//37
f 104//38 112//38 111//38
f 113//39 112//39 104//39
f 114//40 113//40 105//40
f 107//41 114//41 106//41
f 116//42 115//42 107//42
f 117//43 116//43 108//43
f 111//45 119//45 118//45
f 112//46 120//46 119//46
f 121//47 120//47 112//47
f 122//48 121//48 113//48
f 115//49 122//49 114//49
f 119//50 122//50 117//50
f 136//56 135//56 127//56
f 130//58 138//58 137//58
f 136//64 144//64 143//64
f 146//66 145//66 137//66
f 144//72 151//72 150//72
f 147//74 152//74 145//74
f 157//77 160//77 155//77
f 154//78 153//78 161//78
f 155//79 154//79 162//79
f 156//81 164//81 165//81
f 157//82 165//82 166//82
f 158//83 166//83 167//83
f 159//84 167//84 168//84
f 160//85 168//85 161//85
f 162//86 161//86 169//86
f 163//87 162//87 170//87
f 164//89 172//89 173//89
f 165//90 173//90 174//90
f 166//91 174//91 175//91
f 167//92 175//92 176//92
f 161//93 168//93 176//93
f 169//94 177//94 178//94
f 171//95 170//95 178//95
f 173//97 172//97 180//97
f 173//98 181//98 182//98
f 174//99 182//99 183//99
f 175//100 183//100 184//100
f 169//101 176//101 184//101
f 177//102 185//102 186//102
f 178//103 186//103 187//103
f 181//105 180//105 188//105
f 182//106 181//106 189//106
f 183//107 182//107 190//107
f 184//108 183//108 191//108
f 177//109 184//109 192//109
f 185//110 193//110 194//110
f 186//111 194//111 195//111
f 189//113 188//113 196//113
f 190//114 189//114 197//114
f 191//115 190//115 198//115
f 192//116 191//116 199//116
f 185//117 192//117 200//117
f 200//118 196//118 194//118
f 201//119 203//119 205//119
f 201//120 207//120 208//120
f 202//121 208//121 209//121
f 203//122 209//122 210//122
f 204//123 210//123 211//123
f 206//124 205//124 211//124
f 201//125 206//125 212//125
f 213//126 217//126 215//126
f 220//127 219//127 213//127
f 221//128 220//128 214//128
f 216//129 222//129 221//129
f 217//130 223//130 222//130
f 218//131 224//131 223//131
f 219//132 224//132 218//132
f 78//133 80//133 79//133
f 78//134 81//134 80//134
f 76//135 78//135 77//135
f 82//136 76//136 75//136
f 78//137 82//137 81//137
f 76//138 83//138 75//138
f 77//139 84//139 76//139
f 87//141 78//141 79//141
f 88//142 79//142 80//142
f 81//143 88//143 80//143
f 82//144 89//144 81//144
f 75//145 90//145 82//145
f 84//146 91//146 83//146
f 85//147 92//147 84//147
f 95//149 86//149 87//149
f 96//150 87//150 88//150
f 97//151 88//151 89//151
f 90//152 97//152 89//152
f 83//153 98//153 90//153
f 92//154 99//154 91//154
f 101//155 92//155 93//155
f 103//157 94//157 95//157
f 96//158 103//158 95//158
f 105//31 96//31 97//31
f 106//159 97//159 98//159
f 99//160 98//160 91//160
f 108//161 99//161 100//161
f 109//162 100//162 101//162
f 103//164 110//164 102//164
f 104//165 111//165 103//165
f 113//166 104//166 105//166
f 114//167 105//167 106//167
f 107//168 106//168 99//168
f 116//169 107//169 108//169
f 117//170 108//170 109//170
f 111//172 118//172 110//172
f 112//173 119//173 111//173
f 121//174 112//174 113//174
f 122//175 113//175 114//175
f 115//176 114//176 107//176
f 121//177 119//177 120//177
f 119//178 117//178 118//178
f 117//179 115//179 116//179
f 122//180 119//180 121//180
f 117//181 122//181 115//181
f 136//191 127//191 128//191
f 130//193 137//193 129//193
f 136//64 143//64 135//64
f 146//198 137//198 138//198
f 144//203 150//203 143//203
f 147//205 145//205 146//205
f 159//136 157//136 158//136
f 157//209 155//209 156//209
f 155//210 153//210 154//210
f 160//211 157//211 159//211
f 155//134 160//134 153//134
f 154//212 161//212 162//212
f 155//213 162//213 163//213
f 156//215 165//215 157//215
f 157//216 166//216 158//216
f 158//217 167//217 159//217
f 159//84 168//84 160//84
f 160//218 161//218 153//218
f 162//219 169//219 170//219
f 163//220 170//220 171//220
f 164//222 173//222 165//222
f 165//223 174//223 166//223
f 166//224 175//224 167//224
f 167//225 176//225 168//225
f 161//226 176//226 169//226
f 169//227 178//227 170//227
f 171//228 178//228 179//228
f 173//230 180//230 181//230
f 173//98 182//98 174//98
f 174//231 183//231 175//231
f 175//232 184//232 176//232
f 169//233 184//233 177//233
f 177//234 186//234 178//234
f 178//235 187//235 179//235
f 181//237 188//237 189//237
f 182//238 189//238 190//238
f 183//239 190//239 191//239
f 184//240 191//240 192//240
f 177//241 192//241 185//241
f 185//242 194//242 186//242
f 186//243 195//243 187//243
f 189//245 196//245 197//245
f 190//246 197//246 198//246
f 191//247 198//247 199//247
f 192//248 199//248 200//248
f 185//249 200//249 193//249
f 196//250 198//250 197//250
f 196//251 199//251 198//251
f 194//252 196//252 195//252
f 200//253 194//253 193//253
f 196//254 200//254 199//254
f 203//255 201//255 202//255
f 201//256 205//256 206//256
f 205//257 203//257 204//257
f 201//258 208//258 202//258
f 202//259 209//259 203//259
f 203//260 210//260 204//260
f 204//261 211//261 205//261
f 206//262 211//262 212//262
f 201//263 212//263 207//263
f 217//264 213//264 218//264
f 213//265 215//265 214//265
f 215//266 217//266 216//266
f 220//267 213//267 214//267
f 221//268 214//268 215//268
f 216//269 221//269 215//269
f 217//270 222//270 216//270
f 218//271 223//271 217//271
f 219//272 218//272 213//272
usemtl BLACK
f 86//12 85//12 77//12
f 94//20 93//20 85//20
f 94//28 102//28 101//28
f 102//36 110//36 109//36
f 110//44 118//44 117//44
f 156//80 155//80 163//80
f 164//88 163//88 171//88
f 171//96 179//96 180//96
f 179//104 187//104 188//104
f 187//112 195//112 196//112
f 86//140 77//140 78//140
f 94//148 85//148 86//148
f 94//156 101//156 93//156
f 102//163 109//163 101//163
f 110//171 117//171 109//171
f 156//214 163//214 164//214
f 164//221 171//221 172//221
f 171//229 180//229 172//229
f 179//236 188//236 180//236
f 187//244 196//244 188//244
usemtl ORANGE
f 124//51 128//51 126//51
f 128//182 130//182 129//182
f 130//183 124//183 123//183
f 124//184 126//184 125//184
f 126//185 128//185 127//185
f 128//186 124//186 130//186
usemtl GREY
f 132//52 131//52 123//52
f 133//53 132//53 124//53
f 126//54 134//54 133//54
f 127//55 135//55 134//55
f 137//57 136//57 128//57
f 123//59 131//59 138//59
f 132//60 140//60 139//60
f 133//61 141//61 140//61
f 134//62 142//62 141//62
f 143//63 142//63 134//63
f 145//65 144//65 136//65
f 131//67 139//67 146//67
f 140//68 148//68 147//68
f 141//69 149//69 148//69
f 150//70 149//70 141//70
f 150//71 142//71 143//71
f 145//73 152//73 151//73
f 147//75 146//75 139//75
f 147//76 149//76 151//76
f 132//187 123//187 124//187
f 133//188 124//188 125//188
f 126//189 133//189 125//189
f 127//190 134//190 126//190
f 137//192 128//192 129//192
f 123//194 138//194 130//194
f 132//195 139//195 131//195
f 133//61 140//61 132//61
f 134//196 141//196 133//196
f 143//197 134//197 135//197
f 145//65 136//65 137//65
f 131//199 146//199 138//199
f 140//200 147//200 139//200
f 141//201 148//201 140//201
f 150//202 141//202 142//202
f 145//204 151//204 144//204
f 149//206 147//206 148//206
f 147//207 151//207 152//207
f 151//208 149//208 150//208
o talojota
v -115.496094 -117.621094 16.949219
v -82.191406 -117.621094 16.949219
v -82.191406 -106.925781 16.949219
v -115.496094 -106.925781 16.949219
v -115.496094 -117.621094 0.089844
v -82.191406 -117.621094 0.089844
v -82.191406 -106.925781 0.089844
v -115.496094 -106.925781 0.089844
vn -0.0000 -0.0000 1.0000
vn -0.0000 -1.0000 -0.0000
vn 1.0000 -0.0000 -0.0000
vn -0.0000 1.0000 -0.0000
vn -1.0000 -0.0000 -0.0000
vn -0.0000 -0.0000 -1.0000
s 0
usemtl DEFAULT
f 226//273 228//273 225//273
f 229//274 226//274 225//274
f 230//275 227//275 226//275
f 231//276 228//276 227//276
f 232//277 225//277 228//277
f 232//278 230//278 229//278
f 226//273 227//273 228//273
f 229//274 230//274 226//274
f 230//275 231//275 227//275
f 231//276 232//276 228//276
f 232//277 229//277 225//277
f 232//278 231//278 230//278
