# Blender 3.6.5
# www.blender.org
mtllib U2E_anim96.mtl
o CameraBox
v -97.362885 -132.771957 5.101587
v -97.531654 -132.878983 5.109201
v -97.360229 -132.761932 5.301309
v -97.528999 -132.868973 5.308923
v -97.255608 -132.940598 5.108625
v -97.424377 -133.047638 5.116240
v -97.252953 -132.930588 5.308347
v -97.421722 -133.037613 5.315961
vn -0.5364 0.8432 -0.0352
vn 0.0133 0.0501 0.9987
vn 0.5364 -0.8432 0.0352
vn -0.0133 -0.0501 -0.9987
vn 0.8439 0.5352 -0.0381
vn -0.8439 -0.5352 0.0381
s 0
usemtl None
f 2//1 3//1 1//1
f 8//3 5//3 7//3
f 6//4 1//4 5//4
f 4//6 6//6 8//6
f 2//1 4//1 3//1
f 8//3 6//3 5//3
f 6//4 2//4 1//4
f 4//6 2//6 6//6
usemtl UpDir
f 4//2 7//2 3//2
f 4//2 8//2 7//2
usemtl LookingDir
f 7//5 1//5 3//5
f 7//5 5//5 1//5
o _L_pohja
v -74.218750 -58.593750 0.128906
v -54.687500 -58.593750 0.128906
v -54.687500 -105.468750 0.128906
v -31.250000 -105.468750 0.128906
v -31.250000 -125.000000 0.128906
v -74.218750 -125.000000 0.128906
vn -0.0000 -0.0000 1.0000
s 0
usemtl WHITE#NEON
f 13//7 11//7 14//7
f 9//7 11//7 10//7
f 13//7 12//7 11//7
f 9//7 14//7 11//7
o _laatta01
v -97.656250 -7.812500 0.128906
v -97.656250 11.718750 0.128906
v -54.687500 11.718750 0.128906
v -54.687500 -7.812500 0.128906
v -50.781250 11.718750 0.128906
v 39.062500 11.718750 0.128906
v 39.062500 -7.812500 0.128906
v -50.781250 -7.812500 0.128906
v -101.562500 11.718750 0.128906
v -101.562500 -31.250000 0.128906
v -117.187500 -31.250000 0.128906
v -117.187500 11.718750 0.128906
v -117.187500 -82.031250 0.128906
v -101.562500 -82.031250 0.128906
v -101.562500 -105.468750 0.128906
v -78.125000 -105.468750 0.128906
v -78.125000 -125.000000 0.128906
v -117.187500 -125.000000 0.128906
vn -0.0000 -0.0000 1.0000
s 0
usemtl WHITE#NEON
f 18//8 16//8 15//8
f 22//8 20//8 19//8
f 26//8 24//8 23//8
f 31//8 29//8 32//8
f 27//8 29//8 28//8
f 18//8 17//8 16//8
f 22//8 21//8 20//8
f 26//8 25//8 24//8
f 31//8 30//8 29//8
f 27//8 32//8 29//8
o s01
v -82.276413 -124.505539 4.714345
v -82.226227 -124.554016 4.809361
v -82.195221 -124.587463 4.955217
v -82.201721 -124.586075 5.104485
v -82.234726 -124.550278 5.261171
v -82.286240 -124.500237 5.366541
v -82.249725 -124.534149 5.111625
v -82.246094 -124.538193 4.962358
v -82.545090 -124.963562 4.621836
v -82.455048 -125.055145 4.733166
v -82.394974 -125.120010 4.914823
v -82.398880 -125.115662 5.103381
v -82.467148 -125.053162 5.298923
v -82.561462 -124.956810 5.431159
v -82.495239 -125.022911 5.113815
v -82.488480 -125.024597 4.925256
v -82.996429 -125.725006 4.459757
v -82.898697 -125.824860 4.618356
v -82.836334 -125.892151 4.858990
v -82.843521 -125.889961 5.110415
v -82.912018 -125.821449 5.368781
v -83.017471 -125.718773 5.544119
v -82.942352 -125.788803 5.120768
v -82.935165 -125.790977 4.869343
v -83.422455 -126.150925 4.456344
v -83.327576 -126.253464 4.611015
v -83.265045 -126.315186 4.855536
v -83.269562 -126.315880 5.107002
v -83.340698 -126.244514 5.361400
v -83.443481 -126.144691 5.540706
v -83.368393 -126.214722 5.117355
v -83.366745 -126.216675 4.865891
v -83.951859 -126.361298 4.537024
v -83.861969 -126.452690 4.671930
v -83.802094 -126.517311 4.885020
v -83.809097 -126.515373 5.105012
v -83.874680 -126.450005 5.328056
v -83.969131 -126.353470 5.483867
v -83.902557 -126.419998 5.111516
v -83.895615 -126.421906 4.895452
v -84.272766 -126.486298 4.583045
v -84.222794 -126.534492 4.713422
v -84.192139 -126.567543 4.910357
v -84.198944 -126.565788 5.106774
v -84.235123 -126.532272 5.310612
v -84.286865 -126.481964 5.451344
v -84.249817 -126.516518 5.113916
v -84.242981 -126.518295 4.913569
v -84.364899 -125.839287 4.974289
v -84.466003 -125.735695 4.925665
v -84.671875 -125.530258 4.946293
v -84.776627 -125.428398 5.015545
v -84.777374 -125.427505 5.129489
v -84.676239 -125.531128 5.174184
v -84.470367 -125.736572 5.153556
v -84.368500 -125.841080 5.084306
v -83.893372 -125.917572 4.891544
v -84.130463 -125.678406 4.801678
v -84.606171 -125.198311 4.849834
v -84.847412 -124.954491 4.987816
v -84.851791 -124.955368 5.215707
v -84.614685 -125.194534 5.305573
v -84.138977 -125.674667 5.253489
v -83.894852 -125.915833 5.115504
v -83.594025 -125.619492 4.891190
v -83.831146 -125.380302 4.805253
v -84.306839 -124.900200 4.853409
v -84.545425 -124.659271 4.991432
v -84.552460 -124.657257 5.219283
v -84.315353 -124.896423 5.309149
v -83.839645 -125.376572 5.257064
v -83.598389 -125.620377 5.119081
v -83.098267 -124.721901 4.973912
v -83.236938 -124.583412 4.936559
v -83.509659 -124.311409 4.964089
v -83.643478 -124.172325 5.032860
v -83.510406 -124.310524 5.078033
v -83.237686 -124.582527 5.050503
v -83.420349 -123.354301 4.831485
v -83.468979 -123.301613 4.936853
v -83.507507 -123.265587 5.093501
v -83.511353 -123.267075 5.242809
v -83.480362 -123.300522 5.388665
v -83.430161 -123.348999 5.483681
v -83.460495 -123.316345 5.235667
v -83.459503 -123.317513 5.086361
v -83.875977 -123.621552 4.755912
v -83.975845 -123.524940 4.892038
v -84.041260 -123.459801 5.087578
v -84.042480 -123.458359 5.272247
v -83.985062 -123.520348 5.453865
v -83.892380 -123.614769 5.569164
v -83.948990 -123.553734 5.265744
v -83.947754 -123.555206 5.077146
v -84.642914 -124.070328 4.632553
v -84.745483 -123.964996 4.807889
v -84.816864 -123.899139 5.066257
v -84.821136 -123.894333 5.313752
v -84.758820 -123.961594 5.558315
v -84.661072 -124.061478 5.712985
v -84.722305 -123.995499 5.303399
v -84.715164 -123.997650 5.055902
v -85.071594 -124.493362 4.629101
v -85.171509 -124.390915 4.804476
v -85.245544 -124.322182 5.062805
v -85.247162 -124.320251 5.310339
v -85.187515 -124.384628 5.554862
v -85.089767 -124.484512 5.709532
v -85.148331 -124.421417 5.299986
v -85.146713 -124.423347 5.052452
v -85.282791 -125.019249 4.675030
v -85.382767 -124.922485 4.830802
v -85.448380 -124.857132 5.053846
v -85.452698 -124.858070 5.273878
v -85.395493 -124.919815 5.486928
v -85.302917 -125.014084 5.621873
v -85.359177 -124.953476 5.263446
v -85.354858 -124.952538 5.043413
v -85.416718 -125.335022 4.704114
v -85.465546 -125.282089 4.840915
v -85.504395 -125.245705 5.044712
v -85.508575 -125.246796 5.245099
v -85.477905 -125.279839 5.442034
v -85.430801 -125.330727 5.568484
v -85.457718 -125.296066 5.237957
v -85.453735 -125.300507 5.037612
v -83.632217 -125.658730 4.993412
v -83.672409 -125.701660 4.962047
v -83.862061 -125.888084 4.930815
v -83.879868 -125.909081 4.989804
v -83.862656 -125.887383 5.021185
v -83.672821 -125.701172 5.024912
v -83.179077 -125.987709 5.014664
v -83.233200 -126.038605 4.951832
v -83.466125 -126.276146 4.889279
v -83.495605 -126.301735 5.011099
v -83.469986 -126.271828 5.073908
v -83.234024 -126.037628 5.077564
v -84.586273 -124.695618 5.093614
v -84.629135 -124.735664 5.062208
v -84.816116 -124.924973 5.031017
v -84.839478 -124.945740 5.089968
v -84.816711 -124.924271 5.121387
v -84.629517 -124.735199 5.121145
v -84.913727 -124.243408 5.194044
v -84.964996 -124.291626 5.135140
v -85.197906 -124.529205 5.068657
v -85.227386 -124.554794 5.190478
v -85.204636 -124.527542 5.253288
v -84.968674 -124.293335 5.256945
vn 0.7058 0.7082 0.0183
vn 0.6748 -0.2001 -0.7104
vn 0.8701 -0.2965 -0.3936
vn 0.9353 -0.3529 0.0275
vn 0.8579 -0.3202 0.4019
vn 0.6834 -0.2648 0.6803
vn -0.8610 0.4313 -0.2695
vn -0.8933 0.4479 -0.0361
vn -0.8563 0.4516 0.2506
vn 0.7076 -0.3134 -0.6333
vn 0.8270 -0.4481 -0.3396
vn 0.8669 -0.4976 0.0291
vn 0.8168 -0.4660 0.3401
vn 0.6993 -0.3481 0.6244
vn -0.8498 0.4746 -0.2293
vn -0.8627 0.5049 -0.0290
vn -0.8606 0.4667 0.2038
vn 0.5306 -0.5194 -0.6698
vn 0.6681 -0.6628 -0.3382
vn 0.7069 -0.7072 0.0107
vn 0.6559 -0.6590 0.3682
vn 0.5498 -0.5550 0.6242
vn -0.6862 0.6882 -0.2356
vn -0.7069 0.7072 -0.0101
vn -0.6881 0.6959 0.2053
vn 0.1989 -0.7447 -0.6370
vn 0.2915 -0.8896 -0.3517
vn 0.3467 -0.9378 0.0193
vn 0.3171 -0.8809 0.3514
vn 0.2344 -0.7564 0.6107
vn -0.3388 0.9139 -0.2238
vn -0.3585 0.9333 -0.0198
vn -0.3436 0.9156 0.2088
vn 0.2752 -0.8627 -0.4244
vn 0.1960 -0.9617 -0.1919
vn 0.1283 -0.9916 0.0133
vn 0.2093 -0.9583 0.1947
vn 0.3035 -0.8564 0.4177
vn -0.3597 0.9234 -0.1340
vn -0.2679 0.9633 -0.0177
vn -0.2600 0.9586 0.1163
vn -0.6961 -0.7179 -0.0115
vn -0.7051 -0.7090 -0.0129
vn -0.2314 -0.5348 -0.8127
vn -0.3069 -0.2110 -0.9281
vn -0.5911 -0.1348 -0.7953
vn -0.9882 -0.1522 -0.0195
vn -0.5411 -0.2328 0.8080
vn -0.2213 -0.3192 0.9215
vn -0.1464 -0.5987 0.7875
vn -0.1627 -0.9867 0.0066
vn 0.1803 -0.1694 -0.9689
vn -0.0442 0.0563 -0.9974
vn -0.2579 0.2752 -0.9262
vn -0.6986 0.7150 -0.0278
vn -0.1877 0.1769 0.9662
vn 0.0482 -0.0604 0.9970
vn 0.2578 -0.2700 0.9277
vn 0.7056 -0.7086 0.0108
vn 0.2413 -0.0201 -0.9702
vn 0.0364 0.1367 -0.9899
vn -0.1233 0.3420 -0.9316
vn -0.4742 0.8802 -0.0224
vn 0.0272 0.3342 0.9421
vn 0.2000 0.1019 0.9745
vn 0.4169 -0.0805 0.9054
vn 0.8747 -0.4845 0.0149
vn 0.7064 0.7079 -0.0009
vn 0.7352 0.6778 0.0126
vn -0.3555 0.7600 -0.5441
vn -0.3637 0.8843 -0.2928
vn -0.3419 0.9397 0.0006
vn -0.2927 0.8729 0.3904
vn -0.2009 0.6725 0.7123
vn 0.4459 -0.8578 -0.2557
vn 0.4375 -0.8991 0.0099
vn 0.4170 -0.8672 0.2723
vn -0.2831 0.6719 -0.6845
vn -0.4185 0.8104 -0.4100
vn -0.4926 0.8702 -0.0100
vn -0.4453 0.8278 0.3411
vn -0.3103 0.6971 0.6463
vn 0.4621 -0.8621 -0.2080
vn 0.4967 -0.8676 0.0219
vn 0.4739 -0.8354 0.2784
vn -0.5416 0.5540 -0.6322
vn -0.6605 0.6635 -0.3516
vn -0.7023 0.7118 -0.0101
vn -0.6635 0.6608 0.3508
vn -0.5239 0.5254 0.6704
vn 0.6882 -0.6958 -0.2056
vn 0.7069 -0.7072 0.0101
vn 0.6816 -0.6929 0.2353
vn -0.7408 0.2428 -0.6263
vn -0.8750 0.3302 -0.3541
vn -0.9348 0.3547 -0.0168
vn -0.8967 0.3221 0.3036
vn -0.7565 0.2156 0.6174
vn 0.9220 -0.3406 -0.1843
vn 0.9294 -0.3689 0.0090
vn 0.9064 -0.3603 0.2204
vn -0.8464 0.3197 -0.4259
vn -0.9521 0.2130 -0.2195
vn -0.9895 0.1431 -0.0199
vn -0.9505 0.1153 0.2886
vn -0.7850 0.1036 0.6107
vn 0.9196 -0.3374 -0.2014
vn 0.9605 -0.2776 0.0176
vn 0.9347 -0.2694 0.2317
vn -0.7357 -0.6771 -0.0192
vn -0.7049 0.7092 -0.0101
vn 0.4046 0.5082 -0.7603
vn 0.1002 0.1604 -0.9820
vn -0.6828 -0.6640 -0.3048
vn -0.6207 -0.5788 0.5288
vn -0.0766 0.0582 0.9954
vn 0.2263 0.4317 0.8732
vn 0.7049 -0.7092 0.0101
vn 0.4281 0.4801 -0.7657
vn 0.0649 0.2094 -0.9757
vn -0.7140 -0.6300 -0.3053
vn -0.5351 -0.6868 0.4919
vn 0.1596 -0.1760 0.9714
vn 0.6223 0.2497 0.7419
vn 0.6626 0.7483 -0.0315
vn 0.7353 0.6775 0.0152
vn 0.6813 0.7316 0.0229
vn 0.6820 0.7313 0.0129
vn 0.7343 0.6788 -0.0005
vn 0.7555 -0.3287 -0.5668
vn 0.8901 -0.3649 -0.2729
vn 0.9362 -0.3486 0.0441
vn 0.8807 -0.3865 0.2738
vn 0.7501 -0.3750 0.5447
vn -0.8528 0.4876 -0.1870
vn -0.8931 0.4485 -0.0339
vn -0.8877 0.4298 0.1652
vn 0.6530 -0.2337 -0.7204
vn 0.8138 -0.4072 -0.4145
vn 0.8669 -0.4976 0.0294
vn 0.8026 -0.4268 0.4167
vn 0.6632 -0.2949 0.6879
vn -0.8316 0.4830 -0.2741
vn -0.8632 0.5036 -0.0355
vn -0.8438 0.4734 0.2527
vn 0.5332 -0.5280 -0.6610
vn 0.6578 -0.6637 -0.3560
vn 0.7020 -0.7117 0.0262
vn 0.6547 -0.6695 0.3511
vn 0.5325 -0.5508 0.6428
vn -0.7019 0.7118 -0.0262
vn -0.6914 0.6899 0.2145
vn 0.2087 -0.7513 -0.6261
vn 0.3202 -0.8959 -0.3080
vn 0.3524 -0.9358 0.0037
vn 0.3252 -0.8829 0.3386
vn 0.2609 -0.7721 0.5795
vn -0.3485 0.9128 -0.2128
vn -0.3622 0.9320 -0.0096
vn -0.3366 0.9215 0.1937
vn 0.1089 -0.7878 -0.6062
vn 0.1011 -0.9438 -0.3146
vn 0.1285 -0.9916 0.0128
vn 0.1232 -0.9420 0.3123
vn 0.1533 -0.7957 0.5859
vn -0.2629 0.9406 -0.2150
vn -0.2682 0.9632 -0.0171
vn -0.3291 0.9212 0.2074
vn -0.7033 -0.7109 -0.0044
vn -0.7365 -0.6761 -0.0195
vn -0.6637 -0.7477 -0.0221
vn -0.6330 -0.7740 -0.0147
vn -0.6959 -0.7181 -0.0068
vn -0.7043 -0.7091 0.0340
vn -0.7070 -0.7063 -0.0346
vn -0.7076 -0.7058 -0.0323
vn -0.7158 -0.6983 0.0007
vn -0.7133 -0.7004 -0.0268
vn -0.1981 -0.5682 -0.7987
vn -0.3029 -0.2102 -0.9296
vn -0.6171 -0.1045 -0.7799
vn -0.9890 -0.1480 -0.0053
vn -0.5658 -0.2080 0.7979
vn -0.2200 -0.3133 0.9238
vn -0.1161 -0.6248 0.7721
vn -0.1545 -0.9878 -0.0212
vn 0.1813 -0.1833 -0.9662
vn -0.2578 0.2700 -0.9277
vn -0.7056 0.7086 -0.0108
vn 0.2578 -0.2699 0.9277
vn 0.7058 -0.7083 0.0101
vn 0.2801 -0.0664 -0.9577
vn 0.0368 0.1357 -0.9901
vn -0.1572 0.3691 -0.9160
vn 0.0028 0.3542 0.9352
vn 0.2070 0.0995 0.9733
vn 0.4240 -0.0904 0.9011
vn 0.7063 0.7079 0.0022
vn 0.7060 0.7082 -0.0034
vn 0.7204 0.6936 -0.0007
vn 0.6769 0.7357 0.0248
vn 0.7805 0.6233 0.0486
vn 0.6133 0.7899 -0.0021
vn -0.2468 0.6956 -0.6747
vn -0.3107 0.8658 -0.3924
vn -0.3393 0.9406 -0.0095
vn -0.3528 0.8929 0.2797
vn -0.3318 0.7578 0.5619
vn 0.4224 -0.8906 -0.1689
vn 0.4716 -0.8596 0.1966
vn -0.3364 0.7073 -0.6217
vn -0.4572 0.8234 -0.3362
vn -0.4894 0.8717 -0.0254
vn -0.4101 0.8157 0.4080
vn -0.2407 0.6471 0.7234
vn 0.4698 -0.8444 -0.2575
vn 0.4993 -0.8664 0.0100
vn 0.4646 -0.8561 0.2263
vn -0.5392 0.5445 -0.6425
vn -0.6528 0.6645 -0.3639
vn -0.7067 0.7071 -0.0260
vn -0.6625 0.6686 0.3377
vn 0.6914 -0.6899 -0.2145
vn 0.7019 -0.7118 0.0265
vn 0.6817 -0.6927 0.2355
vn -0.7590 0.2723 -0.5915
vn -0.8770 0.3382 -0.3413
vn -0.9339 0.3575 -0.0089
vn -0.8937 0.3056 0.3285
vn -0.7416 0.1921 0.6428
vn 0.9151 -0.3487 -0.2026
vn 0.9304 -0.3662 0.0167
vn 0.9079 -0.3436 0.2399
vn -0.7812 0.1629 -0.6026
vn -0.9375 0.1426 -0.3175
vn -0.9895 0.1437 -0.0188
vn -0.9630 0.1976 0.1831
vn -0.8597 0.2745 0.4308
vn 0.9577 -0.2675 -0.1061
vn 0.9615 -0.2736 0.0252
vn 0.9161 -0.3756 0.1406
vn -0.7343 -0.6788 0.0005
vn -0.6970 -0.7168 -0.0184
vn -0.7351 -0.6777 -0.0191
vn -0.7551 -0.6554 -0.0160
vn -0.6956 -0.7184 0.0021
vn -0.6892 0.7177 -0.0992
vn -0.6997 0.7121 0.0576
vn -0.7761 0.6305 -0.0100
vn 0.2754 0.3857 -0.8806
vn 0.0294 0.1360 -0.9903
vn -0.6364 -0.6457 -0.4220
vn -0.5716 -0.4939 0.6552
vn -0.0741 0.0591 0.9955
vn 0.3632 0.5489 0.7529
vn 0.7068 -0.6997 0.1040
vn 0.7160 -0.6916 -0.0952
vn 0.6788 -0.7343 0.0102
vn 0.2986 0.3703 -0.8796
vn 0.0354 0.1284 -0.9911
vn -0.6577 -0.5899 -0.4683
vn -0.4104 -0.5867 0.6981
vn 0.1650 -0.1621 0.9729
vn 0.4472 0.1272 0.8853
s 0
usemtl LIGHT_BLUE
f 40//9 36//9 34//9
f 34//10 42//10 41//10
f 35//11 43//11 42//11
f 45//13 44//13 36//13
f 46//14 45//14 37//14
f 39//15 47//15 46//15
f 40//16 48//16 47//16
f 33//17 41//17 48//17
f 42//18 50//18 49//18
f 43//19 51//19 50//19
f 53//21 52//21 44//21
f 54//22 53//22 45//22
f 55//23 54//23 46//23
f 48//24 56//24 55//24
f 41//25 49//25 56//25
f 50//26 58//26 57//26
f 59//27 58//27 50//27
f 61//29 60//29 52//29
f 54//30 62//30 61//30
f 63//31 62//31 54//31
f 64//32 63//32 55//32
f 57//33 64//33 56//33
f 66//34 65//34 57//34
f 67//35 66//35 58//35
f 61//37 69//37 68//37
f 62//38 70//38 69//38
f 71//39 70//39 62//39
f 72//40 71//40 63//40
f 65//41 72//41 64//41
f 74//42 73//42 65//42
f 75//43 74//43 66//43
f 69//45 77//45 76//45
f 70//46 78//46 77//46
f 79//47 78//47 70//47
f 80//48 79//48 71//48
f 73//49 80//49 72//49
f 77//50 80//50 75//50
f 94//56 93//56 85//56
f 88//58 96//58 95//58
f 94//64 102//64 101//64
f 104//66 103//66 95//66
f 102//72 109//72 108//72
f 105//74 110//74 103//74
f 115//77 118//77 113//77
f 112//78 111//78 119//78
f 113//79 112//79 120//79
f 114//81 122//81 123//81
f 115//82 123//82 124//82
f 116//83 124//83 125//83
f 117//84 125//84 126//84
f 118//85 126//85 119//85
f 120//86 119//86 127//86
f 121//87 120//87 128//87
f 122//89 130//89 131//89
f 123//90 131//90 132//90
f 124//91 132//91 133//91
f 125//92 133//92 134//92
f 119//93 126//93 134//93
f 127//94 135//94 136//94
f 129//95 128//95 136//95
f 131//97 130//97 138//97
f 131//98 139//98 140//98
f 132//99 140//99 141//99
f 133//100 141//100 142//100
f 127//101 134//101 142//101
f 135//102 143//102 144//102
f 136//103 144//103 145//103
f 139//105 138//105 146//105
f 140//106 139//106 147//106
f 141//107 140//107 148//107
f 142//108 141//108 149//108
f 135//109 142//109 150//109
f 143//110 151//110 152//110
f 144//111 152//111 153//111
f 147//113 146//113 154//113
f 148//114 147//114 155//114
f 149//115 148//115 156//115
f 150//116 149//116 157//116
f 143//117 150//117 158//117
f 158//118 154//118 152//118
f 159//119 161//119 163//119
f 159//120 165//120 166//120
f 160//121 166//121 167//121
f 161//122 167//122 168//122
f 162//123 168//123 169//123
f 164//124 163//124 169//124
f 159//125 164//125 170//125
f 171//126 175//126 173//126
f 178//127 177//127 171//127
f 179//128 178//128 172//128
f 174//129 180//129 179//129
f 175//130 181//130 180//130
f 176//131 182//131 181//131
f 177//132 182//132 176//132
f 36//133 38//133 37//133
f 36//134 39//134 38//134
f 34//135 36//135 35//135
f 40//136 34//136 33//136
f 36//137 40//137 39//137
f 34//138 41//138 33//138
f 35//139 42//139 34//139
f 45//141 36//141 37//141
f 46//142 37//142 38//142
f 39//143 46//143 38//143
f 40//144 47//144 39//144
f 33//145 48//145 40//145
f 42//146 49//146 41//146
f 43//147 50//147 42//147
f 53//149 44//149 45//149
f 54//150 45//150 46//150
f 55//151 46//151 47//151
f 48//152 55//152 47//152
f 41//153 56//153 48//153
f 50//154 57//154 49//154
f 59//155 50//155 51//155
f 61//157 52//157 53//157
f 54//158 61//158 53//158
f 63//31 54//31 55//31
f 64//159 55//159 56//159
f 57//160 56//160 49//160
f 66//161 57//161 58//161
f 67//162 58//162 59//162
f 61//164 68//164 60//164
f 62//165 69//165 61//165
f 71//166 62//166 63//166
f 72//167 63//167 64//167
f 65//168 64//168 57//168
f 74//169 65//169 66//169
f 75//170 66//170 67//170
f 69//172 76//172 68//172
f 70//173 77//173 69//173
f 79//174 70//174 71//174
f 80//175 71//175 72//175
f 73//176 72//176 65//176
f 79//177 77//177 78//177
f 77//178 75//178 76//178
f 75//179 73//179 74//179
f 80//180 77//180 79//180
f 75//181 80//181 73//181
f 94//191 85//191 86//191
f 88//193 95//193 87//193
f 94//64 101//64 93//64
f 104//198 95//198 96//198
f 102//203 108//203 101//203
f 105//205 103//205 104//205
f 117//136 115//136 116//136
f 115//209 113//209 114//209
f 113//210 111//210 112//210
f 118//211 115//211 117//211
f 113//134 118//134 111//134
f 112//212 119//212 120//212
f 113//213 120//213 121//213
f 114//215 123//215 115//215
f 115//216 124//216 116//216
f 116//217 125//217 117//217
f 117//84 126//84 118//84
f 118//218 119//218 111//218
f 120//219 127//219 128//219
f 121//220 128//220 129//220
f 122//222 131//222 123//222
f 123//223 132//223 124//223
f 124//224 133//224 125//224
f 125//225 134//225 126//225
f 119//226 134//226 127//226
f 127//227 136//227 128//227
f 129//228 136//228 137//228
f 131//230 138//230 139//230
f 131//98 140//98 132//98
f 132//231 141//231 133//231
f 133//232 142//232 134//232
f 127//233 142//233 135//233
f 135//234 144//234 136//234
f 136//235 145//235 137//235
f 139//237 146//237 147//237
f 140//238 147//238 148//238
f 141//239 148//239 149//239
f 142//240 149//240 150//240
f 135//241 150//241 143//241
f 143//242 152//242 144//242
f 144//243 153//243 145//243
f 147//245 154//245 155//245
f 148//246 155//246 156//246
f 149//247 156//247 157//247
f 150//248 157//248 158//248
f 143//249 158//249 151//249
f 154//250 156//250 155//250
f 154//251 157//251 156//251
f 152//252 154//252 153//252
f 158//253 152//253 151//253
f 154//254 158//254 157//254
f 161//255 159//255 160//255
f 159//256 163//256 164//256
f 163//257 161//257 162//257
f 159//258 166//258 160//258
f 160//259 167//259 161//259
f 161//260 168//260 162//260
f 162//261 169//261 163//261
f 164//262 169//262 170//262
f 159//263 170//263 165//263
f 175//264 171//264 176//264
f 171//265 173//265 172//265
f 173//266 175//266 174//266
f 178//267 171//267 172//267
f 179//268 172//268 173//268
f 174//269 179//269 173//269
f 175//270 180//270 174//270
f 176//271 181//271 175//271
f 177//272 176//272 171//272
usemtl BLACK
f 44//12 43//12 35//12
f 52//20 51//20 43//20
f 52//28 60//28 59//28
f 60//36 68//36 67//36
f 68//44 76//44 75//44
f 114//80 113//80 121//80
f 122//88 121//88 129//88
f 129//96 137//96 138//96
f 137//104 145//104 146//104
f 145//112 153//112 154//112
f 44//140 35//140 36//140
f 52//148 43//148 44//148
f 52//156 59//156 51//156
f 60//163 67//163 59//163
f 68//171 75//171 67//171
f 114//214 121//214 122//214
f 122//221 129//221 130//221
f 129//229 138//229 130//229
f 137//236 146//236 138//236
f 145//244 154//244 146//244
usemtl ORANGE
f 82//51 86//51 84//51
f 86//182 88//182 87//182
f 88//183 82//183 81//183
f 82//184 84//184 83//184
f 84//185 86//185 85//185
f 86//186 82//186 88//186
usemtl GREY
f 90//52 89//52 81//52
f 91//53 90//53 82//53
f 84//54 92//54 91//54
f 85//55 93//55 92//55
f 95//57 94//57 86//57
f 81//59 89//59 96//59
f 90//60 98//60 97//60
f 91//61 99//61 98//61
f 92//62 100//62 99//62
f 101//63 100//63 92//63
f 103//65 102//65 94//65
f 89//67 97//67 104//67
f 98//68 106//68 105//68
f 99//69 107//69 106//69
f 108//70 107//70 99//70
f 108//71 100//71 101//71
f 103//73 110//73 109//73
f 105//75 104//75 97//75
f 105//76 107//76 109//76
f 90//187 81//187 82//187
f 91//188 82//188 83//188
f 84//189 91//189 83//189
f 85//190 92//190 84//190
f 95//192 86//192 87//192
f 81//194 96//194 88//194
f 90//195 97//195 89//195
f 91//61 98//61 90//61
f 92//196 99//196 91//196
f 101//197 92//197 93//197
f 103//65 94//65 95//65
f 89//199 104//199 96//199
f 98//200 105//200 97//200
f 99//201 106//201 98//201
f 108//202 99//202 100//202
f 103//204 109//204 102//204
f 107//206 105//206 106//206
f 105//207 109//207 110//207
f 109//208 107//208 108//208
o sivutalo
v -55.019531 -109.093750 17.003906
v -33.535156 -109.093750 17.003906
v -33.535156 -120.812500 17.003906
v -55.019531 -120.812500 17.003906
v -55.019531 -109.093750 0.113281
v -33.535156 -109.093750 0.113281
v -33.535156 -120.812500 0.113281
v -55.019531 -120.812500 0.113281
vn -0.0000 -0.0000 1.0000
vn -0.0000 1.0000 -0.0000
vn 1.0000 -0.0000 -0.0000
vn -0.0000 -1.0000 -0.0000
vn -1.0000 -0.0000 -0.0000
vn -0.0000 -0.0000 -1.0000
s 0
usemtl DEFAULT
f 186//273 184//273 183//273
f 184//274 187//274 183//274
f 185//275 188//275 184//275
f 186//276 189//276 185//276
f 183//277 190//277 186//277
f 190//278 188//278 189//278
f 186//273 185//273 184//273
f 184//274 188//274 187//274
f 185//275 189//275 188//275
f 186//276 190//276 189//276
f 183//277 187//277 190//277
f 190//278 187//278 188//278
o talojota
v -115.496094 -117.621094 16.949219
v -82.191406 -117.621094 16.949219
v -82.191406 -106.925781 16.949219
v -115.496094 -106.925781 16.949219
v -115.496094 -117.621094 0.089844
v -82.191406 -117.621094 0.089844
v -82.191406 -106.925781 0.089844
v -115.496094 -106.925781 0.089844
vn -0.0000 -0.0000 1.0000
vn -0.0000 -1.0000 -0.0000
vn 1.0000 -0.0000 -0.0000
vn -0.0000 1.0000 -0.0000
vn -1.0000 -0.0000 -0.0000
vn -0.0000 -0.0000 -1.0000
s 0
usemtl DEFAULT
f 192//279 194//279 191//279
f 195//280 192//280 191//280
f 196//281 193//281 192//281
f 197//282 194//282 193//282
f 198//283 191//283 194//283
f 198//284 196//284 195//284
f 192//279 193//279 194//279
f 195//280 196//280 192//280
f 196//281 197//281 193//281
f 197//282 198//282 194//282
f 198//283 195//283 191//283
f 198//284 197//284 196//284
o tunneli2
v -70.199219 -120.886719 0.125000
v -70.199219 -105.371094 0.125000
v -70.199219 -105.371094 35.449219
v -70.199219 -120.886719 35.449219
v -57.882812 -120.886719 0.125000
v -57.882812 -105.371094 0.125000
v -57.882812 -105.371094 35.449219
v -57.882812 -120.886719 35.449219
vn -1.0000 -0.0000 -0.0000
vn -0.0000 -0.0000 -1.0000
vn -0.0000 1.0000 -0.0000
vn -0.0000 -0.0000 1.0000
vn -0.0000 -1.0000 -0.0000
vn 1.0000 -0.0000 -0.0000
s 0
usemtl DEFAULT
f 202//285 200//285 199//285
f 200//286 203//286 199//286
f 201//287 204//287 200//287
f 202//288 205//288 201//288
f 199//289 206//289 202//289
f 204//290 206//290 203//290
f 202//285 201//285 200//285
f 200//286 204//286 203//286
f 201//287 205//287 204//287
f 202//288 206//288 205//288
f 199//289 203//289 206//289
f 204//290 205//290 206//290
