# Blender 3.6.5
# www.blender.org
mtllib U2E_anim71.mtl
o CameraBox
v -98.888977 -137.348190 5.047662
v -98.951103 -137.538116 5.055860
v -98.893127 -137.338211 5.247361
v -98.955254 -137.528137 5.255558
v -98.698906 -137.410065 5.054702
v -98.761032 -137.599991 5.062900
v -98.703056 -137.400085 5.254401
v -98.765182 -137.590012 5.262599
vn -0.9503 0.3093 -0.0352
vn -0.0207 0.0499 0.9985
vn 0.9503 -0.3093 0.0352
vn 0.0207 -0.0499 -0.9985
vn 0.3106 0.9496 -0.0410
vn -0.3106 -0.9496 0.0410
s 0
usemtl None
f 2//1 3//1 1//1
f 8//3 5//3 7//3
f 6//4 1//4 5//4
f 4//6 6//6 8//6
f 2//1 4//1 3//1
f 8//3 6//3 5//3
f 6//4 2//4 1//4
f 4//6 2//6 6//6
usemtl UpDir
f 4//2 7//2 3//2
f 4//2 8//2 7//2
usemtl LookingDir
f 7//5 1//5 3//5
f 7//5 5//5 1//5
o _laatta01
v -97.656250 -7.812500 0.128906
v -97.656250 11.718750 0.128906
v -54.687500 11.718750 0.128906
v -54.687500 -7.812500 0.128906
v -50.781250 11.718750 0.128906
v 39.062500 11.718750 0.128906
v 39.062500 -7.812500 0.128906
v -50.781250 -7.812500 0.128906
v -101.562500 11.718750 0.128906
v -101.562500 -31.250000 0.128906
v -117.187500 -31.250000 0.128906
v -117.187500 11.718750 0.128906
v -117.187500 -82.031250 0.128906
v -101.562500 -82.031250 0.128906
v -101.562500 -105.468750 0.128906
v -78.125000 -105.468750 0.128906
v -78.125000 -125.000000 0.128906
v -117.187500 -125.000000 0.128906
vn -0.0000 -0.0000 1.0000
s 0
usemtl WHITE#NEON
f 12//7 10//7 9//7
f 16//7 14//7 13//7
f 20//7 18//7 17//7
f 25//7 23//7 26//7
f 21//7 23//7 22//7
f 12//7 11//7 10//7
f 16//7 15//7 14//7
f 20//7 19//7 18//7
f 25//7 24//7 23//7
f 21//7 26//7 23//7
o fcirto01
v -95.593750 -117.921875 11.671875
v -95.593750 -117.921875 9.718750
v -97.546875 -117.921875 9.718750
v -97.546875 -117.921875 11.671875
v -95.593750 -117.921875 7.765625
v -95.593750 -117.921875 5.812500
v -97.546875 -117.921875 5.812500
v -97.546875 -117.921875 7.765625
v -95.593750 -117.921875 3.859375
v -95.593750 -117.921875 1.906250
v -97.546875 -117.921875 1.906250
v -97.546875 -117.921875 3.859375
v -99.500000 -117.921875 7.765625
v -99.500000 -117.921875 5.812500
v -101.453125 -117.921875 5.812500
v -101.453125 -117.921875 7.765625
v -99.500000 -117.921875 3.859375
v -99.500000 -117.921875 1.906250
v -101.453125 -117.921875 1.906250
v -101.453125 -117.921875 3.859375
v -99.500000 -117.921875 11.671875
v -99.500000 -117.921875 9.718750
v -101.453125 -117.921875 9.718750
v -101.453125 -117.921875 11.671875
v -87.519531 -117.921875 11.671875
v -87.519531 -117.921875 9.718750
v -89.472656 -117.921875 9.718750
v -89.472656 -117.921875 11.671875
v -87.519531 -117.921875 7.765625
v -87.519531 -117.921875 5.812500
v -89.472656 -117.921875 5.812500
v -89.472656 -117.921875 7.765625
v -87.519531 -117.921875 3.859375
v -87.519531 -117.921875 1.906250
v -89.472656 -117.921875 1.906250
v -89.472656 -117.921875 3.859375
v -91.425781 -117.921875 7.765625
v -91.425781 -117.921875 5.812500
v -93.378906 -117.921875 5.812500
v -93.378906 -117.921875 7.765625
v -91.425781 -117.921875 3.859375
v -91.425781 -117.921875 1.906250
v -93.378906 -117.921875 1.906250
v -93.378906 -117.921875 3.859375
v -91.425781 -117.921875 11.671875
v -91.425781 -117.921875 9.718750
v -93.378906 -117.921875 9.718750
v -93.378906 -117.921875 11.671875
vn -0.0000 -1.0000 -0.0000
s 0
usemtl C_GROUND
f 30//8 28//8 27//8
f 34//8 32//8 31//8
f 38//8 36//8 35//8
f 42//8 40//8 39//8
f 46//8 44//8 43//8
f 50//8 48//8 47//8
f 54//8 52//8 51//8
f 58//8 56//8 55//8
f 62//8 60//8 59//8
f 66//8 64//8 63//8
f 70//8 68//8 67//8
f 74//8 72//8 71//8
f 30//8 29//8 28//8
f 34//8 33//8 32//8
f 38//8 37//8 36//8
f 42//8 41//8 40//8
f 46//8 45//8 44//8
f 50//8 49//8 48//8
f 54//8 53//8 52//8
f 58//8 57//8 56//8
f 62//8 61//8 60//8
f 66//8 65//8 64//8
f 70//8 69//8 68//8
f 74//8 73//8 72//8
o s01
v -89.757416 -127.741844 4.389949
v -89.729187 -127.805672 4.484961
v -89.713608 -127.848595 4.630795
v -89.720108 -127.845360 4.780034
v -89.738647 -127.800392 4.936737
v -89.768845 -127.735252 5.042107
v -89.745697 -127.779449 4.787203
v -89.742828 -127.784111 4.637938
v -90.175003 -128.068802 4.293752
v -90.125656 -128.187378 4.405053
v -90.094803 -128.270325 4.586669
v -90.098068 -128.265411 4.775225
v -90.139877 -128.182770 4.970746
v -90.193024 -128.058899 5.103007
v -90.153671 -128.143768 4.785659
v -90.146759 -128.147278 4.597129
v -90.873535 -128.610580 4.125517
v -90.820389 -128.739838 4.284082
v -90.788696 -128.826050 4.524672
v -90.796204 -128.822113 4.776067
v -90.836395 -128.733978 5.034440
v -90.897858 -128.600250 5.209780
v -90.850998 -128.691742 4.786451
v -90.843491 -128.695648 4.535056
v -91.426254 -128.850067 4.117800
v -91.376709 -128.980774 4.272409
v -91.342850 -129.061890 4.516916
v -91.348923 -129.061615 4.768349
v -91.390503 -128.969864 5.022756
v -91.450592 -128.839767 5.202063
v -91.403732 -128.931244 4.778733
v -91.401276 -128.932922 4.527274
v -91.996445 -128.851379 4.194774
v -91.947311 -128.969818 4.329649
v -91.916779 -129.052551 4.542697
v -91.923965 -129.048843 4.762660
v -91.962402 -128.964600 4.985710
v -92.015793 -128.840576 5.141546
v -91.975891 -128.925812 4.769192
v -91.968735 -128.929489 4.553159
v -92.341125 -128.849823 4.238560
v -92.313217 -128.913406 4.368932
v -92.298126 -128.955994 4.565844
v -92.305115 -128.952438 4.762232
v -92.327759 -128.908569 4.966057
v -92.358292 -128.843185 5.106789
v -92.334351 -128.887939 4.769375
v -92.327332 -128.891510 4.569058
v -92.191574 -128.215393 4.632671
v -92.247208 -128.081757 4.584082
v -92.363297 -127.815086 4.604749
v -92.423737 -127.682076 4.674004
v -92.424835 -127.681313 4.787947
v -92.369156 -127.814980 4.832607
v -92.253082 -128.081635 4.811941
v -92.196289 -128.216095 4.742659
v -91.781281 -128.461273 4.551860
v -91.913300 -128.151428 4.462054
v -92.179550 -127.530251 4.510327
v -92.315216 -127.215240 4.648368
v -92.321075 -127.215126 4.876227
v -92.189056 -127.524963 4.966033
v -91.922775 -128.146179 4.913830
v -91.783463 -128.459778 4.775815
v -91.393341 -128.294067 4.554524
v -91.525406 -127.984230 4.468648
v -91.791656 -127.363045 4.516921
v -91.925888 -127.051689 4.655000
v -91.933182 -127.047913 4.882821
v -91.801147 -127.357758 4.972626
v -91.534851 -127.978951 4.920424
v -91.399216 -128.293976 4.782383
v -90.602951 -127.641769 4.644324
v -90.680771 -127.461899 4.606998
v -90.834595 -127.108788 4.634580
v -90.908401 -126.930443 4.703403
v -90.835709 -127.108032 4.748522
v -90.681885 -127.461136 4.720941
v -90.398926 -126.251099 4.507353
v -90.425491 -126.184532 4.612749
v -90.449081 -126.137344 4.769388
v -90.454178 -126.137756 4.918666
v -90.438583 -126.180695 5.064499
v -90.410339 -126.244507 5.159511
v -90.424942 -126.202255 4.911522
v -90.423492 -126.203255 4.762218
v -90.920395 -126.331955 4.428148
v -90.978653 -126.205811 4.564275
v -91.016800 -126.121758 4.759822
v -91.018600 -126.120529 4.944487
v -90.989182 -126.199814 5.126064
v -90.938461 -126.322037 5.241333
v -90.966690 -126.243568 4.937955
v -90.964859 -126.244827 4.749361
v -91.797775 -126.467072 4.298683
v -91.855591 -126.331940 4.474049
v -91.899445 -126.245224 4.732396
v -91.903259 -126.239914 4.979888
v -91.871628 -126.326096 5.224407
v -91.818420 -126.455376 5.379043
v -91.848465 -126.370293 4.969503
v -91.840988 -126.374191 4.722038
v -92.351913 -126.702934 4.290927
v -92.408310 -126.571449 4.466331
v -92.453568 -126.481079 4.724641
v -92.455978 -126.479424 4.972171
v -92.425751 -126.561951 5.216651
v -92.372559 -126.691223 5.371287
v -92.401184 -126.609802 4.961786
v -92.398773 -126.611450 4.714256
v -92.741852 -127.114517 4.333099
v -92.800308 -126.988243 4.488872
v -92.838745 -126.904007 4.711921
v -92.844528 -126.903961 4.931922
v -92.815414 -126.983032 5.144932
v -92.764862 -127.105118 5.279846
v -92.792572 -127.027016 4.921461
v -92.786774 -127.027077 4.701461
v -92.982666 -127.359055 4.359892
v -93.009521 -127.292274 4.496721
v -93.033585 -127.244774 4.700509
v -93.039185 -127.244835 4.900864
v -93.024094 -127.287422 5.097775
v -92.999786 -127.352440 5.224193
v -93.009933 -127.309341 4.893720
v -93.006577 -127.314331 4.693377
v -91.443954 -128.316833 4.656353
v -91.496887 -128.341888 4.624567
v -91.741562 -128.445465 4.591437
v -91.766251 -128.458618 4.650229
v -91.742447 -128.444870 4.681806
v -91.497498 -128.341476 4.687432
v -91.143570 -128.789398 4.678153
v -91.212204 -128.816650 4.614792
v -91.515701 -128.951767 4.549863
v -91.553329 -128.965088 4.671402
v -91.518921 -128.946884 4.734489
v -91.213440 -128.815811 4.740522
v -91.977905 -127.070778 4.756790
v -92.032272 -127.092178 4.724966
v -92.275543 -127.199402 4.691875
v -92.305267 -127.210320 4.750602
v -92.276428 -127.198799 4.782243
v -92.032852 -127.091782 4.783902
v -92.116882 -126.530190 4.857926
v -92.181915 -126.556000 4.798521
v -92.485382 -126.691147 4.729662
v -92.523026 -126.704453 4.851202
v -92.492249 -126.687660 4.914264
v -92.186737 -126.556602 4.920296
vn 0.9165 0.3991 0.0255
vn 0.5586 -0.4320 -0.7080
vn 0.7028 -0.5944 -0.3908
vn 0.7399 -0.6720 0.0303
vn 0.6775 -0.6143 0.4045
vn 0.5338 -0.4995 0.6823
vn -0.6405 0.7184 -0.2715
vn -0.6660 0.7450 -0.0382
vn -0.6320 0.7340 0.2487
vn 0.5470 -0.5496 -0.6314
vn 0.6066 -0.7197 -0.3378
vn 0.6231 -0.7815 0.0308
vn 0.5862 -0.7346 0.3418
vn 0.5183 -0.5826 0.6260
vn -0.6144 0.7544 -0.2310
vn -0.6165 0.7867 -0.0307
vn -0.6301 0.7497 0.2020
vn 0.3069 -0.6761 -0.6699
vn 0.3800 -0.8609 -0.3383
vn 0.3975 -0.9176 0.0106
vn 0.3654 -0.8550 0.3681
vn 0.3033 -0.7201 0.6241
vn -0.3837 0.8930 -0.2354
vn -0.3975 0.9176 -0.0100
vn -0.3855 0.8995 0.2055
vn -0.0846 -0.7638 -0.6399
vn -0.0535 -0.9334 -0.3548
vn -0.0224 -0.9996 0.0161
vn -0.0312 -0.9368 0.3484
vn -0.0640 -0.7914 0.6080
vn 0.0222 0.9751 -0.2208
vn 0.0098 0.9998 -0.0167
vn 0.0156 0.9772 0.2118
vn -0.0584 -0.9022 -0.4275
vn -0.1699 -0.9658 -0.1959
vn -0.2452 -0.9694 0.0088
vn -0.1588 -0.9687 0.1908
vn -0.0351 -0.9092 0.4148
vn 0.0057 0.9914 -0.1311
vn 0.1050 0.9944 -0.0141
vn 0.1098 0.9867 0.1199
vn -0.9111 -0.4118 -0.0187
vn -0.9162 -0.4001 -0.0201
vn -0.4065 -0.4099 -0.8166
vn -0.3569 -0.0807 -0.9306
vn -0.5941 0.0942 -0.7989
vn -0.9748 0.2217 -0.0252
vn -0.5941 -0.0201 0.8041
vn -0.3291 -0.2183 0.9187
vn -0.3613 -0.5054 0.7836
vn -0.5139 -0.8578 0.0007
vn 0.1117 -0.2209 -0.9689
vn -0.0139 0.0716 -0.9973
vn -0.1327 0.3534 -0.9260
vn -0.3868 0.9218 -0.0276
vn -0.1159 0.2307 0.9661
vn 0.0162 -0.0768 0.9969
vn 0.1345 -0.3486 0.9276
vn 0.3957 -0.9183 0.0106
vn 0.2233 -0.1045 -0.9691
vn 0.0906 0.1167 -0.9890
vn 0.0171 0.3661 -0.9304
vn -0.1173 0.9929 -0.0202
vn 0.1420 0.2980 0.9439
vn 0.2171 0.0183 0.9760
vn 0.3522 -0.2308 0.9070
vn 0.6353 -0.7721 0.0167
vn 0.9171 0.3987 0.0063
vn 0.9327 0.3601 0.0197
vn -0.0478 0.8391 -0.5420
vn -0.0114 0.9569 -0.2901
vn 0.0274 0.9996 0.0037
vn 0.0460 0.9182 0.3935
vn 0.0557 0.6972 0.7147
vn 0.1011 -0.9609 -0.2579
vn 0.0764 -0.9971 0.0074
vn 0.0674 -0.9605 0.2699
vn -0.0119 0.7309 -0.6824
vn -0.0887 0.9087 -0.4079
vn -0.1383 0.9904 -0.0080
vn -0.1121 0.9325 0.3432
vn -0.0366 0.7605 0.6483
vn 0.1142 -0.9710 -0.2101
vn 0.1429 -0.9895 0.0199
vn 0.1319 -0.9519 0.2765
vn -0.2960 0.7162 -0.6320
vn -0.3681 0.8608 -0.3514
vn -0.3915 0.9201 -0.0100
vn -0.3764 0.8574 0.3509
vn -0.2985 0.6792 0.6705
vn 0.3857 -0.8994 -0.2058
vn 0.3975 -0.9176 0.0100
vn 0.3777 -0.8956 0.2351
vn -0.5956 0.4999 -0.6287
vn -0.6901 0.6297 -0.3567
vn -0.7389 0.6735 -0.0196
vn -0.7176 0.6282 0.3008
vn -0.6284 0.4768 0.6147
vn 0.7334 -0.6551 -0.1815
vn 0.7287 -0.6847 0.0117
vn 0.7091 -0.6689 0.2230
vn -0.6668 0.6097 -0.4284
vn -0.8057 0.5487 -0.2231
vn -0.8675 0.4968 -0.0240
vn -0.8434 0.4557 0.2845
vn -0.6960 0.3830 0.6074
vn 0.7325 -0.6511 -0.1985
vn 0.7912 -0.6112 0.0210
vn 0.7688 -0.5948 0.2349
vn -0.9329 -0.3592 -0.0263
vn -0.3949 0.9187 -0.0100
vn 0.5680 0.3262 -0.7556
vn 0.1585 0.1152 -0.9806
vn -0.8770 -0.3657 -0.3116
vn -0.7934 -0.3117 0.5228
vn -0.0564 0.0794 0.9953
vn 0.3634 0.3157 0.8765
vn 0.3949 -0.9187 0.0100
vn 0.5796 0.2914 -0.7611
vn 0.1437 0.1738 -0.9743
vn -0.8936 -0.3226 -0.3120
vn -0.7533 -0.4435 0.4857
vn 0.0775 -0.2252 0.9712
vn 0.6657 0.0013 0.7462
vn 0.8914 0.4525 -0.0243
vn 0.9328 0.3598 0.0223
vn 0.9024 0.4299 0.0301
vn 0.9029 0.4294 0.0200
vn 0.9324 0.3614 0.0067
vn 0.5855 -0.5816 -0.5647
vn 0.6955 -0.6657 -0.2704
vn 0.7423 -0.6684 0.0469
vn 0.6752 -0.6840 0.2761
vn 0.5562 -0.6261 0.5465
vn -0.6127 0.7675 -0.1887
vn -0.6656 0.7455 -0.0361
vn -0.6687 0.7255 0.1630
vn 0.5261 -0.4552 -0.7183
vn 0.6099 -0.6766 -0.4126
vn 0.6232 -0.7815 0.0311
vn 0.5868 -0.6932 0.4185
vn 0.5039 -0.5201 0.6896
vn -0.5941 0.7557 -0.2757
vn -0.6175 0.7857 -0.0372
vn -0.6124 0.7497 0.2509
vn 0.3061 -0.6851 -0.6610
vn 0.3702 -0.8580 -0.3562
vn 0.3912 -0.9199 0.0261
vn 0.3605 -0.8642 0.3509
vn 0.2886 -0.7098 0.6425
vn -0.3910 0.9200 -0.0260
vn -0.3909 0.8951 0.2146
vn -0.0779 -0.7736 -0.6289
vn -0.0294 -0.9499 -0.3111
vn -0.0162 -0.9999 0.0007
vn -0.0243 -0.9417 0.3357
vn -0.0449 -0.8157 0.5768
vn 0.0128 0.9777 -0.2098
vn 0.0057 1.0000 -0.0066
vn 0.0243 0.9801 0.1968
vn -0.1843 -0.7709 -0.6097
vn -0.2508 -0.9140 -0.3190
vn -0.2450 -0.9695 0.0083
vn -0.2336 -0.9222 0.3080
vn -0.1537 -0.7981 0.5826
vn 0.1026 0.9720 -0.2115
vn 0.1047 0.9944 -0.0135
vn 0.0312 0.9771 0.2105
vn -0.9153 -0.4026 -0.0116
vn -0.9333 -0.3580 -0.0267
vn -0.8919 -0.4513 -0.0292
vn -0.8731 -0.4871 -0.0219
vn -0.9111 -0.4120 -0.0140
vn -0.9158 -0.4007 0.0269
vn -0.9169 -0.3969 -0.0418
vn -0.9173 -0.3962 -0.0394
vn -0.9223 -0.3863 -0.0064
vn -0.9206 -0.3891 -0.0340
vn -0.3879 -0.4533 -0.8026
vn -0.3529 -0.0814 -0.9321
vn -0.6073 0.1320 -0.7835
vn -0.9741 0.2258 -0.0110
vn -0.6078 0.0121 0.7940
vn -0.3258 -0.2132 0.9211
vn -0.3426 -0.5407 0.7683
vn -0.5066 -0.8618 -0.0270
vn 0.1076 -0.2342 -0.9662
vn -0.1345 0.3486 -0.9276
vn -0.3957 0.9183 -0.0106
vn 0.1345 -0.3485 0.9276
vn 0.3960 -0.9182 0.0100
vn 0.2423 -0.1619 -0.9566
vn 0.0905 0.1157 -0.9892
vn -0.0046 0.4037 -0.9149
vn 0.1267 0.3256 0.9370
vn 0.2228 0.0136 0.9748
vn 0.3552 -0.2426 0.9027
vn 0.9170 0.3987 0.0094
vn 0.9169 0.3991 0.0037
vn 0.9249 0.3802 0.0065
vn 0.8997 0.4353 0.0319
vn 0.9546 0.2926 0.0557
vn 0.8606 0.5092 0.0050
vn 0.0305 0.7396 -0.6723
vn 0.0318 0.9205 -0.3894
vn 0.0302 0.9995 -0.0064
vn -0.0017 0.9592 0.2826
vn -0.0337 0.8250 0.5641
vn 0.0666 -0.9829 -0.1714
vn 0.1214 -0.9734 0.1945
vn -0.0489 0.7833 -0.6197
vn -0.1204 0.9348 -0.3342
vn -0.1346 0.9906 -0.0233
vn -0.0842 0.9081 0.4102
vn 0.0093 0.6881 0.7255
vn 0.1283 -0.9572 -0.2595
vn 0.1458 -0.9893 0.0080
vn 0.1159 -0.9676 0.2241
vn -0.2972 0.7064 -0.6424
vn -0.3605 0.8589 -0.3637
vn -0.3972 0.9174 -0.0258
vn -0.3726 0.8643 0.3378
vn 0.3909 -0.8951 -0.2146
vn 0.3910 -0.9200 0.0263
vn 0.3778 -0.8955 0.2353
vn -0.6019 0.5340 -0.5938
vn -0.6891 0.6379 -0.3439
vn -0.7371 0.6757 -0.0117
vn -0.7210 0.6117 0.3256
vn -0.6232 0.4493 0.6401
vn 0.7242 -0.6600 -0.1998
vn 0.7305 -0.6826 0.0194
vn 0.7165 -0.6540 0.2426
vn -0.6627 0.4404 -0.6057
vn -0.8174 0.4781 -0.3214
vn -0.8673 0.4973 -0.0229
vn -0.8242 0.5372 0.1794
vn -0.7014 0.5700 0.4279
vn 0.7930 -0.6005 -0.1027
vn 0.7935 -0.6079 0.0285
vn 0.7130 -0.6864 0.1432
vn -0.9324 -0.3614 -0.0067
vn -0.9115 -0.4104 -0.0255
vn -0.9326 -0.3600 -0.0262
vn -0.9430 -0.3320 -0.0231
vn -0.9110 -0.4124 -0.0050
vn -0.3765 0.9211 -0.0990
vn -0.3894 0.9193 0.0578
vn -0.4900 0.8717 -0.0106
vn 0.4036 0.2601 -0.8772
vn 0.0838 0.1186 -0.9894
vn -0.8264 -0.3653 -0.4285
vn -0.7173 -0.2512 0.6498
vn -0.0537 0.0793 0.9954
vn 0.5346 0.3747 0.7575
vn 0.3995 -0.9108 0.1039
vn 0.4123 -0.9060 -0.0952
vn 0.3613 -0.9324 0.0097
vn 0.4195 0.2373 -0.8762
vn 0.0865 0.1093 -0.9902
vn -0.8255 -0.3055 -0.4746
vn -0.6018 -0.3969 0.6931
vn 0.0875 -0.2143 0.9728
vn 0.4569 -0.0487 0.8882
s 0
usemtl LIGHT_BLUE
f 82//9 78//9 76//9
f 76//10 84//10 83//10
f 77//11 85//11 84//11
f 87//13 86//13 78//13
f 88//14 87//14 79//14
f 81//15 89//15 88//15
f 82//16 90//16 89//16
f 75//17 83//17 90//17
f 84//18 92//18 91//18
f 85//19 93//19 92//19
f 95//21 94//21 86//21
f 96//22 95//22 87//22
f 97//23 96//23 88//23
f 90//24 98//24 97//24
f 83//25 91//25 98//25
f 92//26 100//26 99//26
f 101//27 100//27 92//27
f 103//29 102//29 94//29
f 96//30 104//30 103//30
f 105//31 104//31 96//31
f 106//32 105//32 97//32
f 99//33 106//33 98//33
f 108//34 107//34 99//34
f 109//35 108//35 100//35
f 103//37 111//37 110//37
f 104//38 112//38 111//38
f 113//39 112//39 104//39
f 114//40 113//40 105//40
f 107//41 114//41 106//41
f 116//42 115//42 107//42
f 117//43 116//43 108//43
f 111//45 119//45 118//45
f 112//46 120//46 119//46
f 121//47 120//47 112//47
f 122//48 121//48 113//48
f 115//49 122//49 114//49
f 119//50 122//50 117//50
f 136//56 135//56 127//56
f 130//58 138//58 137//58
f 136//64 144//64 143//64
f 146//66 145//66 137//66
f 144//72 151//72 150//72
f 147//74 152//74 145//74
f 157//77 160//77 155//77
f 154//78 153//78 161//78
f 155//79 154//79 162//79
f 156//81 164//81 165//81
f 157//82 165//82 166//82
f 158//83 166//83 167//83
f 159//84 167//84 168//84
f 160//85 168//85 161//85
f 162//86 161//86 169//86
f 163//87 162//87 170//87
f 164//89 172//89 173//89
f 165//90 173//90 174//90
f 166//91 174//91 175//91
f 167//92 175//92 176//92
f 161//93 168//93 176//93
f 169//94 177//94 178//94
f 171//95 170//95 178//95
f 173//97 172//97 180//97
f 173//98 181//98 182//98
f 174//99 182//99 183//99
f 175//100 183//100 184//100
f 169//101 176//101 184//101
f 177//102 185//102 186//102
f 178//103 186//103 187//103
f 181//105 180//105 188//105
f 182//106 181//106 189//106
f 183//107 182//107 190//107
f 184//108 183//108 191//108
f 177//109 184//109 192//109
f 185//110 193//110 194//110
f 186//111 194//111 195//111
f 189//113 188//113 196//113
f 190//114 189//114 197//114
f 191//115 190//115 198//115
f 192//116 191//116 199//116
f 185//117 192//117 200//117
f 200//118 196//118 194//118
f 201//119 203//119 205//119
f 201//120 207//120 208//120
f 202//121 208//121 209//121
f 203//122 209//122 210//122
f 204//123 210//123 211//123
f 206//124 205//124 211//124
f 201//125 206//125 212//125
f 213//126 217//126 215//126
f 220//127 219//127 213//127
f 221//128 220//128 214//128
f 216//129 222//129 221//129
f 217//130 223//130 222//130
f 218//131 224//131 223//131
f 219//132 224//132 218//132
f 78//133 80//133 79//133
f 78//134 81//134 80//134
f 76//135 78//135 77//135
f 82//136 76//136 75//136
f 78//137 82//137 81//137
f 76//138 83//138 75//138
f 77//139 84//139 76//139
f 87//141 78//141 79//141
f 88//142 79//142 80//142
f 81//143 88//143 80//143
f 82//144 89//144 81//144
f 75//145 90//145 82//145
f 84//146 91//146 83//146
f 85//147 92//147 84//147
f 95//149 86//149 87//149
f 96//150 87//150 88//150
f 97//151 88//151 89//151
f 90//152 97//152 89//152
f 83//153 98//153 90//153
f 92//154 99//154 91//154
f 101//155 92//155 93//155
f 103//157 94//157 95//157
f 96//158 103//158 95//158
f 105//31 96//31 97//31
f 106//159 97//159 98//159
f 99//160 98//160 91//160
f 108//161 99//161 100//161
f 109//162 100//162 101//162
f 103//164 110//164 102//164
f 104//165 111//165 103//165
f 113//166 104//166 105//166
f 114//167 105//167 106//167
f 107//168 106//168 99//168
f 116//169 107//169 108//169
f 117//170 108//170 109//170
f 111//172 118//172 110//172
f 112//173 119//173 111//173
f 121//174 112//174 113//174
f 122//175 113//175 114//175
f 115//176 114//176 107//176
f 121//177 119//177 120//177
f 119//178 117//178 118//178
f 117//179 115//179 116//179
f 122//180 119//180 121//180
f 117//181 122//181 115//181
f 136//191 127//191 128//191
f 130//193 137//193 129//193
f 136//64 143//64 135//64
f 146//198 137//198 138//198
f 144//203 150//203 143//203
f 147//205 145//205 146//205
f 159//136 157//136 158//136
f 157//209 155//209 156//209
f 155//210 153//210 154//210
f 160//211 157//211 159//211
f 155//134 160//134 153//134
f 154//212 161//212 162//212
f 155//213 162//213 163//213
f 156//215 165//215 157//215
f 157//216 166//216 158//216
f 158//217 167//217 159//217
f 159//84 168//84 160//84
f 160//218 161//218 153//218
f 162//219 169//219 170//219
f 163//220 170//220 171//220
f 164//222 173//222 165//222
f 165//223 174//223 166//223
f 166//224 175//224 167//224
f 167//225 176//225 168//225
f 161//226 176//226 169//226
f 169//227 178//227 170//227
f 171//228 178//228 179//228
f 173//230 180//230 181//230
f 173//98 182//98 174//98
f 174//231 183//231 175//231
f 175//232 184//232 176//232
f 169//233 184//233 177//233
f 177//234 186//234 178//234
f 178//235 187//235 179//235
f 181//237 188//237 189//237
f 182//238 189//238 190//238
f 183//239 190//239 191//239
f 184//240 191//240 192//240
f 177//241 192//241 185//241
f 185//242 194//242 186//242
f 186//243 195//243 187//243
f 189//245 196//245 197//245
f 190//246 197//246 198//246
f 191//247 198//247 199//247
f 192//248 199//248 200//248
f 185//249 200//249 193//249
f 196//250 198//250 197//250
f 196//251 199//251 198//251
f 194//252 196//252 195//252
f 200//253 194//253 193//253
f 196//254 200//254 199//254
f 203//255 201//255 202//255
f 201//256 205//256 206//256
f 205//257 203//257 204//257
f 201//258 208//258 202//258
f 202//259 209//259 203//259
f 203//260 210//260 204//260
f 204//261 211//261 205//261
f 206//262 211//262 212//262
f 201//263 212//263 207//263
f 217//264 213//264 218//264
f 213//265 215//265 214//265
f 215//266 217//266 216//266
f 220//267 213//267 214//267
f 221//268 214//268 215//268
f 216//269 221//269 215//269
f 217//270 222//270 216//270
f 218//271 223//271 217//271
f 219//272 218//272 213//272
usemtl BLACK
f 86//12 85//12 77//12
f 94//20 93//20 85//20
f 94//28 102//28 101//28
f 102//36 110//36 109//36
f 110//44 118//44 117//44
f 156//80 155//80 163//80
f 164//88 163//88 171//88
f 171//96 179//96 180//96
f 179//104 187//104 188//104
f 187//112 195//112 196//112
f 86//140 77//140 78//140
f 94//148 85//148 86//148
f 94//156 101//156 93//156
f 102//163 109//163 101//163
f 110//171 117//171 109//171
f 156//214 163//214 164//214
f 164//221 171//221 172//221
f 171//229 180//229 172//229
f 179//236 188//236 180//236
f 187//244 196//244 188//244
usemtl ORANGE
f 124//51 128//51 126//51
f 128//182 130//182 129//182
f 130//183 124//183 123//183
f 124//184 126//184 125//184
f 126//185 128//185 127//185
f 128//186 124//186 130//186
usemtl GREY
f 132//52 131//52 123//52
f 133//53 132//53 124//53
f 126//54 134//54 133//54
f 127//55 135//55 134//55
f 137//57 136//57 128//57
f 123//59 131//59 138//59
f 132//60 140//60 139//60
f 133//61 141//61 140//61
f 134//62 142//62 141//62
f 143//63 142//63 134//63
f 145//65 144//65 136//65
f 131//67 139//67 146//67
f 140//68 148//68 147//68
f 141//69 149//69 148//69
f 150//70 149//70 141//70
f 150//71 142//71 143//71
f 145//73 152//73 151//73
f 147//75 146//75 139//75
f 147//76 149//76 151//76
f 132//187 123//187 124//187
f 133//188 124//188 125//188
f 126//189 133//189 125//189
f 127//190 134//190 126//190
f 137//192 128//192 129//192
f 123//194 138//194 130//194
f 132//195 139//195 131//195
f 133//61 140//61 132//61
f 134//196 141//196 133//196
f 143//197 134//197 135//197
f 145//65 136//65 137//65
f 131//199 146//199 138//199
f 140//200 147//200 139//200
f 141//201 148//201 140//201
f 150//202 141//202 142//202
f 145//204 151//204 144//204
f 149//206 147//206 148//206
f 147//207 151//207 152//207
f 151//208 149//208 150//208
o talojota
v -115.496094 -117.621094 16.949219
v -82.191406 -117.621094 16.949219
v -82.191406 -106.925781 16.949219
v -115.496094 -106.925781 16.949219
v -115.496094 -117.621094 0.089844
v -82.191406 -117.621094 0.089844
v -82.191406 -106.925781 0.089844
v -115.496094 -106.925781 0.089844
vn -0.0000 -0.0000 1.0000
vn -0.0000 -1.0000 -0.0000
vn 1.0000 -0.0000 -0.0000
vn -0.0000 1.0000 -0.0000
vn -1.0000 -0.0000 -0.0000
vn -0.0000 -0.0000 -1.0000
s 0
usemtl DEFAULT
f 226//273 228//273 225//273
f 229//274 226//274 225//274
f 230//275 227//275 226//275
f 231//276 228//276 227//276
f 232//277 225//277 228//277
f 232//278 230//278 229//278
f 226//273 227//273 228//273
f 229//274 230//274 226//274
f 230//275 231//275 227//275
f 231//276 232//276 228//276
f 232//277 229//277 225//277
f 232//278 231//278 230//278
