# Blender 3.6.5
# www.blender.org
mtllib U2E_anim61.mtl
o CameraBox
v -99.017632 -139.553116 5.016244
v -99.018288 -139.752991 5.023397
v -99.021294 -139.545959 5.216074
v -99.021950 -139.745819 5.223227
v -98.817665 -139.553650 5.019927
v -98.818321 -139.753510 5.027080
v -98.821327 -139.546478 5.219756
v -98.821983 -139.746353 5.226909
vn -0.9998 0.0026 -0.0184
vn -0.0183 0.0358 0.9992
vn 0.9998 -0.0026 0.0184
vn 0.0183 -0.0358 -0.9992
vn 0.0033 0.9994 -0.0358
vn -0.0033 -0.9994 0.0358
s 0
usemtl None
f 2//1 3//1 1//1
f 8//3 5//3 7//3
f 6//4 1//4 5//4
f 4//6 6//6 8//6
f 2//1 4//1 3//1
f 8//3 6//3 5//3
f 6//4 2//4 1//4
f 4//6 2//6 6//6
usemtl UpDir
f 4//2 7//2 3//2
f 4//2 8//2 7//2
usemtl LookingDir
f 7//5 1//5 3//5
f 7//5 5//5 1//5
o _laatta01
v -97.656250 -7.812500 0.128906
v -97.656250 11.718750 0.128906
v -54.687500 11.718750 0.128906
v -54.687500 -7.812500 0.128906
v -50.781250 11.718750 0.128906
v 39.062500 11.718750 0.128906
v 39.062500 -7.812500 0.128906
v -50.781250 -7.812500 0.128906
v -101.562500 11.718750 0.128906
v -101.562500 -31.250000 0.128906
v -117.187500 -31.250000 0.128906
v -117.187500 11.718750 0.128906
v -117.187500 -82.031250 0.128906
v -101.562500 -82.031250 0.128906
v -101.562500 -105.468750 0.128906
v -78.125000 -105.468750 0.128906
v -78.125000 -125.000000 0.128906
v -117.187500 -125.000000 0.128906
vn -0.0000 -0.0000 1.0000
s 0
usemtl WHITE#NEON
f 12//7 10//7 9//7
f 16//7 14//7 13//7
f 20//7 18//7 17//7
f 25//7 23//7 26//7
f 21//7 23//7 22//7
f 12//7 11//7 10//7
f 16//7 15//7 14//7
f 20//7 19//7 18//7
f 25//7 24//7 23//7
f 21//7 26//7 23//7
o fcirto01
v -95.593750 -117.921875 11.671875
v -95.593750 -117.921875 9.718750
v -97.546875 -117.921875 9.718750
v -97.546875 -117.921875 11.671875
v -95.593750 -117.921875 7.765625
v -95.593750 -117.921875 5.812500
v -97.546875 -117.921875 5.812500
v -97.546875 -117.921875 7.765625
v -95.593750 -117.921875 3.859375
v -95.593750 -117.921875 1.906250
v -97.546875 -117.921875 1.906250
v -97.546875 -117.921875 3.859375
v -99.500000 -117.921875 7.765625
v -99.500000 -117.921875 5.812500
v -101.453125 -117.921875 5.812500
v -101.453125 -117.921875 7.765625
v -99.500000 -117.921875 3.859375
v -99.500000 -117.921875 1.906250
v -101.453125 -117.921875 1.906250
v -101.453125 -117.921875 3.859375
v -99.500000 -117.921875 11.671875
v -99.500000 -117.921875 9.718750
v -101.453125 -117.921875 9.718750
v -101.453125 -117.921875 11.671875
v -87.519531 -117.921875 11.671875
v -87.519531 -117.921875 9.718750
v -89.472656 -117.921875 9.718750
v -89.472656 -117.921875 11.671875
v -87.519531 -117.921875 7.765625
v -87.519531 -117.921875 5.812500
v -89.472656 -117.921875 5.812500
v -89.472656 -117.921875 7.765625
v -87.519531 -117.921875 3.859375
v -87.519531 -117.921875 1.906250
v -89.472656 -117.921875 1.906250
v -89.472656 -117.921875 3.859375
v -91.425781 -117.921875 7.765625
v -91.425781 -117.921875 5.812500
v -93.378906 -117.921875 5.812500
v -93.378906 -117.921875 7.765625
v -91.425781 -117.921875 3.859375
v -91.425781 -117.921875 1.906250
v -93.378906 -117.921875 1.906250
v -93.378906 -117.921875 3.859375
v -91.425781 -117.921875 11.671875
v -91.425781 -117.921875 9.718750
v -93.378906 -117.921875 9.718750
v -93.378906 -117.921875 11.671875
vn -0.0000 -1.0000 -0.0000
s 0
usemtl C_GROUND
f 30//8 28//8 27//8
f 34//8 32//8 31//8
f 38//8 36//8 35//8
f 42//8 40//8 39//8
f 46//8 44//8 43//8
f 50//8 48//8 47//8
f 54//8 52//8 51//8
f 58//8 56//8 55//8
f 62//8 60//8 59//8
f 66//8 64//8 63//8
f 70//8 68//8 67//8
f 74//8 72//8 71//8
f 30//8 29//8 28//8
f 34//8 33//8 32//8
f 38//8 37//8 36//8
f 42//8 41//8 40//8
f 46//8 45//8 44//8
f 50//8 49//8 48//8
f 54//8 53//8 52//8
f 58//8 57//8 56//8
f 62//8 61//8 60//8
f 66//8 65//8 64//8
f 70//8 69//8 68//8
f 74//8 73//8 72//8
o s01
v -93.027786 -128.398087 4.267183
v -93.008469 -128.465485 4.361960
v -92.998810 -128.510620 4.507638
v -93.004761 -128.507034 4.656893
v -93.016953 -128.460510 4.813759
v -93.037949 -128.392197 4.919369
v -93.021133 -128.438278 4.664302
v -93.018997 -128.442780 4.515019
v -93.486053 -128.664795 4.170259
v -93.453278 -128.789368 4.281127
v -93.433945 -128.876343 4.462443
v -93.436432 -128.871674 4.651017
v -93.466522 -128.784775 4.846844
v -93.502243 -128.655273 4.979558
v -93.474930 -128.743622 4.661900
v -93.468643 -128.747406 4.473353
v -94.251938 -129.105774 4.000828
v -94.216827 -129.241608 4.158920
v -94.197083 -129.332153 4.399198
v -94.203888 -129.328079 4.650611
v -94.231613 -129.236176 4.909307
v -94.274216 -129.095917 5.085138
v -94.240433 -129.191498 4.661471
v -94.233612 -129.195557 4.410058
v -94.832138 -129.267761 3.992786
v -94.800797 -129.404480 4.146922
v -94.778183 -129.490295 4.391131
v -94.784088 -129.490051 4.642569
v -94.812683 -129.394348 4.897311
v -94.854431 -129.257874 5.077096
v -94.820618 -129.353455 4.653429
v -94.818527 -129.354584 4.401964
v -95.397156 -129.191620 4.070234
v -95.364563 -129.316101 4.204677
v -95.345490 -129.402954 4.417425
v -95.352051 -129.399033 4.637405
v -95.378571 -129.311096 4.860764
v -95.414490 -129.181488 5.017053
v -95.386719 -129.270081 4.644386
v -95.380219 -129.273987 4.428336
v -95.738388 -129.143280 4.114315
v -95.719360 -129.210510 4.244453
v -95.710144 -129.255432 4.441211
v -95.716476 -129.251617 4.637615
v -95.732864 -129.205765 4.841603
v -95.754166 -129.137299 4.982575
v -95.736664 -129.183746 4.644996
v -95.730286 -129.187592 4.444662
v -95.503662 -128.536469 4.510390
v -95.540588 -128.396332 4.462288
v -95.619263 -128.116425 4.483932
v -95.660980 -127.976639 4.553677
v -95.661942 -127.976120 4.667622
v -95.624969 -128.116272 4.711794
v -95.546310 -128.396210 4.690151
v -95.508392 -128.536880 4.620378
v -95.130722 -128.835663 4.428423
v -95.219345 -128.510437 4.339751
v -95.398483 -127.858940 4.390296
v -95.489899 -127.528854 4.529488
v -95.495605 -127.528725 4.757351
v -95.406982 -127.853951 4.846024
v -95.227829 -128.505463 4.791550
v -95.132599 -128.834656 4.652385
v -94.723618 -128.722900 4.431313
v -94.812271 -128.397644 4.346569
v -94.991409 -127.746147 4.397114
v -95.081924 -127.419884 4.536332
v -95.088547 -127.415916 4.764170
v -94.999939 -127.741158 4.852842
v -94.820755 -128.392670 4.798368
v -94.729340 -128.722748 4.659176
v -93.851700 -128.184631 4.522598
v -93.904312 -127.995705 4.485931
v -94.008591 -127.625023 4.514805
v -94.057404 -127.438538 4.584278
v -94.009552 -127.624504 4.628751
v -93.905258 -127.995186 4.599876
v -93.460190 -126.834259 4.390041
v -93.477386 -126.765060 4.495678
v -93.494293 -126.715614 4.652492
v -93.499344 -126.715843 4.801771
v -93.489685 -126.760994 4.947450
v -93.470367 -126.828377 5.042226
v -93.479172 -126.783699 4.794390
v -93.477921 -126.784378 4.645083
v -93.987854 -126.843056 4.311009
v -94.028336 -126.710617 4.447599
v -94.054611 -126.622810 4.643455
v -94.056152 -126.621971 4.828124
v -94.037735 -126.705147 5.009414
v -94.004074 -126.833527 5.124236
v -94.021469 -126.750916 4.821143
v -94.019897 -126.751770 4.632544
v -94.875504 -126.856972 4.181836
v -94.914307 -126.715805 4.357696
v -94.945847 -126.624809 4.616364
v -94.948807 -126.619858 4.863875
v -94.929108 -126.710381 5.108082
v -94.893967 -126.846222 5.262246
v -94.912292 -126.756454 4.853015
v -94.905518 -126.760490 4.605532
v -95.456604 -127.015121 4.173769
v -95.494507 -126.877777 4.349654
v -95.526932 -126.782959 4.608297
v -95.529007 -126.781830 4.855834
v -95.510208 -126.868515 5.100015
v -95.475052 -127.004356 5.254179
v -95.492493 -126.918411 4.844973
v -95.490417 -126.919540 4.597437
v -95.898987 -127.369888 4.214912
v -95.939621 -127.237358 4.371149
v -95.966141 -127.149437 4.594508
v -95.971771 -127.149330 4.814512
v -95.953613 -127.232353 5.027235
v -95.920120 -127.360641 5.161704
v -95.937057 -127.278290 4.803601
v -95.931412 -127.278389 4.583597
v -96.170837 -127.579437 4.241101
v -96.188309 -127.510086 4.378172
v -96.205582 -127.460434 4.582135
v -96.211060 -127.460419 4.782494
v -96.201828 -127.505333 4.979251
v -96.186569 -127.573479 5.105433
v -96.190887 -127.528267 4.775113
v -96.188293 -127.533005 4.574751
v -94.776810 -128.738892 4.533108
v -94.832687 -128.756378 4.501285
v -95.089218 -128.825562 4.468019
v -95.115433 -128.835419 4.526788
v -95.089981 -128.825134 4.558389
v -94.833206 -128.756104 4.564151
v -94.543594 -129.248016 4.553097
v -94.615326 -129.265472 4.489705
v -94.934433 -129.357758 4.424586
v -94.973480 -129.366241 4.546112
v -94.936890 -129.353104 4.609231
v -94.616379 -129.264893 4.615438
v -95.136017 -127.432053 4.638102
v -95.192810 -127.445740 4.606254
v -95.448425 -127.518730 4.573013
v -95.479340 -127.525681 4.631729
v -95.449173 -127.518318 4.663383
v -95.193298 -127.445473 4.665191
v -95.200012 -126.877907 4.741137
v -95.267990 -126.894424 4.681702
v -95.587067 -126.986748 4.612653
v -95.626099 -126.995216 4.734179
v -95.593323 -126.982986 4.797270
v -95.272812 -126.894775 4.803477
vn 0.9624 0.2705 0.0260
vn 0.4943 -0.5017 -0.7099
vn 0.6151 -0.6833 -0.3934
vn 0.6415 -0.7666 0.0275
vn 0.5877 -0.7022 0.4019
vn 0.4611 -0.5698 0.6802
vn -0.5368 0.7998 -0.2686
vn -0.5583 0.8289 -0.0352
vn -0.5260 0.8124 0.2516
vn 0.4668 -0.6169 -0.6337
vn 0.5027 -0.7945 -0.3407
vn 0.5109 -0.8592 0.0277
vn 0.4808 -0.8087 0.3388
vn 0.4343 -0.6499 0.6237
vn -0.5060 0.8318 -0.2280
vn -0.5036 0.8635 -0.0276
vn -0.5221 0.8279 0.2050
vn 0.2117 -0.7093 -0.6723
vn 0.2590 -0.9035 -0.3414
vn 0.2688 -0.9632 0.0072
vn 0.2456 -0.8980 0.3650
vn 0.2026 -0.7568 0.6215
vn -0.2585 0.9377 -0.2322
vn -0.2688 0.9632 -0.0066
vn -0.2593 0.9430 0.2088
vn -0.1881 -0.7430 -0.6423
vn -0.1803 -0.9162 -0.3578
vn -0.1583 -0.9873 0.0129
vn -0.1584 -0.9250 0.3453
vn -0.1709 -0.7773 0.6054
vn 0.1548 0.9637 -0.2176
vn 0.1459 0.9892 -0.0135
vn 0.1486 0.9652 0.2150
vn -0.1809 -0.8843 -0.4304
vn -0.3000 -0.9330 -0.1989
vn -0.3750 -0.9270 0.0059
vn -0.2892 -0.9387 0.1877
vn -0.1585 -0.8974 0.4119
vn 0.1407 0.9818 -0.1278
vn 0.2395 0.9708 -0.0109
vn 0.2432 0.9621 0.1231
vn -0.9587 -0.2837 -0.0193
vn -0.9622 -0.2715 -0.0206
vn -0.4588 -0.3479 -0.8176
vn -0.3650 -0.0282 -0.9306
vn -0.5760 0.1770 -0.7980
vn -0.9355 0.3525 -0.0236
vn -0.5910 0.0583 0.8046
vn -0.3554 -0.1745 0.9183
vn -0.4264 -0.4541 0.7823
vn -0.6260 -0.7798 -0.0017
vn 0.0802 -0.2308 -0.9697
vn -0.0044 0.0761 -0.9971
vn -0.0837 0.3714 -0.9247
vn -0.2576 0.9659 -0.0242
vn -0.0830 0.2410 0.9670
vn 0.0059 -0.0817 0.9966
vn 0.0861 -0.3668 0.9263
vn 0.2669 -0.9637 0.0073
vn 0.2067 -0.1306 -0.9697
vn 0.1053 0.1066 -0.9887
vn 0.0665 0.3635 -0.9292
vn 0.0190 0.9997 -0.0168
vn 0.1817 0.2727 0.9448
vn 0.2180 -0.0147 0.9758
vn 0.3179 -0.2797 0.9060
vn 0.5242 -0.8515 0.0136
vn 0.9628 0.2700 0.0068
vn 0.9731 0.2296 0.0201
vn 0.0668 0.8396 -0.5391
vn 0.1190 0.9505 -0.2869
vn 0.1633 0.9866 0.0070
vn 0.1708 0.9020 0.3964
vn 0.1504 0.6807 0.7170
vn -0.0308 -0.9648 -0.2612
vn -0.0601 -0.9982 0.0040
vn -0.0640 -0.9617 0.2667
vn 0.0875 0.7280 -0.6800
vn 0.0357 0.9137 -0.4048
vn -0.0021 1.0000 -0.0046
vn 0.0161 0.9380 0.3464
vn 0.0676 0.7562 0.6509
vn -0.0192 -0.9768 -0.2134
vn 0.0068 -0.9998 0.0165
vn 0.0011 -0.9619 0.2732
vn -0.1959 0.7520 -0.6294
vn -0.2476 0.9041 -0.3483
vn -0.2625 0.9649 -0.0066
vn -0.2560 0.8995 0.3541
vn -0.2029 0.7113 0.6730
vn 0.2595 -0.9428 -0.2091
vn 0.2688 -0.9632 0.0066
vn 0.2523 -0.9395 0.2318
vn -0.5222 0.5785 -0.6266
vn -0.5980 0.7191 -0.3541
vn -0.6403 0.7680 -0.0168
vn -0.6252 0.7191 0.3035
vn -0.5573 0.5558 0.6168
vn 0.6373 -0.7483 -0.1843
vn 0.6287 -0.7776 0.0088
vn 0.6115 -0.7600 0.2202
vn -0.5777 0.6963 -0.4259
vn -0.7236 0.6541 -0.2206
vn -0.7917 0.6105 -0.0217
vn -0.7734 0.5654 0.2867
vn -0.6371 0.4722 0.6092
vn 0.6369 -0.7442 -0.2013
vn 0.7005 -0.7134 0.0183
vn 0.6807 -0.6948 0.2323
vn -0.9731 -0.2287 -0.0267
vn -0.2661 0.9639 -0.0066
vn 0.6069 0.2483 -0.7550
vn 0.1723 0.0959 -0.9804
vn -0.9188 -0.2417 -0.3121
vn -0.8283 -0.2025 0.5224
vn -0.0446 0.0829 0.9956
vn 0.4034 0.2603 0.8772
vn 0.2661 -0.9639 0.0066
vn 0.6136 0.2123 -0.7606
vn 0.1656 0.1559 -0.9738
vn -0.9294 -0.1968 -0.3123
vn -0.8065 -0.3384 0.4848
vn 0.0464 -0.2370 0.9704
vn 0.6600 -0.0920 0.7456
vn 0.9448 0.3269 -0.0236
vn 0.9731 0.2293 0.0227
vn 0.9525 0.3029 0.0307
vn 0.9530 0.3023 0.0207
vn 0.9729 0.2310 0.0071
vn 0.5006 -0.6541 -0.5671
vn 0.5982 -0.7534 -0.2732
vn 0.6443 -0.7635 0.0441
vn 0.5759 -0.7705 0.2733
vn 0.4659 -0.6979 0.5440
vn -0.5025 0.8444 -0.1857
vn -0.5578 0.8293 -0.0330
vn -0.5636 0.8092 0.1659
vn 0.4589 -0.5202 -0.7203
vn 0.5119 -0.7520 -0.4153
vn 0.5109 -0.8592 0.0280
vn 0.4871 -0.7681 0.4157
vn 0.4286 -0.5862 0.6875
vn -0.4857 0.8305 -0.2727
vn -0.5047 0.8626 -0.0341
vn -0.5045 0.8252 0.2539
vn 0.2097 -0.7182 -0.6635
vn 0.2497 -0.8992 -0.3593
vn 0.2622 -0.9647 0.0227
vn 0.2396 -0.9065 0.3477
vn 0.1895 -0.7447 0.6400
vn -0.2620 0.9648 -0.0227
vn -0.2652 0.9392 0.2179
vn -0.1828 -0.7536 -0.6314
vn -0.1587 -0.9360 -0.3142
vn -0.1523 -0.9883 -0.0026
vn -0.1522 -0.9307 0.3326
vn -0.1553 -0.8039 0.5741
vn 0.1458 0.9675 -0.2066
vn 0.1419 0.9899 -0.0033
vn 0.1577 0.9670 0.2000
vn -0.2878 -0.7365 -0.6121
vn -0.3731 -0.8702 -0.3218
vn -0.3747 -0.9271 0.0054
vn -0.3570 -0.8829 0.3052
vn -0.2608 -0.7717 0.5801
vn 0.2339 0.9497 -0.2084
vn 0.2392 0.9709 -0.0103
vn 0.1641 0.9630 0.2137
vn -0.9616 -0.2741 -0.0121
vn -0.9734 -0.2275 -0.0271
vn -0.9450 -0.3256 -0.0300
vn -0.9313 -0.3636 -0.0227
vn -0.9587 -0.2840 -0.0145
vn -0.9618 -0.2723 0.0263
vn -0.9624 -0.2682 -0.0423
vn -0.9627 -0.2675 -0.0399
vn -0.9664 -0.2571 -0.0069
vn -0.9650 -0.2600 -0.0345
vn -0.4463 -0.3935 -0.8037
vn -0.3610 -0.0294 -0.9321
vn -0.5839 0.2161 -0.7825
vn -0.9343 0.3564 -0.0094
vn -0.6002 0.0921 0.7946
vn -0.3514 -0.1699 0.9207
vn -0.4128 -0.4916 0.7668
vn -0.6192 -0.7847 -0.0295
vn 0.0743 -0.2434 -0.9671
vn -0.0861 0.3668 -0.9263
vn -0.2669 0.9637 -0.0073
vn 0.0861 -0.3667 0.9263
vn 0.2673 -0.9636 0.0066
vn 0.2176 -0.1901 -0.9573
vn 0.1050 0.1056 -0.9888
vn 0.0501 0.4037 -0.9135
vn 0.1703 0.3021 0.9379
vn 0.2229 -0.0202 0.9746
vn 0.3192 -0.2918 0.9016
vn 0.9628 0.2701 0.0099
vn 0.9627 0.2705 0.0043
vn 0.9680 0.2507 0.0070
vn 0.9506 0.3086 0.0326
vn 0.9856 0.1597 0.0559
vn 0.9220 0.3872 0.0059
vn 0.1307 0.7308 -0.6699
vn 0.1568 0.9089 -0.3864
vn 0.1661 0.9861 -0.0031
vn 0.1291 0.9496 0.2857
vn 0.0792 0.8200 0.5669
vn -0.0680 -0.9823 -0.1747
vn -0.0123 -0.9815 0.1912
vn 0.0580 0.7847 -0.6171
vn 0.0080 0.9436 -0.3310
vn 0.0016 0.9998 -0.0200
vn 0.0404 0.9097 0.4132
vn 0.1032 0.6780 0.7278
vn -0.0034 -0.9648 -0.2628
vn 0.0097 -0.9999 0.0046
vn -0.0169 -0.9752 0.2209
vn -0.1984 0.7425 -0.6398
vn -0.2403 0.9013 -0.3605
vn -0.2685 0.9630 -0.0225
vn -0.2513 0.9059 0.3410
vn 0.2652 -0.9392 -0.2179
vn 0.2620 -0.9648 0.0229
vn 0.2524 -0.9394 0.2321
vn -0.5238 0.6130 -0.5915
vn -0.5959 0.7270 -0.3412
vn -0.6382 0.7698 -0.0088
vn -0.6308 0.7031 0.3283
vn -0.5560 0.5278 0.6421
vn 0.6274 -0.7518 -0.2026
vn 0.6308 -0.7758 0.0165
vn 0.6209 -0.7463 0.2399
vn -0.5968 0.5286 -0.6036
vn -0.7447 0.5861 -0.3191
vn -0.7914 0.6109 -0.0206
vn -0.7432 0.6438 0.1819
vn -0.6171 0.6588 0.4304
vn 0.7038 -0.7026 -0.1053
vn 0.7033 -0.7104 0.0258
vn 0.6129 -0.7776 0.1403
vn -0.9729 -0.2310 -0.0071
vn -0.9590 -0.2823 -0.0261
vn -0.9729 -0.2296 -0.0266
vn -0.9794 -0.2004 -0.0234
vn -0.9587 -0.2845 -0.0056
vn -0.2476 0.9641 -0.0956
vn -0.2605 0.9635 0.0611
vn -0.3667 0.9303 -0.0073
vn 0.4349 0.2056 -0.8767
vn 0.0987 0.1094 -0.9891
vn -0.8686 -0.2479 -0.4290
vn -0.7446 -0.1534 0.6496
vn -0.0420 0.0825 0.9957
vn 0.5809 0.2959 0.7583
vn 0.2718 -0.9571 0.1005
vn 0.2850 -0.9534 -0.0985
vn 0.2309 -0.9729 0.0064
vn 0.4476 0.1809 -0.8757
vn 0.1002 0.0999 -0.9899
vn -0.8596 -0.1886 -0.4749
vn -0.6500 -0.3135 0.6923
vn 0.0579 -0.2275 0.9720
vn 0.4464 -0.1135 0.8876
s 0
usemtl LIGHT_BLUE
f 82//9 78//9 76//9
f 76//10 84//10 83//10
f 77//11 85//11 84//11
f 87//13 86//13 78//13
f 88//14 87//14 79//14
f 81//15 89//15 88//15
f 82//16 90//16 89//16
f 75//17 83//17 90//17
f 84//18 92//18 91//18
f 85//19 93//19 92//19
f 95//21 94//21 86//21
f 96//22 95//22 87//22
f 97//23 96//23 88//23
f 90//24 98//24 97//24
f 83//25 91//25 98//25
f 92//26 100//26 99//26
f 101//27 100//27 92//27
f 103//29 102//29 94//29
f 96//30 104//30 103//30
f 105//31 104//31 96//31
f 106//32 105//32 97//32
f 99//33 106//33 98//33
f 108//34 107//34 99//34
f 109//35 108//35 100//35
f 103//37 111//37 110//37
f 104//38 112//38 111//38
f 113//39 112//39 104//39
f 114//40 113//40 105//40
f 107//41 114//41 106//41
f 116//42 115//42 107//42
f 117//43 116//43 108//43
f 111//45 119//45 118//45
f 112//46 120//46 119//46
f 121//47 120//47 112//47
f 122//48 121//48 113//48
f 115//49 122//49 114//49
f 119//50 122//50 117//50
f 136//56 135//56 127//56
f 130//58 138//58 137//58
f 136//64 144//64 143//64
f 146//66 145//66 137//66
f 144//72 151//72 150//72
f 147//74 152//74 145//74
f 157//77 160//77 155//77
f 154//78 153//78 161//78
f 155//79 154//79 162//79
f 156//81 164//81 165//81
f 157//82 165//82 166//82
f 158//83 166//83 167//83
f 159//84 167//84 168//84
f 160//85 168//85 161//85
f 162//86 161//86 169//86
f 163//87 162//87 170//87
f 164//89 172//89 173//89
f 165//90 173//90 174//90
f 166//91 174//91 175//91
f 167//92 175//92 176//92
f 161//93 168//93 176//93
f 169//94 177//94 178//94
f 171//95 170//95 178//95
f 173//97 172//97 180//97
f 173//98 181//98 182//98
f 174//99 182//99 183//99
f 175//100 183//100 184//100
f 169//101 176//101 184//101
f 177//102 185//102 186//102
f 178//103 186//103 187//103
f 181//105 180//105 188//105
f 182//106 181//106 189//106
f 183//107 182//107 190//107
f 184//108 183//108 191//108
f 177//109 184//109 192//109
f 185//110 193//110 194//110
f 186//111 194//111 195//111
f 189//113 188//113 196//113
f 190//114 189//114 197//114
f 191//115 190//115 198//115
f 192//116 191//116 199//116
f 185//117 192//117 200//117
f 200//118 196//118 194//118
f 201//119 203//119 205//119
f 201//120 207//120 208//120
f 202//121 208//121 209//121
f 203//122 209//122 210//122
f 204//123 210//123 211//123
f 206//124 205//124 211//124
f 201//125 206//125 212//125
f 213//126 217//126 215//126
f 220//127 219//127 213//127
f 221//128 220//128 214//128
f 216//129 222//129 221//129
f 217//130 223//130 222//130
f 218//131 224//131 223//131
f 219//132 224//132 218//132
f 78//133 80//133 79//133
f 78//134 81//134 80//134
f 76//135 78//135 77//135
f 82//136 76//136 75//136
f 78//137 82//137 81//137
f 76//138 83//138 75//138
f 77//139 84//139 76//139
f 87//141 78//141 79//141
f 88//142 79//142 80//142
f 81//143 88//143 80//143
f 82//144 89//144 81//144
f 75//145 90//145 82//145
f 84//146 91//146 83//146
f 85//147 92//147 84//147
f 95//149 86//149 87//149
f 96//150 87//150 88//150
f 97//151 88//151 89//151
f 90//152 97//152 89//152
f 83//153 98//153 90//153
f 92//154 99//154 91//154
f 101//155 92//155 93//155
f 103//157 94//157 95//157
f 96//158 103//158 95//158
f 105//31 96//31 97//31
f 106//159 97//159 98//159
f 99//160 98//160 91//160
f 108//161 99//161 100//161
f 109//162 100//162 101//162
f 103//164 110//164 102//164
f 104//165 111//165 103//165
f 113//166 104//166 105//166
f 114//167 105//167 106//167
f 107//168 106//168 99//168
f 116//169 107//169 108//169
f 117//170 108//170 109//170
f 111//172 118//172 110//172
f 112//173 119//173 111//173
f 121//174 112//174 113//174
f 122//175 113//175 114//175
f 115//176 114//176 107//176
f 121//177 119//177 120//177
f 119//178 117//178 118//178
f 117//179 115//179 116//179
f 122//180 119//180 121//180
f 117//181 122//181 115//181
f 136//191 127//191 128//191
f 130//193 137//193 129//193
f 136//64 143//64 135//64
f 146//198 137//198 138//198
f 144//203 150//203 143//203
f 147//205 145//205 146//205
f 159//136 157//136 158//136
f 157//209 155//209 156//209
f 155//210 153//210 154//210
f 160//211 157//211 159//211
f 155//134 160//134 153//134
f 154//212 161//212 162//212
f 155//213 162//213 163//213
f 156//215 165//215 157//215
f 157//216 166//216 158//216
f 158//217 167//217 159//217
f 159//84 168//84 160//84
f 160//218 161//218 153//218
f 162//219 169//219 170//219
f 163//220 170//220 171//220
f 164//222 173//222 165//222
f 165//223 174//223 166//223
f 166//224 175//224 167//224
f 167//225 176//225 168//225
f 161//226 176//226 169//226
f 169//227 178//227 170//227
f 171//228 178//228 179//228
f 173//230 180//230 181//230
f 173//98 182//98 174//98
f 174//231 183//231 175//231
f 175//232 184//232 176//232
f 169//233 184//233 177//233
f 177//234 186//234 178//234
f 178//235 187//235 179//235
f 181//237 188//237 189//237
f 182//238 189//238 190//238
f 183//239 190//239 191//239
f 184//240 191//240 192//240
f 177//241 192//241 185//241
f 185//242 194//242 186//242
f 186//243 195//243 187//243
f 189//245 196//245 197//245
f 190//246 197//246 198//246
f 191//247 198//247 199//247
f 192//248 199//248 200//248
f 185//249 200//249 193//249
f 196//250 198//250 197//250
f 196//251 199//251 198//251
f 194//252 196//252 195//252
f 200//253 194//253 193//253
f 196//254 200//254 199//254
f 203//255 201//255 202//255
f 201//256 205//256 206//256
f 205//257 203//257 204//257
f 201//258 208//258 202//258
f 202//259 209//259 203//259
f 203//260 210//260 204//260
f 204//261 211//261 205//261
f 206//262 211//262 212//262
f 201//263 212//263 207//263
f 217//264 213//264 218//264
f 213//265 215//265 214//265
f 215//266 217//266 216//266
f 220//267 213//267 214//267
f 221//268 214//268 215//268
f 216//269 221//269 215//269
f 217//270 222//270 216//270
f 218//271 223//271 217//271
f 219//272 218//272 213//272
usemtl BLACK
f 86//12 85//12 77//12
f 94//20 93//20 85//20
f 94//28 102//28 101//28
f 102//36 110//36 109//36
f 110//44 118//44 117//44
f 156//80 155//80 163//80
f 164//88 163//88 171//88
f 171//96 179//96 180//96
f 179//104 187//104 188//104
f 187//112 195//112 196//112
f 86//140 77//140 78//140
f 94//148 85//148 86//148
f 94//156 101//156 93//156
f 102//163 109//163 101//163
f 110//171 117//171 109//171
f 156//214 163//214 164//214
f 164//221 171//221 172//221
f 171//229 180//229 172//229
f 179//236 188//236 180//236
f 187//244 196//244 188//244
usemtl ORANGE
f 124//51 128//51 126//51
f 128//182 130//182 129//182
f 130//183 124//183 123//183
f 124//184 126//184 125//184
f 126//185 128//185 127//185
f 128//186 124//186 130//186
usemtl GREY
f 132//52 131//52 123//52
f 133//53 132//53 124//53
f 126//54 134//54 133//54
f 127//55 135//55 134//55
f 137//57 136//57 128//57
f 123//59 131//59 138//59
f 132//60 140//60 139//60
f 133//61 141//61 140//61
f 134//62 142//62 141//62
f 143//63 142//63 134//63
f 145//65 144//65 136//65
f 131//67 139//67 146//67
f 140//68 148//68 147//68
f 141//69 149//69 148//69
f 150//70 149//70 141//70
f 150//71 142//71 143//71
f 145//73 152//73 151//73
f 147//75 146//75 139//75
f 147//76 149//76 151//76
f 132//187 123//187 124//187
f 133//188 124//188 125//188
f 126//189 133//189 125//189
f 127//190 134//190 126//190
f 137//192 128//192 129//192
f 123//194 138//194 130//194
f 132//195 139//195 131//195
f 133//61 140//61 132//61
f 134//196 141//196 133//196
f 143//197 134//197 135//197
f 145//65 136//65 137//65
f 131//199 146//199 138//199
f 140//200 147//200 139//200
f 141//201 148//201 140//201
f 150//202 141//202 142//202
f 145//204 151//204 144//204
f 149//206 147//206 148//206
f 147//207 151//207 152//207
f 151//208 149//208 150//208
o talojota
v -115.496094 -117.621094 16.949219
v -82.191406 -117.621094 16.949219
v -82.191406 -106.925781 16.949219
v -115.496094 -106.925781 16.949219
v -115.496094 -117.621094 0.089844
v -82.191406 -117.621094 0.089844
v -82.191406 -106.925781 0.089844
v -115.496094 -106.925781 0.089844
vn -0.0000 -0.0000 1.0000
vn -0.0000 -1.0000 -0.0000
vn 1.0000 -0.0000 -0.0000
vn -0.0000 1.0000 -0.0000
vn -1.0000 -0.0000 -0.0000
vn -0.0000 -0.0000 -1.0000
s 0
usemtl DEFAULT
f 226//273 228//273 225//273
f 229//274 226//274 225//274
f 230//275 227//275 226//275
f 231//276 228//276 227//276
f 232//277 225//277 228//277
f 232//278 230//278 229//278
f 226//273 227//273 228//273
f 229//274 230//274 226//274
f 230//275 231//275 227//275
f 231//276 232//276 228//276
f 232//277 229//277 225//277
f 232//278 231//278 230//278
