# Blender 3.6.5
# www.blender.org
mtllib U2E_anim69.mtl
o CameraBox
v -98.928535 -137.778900 5.054200
v -98.977127 -137.972733 5.062195
v -98.930153 -137.770248 5.253997
v -98.978745 -137.964096 5.261992
v -98.734528 -137.827377 5.057871
v -98.783119 -138.021225 5.065866
v -98.736145 -137.818741 5.257668
v -98.784737 -138.012573 5.265663
vn -0.9700 0.2424 -0.0184
vn -0.0081 0.0432 0.9990
vn 0.9700 -0.2424 0.0184
vn 0.0081 -0.0432 -0.9990
vn 0.2430 0.9692 -0.0400
vn -0.2430 -0.9692 0.0400
s 0
usemtl None
f 2//1 3//1 1//1
f 8//3 5//3 7//3
f 6//4 1//4 5//4
f 4//6 6//6 8//6
f 2//1 4//1 3//1
f 8//3 6//3 5//3
f 6//4 2//4 1//4
f 4//6 2//6 6//6
usemtl UpDir
f 4//2 7//2 3//2
f 4//2 8//2 7//2
usemtl LookingDir
f 7//5 1//5 3//5
f 7//5 5//5 1//5
o _laatta01
v -97.656250 -7.812500 0.128906
v -97.656250 11.718750 0.128906
v -54.687500 11.718750 0.128906
v -54.687500 -7.812500 0.128906
v -50.781250 11.718750 0.128906
v 39.062500 11.718750 0.128906
v 39.062500 -7.812500 0.128906
v -50.781250 -7.812500 0.128906
v -101.562500 11.718750 0.128906
v -101.562500 -31.250000 0.128906
v -117.187500 -31.250000 0.128906
v -117.187500 11.718750 0.128906
v -117.187500 -82.031250 0.128906
v -101.562500 -82.031250 0.128906
v -101.562500 -105.468750 0.128906
v -78.125000 -105.468750 0.128906
v -78.125000 -125.000000 0.128906
v -117.187500 -125.000000 0.128906
vn -0.0000 -0.0000 1.0000
s 0
usemtl WHITE#NEON
f 12//7 10//7 9//7
f 16//7 14//7 13//7
f 20//7 18//7 17//7
f 25//7 23//7 26//7
f 21//7 23//7 22//7
f 12//7 11//7 10//7
f 16//7 15//7 14//7
f 20//7 19//7 18//7
f 25//7 24//7 23//7
f 21//7 26//7 23//7
o fcirto01
v -95.593750 -117.921875 11.671875
v -95.593750 -117.921875 9.718750
v -97.546875 -117.921875 9.718750
v -97.546875 -117.921875 11.671875
v -95.593750 -117.921875 7.765625
v -95.593750 -117.921875 5.812500
v -97.546875 -117.921875 5.812500
v -97.546875 -117.921875 7.765625
v -95.593750 -117.921875 3.859375
v -95.593750 -117.921875 1.906250
v -97.546875 -117.921875 1.906250
v -97.546875 -117.921875 3.859375
v -99.500000 -117.921875 7.765625
v -99.500000 -117.921875 5.812500
v -101.453125 -117.921875 5.812500
v -101.453125 -117.921875 7.765625
v -99.500000 -117.921875 3.859375
v -99.500000 -117.921875 1.906250
v -101.453125 -117.921875 1.906250
v -101.453125 -117.921875 3.859375
v -99.500000 -117.921875 11.671875
v -99.500000 -117.921875 9.718750
v -101.453125 -117.921875 9.718750
v -101.453125 -117.921875 11.671875
v -87.519531 -117.921875 11.671875
v -87.519531 -117.921875 9.718750
v -89.472656 -117.921875 9.718750
v -89.472656 -117.921875 11.671875
v -87.519531 -117.921875 7.765625
v -87.519531 -117.921875 5.812500
v -89.472656 -117.921875 5.812500
v -89.472656 -117.921875 7.765625
v -87.519531 -117.921875 3.859375
v -87.519531 -117.921875 1.906250
v -89.472656 -117.921875 1.906250
v -89.472656 -117.921875 3.859375
v -91.425781 -117.921875 7.765625
v -91.425781 -117.921875 5.812500
v -93.378906 -117.921875 5.812500
v -93.378906 -117.921875 7.765625
v -91.425781 -117.921875 3.859375
v -91.425781 -117.921875 1.906250
v -93.378906 -117.921875 1.906250
v -93.378906 -117.921875 3.859375
v -91.425781 -117.921875 11.671875
v -91.425781 -117.921875 9.718750
v -93.378906 -117.921875 9.718750
v -93.378906 -117.921875 11.671875
vn -0.0000 -1.0000 -0.0000
s 0
usemtl C_GROUND
f 30//8 28//8 27//8
f 34//8 32//8 31//8
f 38//8 36//8 35//8
f 42//8 40//8 39//8
f 46//8 44//8 43//8
f 50//8 48//8 47//8
f 54//8 52//8 51//8
f 58//8 56//8 55//8
f 62//8 60//8 59//8
f 66//8 64//8 63//8
f 70//8 68//8 67//8
f 74//8 72//8 71//8
f 30//8 29//8 28//8
f 34//8 33//8 32//8
f 38//8 37//8 36//8
f 42//8 41//8 40//8
f 46//8 45//8 44//8
f 50//8 49//8 48//8
f 54//8 53//8 52//8
f 58//8 57//8 56//8
f 62//8 61//8 60//8
f 66//8 65//8 64//8
f 70//8 69//8 68//8
f 74//8 73//8 72//8
o s01
v -90.440475 -127.914383 4.354290
v -90.414108 -127.979065 4.449257
v -90.399796 -128.022537 4.595060
v -90.406204 -128.019196 4.744302
v -90.423386 -127.973824 4.901037
v -90.451614 -127.907883 5.006454
v -90.429810 -127.952568 4.751519
v -90.427109 -127.957214 4.602250
v -90.867584 -128.228729 4.257929
v -90.821762 -128.348801 4.369146
v -90.793365 -128.432739 4.550703
v -90.796448 -128.427856 4.739263
v -90.835770 -128.344147 4.934843
v -90.885208 -128.218842 5.067193
v -90.848419 -128.304626 4.749784
v -90.841644 -128.308197 4.561252
v -91.581879 -128.749420 4.089423
v -91.532593 -128.880310 4.247896
v -91.503448 -128.967575 4.488425
v -91.510818 -128.963593 4.739823
v -91.548340 -128.874481 4.998260
v -91.605789 -128.739105 5.173696
v -91.561722 -128.831650 4.750300
v -91.554337 -128.835632 4.498902
v -92.141479 -128.972412 4.081616
v -92.095810 -129.104630 4.236133
v -92.064346 -129.186859 4.480582
v -92.070389 -129.186584 4.732016
v -92.109207 -129.093796 4.986487
v -92.165390 -128.962097 5.165888
v -92.121292 -129.054657 4.742493
v -92.118927 -129.056244 4.491033
v -92.711441 -128.956848 4.158659
v -92.665848 -129.076782 4.293450
v -92.637741 -129.160522 4.506440
v -92.644821 -129.156738 4.726406
v -92.680725 -129.071548 4.949516
v -92.730377 -128.946106 5.105440
v -92.693069 -129.032227 4.733026
v -92.686035 -129.035980 4.516989
v -93.055923 -128.945084 4.202488
v -93.029907 -129.009552 4.332816
v -93.016068 -129.052704 4.529697
v -93.022919 -129.049072 4.726089
v -93.044220 -129.004700 4.929946
v -93.072800 -128.938538 5.070724
v -93.050217 -128.983734 4.733278
v -93.043335 -128.987396 4.532958
v -92.887573 -128.315643 4.597001
v -92.939224 -128.180374 4.548506
v -93.047318 -127.910393 4.569364
v -93.103775 -127.775688 4.638715
v -93.104843 -127.774971 4.752658
v -93.053162 -127.910271 4.797223
v -92.945068 -128.180237 4.776366
v -92.892288 -128.316254 4.706988
v -92.484756 -128.573532 4.515976
v -92.607529 -128.259857 4.426392
v -92.855240 -127.631073 4.475108
v -92.981461 -127.312256 4.613373
v -92.987289 -127.312134 4.841233
v -92.864532 -127.625801 4.930818
v -92.616791 -128.254608 4.878172
v -92.486877 -128.572113 4.739933
v -92.092026 -128.417938 4.518703
v -92.214844 -128.104218 4.433048
v -92.462540 -127.475449 4.481764
v -92.587463 -127.160339 4.620065
v -92.594604 -127.156509 4.847889
v -92.471832 -127.470184 4.937474
v -92.224106 -128.098999 4.884829
v -92.097855 -128.417786 4.746563
v -91.282623 -127.789429 4.608836
v -91.355072 -127.607292 4.571639
v -91.498337 -127.249794 4.599472
v -91.566818 -127.069397 4.668422
v -91.499420 -127.249077 4.713415
v -91.356140 -127.606575 4.685582
v -91.037430 -126.405342 4.472758
v -91.061981 -126.338081 4.578202
v -91.084152 -126.290298 4.734875
v -91.089249 -126.290665 4.884152
v -91.074936 -126.334145 5.029956
v -91.048569 -126.398827 5.124922
v -91.061935 -126.356003 4.876963
v -91.060532 -126.356941 4.727658
v -91.561066 -126.470619 4.393565
v -91.615540 -126.342888 4.529781
v -91.651169 -126.257881 4.725389
v -91.652908 -126.256714 4.910055
v -91.625839 -126.336952 5.091577
v -91.578735 -126.460701 5.206758
v -91.604660 -126.381233 4.903436
v -91.602890 -126.382416 4.714840
v -92.442078 -126.579559 4.264118
v -92.495850 -126.442879 4.439581
v -92.537079 -126.355080 4.697991
v -92.540726 -126.349815 4.945487
v -92.511627 -126.437057 5.189944
v -92.462265 -126.567955 5.344488
v -92.489822 -126.481750 4.935009
v -92.482498 -126.485710 4.687540
v -93.002991 -126.798851 4.256275
v -93.055435 -126.665871 4.431773
v -93.097961 -126.574371 4.690148
v -93.100296 -126.572815 4.937679
v -93.072510 -126.656364 5.182101
v -93.023163 -126.787262 5.336645
v -93.049408 -126.704758 4.927202
v -93.047073 -126.706314 4.679670
v -93.404968 -127.198715 4.298224
v -93.459641 -127.070869 4.454086
v -93.495529 -126.985687 4.677197
v -93.501282 -126.985596 4.897198
v -93.474503 -127.065643 5.110152
v -93.427582 -127.189278 5.244979
v -93.453003 -127.110138 4.886650
v -93.447250 -127.110229 4.666648
v -93.652924 -127.436020 4.324885
v -93.677765 -127.368561 4.461761
v -93.700394 -127.320496 4.665583
v -93.705978 -127.320534 4.865939
v -93.692123 -127.363686 5.062820
v -93.669769 -127.429482 5.189192
v -93.678665 -127.385864 4.858749
v -93.675461 -127.390823 4.658402
v -92.143265 -128.439240 4.620523
v -92.196930 -128.462692 4.588727
v -92.444595 -128.558945 4.555559
v -92.469635 -128.571396 4.614345
v -92.445435 -128.558380 4.645928
v -92.197525 -128.462296 4.651592
v -91.857040 -128.920517 4.641974
v -91.926468 -128.945679 4.578604
v -92.233856 -129.071701 4.513622
v -92.271866 -129.083969 4.635159
v -92.236923 -129.066833 4.698253
v -91.927658 -128.944885 4.704334
v -92.640015 -127.177956 4.721849
v -92.694992 -127.197701 4.690018
v -92.941330 -127.297653 4.656885
v -92.971375 -127.307709 4.715609
v -92.942184 -127.297081 4.747254
v -92.695541 -127.197327 4.748954
v -92.762878 -126.633537 4.823359
v -92.828644 -126.657379 4.763945
v -93.136002 -126.783409 4.695035
v -93.173996 -126.795670 4.816570
v -93.142731 -126.779854 4.879639
v -92.833481 -126.657906 4.885720
vn 0.9280 0.3717 0.0256
vn 0.5455 -0.4479 -0.7084
vn 0.6848 -0.6147 -0.3913
vn 0.7197 -0.6937 0.0298
vn 0.6591 -0.6344 0.4040
vn 0.5188 -0.5155 0.6819
vn -0.6189 0.7372 -0.2710
vn -0.6436 0.7645 -0.0377
vn -0.6099 0.7523 0.2493
vn 0.5304 -0.5652 -0.6318
vn 0.5849 -0.7372 -0.3383
vn 0.5997 -0.7997 0.0302
vn 0.5641 -0.7519 0.3412
vn 0.5008 -0.5982 0.6256
vn -0.5918 0.7725 -0.2305
vn -0.5929 0.8047 -0.0301
vn -0.6076 0.7680 0.2026
vn 0.2866 -0.6845 -0.6703
vn 0.3542 -0.8716 -0.3389
vn 0.3701 -0.9290 0.0100
vn 0.3399 -0.8657 0.3675
vn 0.2819 -0.7292 0.6236
vn -0.3570 0.9041 -0.2348
vn -0.3701 0.9290 -0.0093
vn -0.3586 0.9104 0.2061
vn -0.1073 -0.7605 -0.6404
vn -0.0812 -0.9312 -0.3554
vn -0.0520 -0.9985 0.0155
vn -0.0589 -0.9357 0.3478
vn -0.0874 -0.7895 0.6074
vn 0.0512 0.9741 -0.2202
vn 0.0394 0.9991 -0.0161
vn 0.0446 0.9762 0.2124
vn -0.0852 -0.8997 -0.4280
vn -0.1986 -0.9602 -0.1965
vn -0.2739 -0.9617 0.0082
vn -0.1875 -0.9637 0.1902
vn -0.0621 -0.9081 0.4142
vn 0.0351 0.9908 -0.1304
vn 0.1345 0.9908 -0.0135
vn 0.1390 0.9829 0.1206
vn -0.9229 -0.3845 -0.0188
vn -0.9277 -0.3727 -0.0202
vn -0.4185 -0.3971 -0.8168
vn -0.3593 -0.0694 -0.9306
vn -0.5911 0.1123 -0.7987
vn -0.9678 0.2506 -0.0249
vn -0.5943 -0.0029 0.8042
vn -0.3354 -0.2090 0.9186
vn -0.3760 -0.4949 0.7834
vn -0.5392 -0.8422 0.0002
vn 0.1050 -0.2235 -0.9690
vn -0.0119 0.0726 -0.9973
vn -0.1223 0.3578 -0.9257
vn -0.3592 0.9329 -0.0270
vn -0.1089 0.2334 0.9663
vn 0.0140 -0.0779 0.9969
vn 0.1242 -0.3530 0.9273
vn 0.3683 -0.9297 0.0100
vn 0.2200 -0.1104 -0.9692
vn 0.0939 0.1146 -0.9890
vn 0.0279 0.3661 -0.9302
vn -0.0878 0.9959 -0.0195
vn 0.1509 0.2930 0.9441
vn 0.2177 0.0112 0.9760
vn 0.3453 -0.2417 0.9068
vn 0.6121 -0.7906 0.0161
vn 0.9285 0.3713 0.0064
vn 0.9430 0.3322 0.0198
vn -0.0229 0.8405 -0.5414
vn 0.0170 0.9570 -0.2894
vn 0.0570 0.9984 0.0044
vn 0.0733 0.9162 0.3941
vn 0.0764 0.6947 0.7152
vn 0.0725 -0.9633 -0.2586
vn 0.0468 -0.9989 0.0067
vn 0.0388 -0.9623 0.2692
vn 0.0098 0.7314 -0.6819
vn -0.0618 0.9112 -0.4073
vn -0.1088 0.9940 -0.0073
vn -0.0844 0.9352 0.3438
vn -0.0139 0.7608 0.6488
vn 0.0854 -0.9738 -0.2108
vn 0.1135 -0.9934 0.0192
vn 0.1037 -0.9556 0.2758
vn -0.2747 0.7251 -0.6315
vn -0.3424 0.8716 -0.3508
vn -0.3640 0.9314 -0.0093
vn -0.3508 0.8680 0.3515
vn -0.2781 0.6873 0.6710
vn 0.3588 -0.9103 -0.2064
vn 0.3701 -0.9290 0.0093
vn 0.3510 -0.9066 0.2344
vn -0.5806 0.5178 -0.6283
vn -0.6711 0.6502 -0.3562
vn -0.7186 0.6952 -0.0191
vn -0.6986 0.6490 0.3013
vn -0.6139 0.4948 0.6151
vn 0.7137 -0.6764 -0.1820
vn 0.7081 -0.7061 0.0111
vn 0.6890 -0.6898 0.2225
vn -0.6485 0.6295 -0.4280
vn -0.7891 0.5725 -0.2226
vn -0.8524 0.5224 -0.0236
vn -0.8295 0.4803 0.2849
vn -0.6842 0.4031 0.6077
vn 0.7129 -0.6725 -0.1991
vn 0.7727 -0.6345 0.0205
vn 0.7508 -0.6175 0.2345
vn -0.9431 -0.3314 -0.0264
vn -0.3674 0.9300 -0.0093
vn 0.5774 0.3097 -0.7555
vn 0.1617 0.1111 -0.9806
vn -0.8875 -0.3393 -0.3117
vn -0.8023 -0.2884 0.5227
vn -0.0539 0.0803 0.9953
vn 0.3727 0.3042 0.8767
vn 0.3674 -0.9300 0.0093
vn 0.5879 0.2746 -0.7609
vn 0.1487 0.1701 -0.9742
vn -0.9028 -0.2957 -0.3121
vn -0.7661 -0.4213 0.4855
vn 0.0708 -0.2281 0.9711
vn 0.6655 -0.0190 0.7461
vn 0.9045 0.4259 -0.0241
vn 0.9430 0.3320 0.0224
vn 0.9147 0.4029 0.0302
vn 0.9152 0.4024 0.0202
vn 0.9427 0.3335 0.0068
vn 0.5679 -0.5984 -0.5652
vn 0.6754 -0.6859 -0.2709
vn 0.7221 -0.6902 0.0464
vn 0.6547 -0.7039 0.2756
vn 0.5374 -0.6427 0.5460
vn -0.5897 0.7854 -0.1881
vn -0.6432 0.7649 -0.0355
vn -0.6469 0.7449 0.1635
vn 0.5123 -0.4702 -0.7187
vn 0.5895 -0.6941 -0.4131
vn 0.5997 -0.7996 0.0305
vn 0.5660 -0.7106 0.4179
vn 0.4883 -0.5353 0.6892
vn -0.5714 0.7731 -0.2752
vn -0.5939 0.8037 -0.0366
vn -0.5899 0.7673 0.2515
vn 0.2856 -0.6934 -0.6615
vn 0.3445 -0.8683 -0.3568
vn 0.3637 -0.9312 0.0254
vn 0.3347 -0.8748 0.3503
vn 0.2675 -0.7185 0.6420
vn -0.3635 0.9312 -0.0254
vn -0.3641 0.9061 0.2153
vn -0.1009 -0.7705 -0.6294
vn -0.0576 -0.9484 -0.3117
vn -0.0459 -0.9989 -0.0000
vn -0.0522 -0.9408 0.3351
vn -0.0690 -0.8144 0.5762
vn 0.0418 0.9770 -0.2092
vn 0.0354 0.9994 -0.0060
vn 0.0534 0.9789 0.1974
vn -0.2072 -0.7647 -0.6102
vn -0.2778 -0.9059 -0.3196
vn -0.2736 -0.9618 0.0077
vn -0.2609 -0.9151 0.3074
vn -0.1773 -0.7936 0.5821
vn 0.1313 0.9687 -0.2109
vn 0.1342 0.9909 -0.0129
vn 0.0602 0.9756 0.2112
vn -0.9268 -0.3753 -0.0117
vn -0.9435 -0.3302 -0.0268
vn -0.9049 -0.4247 -0.0294
vn -0.8871 -0.4610 -0.0221
vn -0.9229 -0.3848 -0.0141
vn -0.9273 -0.3734 0.0267
vn -0.9283 -0.3695 -0.0419
vn -0.9287 -0.3688 -0.0396
vn -0.9334 -0.3588 -0.0066
vn -0.9317 -0.3616 -0.0341
vn -0.4012 -0.4410 -0.8028
vn -0.3552 -0.0702 -0.9321
vn -0.6032 0.1505 -0.7833
vn -0.9670 0.2546 -0.0107
vn -0.6071 0.0296 0.7941
vn -0.3319 -0.2040 0.9210
vn -0.3584 -0.5308 0.7680
vn -0.5319 -0.8464 -0.0275
vn 0.1005 -0.2367 -0.9664
vn -0.1242 0.3530 -0.9273
vn -0.3683 0.9297 -0.0100
vn 0.1242 -0.3529 0.9274
vn 0.3686 -0.9295 0.0093
vn 0.2373 -0.1684 -0.9567
vn 0.0938 0.1136 -0.9891
vn 0.0073 0.4043 -0.9146
vn 0.1364 0.3211 0.9372
vn 0.2232 0.0063 0.9748
vn 0.3480 -0.2536 0.9025
vn 0.9284 0.3713 0.0095
vn 0.9283 0.3717 0.0039
vn 0.9357 0.3526 0.0066
vn 0.9122 0.4084 0.0321
vn 0.9629 0.2641 0.0558
vn 0.8754 0.4834 0.0052
vn 0.9430 0.3320 0.0225
vn 0.0523 0.7388 -0.6719
vn 0.0591 0.9194 -0.3888
vn 0.0599 0.9982 -0.0057
vn 0.0268 0.9587 0.2832
vn -0.0092 0.8253 0.5647
vn 0.0374 -0.9844 -0.1721
vn 0.0925 -0.9767 0.1938
vn -0.0257 0.7848 -0.6192
vn -0.0926 0.9382 -0.3336
vn -0.1052 0.9942 -0.0227
vn -0.0572 0.9099 0.4108
vn 0.0298 0.6871 0.7260
vn 0.0998 -0.9604 -0.2602
vn 0.1164 -0.9932 0.0074
vn 0.0872 -0.9708 0.2235
vn -0.2761 0.7154 -0.6419
vn -0.3349 0.8695 -0.3631
vn -0.3698 0.9288 -0.0252
vn -0.3467 0.8748 0.3384
vn 0.3641 -0.9061 -0.2153
vn 0.3635 -0.9312 0.0256
vn 0.3511 -0.9064 0.2347
vn -0.5858 0.5520 -0.5934
vn -0.6699 0.6583 -0.3434
vn -0.7167 0.6973 -0.0112
vn -0.7025 0.6326 0.3261
vn -0.6096 0.4672 0.6405
vn 0.7043 -0.6811 -0.2004
vn 0.7100 -0.7040 0.0189
vn 0.6968 -0.6751 0.2421
vn -0.6494 0.4603 -0.6053
vn -0.8028 0.5024 -0.3210
vn -0.8521 0.5229 -0.0225
vn -0.8078 0.5613 0.1798
vn -0.6842 0.5903 0.4284
vn 0.7748 -0.6237 -0.1032
vn 0.7751 -0.6312 0.0280
vn 0.6923 -0.7074 0.1426
vn -0.9427 -0.3335 -0.0068
vn -0.9233 -0.3832 -0.0257
vn -0.9428 -0.3322 -0.0263
vn -0.9524 -0.3038 -0.0232
vn -0.9228 -0.3852 -0.0052
vn -0.3490 0.9319 -0.0983
vn -0.3619 0.9304 0.0584
vn -0.4639 0.8858 -0.0100
vn 0.4110 0.2485 -0.8771
vn 0.0871 0.1167 -0.9893
vn -0.8369 -0.3403 -0.4286
vn -0.7244 -0.2303 0.6498
vn -0.0512 0.0802 0.9955
vn 0.5455 0.3582 0.7577
vn 0.3723 -0.9223 0.1032
vn 0.3853 -0.9178 -0.0958
vn 0.3335 -0.9427 0.0091
vn 0.4263 0.2253 -0.8761
vn 0.0896 0.1074 -0.9902
vn -0.8342 -0.2806 -0.4747
vn -0.6132 -0.3793 0.6929
vn 0.0812 -0.2175 0.9727
vn 0.4554 -0.0628 0.8881
s 0
usemtl LIGHT_BLUE
f 82//9 78//9 76//9
f 76//10 84//10 83//10
f 77//11 85//11 84//11
f 87//13 86//13 78//13
f 88//14 87//14 79//14
f 81//15 89//15 88//15
f 82//16 90//16 89//16
f 75//17 83//17 90//17
f 84//18 92//18 91//18
f 85//19 93//19 92//19
f 95//21 94//21 86//21
f 96//22 95//22 87//22
f 97//23 96//23 88//23
f 90//24 98//24 97//24
f 83//25 91//25 98//25
f 92//26 100//26 99//26
f 101//27 100//27 92//27
f 103//29 102//29 94//29
f 96//30 104//30 103//30
f 105//31 104//31 96//31
f 106//32 105//32 97//32
f 99//33 106//33 98//33
f 108//34 107//34 99//34
f 109//35 108//35 100//35
f 103//37 111//37 110//37
f 104//38 112//38 111//38
f 113//39 112//39 104//39
f 114//40 113//40 105//40
f 107//41 114//41 106//41
f 116//42 115//42 107//42
f 117//43 116//43 108//43
f 111//45 119//45 118//45
f 112//46 120//46 119//46
f 121//47 120//47 112//47
f 122//48 121//48 113//48
f 115//49 122//49 114//49
f 119//50 122//50 117//50
f 136//56 135//56 127//56
f 130//58 138//58 137//58
f 136//64 144//64 143//64
f 146//66 145//66 137//66
f 144//72 151//72 150//72
f 147//74 152//74 145//74
f 157//77 160//77 155//77
f 154//78 153//78 161//78
f 155//79 154//79 162//79
f 156//81 164//81 165//81
f 157//82 165//82 166//82
f 158//83 166//83 167//83
f 159//84 167//84 168//84
f 160//85 168//85 161//85
f 162//86 161//86 169//86
f 163//87 162//87 170//87
f 164//89 172//89 173//89
f 165//90 173//90 174//90
f 166//91 174//91 175//91
f 167//92 175//92 176//92
f 161//93 168//93 176//93
f 169//94 177//94 178//94
f 171//95 170//95 178//95
f 173//97 172//97 180//97
f 173//98 181//98 182//98
f 174//99 182//99 183//99
f 175//100 183//100 184//100
f 169//101 176//101 184//101
f 177//102 185//102 186//102
f 178//103 186//103 187//103
f 181//105 180//105 188//105
f 182//106 181//106 189//106
f 183//107 182//107 190//107
f 184//108 183//108 191//108
f 177//109 184//109 192//109
f 185//110 193//110 194//110
f 186//111 194//111 195//111
f 189//113 188//113 196//113
f 190//114 189//114 197//114
f 191//115 190//115 198//115
f 192//116 191//116 199//116
f 185//117 192//117 200//117
f 200//118 196//118 194//118
f 201//119 203//119 205//119
f 201//120 207//120 208//120
f 202//121 208//121 209//121
f 203//122 209//122 210//122
f 204//123 210//123 211//123
f 206//124 205//124 211//124
f 201//125 206//125 212//125
f 213//126 217//126 215//126
f 220//127 219//127 213//127
f 221//128 220//128 214//128
f 216//129 222//129 221//129
f 217//130 223//130 222//130
f 218//131 224//131 223//131
f 219//132 224//132 218//132
f 78//133 80//133 79//133
f 78//134 81//134 80//134
f 76//135 78//135 77//135
f 82//136 76//136 75//136
f 78//137 82//137 81//137
f 76//138 83//138 75//138
f 77//139 84//139 76//139
f 87//141 78//141 79//141
f 88//142 79//142 80//142
f 81//143 88//143 80//143
f 82//144 89//144 81//144
f 75//145 90//145 82//145
f 84//146 91//146 83//146
f 85//147 92//147 84//147
f 95//149 86//149 87//149
f 96//150 87//150 88//150
f 97//151 88//151 89//151
f 90//152 97//152 89//152
f 83//153 98//153 90//153
f 92//154 99//154 91//154
f 101//155 92//155 93//155
f 103//157 94//157 95//157
f 96//158 103//158 95//158
f 105//31 96//31 97//31
f 106//159 97//159 98//159
f 99//160 98//160 91//160
f 108//161 99//161 100//161
f 109//162 100//162 101//162
f 103//164 110//164 102//164
f 104//165 111//165 103//165
f 113//166 104//166 105//166
f 114//167 105//167 106//167
f 107//168 106//168 99//168
f 116//169 107//169 108//169
f 117//170 108//170 109//170
f 111//172 118//172 110//172
f 112//173 119//173 111//173
f 121//174 112//174 113//174
f 122//175 113//175 114//175
f 115//176 114//176 107//176
f 121//177 119//177 120//177
f 119//178 117//178 118//178
f 117//179 115//179 116//179
f 122//180 119//180 121//180
f 117//181 122//181 115//181
f 136//191 127//191 128//191
f 130//193 137//193 129//193
f 136//64 143//64 135//64
f 146//198 137//198 138//198
f 144//203 150//203 143//203
f 147//205 145//205 146//205
f 159//136 157//136 158//136
f 157//209 155//209 156//209
f 155//210 153//210 154//210
f 160//211 157//211 159//211
f 155//212 160//212 153//212
f 154//213 161//213 162//213
f 155//214 162//214 163//214
f 156//216 165//216 157//216
f 157//217 166//217 158//217
f 158//218 167//218 159//218
f 159//84 168//84 160//84
f 160//219 161//219 153//219
f 162//220 169//220 170//220
f 163//221 170//221 171//221
f 164//223 173//223 165//223
f 165//224 174//224 166//224
f 166//225 175//225 167//225
f 167//226 176//226 168//226
f 161//227 176//227 169//227
f 169//228 178//228 170//228
f 171//229 178//229 179//229
f 173//231 180//231 181//231
f 173//98 182//98 174//98
f 174//232 183//232 175//232
f 175//233 184//233 176//233
f 169//234 184//234 177//234
f 177//235 186//235 178//235
f 178//236 187//236 179//236
f 181//238 188//238 189//238
f 182//239 189//239 190//239
f 183//240 190//240 191//240
f 184//241 191//241 192//241
f 177//242 192//242 185//242
f 185//243 194//243 186//243
f 186//244 195//244 187//244
f 189//246 196//246 197//246
f 190//247 197//247 198//247
f 191//248 198//248 199//248
f 192//249 199//249 200//249
f 185//250 200//250 193//250
f 196//251 198//251 197//251
f 196//252 199//252 198//252
f 194//253 196//253 195//253
f 200//254 194//254 193//254
f 196//255 200//255 199//255
f 203//256 201//256 202//256
f 201//257 205//257 206//257
f 205//258 203//258 204//258
f 201//259 208//259 202//259
f 202//260 209//260 203//260
f 203//261 210//261 204//261
f 204//262 211//262 205//262
f 206//263 211//263 212//263
f 201//264 212//264 207//264
f 217//265 213//265 218//265
f 213//266 215//266 214//266
f 215//267 217//267 216//267
f 220//268 213//268 214//268
f 221//269 214//269 215//269
f 216//270 221//270 215//270
f 217//271 222//271 216//271
f 218//272 223//272 217//272
f 219//273 218//273 213//273
usemtl BLACK
f 86//12 85//12 77//12
f 94//20 93//20 85//20
f 94//28 102//28 101//28
f 102//36 110//36 109//36
f 110//44 118//44 117//44
f 156//80 155//80 163//80
f 164//88 163//88 171//88
f 171//96 179//96 180//96
f 179//104 187//104 188//104
f 187//112 195//112 196//112
f 86//140 77//140 78//140
f 94//148 85//148 86//148
f 94//156 101//156 93//156
f 102//163 109//163 101//163
f 110//171 117//171 109//171
f 156//215 163//215 164//215
f 164//222 171//222 172//222
f 171//230 180//230 172//230
f 179//237 188//237 180//237
f 187//245 196//245 188//245
usemtl ORANGE
f 124//51 128//51 126//51
f 128//182 130//182 129//182
f 130//183 124//183 123//183
f 124//184 126//184 125//184
f 126//185 128//185 127//185
f 128//186 124//186 130//186
usemtl GREY
f 132//52 131//52 123//52
f 133//53 132//53 124//53
f 126//54 134//54 133//54
f 127//55 135//55 134//55
f 137//57 136//57 128//57
f 123//59 131//59 138//59
f 132//60 140//60 139//60
f 133//61 141//61 140//61
f 134//62 142//62 141//62
f 143//63 142//63 134//63
f 145//65 144//65 136//65
f 131//67 139//67 146//67
f 140//68 148//68 147//68
f 141//69 149//69 148//69
f 150//70 149//70 141//70
f 150//71 142//71 143//71
f 145//73 152//73 151//73
f 147//75 146//75 139//75
f 147//76 149//76 151//76
f 132//187 123//187 124//187
f 133//188 124//188 125//188
f 126//189 133//189 125//189
f 127//190 134//190 126//190
f 137//192 128//192 129//192
f 123//194 138//194 130//194
f 132//195 139//195 131//195
f 133//61 140//61 132//61
f 134//196 141//196 133//196
f 143//197 134//197 135//197
f 145//65 136//65 137//65
f 131//199 146//199 138//199
f 140//200 147//200 139//200
f 141//201 148//201 140//201
f 150//202 141//202 142//202
f 145//204 151//204 144//204
f 149//206 147//206 148//206
f 147//207 151//207 152//207
f 151//208 149//208 150//208
o talojota
v -115.496094 -117.621094 16.949219
v -82.191406 -117.621094 16.949219
v -82.191406 -106.925781 16.949219
v -115.496094 -106.925781 16.949219
v -115.496094 -117.621094 0.089844
v -82.191406 -117.621094 0.089844
v -82.191406 -106.925781 0.089844
v -115.496094 -106.925781 0.089844
vn -0.0000 -0.0000 1.0000
vn -0.0000 -1.0000 -0.0000
vn 1.0000 -0.0000 -0.0000
vn -0.0000 1.0000 -0.0000
vn -1.0000 -0.0000 -0.0000
vn -0.0000 -0.0000 -1.0000
s 0
usemtl DEFAULT
f 226//274 228//274 225//274
f 229//275 226//275 225//275
f 230//276 227//276 226//276
f 231//277 228//277 227//277
f 232//278 225//278 228//278
f 232//279 230//279 229//279
f 226//274 227//274 228//274
f 229//275 230//275 226//275
f 230//276 231//276 227//276
f 231//277 232//277 228//277
f 232//278 229//278 225//278
f 232//279 231//279 230//279
