# Blender 3.6.5
# www.blender.org
mtllib U2E_anim99.mtl
o CameraBox
v -97.043884 -132.337433 5.099105
v -97.215378 -132.440063 5.106537
v -97.041122 -132.327576 5.298834
v -97.212616 -132.430222 5.306266
v -96.941010 -132.508804 5.106135
v -97.112503 -132.611450 5.113567
v -96.938248 -132.498962 5.305864
v -97.109741 -132.601593 5.313296
vn -0.5143 0.8569 -0.0351
vn 0.0138 0.0493 0.9987
vn 0.5143 -0.8569 0.0351
vn -0.0138 -0.0493 -0.9987
vn 0.8575 0.5132 -0.0372
vn -0.8575 -0.5132 0.0372
s 0
usemtl None
f 2//1 3//1 1//1
f 8//3 5//3 7//3
f 6//4 1//4 5//4
f 4//6 6//6 8//6
f 2//1 4//1 3//1
f 8//3 6//3 5//3
f 6//4 2//4 1//4
f 4//6 2//6 6//6
usemtl UpDir
f 4//2 7//2 3//2
f 4//2 8//2 7//2
usemtl LookingDir
f 7//5 1//5 3//5
f 7//5 5//5 1//5
o _L_pohja
v -74.218750 -58.593750 0.128906
v -54.687500 -58.593750 0.128906
v -54.687500 -105.468750 0.128906
v -31.250000 -105.468750 0.128906
v -31.250000 -125.000000 0.128906
v -74.218750 -125.000000 0.128906
vn -0.0000 -0.0000 1.0000
s 0
usemtl WHITE#NEON
f 13//7 11//7 14//7
f 9//7 11//7 10//7
f 13//7 12//7 11//7
f 9//7 14//7 11//7
o _laatta01
v -97.656250 -7.812500 0.128906
v -97.656250 11.718750 0.128906
v -54.687500 11.718750 0.128906
v -54.687500 -7.812500 0.128906
v -50.781250 11.718750 0.128906
v 39.062500 11.718750 0.128906
v 39.062500 -7.812500 0.128906
v -50.781250 -7.812500 0.128906
v -101.562500 11.718750 0.128906
v -101.562500 -31.250000 0.128906
v -117.187500 -31.250000 0.128906
v -117.187500 11.718750 0.128906
v -117.187500 -82.031250 0.128906
v -101.562500 -82.031250 0.128906
v -101.562500 -105.468750 0.128906
v -78.125000 -105.468750 0.128906
v -78.125000 -125.000000 0.128906
v -117.187500 -125.000000 0.128906
vn -0.0000 -0.0000 1.0000
s 0
usemtl WHITE#NEON
f 18//8 16//8 15//8
f 22//8 20//8 19//8
f 26//8 24//8 23//8
f 31//8 29//8 32//8
f 27//8 29//8 28//8
f 18//8 17//8 16//8
f 22//8 21//8 20//8
f 26//8 25//8 24//8
f 31//8 30//8 29//8
f 27//8 32//8 29//8
o Building08_1
v -23.886719 -120.796875 35.941406
v -12.167969 -120.796875 35.941406
v -12.167969 -109.078125 35.941406
v -23.886719 -109.078125 35.941406
v -23.886719 -120.796875 0.785156
v -12.167969 -120.796875 0.785156
v -12.167969 -109.078125 0.785156
v -23.886719 -109.078125 0.785156
vn -0.0000 -0.0000 1.0000
vn -0.0000 -1.0000 -0.0000
vn 1.0000 -0.0000 -0.0000
vn -0.0000 1.0000 -0.0000
vn -1.0000 -0.0000 -0.0000
vn -0.0000 -0.0000 -1.0000
s 0
usemtl BLUE#PLASTIC
f 34//9 36//9 33//9
f 37//10 34//10 33//10
f 38//11 35//11 34//11
f 39//12 36//12 35//12
f 40//13 33//13 36//13
f 40//14 38//14 37//14
f 34//9 35//9 36//9
f 37//10 38//10 34//10
f 38//11 39//11 35//11
f 39//12 40//12 36//12
f 40//13 37//13 33//13
f 40//14 39//14 38//14
o s01
v -81.715073 -123.991791 4.704394
v -81.662949 -124.038513 4.799256
v -81.630417 -124.070923 4.945015
v -81.636642 -124.069855 5.094300
v -81.670502 -124.035339 5.251088
v -81.723495 -123.987221 5.356615
v -81.686417 -124.019669 5.101590
v -81.682999 -124.023491 4.952312
v -81.967560 -124.458992 4.612230
v -81.874069 -124.547394 4.723282
v -81.811295 -124.610199 4.904751
v -81.814865 -124.606102 5.093321
v -81.884857 -124.546165 5.289068
v -81.982208 -124.453293 5.421594
v -81.914444 -124.516815 5.104049
v -81.908081 -124.518166 4.915473
v -82.392014 -125.235863 4.450736
v -82.290451 -125.332275 4.609033
v -82.225159 -125.397461 4.849472
v -82.231812 -125.395676 5.100915
v -82.302048 -125.329773 5.359490
v -82.410645 -125.231003 5.535150
v -82.334137 -125.298073 5.111573
v -82.327469 -125.299858 4.860129
v -82.802704 -125.676605 4.448068
v -82.703857 -125.775810 4.602443
v -82.638611 -125.835411 4.846772
v -82.642471 -125.836418 5.098247
v -82.715485 -125.767754 5.352861
v -82.821335 -125.671738 5.532481
v -82.744827 -125.738823 5.108905
v -82.743713 -125.740570 4.857437
v -83.324127 -125.905647 4.529885
v -83.230728 -125.993874 4.664513
v -83.168091 -126.056458 4.877415
v -83.174606 -126.054901 5.097425
v -83.241943 -125.992027 5.320670
v -83.339371 -125.898987 5.476770
v -83.271393 -125.962898 5.104217
v -83.264893 -125.964439 4.888136
v -83.640305 -126.041962 4.576595
v -83.588333 -126.088440 4.706820
v -83.556046 -126.120491 4.903658
v -83.562454 -126.119095 5.100094
v -83.599289 -126.086998 5.304039
v -83.652435 -126.038635 5.444929
v -83.615005 -126.071663 5.107390
v -83.608597 -126.073090 4.907026
v -83.754349 -125.398849 4.968488
v -83.859192 -125.298882 4.920176
v -84.072128 -125.100876 4.941435
v -84.180267 -125.002838 5.011005
v -84.180771 -125.002045 5.124952
v -84.075912 -125.102043 5.169335
v -83.862961 -125.300049 5.148076
v -83.757614 -125.400833 5.078512
v -83.280533 -125.460342 4.884555
v -83.526184 -125.229675 4.795418
v -84.018463 -124.766754 4.845037
v -84.267868 -124.531715 4.983761
v -84.271652 -124.532883 5.211661
v -84.026016 -124.763542 5.300798
v -83.533707 -125.226494 5.247250
v -83.281525 -125.458778 5.108519
v -82.991943 -125.151848 4.883677
v -83.237595 -124.921150 4.798470
v -83.729874 -124.458237 4.848088
v -83.976532 -124.225983 4.986844
v -83.983063 -124.224365 5.214712
v -83.737442 -124.455025 5.303849
v -83.245132 -124.917969 5.250301
v -82.995728 -125.153015 5.111577
v -82.528107 -124.237289 4.965796
v -82.671692 -124.103783 4.928869
v -82.953781 -123.841621 4.957235
v -83.092316 -123.707413 5.026421
v -82.954285 -123.840828 5.071182
v -82.672195 -124.102989 5.042815
v -82.898788 -122.881874 4.825049
v -82.948990 -122.831001 4.930569
v -82.988388 -122.796455 5.087332
v -82.991821 -122.798172 5.236649
v -82.959290 -122.830582 5.382407
v -82.907181 -122.877304 5.477269
v -82.939270 -122.845604 5.229352
v -82.938614 -122.846642 5.080042
v -83.344833 -123.165054 4.750397
v -83.447739 -123.072128 4.886827
v -83.514954 -123.009453 5.082567
v -83.515762 -123.008171 5.267240
v -83.455734 -123.068184 5.448677
v -83.359497 -123.159332 5.563690
v -83.418976 -123.100166 5.260448
v -83.418137 -123.101479 5.071846
v -84.095688 -123.640663 4.628590
v -84.201508 -123.539131 4.804242
v -84.274536 -123.475990 5.062824
v -84.278366 -123.471481 5.310332
v -84.213135 -123.536629 5.554699
v -84.111511 -123.633072 5.709068
v -84.176056 -123.569077 5.299674
v -84.169434 -123.570831 5.052160
v -84.509140 -124.078629 4.625890
v -84.612183 -123.979889 4.801574
v -84.687973 -123.913948 5.060125
v -84.689056 -123.912224 5.307664
v -84.626572 -123.974579 5.552000
v -84.524979 -124.071030 5.706368
v -84.586746 -124.009819 5.297007
v -84.585648 -124.011543 5.049468
v -84.701416 -124.611687 4.671981
v -84.804413 -124.518616 4.828058
v -84.871719 -124.455750 5.051302
v -84.875473 -124.456970 5.271344
v -84.815613 -124.516762 5.484215
v -84.719452 -124.607773 5.618874
v -84.778687 -124.548996 5.260623
v -84.774933 -124.547775 5.040581
v -84.824020 -124.932030 4.701179
v -84.874374 -124.880936 4.838132
v -84.913971 -124.846054 5.042047
v -84.917633 -124.847412 5.242442
v -84.885330 -124.879463 5.439281
v -84.836136 -124.928726 5.565583
v -84.865082 -124.894852 5.235146
v -84.861420 -124.899033 5.034788
v -83.028488 -125.192459 4.985965
v -83.067200 -125.236763 4.954668
v -83.250198 -125.429779 4.923770
v -83.267120 -125.451424 4.982788
v -83.250595 -125.429146 5.014142
v -83.067474 -125.236328 5.017534
v -82.563904 -125.505180 5.005908
v -82.616348 -125.557938 4.943173
v -82.840851 -125.803543 4.881024
v -82.869141 -125.830231 5.002899
v -82.844421 -125.799469 5.065665
v -82.616898 -125.557060 5.068907
v -84.015839 -124.263817 5.089100
v -84.057312 -124.305336 5.057771
v -84.237549 -124.501129 5.026906
v -84.259995 -124.522743 5.085899
v -84.237946 -124.500496 5.117277
v -84.057571 -124.304924 5.116709
v -84.358826 -123.823563 5.190618
v -84.408508 -123.873528 5.131804
v -84.632996 -124.119164 5.065726
v -84.661285 -124.145851 5.187601
v -84.639359 -124.117851 5.250373
v -84.411819 -123.875435 5.253616
vn 0.6803 0.7327 0.0171
vn 0.6797 -0.1757 -0.7121
vn 0.8791 -0.2653 -0.3959
vn 0.9472 -0.3195 0.0250
vn 0.8697 -0.2898 0.3996
vn 0.6940 -0.2408 0.6785
vn -0.8764 0.4007 -0.2671
vn -0.9087 0.4160 -0.0337
vn -0.8711 0.4209 0.2530
vn 0.7167 -0.2878 -0.6352
vn 0.8415 -0.4184 -0.3419
vn 0.8841 -0.4666 0.0267
vn 0.8336 -0.4369 0.3378
vn 0.7127 -0.3235 0.6225
vn -0.8667 0.4443 -0.2269
vn -0.8801 0.4741 -0.0266
vn -0.8761 0.4358 0.2062
vn 0.5470 -0.4999 -0.6714
vn 0.6904 -0.6385 -0.3402
vn 0.7316 -0.6817 0.0086
vn 0.6797 -0.6355 0.3662
vn 0.5707 -0.5355 0.6225
vn -0.7107 0.6636 -0.2335
vn -0.7316 0.6817 -0.0080
vn -0.7118 0.6710 0.2074
vn 0.2236 -0.7369 -0.6380
vn 0.3220 -0.8785 -0.3530
vn 0.3797 -0.9249 0.0178
vn 0.3489 -0.8693 0.3500
vn 0.2625 -0.7479 0.6097
vn -0.3715 0.9014 -0.2224
vn -0.3914 0.9201 -0.0183
vn -0.3754 0.9027 0.2102
vn 0.3045 -0.8521 -0.4256
vn 0.2294 -0.9540 -0.1930
vn 0.1634 -0.9865 0.0124
vn 0.2436 -0.9504 0.1935
vn 0.3347 -0.8453 0.4164
vn -0.3925 0.9101 -0.1326
vn -0.3019 0.9532 -0.0165
vn -0.2935 0.9487 0.1175
vn -0.6702 -0.7421 -0.0103
vn -0.6796 -0.7335 -0.0117
vn -0.2143 -0.5422 -0.8125
vn -0.3015 -0.2212 -0.9275
vn -0.5879 -0.1552 -0.7939
vn -0.9822 -0.1871 -0.0172
vn -0.5306 -0.2523 0.8092
vn -0.2076 -0.3274 0.9218
vn -0.1231 -0.6040 0.7874
vn -0.1276 -0.9918 0.0063
vn 0.1838 -0.1623 -0.9695
vn -0.0485 0.0553 -0.9973
vn -0.2697 0.2664 -0.9254
vn -0.7236 0.6898 -0.0257
vn -0.1915 0.1696 0.9667
vn 0.0528 -0.0592 0.9969
vn 0.2694 -0.2612 0.9269
vn 0.7303 -0.6831 0.0086
vn 0.2395 -0.0109 -0.9708
vn 0.0292 0.1385 -0.9899
vn -0.1376 0.3380 -0.9311
vn -0.5051 0.8628 -0.0206
vn 0.0177 0.3344 0.9423
vn 0.1986 0.1083 0.9741
vn 0.4217 -0.0662 0.9043
vn 0.8913 -0.4532 0.0125
vn 0.6808 0.7324 -0.0021
vn 0.7107 0.7034 0.0113
vn -0.3835 0.7472 -0.5428
vn -0.3955 0.8710 -0.2914
vn -0.3750 0.9270 0.0020
vn -0.3225 0.8617 0.3917
vn -0.2229 0.6646 0.7132
vn 0.4754 -0.8413 -0.2574
vn 0.4691 -0.8831 0.0082
vn 0.4481 -0.8520 0.2707
vn -0.3083 0.6618 -0.6833
vn -0.4480 0.7953 -0.4085
vn -0.5232 0.8522 -0.0082
vn -0.4735 0.8113 0.3428
vn -0.3332 0.6853 0.6475
vn 0.4918 -0.8451 -0.2096
vn 0.5272 -0.8495 0.0201
vn 0.5039 -0.8182 0.2768
vn -0.5624 0.5349 -0.6305
vn -0.6844 0.6398 -0.3495
vn -0.7271 0.6865 -0.0080
vn -0.6856 0.6367 0.3528
vn -0.5406 0.5062 0.6720
vn 0.7119 -0.6708 -0.2077
vn 0.7316 -0.6817 0.0080
vn 0.7063 -0.6684 0.2332
vn -0.7505 0.2167 -0.6244
vn -0.8870 0.2992 -0.3518
vn -0.9468 0.3214 -0.0143
vn -0.9068 0.2899 0.3059
vn -0.7622 0.1883 0.6193
vn 0.9330 -0.3076 -0.1868
vn 0.9419 -0.3358 0.0065
vn 0.9192 -0.3281 0.2180
vn -0.8582 0.2898 -0.4237
vn -0.9596 0.1793 -0.2170
vn -0.9940 0.1080 -0.0174
vn -0.9533 0.0814 0.2910
vn -0.7867 0.0753 0.6127
vn 0.9305 -0.3044 -0.2038
vn 0.9698 -0.2434 0.0152
vn 0.9442 -0.2363 0.2293
vn -0.7113 -0.7027 -0.0178
vn -0.7296 0.6838 -0.0080
vn 0.3845 0.5227 -0.7609
vn 0.0921 0.1644 -0.9821
vn -0.6596 -0.6876 -0.3036
vn -0.5986 -0.6007 0.5300
vn -0.0762 0.0549 0.9956
vn 0.2129 0.4389 0.8729
vn 0.7296 -0.6838 0.0080
vn 0.4090 0.4954 -0.7664
vn 0.0551 0.2121 -0.9757
vn -0.6920 -0.6548 -0.3040
vn -0.5093 -0.7056 0.4927
vn 0.1681 -0.1708 0.9709
vn 0.6149 0.2712 0.7405
vn 0.6356 0.7713 -0.0326
vn 0.7109 0.7032 0.0139
vn 0.6550 0.7553 0.0218
vn 0.6556 0.7550 0.0117
vn 0.7098 0.7044 -0.0018
vn 0.7653 -0.3014 -0.5688
vn 0.9018 -0.3330 -0.2753
vn 0.9481 -0.3152 0.0416
vn 0.8945 -0.3552 0.2714
vn 0.7642 -0.3485 0.5427
vn -0.8700 0.4572 -0.1846
vn -0.9086 0.4166 -0.0315
vn -0.9020 0.3979 0.1676
vn 0.6591 -0.2100 -0.7221
vn 0.8267 -0.3779 -0.4168
vn 0.8841 -0.4666 0.0270
vn 0.8182 -0.3984 0.4145
vn 0.6749 -0.2716 0.6861
vn -0.8489 0.4534 -0.2718
vn -0.8806 0.4727 -0.0331
vn -0.8595 0.4431 0.2550
vn 0.5500 -0.5084 -0.6626
vn 0.6801 -0.6398 -0.3581
vn 0.7269 -0.6863 0.0241
vn 0.6788 -0.6460 0.3491
vn 0.5532 -0.5319 0.6411
vn -0.7267 0.6865 -0.0241
vn -0.7149 0.6648 0.2166
vn 0.2337 -0.7431 -0.6271
vn 0.3510 -0.8838 -0.3094
vn 0.3854 -0.9228 0.0023
vn 0.3571 -0.8710 0.3373
vn 0.2895 -0.7627 0.5783
vn -0.3811 0.9000 -0.2114
vn -0.3950 0.9186 -0.0081
vn -0.3686 0.9089 0.1951
vn 0.1353 -0.7831 -0.6070
vn 0.1337 -0.9395 -0.3155
vn 0.1636 -0.9865 0.0119
vn 0.1573 -0.9372 0.3114
vn 0.1828 -0.7901 0.5850
vn -0.2966 0.9308 -0.2138
vn -0.3022 0.9531 -0.0159
vn -0.3610 0.9089 0.2088
vn -0.6777 -0.7354 -0.0032
vn -0.7121 -0.7018 -0.0182
vn -0.6368 -0.7707 -0.0210
vn -0.6052 -0.7959 -0.0137
vn -0.6701 -0.7423 -0.0056
vn -0.6786 -0.7336 0.0352
vn -0.6816 -0.7309 -0.0334
vn -0.6823 -0.7304 -0.0310
vn -0.6906 -0.7232 0.0020
vn -0.6881 -0.7252 -0.0256
vn -0.1798 -0.5744 -0.7986
vn -0.2975 -0.2202 -0.9290
vn -0.6150 -0.1258 -0.7785
vn -0.9831 -0.1830 -0.0031
vn -0.5561 -0.2284 0.7991
vn -0.2066 -0.3214 0.9241
vn -0.0920 -0.6290 0.7720
vn -0.1194 -0.9926 -0.0215
vn 0.1854 -0.1762 -0.9667
vn -0.2694 0.2612 -0.9269
vn -0.7302 0.6831 -0.0086
vn 0.2694 -0.2611 0.9269
vn 0.7305 -0.6829 0.0080
vn 0.2799 -0.0559 -0.9584
vn 0.0295 0.1375 -0.9901
vn -0.1724 0.3638 -0.9154
vn -0.0074 0.3535 0.9354
vn 0.2057 0.1062 0.9728
vn 0.4291 -0.0759 0.9000
vn 0.6808 0.7325 0.0010
vn 0.6805 0.7328 -0.0047
vn 0.6954 0.7187 -0.0019
vn 0.6504 0.7592 0.0237
vn 0.7580 0.6505 0.0471
vn 0.5849 0.8111 -0.0031
vn -0.2730 0.6868 -0.6737
vn -0.3421 0.8544 -0.3910
vn -0.3724 0.9280 -0.0081
vn -0.3835 0.8797 0.2812
vn -0.3571 0.7452 0.5632
vn 0.4532 -0.8749 -0.1705
vn 0.5022 -0.8425 0.1949
vn -0.3628 0.6953 -0.6204
vn -0.4869 0.8069 -0.3345
vn -0.5200 0.8538 -0.0237
vn -0.4377 0.8004 0.4095
vn -0.2617 0.6377 0.7244
vn 0.4988 -0.8270 -0.2592
vn 0.5297 -0.8482 0.0082
vn 0.4952 -0.8393 0.2246
vn -0.5597 0.5254 -0.6409
vn -0.6768 0.6411 -0.3619
vn -0.7313 0.6816 -0.0238
vn -0.6850 0.6445 0.3397
vn 0.7149 -0.6648 -0.2166
vn 0.7267 -0.6865 0.0243
vn 0.7064 -0.6683 0.2334
vn -0.7696 0.2456 -0.5895
vn -0.8892 0.3071 -0.3390
vn -0.9460 0.3241 -0.0064
vn -0.9032 0.2735 0.3309
vn -0.7463 0.1653 0.6447
vn 0.9264 -0.3159 -0.2050
vn 0.9428 -0.3330 0.0142
vn 0.9201 -0.3114 0.2375
vn -0.7880 0.1354 -0.6007
vn -0.9427 0.1095 -0.3152
vn -0.9940 0.1085 -0.0163
vn -0.9690 0.1633 0.1856
vn -0.8678 0.2436 0.4330
vn 0.9663 -0.2334 -0.1086
vn 0.9707 -0.2394 0.0227
vn 0.9291 -0.3430 0.1381
vn -0.7098 -0.7044 0.0018
vn -0.6712 -0.7411 -0.0172
vn -0.7107 -0.7033 -0.0177
vn -0.7314 -0.6818 -0.0146
vn -0.6697 -0.7426 0.0033
vn -0.7144 0.6929 -0.0971
vn -0.7243 0.6869 0.0597
vn -0.7980 0.6026 -0.0077
vn 0.2594 0.3957 -0.8810
vn 0.0222 0.1375 -0.9903
vn -0.6141 -0.6676 -0.4209
vn -0.5521 -0.5142 0.6563
vn -0.0737 0.0559 0.9957
vn 0.3453 0.5610 0.7524
vn 0.7314 -0.6743 0.1018
vn 0.7398 -0.6657 -0.0973
vn 0.7044 -0.7098 0.0080
vn 0.2832 0.3812 -0.8801
vn 0.0284 0.1301 -0.9911
vn -0.6376 -0.6126 -0.4672
vn -0.3876 -0.6013 0.6987
vn 0.1730 -0.1567 0.9724
vn 0.4446 0.1425 0.8843
s 0
usemtl LIGHT_BLUE
f 48//15 44//15 42//15
f 42//16 50//16 49//16
f 43//17 51//17 50//17
f 53//19 52//19 44//19
f 54//20 53//20 45//20
f 47//21 55//21 54//21
f 48//22 56//22 55//22
f 41//23 49//23 56//23
f 50//24 58//24 57//24
f 51//25 59//25 58//25
f 61//27 60//27 52//27
f 62//28 61//28 53//28
f 63//29 62//29 54//29
f 56//30 64//30 63//30
f 49//31 57//31 64//31
f 58//32 66//32 65//32
f 67//33 66//33 58//33
f 69//35 68//35 60//35
f 62//36 70//36 69//36
f 71//37 70//37 62//37
f 72//38 71//38 63//38
f 65//39 72//39 64//39
f 74//40 73//40 65//40
f 75//41 74//41 66//41
f 69//43 77//43 76//43
f 70//44 78//44 77//44
f 79//45 78//45 70//45
f 80//46 79//46 71//46
f 73//47 80//47 72//47
f 82//48 81//48 73//48
f 83//49 82//49 74//49
f 77//51 85//51 84//51
f 78//52 86//52 85//52
f 87//53 86//53 78//53
f 88//54 87//54 79//54
f 81//55 88//55 80//55
f 85//56 88//56 83//56
f 102//62 101//62 93//62
f 96//64 104//64 103//64
f 102//70 110//70 109//70
f 112//72 111//72 103//72
f 110//78 117//78 116//78
f 113//80 118//80 111//80
f 123//83 126//83 121//83
f 120//84 119//84 127//84
f 121//85 120//85 128//85
f 122//87 130//87 131//87
f 123//88 131//88 132//88
f 124//89 132//89 133//89
f 125//90 133//90 134//90
f 126//91 134//91 127//91
f 128//92 127//92 135//92
f 129//93 128//93 136//93
f 130//95 138//95 139//95
f 131//96 139//96 140//96
f 132//97 140//97 141//97
f 133//98 141//98 142//98
f 127//99 134//99 142//99
f 135//100 143//100 144//100
f 137//101 136//101 144//101
f 139//103 138//103 146//103
f 139//104 147//104 148//104
f 140//105 148//105 149//105
f 141//106 149//106 150//106
f 135//107 142//107 150//107
f 143//108 151//108 152//108
f 144//109 152//109 153//109
f 147//111 146//111 154//111
f 148//112 147//112 155//112
f 149//113 148//113 156//113
f 150//114 149//114 157//114
f 143//115 150//115 158//115
f 151//116 159//116 160//116
f 152//117 160//117 161//117
f 155//119 154//119 162//119
f 156//120 155//120 163//120
f 157//121 156//121 164//121
f 158//122 157//122 165//122
f 151//123 158//123 166//123
f 166//124 162//124 160//124
f 167//125 169//125 171//125
f 167//126 173//126 174//126
f 168//127 174//127 175//127
f 169//128 175//128 176//128
f 170//129 176//129 177//129
f 172//130 171//130 177//130
f 167//131 172//131 178//131
f 179//132 183//132 181//132
f 186//133 185//133 179//133
f 187//134 186//134 180//134
f 182//135 188//135 187//135
f 183//136 189//136 188//136
f 184//137 190//137 189//137
f 185//138 190//138 184//138
f 44//139 46//139 45//139
f 44//140 47//140 46//140
f 42//141 44//141 43//141
f 48//142 42//142 41//142
f 44//143 48//143 47//143
f 42//144 49//144 41//144
f 43//145 50//145 42//145
f 53//147 44//147 45//147
f 54//148 45//148 46//148
f 47//149 54//149 46//149
f 48//150 55//150 47//150
f 41//151 56//151 48//151
f 50//152 57//152 49//152
f 51//153 58//153 50//153
f 61//155 52//155 53//155
f 62//156 53//156 54//156
f 63//157 54//157 55//157
f 56//158 63//158 55//158
f 49//159 64//159 56//159
f 58//160 65//160 57//160
f 67//161 58//161 59//161
f 69//163 60//163 61//163
f 62//164 69//164 61//164
f 71//37 62//37 63//37
f 72//165 63//165 64//165
f 65//166 64//166 57//166
f 74//167 65//167 66//167
f 75//168 66//168 67//168
f 69//170 76//170 68//170
f 70//171 77//171 69//171
f 79//172 70//172 71//172
f 80//173 71//173 72//173
f 73//174 72//174 65//174
f 82//175 73//175 74//175
f 83//176 74//176 75//176
f 77//178 84//178 76//178
f 78//179 85//179 77//179
f 87//180 78//180 79//180
f 88//181 79//181 80//181
f 81//182 80//182 73//182
f 87//183 85//183 86//183
f 85//184 83//184 84//184
f 83//185 81//185 82//185
f 88//186 85//186 87//186
f 83//187 88//187 81//187
f 102//197 93//197 94//197
f 96//199 103//199 95//199
f 102//70 109//70 101//70
f 112//204 103//204 104//204
f 110//209 116//209 109//209
f 113//211 111//211 112//211
f 125//142 123//142 124//142
f 123//215 121//215 122//215
f 121//216 119//216 120//216
f 126//217 123//217 125//217
f 121//140 126//140 119//140
f 120//218 127//218 128//218
f 121//219 128//219 129//219
f 122//221 131//221 123//221
f 123//222 132//222 124//222
f 124//223 133//223 125//223
f 125//90 134//90 126//90
f 126//224 127//224 119//224
f 128//225 135//225 136//225
f 129//226 136//226 137//226
f 130//228 139//228 131//228
f 131//229 140//229 132//229
f 132//230 141//230 133//230
f 133//231 142//231 134//231
f 127//232 142//232 135//232
f 135//233 144//233 136//233
f 137//234 144//234 145//234
f 139//236 146//236 147//236
f 139//104 148//104 140//104
f 140//237 149//237 141//237
f 141//238 150//238 142//238
f 135//239 150//239 143//239
f 143//240 152//240 144//240
f 144//241 153//241 145//241
f 147//243 154//243 155//243
f 148//244 155//244 156//244
f 149//245 156//245 157//245
f 150//246 157//246 158//246
f 143//247 158//247 151//247
f 151//248 160//248 152//248
f 152//249 161//249 153//249
f 155//251 162//251 163//251
f 156//252 163//252 164//252
f 157//253 164//253 165//253
f 158//254 165//254 166//254
f 151//255 166//255 159//255
f 162//256 164//256 163//256
f 162//257 165//257 164//257
f 160//258 162//258 161//258
f 166//259 160//259 159//259
f 162//260 166//260 165//260
f 169//261 167//261 168//261
f 167//262 171//262 172//262
f 171//263 169//263 170//263
f 167//264 174//264 168//264
f 168//265 175//265 169//265
f 169//266 176//266 170//266
f 170//267 177//267 171//267
f 172//268 177//268 178//268
f 167//269 178//269 173//269
f 183//270 179//270 184//270
f 179//271 181//271 180//271
f 181//272 183//272 182//272
f 186//273 179//273 180//273
f 187//274 180//274 181//274
f 182//275 187//275 181//275
f 183//276 188//276 182//276
f 184//277 189//277 183//277
f 185//278 184//278 179//278
usemtl BLACK
f 52//18 51//18 43//18
f 60//26 59//26 51//26
f 60//34 68//34 67//34
f 68//42 76//42 75//42
f 76//50 84//50 83//50
f 122//86 121//86 129//86
f 130//94 129//94 137//94
f 137//102 145//102 146//102
f 145//110 153//110 154//110
f 153//118 161//118 162//118
f 52//146 43//146 44//146
f 60//154 51//154 52//154
f 60//162 67//162 59//162
f 68//169 75//169 67//169
f 76//177 83//177 75//177
f 122//220 129//220 130//220
f 130//227 137//227 138//227
f 137//235 146//235 138//235
f 145//242 154//242 146//242
f 153//250 162//250 154//250
usemtl ORANGE
f 90//57 94//57 92//57
f 94//188 96//188 95//188
f 96//189 90//189 89//189
f 90//190 92//190 91//190
f 92//191 94//191 93//191
f 94//192 90//192 96//192
usemtl GREY
f 98//58 97//58 89//58
f 99//59 98//59 90//59
f 92//60 100//60 99//60
f 93//61 101//61 100//61
f 103//63 102//63 94//63
f 89//65 97//65 104//65
f 98//66 106//66 105//66
f 99//67 107//67 106//67
f 100//68 108//68 107//68
f 109//69 108//69 100//69
f 111//71 110//71 102//71
f 97//73 105//73 112//73
f 106//74 114//74 113//74
f 107//75 115//75 114//75
f 116//76 115//76 107//76
f 116//77 108//77 109//77
f 111//79 118//79 117//79
f 113//81 112//81 105//81
f 113//82 115//82 117//82
f 98//193 89//193 90//193
f 99//194 90//194 91//194
f 92//195 99//195 91//195
f 93//196 100//196 92//196
f 103//198 94//198 95//198
f 89//200 104//200 96//200
f 98//201 105//201 97//201
f 99//67 106//67 98//67
f 100//202 107//202 99//202
f 109//203 100//203 101//203
f 111//71 102//71 103//71
f 97//205 112//205 104//205
f 106//206 113//206 105//206
f 107//207 114//207 106//207
f 116//208 107//208 108//208
f 111//210 117//210 110//210
f 115//212 113//212 114//212
f 113//213 117//213 118//213
f 117//214 115//214 116//214
o sivutalo
v -55.019531 -109.093750 17.003906
v -33.535156 -109.093750 17.003906
v -33.535156 -120.812500 17.003906
v -55.019531 -120.812500 17.003906
v -55.019531 -109.093750 0.113281
v -33.535156 -109.093750 0.113281
v -33.535156 -120.812500 0.113281
v -55.019531 -120.812500 0.113281
vn -0.0000 -0.0000 1.0000
vn -0.0000 1.0000 -0.0000
vn 1.0000 -0.0000 -0.0000
vn -0.0000 -1.0000 -0.0000
vn -1.0000 -0.0000 -0.0000
vn -0.0000 -0.0000 -1.0000
s 0
usemtl DEFAULT
f 194//279 192//279 191//279
f 192//280 195//280 191//280
f 193//281 196//281 192//281
f 194//282 197//282 193//282
f 191//283 198//283 194//283
f 198//284 196//284 197//284
f 194//279 193//279 192//279
f 192//280 196//280 195//280
f 193//281 197//281 196//281
f 194//282 198//282 197//282
f 191//283 195//283 198//283
f 198//284 195//284 196//284
o talojota
v -115.496094 -117.621094 16.949219
v -82.191406 -117.621094 16.949219
v -82.191406 -106.925781 16.949219
v -115.496094 -106.925781 16.949219
v -115.496094 -117.621094 0.089844
v -82.191406 -117.621094 0.089844
v -82.191406 -106.925781 0.089844
v -115.496094 -106.925781 0.089844
vn -0.0000 -0.0000 1.0000
vn -0.0000 -1.0000 -0.0000
vn 1.0000 -0.0000 -0.0000
vn -0.0000 1.0000 -0.0000
vn -1.0000 -0.0000 -0.0000
vn -0.0000 -0.0000 -1.0000
s 0
usemtl DEFAULT
f 200//285 202//285 199//285
f 203//286 200//286 199//286
f 204//287 201//287 200//287
f 205//288 202//288 201//288
f 206//289 199//289 202//289
f 206//290 204//290 203//290
f 200//285 201//285 202//285
f 203//286 204//286 200//286
f 204//287 205//287 201//287
f 205//288 206//288 202//288
f 206//289 203//289 199//289
f 206//290 205//290 204//290
o tunneli2
v -70.199219 -120.886719 0.125000
v -70.199219 -105.371094 0.125000
v -70.199219 -105.371094 35.449219
v -70.199219 -120.886719 35.449219
v -57.882812 -120.886719 0.125000
v -57.882812 -105.371094 0.125000
v -57.882812 -105.371094 35.449219
v -57.882812 -120.886719 35.449219
vn -1.0000 -0.0000 -0.0000
vn -0.0000 -0.0000 -1.0000
vn -0.0000 1.0000 -0.0000
vn -0.0000 -0.0000 1.0000
vn -0.0000 -1.0000 -0.0000
vn 1.0000 -0.0000 -0.0000
s 0
usemtl DEFAULT
f 210//291 208//291 207//291
f 208//292 211//292 207//292
f 209//293 212//293 208//293
f 210//294 213//294 209//294
f 207//295 214//295 210//295
f 212//296 214//296 211//296
f 210//291 209//291 208//291
f 208//292 212//292 211//292
f 209//293 213//293 212//293
f 210//294 214//294 213//294
f 207//295 211//295 214//295
f 212//296 213//296 214//296
