# Blender 3.6.5
# www.blender.org
mtllib U2E_anim70.mtl
o CameraBox
v -98.906288 -137.563202 5.046396
v -98.961632 -137.755219 5.054486
v -98.910820 -137.553482 5.246099
v -98.966164 -137.745499 5.254189
v -98.714149 -137.618271 5.053437
v -98.769493 -137.810287 5.061526
v -98.718681 -137.608551 5.253140
v -98.774025 -137.800568 5.261230
vn -0.9607 0.2754 -0.0352
vn -0.0227 0.0486 0.9986
vn 0.9607 -0.2754 0.0352
vn 0.0227 -0.0486 -0.9986
vn 0.2767 0.9601 -0.0404
vn -0.2767 -0.9601 0.0404
s 0
usemtl None
f 2//1 3//1 1//1
f 8//3 5//3 7//3
f 6//4 1//4 5//4
f 4//6 6//6 8//6
f 2//1 4//1 3//1
f 8//3 6//3 5//3
f 6//4 2//4 1//4
f 4//6 2//6 6//6
usemtl UpDir
f 4//2 7//2 3//2
f 4//2 8//2 7//2
usemtl LookingDir
f 7//5 1//5 3//5
f 7//5 5//5 1//5
o _laatta01
v -97.656250 -7.812500 0.128906
v -97.656250 11.718750 0.128906
v -54.687500 11.718750 0.128906
v -54.687500 -7.812500 0.128906
v -50.781250 11.718750 0.128906
v 39.062500 11.718750 0.128906
v 39.062500 -7.812500 0.128906
v -50.781250 -7.812500 0.128906
v -101.562500 11.718750 0.128906
v -101.562500 -31.250000 0.128906
v -117.187500 -31.250000 0.128906
v -117.187500 11.718750 0.128906
v -117.187500 -82.031250 0.128906
v -101.562500 -82.031250 0.128906
v -101.562500 -105.468750 0.128906
v -78.125000 -105.468750 0.128906
v -78.125000 -125.000000 0.128906
v -117.187500 -125.000000 0.128906
vn -0.0000 -0.0000 1.0000
s 0
usemtl WHITE#NEON
f 12//7 10//7 9//7
f 16//7 14//7 13//7
f 20//7 18//7 17//7
f 25//7 23//7 26//7
f 21//7 23//7 22//7
f 12//7 11//7 10//7
f 16//7 15//7 14//7
f 20//7 19//7 18//7
f 25//7 24//7 23//7
f 21//7 26//7 23//7
o fcirto01
v -95.593750 -117.921875 11.671875
v -95.593750 -117.921875 9.718750
v -97.546875 -117.921875 9.718750
v -97.546875 -117.921875 11.671875
v -95.593750 -117.921875 7.765625
v -95.593750 -117.921875 5.812500
v -97.546875 -117.921875 5.812500
v -97.546875 -117.921875 7.765625
v -95.593750 -117.921875 3.859375
v -95.593750 -117.921875 1.906250
v -97.546875 -117.921875 1.906250
v -97.546875 -117.921875 3.859375
v -99.500000 -117.921875 7.765625
v -99.500000 -117.921875 5.812500
v -101.453125 -117.921875 5.812500
v -101.453125 -117.921875 7.765625
v -99.500000 -117.921875 3.859375
v -99.500000 -117.921875 1.906250
v -101.453125 -117.921875 1.906250
v -101.453125 -117.921875 3.859375
v -99.500000 -117.921875 11.671875
v -99.500000 -117.921875 9.718750
v -101.453125 -117.921875 9.718750
v -101.453125 -117.921875 11.671875
v -87.519531 -117.921875 11.671875
v -87.519531 -117.921875 9.718750
v -89.472656 -117.921875 9.718750
v -89.472656 -117.921875 11.671875
v -87.519531 -117.921875 7.765625
v -87.519531 -117.921875 5.812500
v -89.472656 -117.921875 5.812500
v -89.472656 -117.921875 7.765625
v -87.519531 -117.921875 3.859375
v -87.519531 -117.921875 1.906250
v -89.472656 -117.921875 1.906250
v -89.472656 -117.921875 3.859375
v -91.425781 -117.921875 7.765625
v -91.425781 -117.921875 5.812500
v -93.378906 -117.921875 5.812500
v -93.378906 -117.921875 7.765625
v -91.425781 -117.921875 3.859375
v -91.425781 -117.921875 1.906250
v -93.378906 -117.921875 1.906250
v -93.378906 -117.921875 3.859375
v -91.425781 -117.921875 11.671875
v -91.425781 -117.921875 9.718750
v -93.378906 -117.921875 9.718750
v -93.378906 -117.921875 11.671875
vn -0.0000 -1.0000 -0.0000
s 0
usemtl C_GROUND
f 30//8 28//8 27//8
f 34//8 32//8 31//8
f 38//8 36//8 35//8
f 42//8 40//8 39//8
f 46//8 44//8 43//8
f 50//8 48//8 47//8
f 54//8 52//8 51//8
f 58//8 56//8 55//8
f 62//8 60//8 59//8
f 66//8 64//8 63//8
f 70//8 68//8 67//8
f 74//8 72//8 71//8
f 30//8 29//8 28//8
f 34//8 33//8 32//8
f 38//8 37//8 36//8
f 42//8 41//8 40//8
f 46//8 45//8 44//8
f 50//8 49//8 48//8
f 54//8 53//8 52//8
f 58//8 57//8 56//8
f 62//8 61//8 60//8
f 66//8 65//8 64//8
f 70//8 69//8 68//8
f 74//8 73//8 72//8
o s01
v -90.099747 -127.828445 4.370330
v -90.072464 -127.892700 4.465320
v -90.057510 -127.935913 4.611139
v -90.063965 -127.932625 4.760381
v -90.081818 -127.887444 4.917099
v -90.111038 -127.821892 5.022491
v -90.088562 -127.866333 4.767572
v -90.085770 -127.870995 4.618305
v -90.522186 -128.149078 4.274045
v -90.474609 -128.268433 4.385306
v -90.444992 -128.351868 4.566895
v -90.448166 -128.346970 4.755453
v -90.488724 -128.263794 4.951001
v -90.540009 -128.139160 5.083305
v -90.501953 -128.224503 4.765928
v -90.495102 -128.228058 4.577397
v -91.228760 -128.680267 4.105667
v -91.177551 -128.810364 4.264188
v -91.147141 -128.897095 4.504749
v -91.154587 -128.893158 4.756145
v -91.193436 -128.804504 5.014549
v -91.252899 -128.669937 5.189934
v -91.207413 -128.761963 4.766574
v -91.199966 -128.765930 4.515178
v -91.785004 -128.911469 4.097896
v -91.737411 -129.042938 4.252462
v -91.704742 -129.124634 4.496941
v -91.710831 -129.124359 4.748375
v -91.751007 -129.032074 5.002812
v -91.809128 -128.901154 5.182163
v -91.763657 -128.993164 4.758803
v -91.761246 -128.994812 4.507343
v -92.355133 -128.904251 4.174893
v -92.307770 -129.023453 4.309729
v -92.278473 -129.106705 4.522749
v -92.285629 -129.102951 4.742713
v -92.322784 -129.018219 4.965792
v -92.374298 -128.893463 5.121670
v -92.335693 -128.979156 4.749287
v -92.328583 -128.982895 4.533252
v -92.699753 -128.897537 4.218694
v -92.672821 -128.961578 4.349045
v -92.658340 -129.004456 4.545942
v -92.665253 -129.000854 4.742332
v -92.687241 -128.956726 4.946173
v -92.716797 -128.890930 5.086926
v -92.693527 -128.935928 4.749497
v -92.686569 -128.939545 4.549179
v -92.540695 -128.265564 4.613003
v -92.594330 -128.131073 4.564458
v -92.706406 -127.862717 4.585215
v -92.764847 -127.728836 4.654515
v -92.765930 -127.728096 4.768458
v -92.712265 -127.862595 4.813074
v -92.600189 -128.130951 4.792317
v -92.545425 -128.266205 4.722990
v -92.134140 -128.517517 4.532095
v -92.261505 -128.205719 4.442394
v -92.518433 -127.580627 4.490877
v -92.649353 -127.263664 4.629024
v -92.655197 -127.263542 4.856883
v -92.527847 -127.575348 4.946585
v -92.270889 -128.200455 4.894172
v -92.136307 -128.516068 4.756052
v -91.743744 -128.356171 4.534797
v -91.871155 -128.044342 4.449025
v -92.128052 -127.419243 4.497508
v -92.257614 -127.105957 4.635693
v -92.264847 -127.102158 4.863514
v -92.137466 -127.413963 4.953215
v -91.880508 -128.039062 4.900804
v -91.749603 -128.356049 4.762656
v -90.943665 -127.715797 4.624773
v -91.018799 -127.534767 4.587508
v -91.167297 -127.179398 4.615208
v -91.238419 -127.000000 4.684091
v -91.168396 -127.178658 4.729150
v -91.019882 -127.534027 4.701451
v -90.718826 -126.328293 4.488237
v -90.744385 -126.261375 4.593657
v -90.767273 -126.213882 4.750311
v -90.772369 -126.214272 4.899589
v -90.757416 -126.257477 5.045408
v -90.730133 -126.321739 5.140398
v -90.744110 -126.279198 4.892423
v -90.742676 -126.280167 4.743119
v -91.241455 -126.401306 4.409029
v -91.297821 -126.274345 4.545198
v -91.334717 -126.189796 4.740773
v -91.336487 -126.188599 4.925439
v -91.308243 -126.268372 5.106990
v -91.259323 -126.391380 5.222218
v -91.286407 -126.312386 4.918866
v -91.284592 -126.313606 4.730271
v -92.120773 -126.523224 4.279556
v -92.176559 -126.387291 4.454968
v -92.219086 -126.300011 4.713345
v -92.222824 -126.294724 4.960839
v -92.192459 -126.381447 5.205329
v -92.141205 -126.511559 5.359921
v -92.169983 -126.425903 4.950410
v -92.162582 -126.429840 4.702943
v -92.678375 -126.750748 4.271749
v -92.732788 -126.618484 4.447197
v -92.776688 -126.527534 4.705537
v -92.779068 -126.525925 4.953068
v -92.750061 -126.608971 5.197521
v -92.698807 -126.739082 5.352113
v -92.726227 -126.657112 4.942639
v -92.723846 -126.658722 4.695109
v -93.074448 -127.156464 4.313806
v -93.130981 -127.029373 4.469620
v -93.168137 -126.944656 4.692698
v -93.173935 -126.944580 4.912700
v -93.145981 -127.024147 5.125683
v -93.097275 -127.147034 5.260556
v -93.123810 -127.068390 4.902197
v -93.118042 -127.068466 4.682196
v -93.318893 -127.397369 4.340530
v -93.344742 -127.330246 4.477381
v -93.368073 -127.282448 4.681185
v -93.373657 -127.282501 4.881540
v -93.359207 -127.325378 5.078438
v -93.335876 -127.390785 5.204833
v -93.345398 -127.347427 4.874375
v -93.342117 -127.352402 4.674030
v -91.794678 -128.378204 4.636620
v -91.847992 -128.402435 4.604829
v -92.094208 -128.502335 4.571676
v -92.119064 -128.515137 4.630464
v -92.095078 -128.501740 4.662045
v -91.848602 -128.402039 4.667694
v -91.501419 -128.855194 4.658257
v -91.570450 -128.881409 4.594890
v -91.875946 -129.011948 4.529930
v -91.913773 -129.024734 4.651467
v -91.879074 -129.007080 4.714559
v -91.571655 -128.880600 4.720620
v -92.309906 -127.124298 4.737478
v -92.364594 -127.144867 4.705650
v -92.609436 -127.248444 4.672534
v -92.639328 -127.258926 4.731259
v -92.610306 -127.247856 4.762902
v -92.365158 -127.144485 4.764585
v -92.440765 -126.581718 4.838793
v -92.506180 -126.606544 4.779382
v -92.811646 -126.737106 4.710493
v -92.849472 -126.749893 4.832030
v -92.818436 -126.733582 4.895095
v -92.511017 -126.607117 4.901156
vn 0.9224 0.3854 0.0256
vn 0.5521 -0.4401 -0.7082
vn 0.6938 -0.6047 -0.3910
vn 0.7298 -0.6830 0.0301
vn 0.6683 -0.6245 0.4043
vn 0.5263 -0.5076 0.6821
vn -0.6297 0.7280 -0.2713
vn -0.6547 0.7549 -0.0380
vn -0.6209 0.7433 0.2489
vn 0.5387 -0.5576 -0.6316
vn 0.5957 -0.7286 -0.3380
vn 0.6113 -0.7908 0.0305
vn 0.5751 -0.7434 0.3415
vn 0.5095 -0.5905 0.6258
vn -0.6030 0.7636 -0.2308
vn -0.6047 0.7959 -0.0304
vn -0.6188 0.7590 0.2023
vn 0.2967 -0.6804 -0.6701
vn 0.3670 -0.8664 -0.3385
vn 0.3837 -0.9234 0.0103
vn 0.3525 -0.8605 0.3678
vn 0.2925 -0.7247 0.6238
vn -0.3702 0.8987 -0.2351
vn -0.3837 0.9234 -0.0097
vn -0.3720 0.9051 0.2058
vn -0.0961 -0.7623 -0.6401
vn -0.0675 -0.9324 -0.3551
vn -0.0373 -0.9992 0.0158
vn -0.0452 -0.9364 0.3481
vn -0.0758 -0.7905 0.6077
vn 0.0368 0.9747 -0.2205
vn 0.0248 0.9996 -0.0164
vn 0.0302 0.9768 0.2121
vn -0.0719 -0.9010 -0.4277
vn -0.1844 -0.9631 -0.1962
vn -0.2597 -0.9656 0.0085
vn -0.1733 -0.9663 0.1905
vn -0.0487 -0.9087 0.4145
vn 0.0206 0.9912 -0.1307
vn 0.1199 0.9927 -0.0138
vn 0.1246 0.9849 0.1202
vn -0.9172 -0.3981 -0.0188
vn -0.9221 -0.3863 -0.0202
vn -0.4126 -0.4035 -0.8167
vn -0.3581 -0.0750 -0.9307
vn -0.5926 0.1034 -0.7988
vn -0.9714 0.2363 -0.0251
vn -0.5943 -0.0114 0.8042
vn -0.3323 -0.2136 0.9187
vn -0.3688 -0.5001 0.7835
vn -0.5267 -0.8500 0.0005
vn 0.1083 -0.2223 -0.9690
vn -0.0129 0.0721 -0.9973
vn -0.1274 0.3557 -0.9259
vn -0.3729 0.9275 -0.0273
vn -0.1124 0.2321 0.9662
vn 0.0151 -0.0774 0.9969
vn 0.1293 -0.3508 0.9275
vn 0.3819 -0.9242 0.0103
vn 0.2217 -0.1075 -0.9692
vn 0.0923 0.1157 -0.9890
vn 0.0226 0.3661 -0.9303
vn -0.1025 0.9945 -0.0198
vn 0.1465 0.2955 0.9440
vn 0.2174 0.0148 0.9760
vn 0.3488 -0.2363 0.9069
vn 0.6237 -0.7815 0.0164
vn 0.9229 0.3849 0.0064
vn 0.9380 0.3461 0.0198
vn -0.0352 0.8398 -0.5417
vn 0.0030 0.9571 -0.2898
vn 0.0423 0.9991 0.0040
vn 0.0598 0.9173 0.3938
vn 0.0662 0.6960 0.7149
vn 0.0867 -0.9622 -0.2583
vn 0.0614 -0.9981 0.0071
vn 0.0530 -0.9615 0.2696
vn -0.0009 0.7312 -0.6822
vn -0.0751 0.9101 -0.4076
vn -0.1234 0.9923 -0.0076
vn -0.0981 0.9340 0.3435
vn -0.0252 0.7607 0.6486
vn 0.0997 -0.9725 -0.2104
vn 0.1281 -0.9916 0.0196
vn 0.1177 -0.9539 0.2762
vn -0.2852 0.7208 -0.6318
vn -0.3552 0.8663 -0.3511
vn -0.3777 0.9259 -0.0096
vn -0.3635 0.8628 0.3512
vn -0.2882 0.6834 0.6707
vn 0.3722 -0.9050 -0.2061
vn 0.3837 -0.9234 0.0097
vn 0.3642 -0.9012 0.2348
vn -0.5881 0.5090 -0.6285
vn -0.6806 0.6401 -0.3565
vn -0.7287 0.6845 -0.0194
vn -0.7080 0.6388 0.3010
vn -0.6211 0.4859 0.6149
vn 0.7235 -0.6659 -0.1818
vn 0.7184 -0.6956 0.0114
vn 0.6990 -0.6795 0.2228
vn -0.6577 0.6198 -0.4282
vn -0.7974 0.5608 -0.2229
vn -0.8600 0.5098 -0.0239
vn -0.8365 0.4682 0.2847
vn -0.6901 0.3932 0.6075
vn 0.7227 -0.6620 -0.1988
vn 0.7819 -0.6230 0.0207
vn 0.7598 -0.6063 0.2347
vn -0.9382 -0.3452 -0.0264
vn -0.3811 0.9245 -0.0097
vn 0.5728 0.3179 -0.7555
vn 0.1602 0.1132 -0.9806
vn -0.8824 -0.3524 -0.3117
vn -0.7980 -0.2999 0.5227
vn -0.0551 0.0799 0.9953
vn 0.3681 0.3100 0.8766
vn 0.3811 -0.9245 0.0097
vn 0.5838 0.2829 -0.7610
vn 0.1462 0.1719 -0.9742
vn -0.8984 -0.3091 -0.3121
vn -0.7598 -0.4323 0.4855
vn 0.0741 -0.2267 0.9711
vn 0.6657 -0.0089 0.7462
vn 0.8981 0.4391 -0.0242
vn 0.9380 0.3458 0.0224
vn 0.9087 0.4163 0.0302
vn 0.9092 0.4158 0.0201
vn 0.9377 0.3474 0.0068
vn 0.5767 -0.5902 -0.5649
vn 0.6854 -0.6760 -0.2706
vn 0.7322 -0.6795 0.0467
vn 0.6649 -0.6941 0.2759
vn 0.5468 -0.6345 0.5463
vn -0.6011 0.7766 -0.1884
vn -0.6543 0.7554 -0.0358
vn -0.6577 0.7353 0.1632
vn 0.5192 -0.4628 -0.7185
vn 0.5997 -0.6855 -0.4128
vn 0.6114 -0.7907 0.0309
vn 0.5764 -0.7020 0.4182
vn 0.4961 -0.5278 0.6894
vn -0.5827 0.7646 -0.2755
vn -0.6056 0.7949 -0.0369
vn -0.6011 0.7587 0.2512
vn 0.2958 -0.6894 -0.6613
vn 0.3572 -0.8633 -0.3565
vn 0.3774 -0.9257 0.0257
vn 0.3475 -0.8697 0.3506
vn 0.2780 -0.7143 0.6423
vn -0.3772 0.9258 -0.0257
vn -0.3774 0.9008 0.2149
vn -0.0895 -0.7721 -0.6292
vn -0.0437 -0.9493 -0.3114
vn -0.0312 -0.9995 0.0003
vn -0.0383 -0.9413 0.3354
vn -0.0570 -0.8151 0.5765
vn 0.0274 0.9774 -0.2095
vn 0.0207 0.9998 -0.0063
vn 0.0390 0.9796 0.1971
vn -0.1959 -0.7678 -0.6100
vn -0.2645 -0.9100 -0.3193
vn -0.2595 -0.9657 0.0080
vn -0.2474 -0.9187 0.3077
vn -0.1656 -0.7959 0.5823
vn 0.1171 0.9704 -0.2112
vn 0.1196 0.9927 -0.0132
vn 0.0458 0.9764 0.2108
vn -0.9212 -0.3889 -0.0117
vn -0.9386 -0.3440 -0.0267
vn -0.8985 -0.4379 -0.0294
vn -0.8803 -0.4740 -0.0220
vn -0.9172 -0.3983 -0.0140
vn -0.9217 -0.3870 0.0268
vn -0.9227 -0.3831 -0.0419
vn -0.9231 -0.3824 -0.0395
vn -0.9280 -0.3725 -0.0065
vn -0.9263 -0.3753 -0.0341
vn -0.3947 -0.4472 -0.8027
vn -0.3541 -0.0758 -0.9321
vn -0.6052 0.1413 -0.7834
vn -0.9706 0.2404 -0.0109
vn -0.6075 0.0210 0.7940
vn -0.3289 -0.2086 0.9210
vn -0.3507 -0.5357 0.7681
vn -0.5194 -0.8541 -0.0273
vn 0.1040 -0.2355 -0.9663
vn -0.1293 0.3508 -0.9275
vn -0.3819 0.9242 -0.0103
vn 0.3822 -0.9240 0.0097
vn 0.2398 -0.1652 -0.9567
vn 0.0922 0.1146 -0.9891
vn 0.0014 0.4041 -0.9147
vn 0.1316 0.3233 0.9371
vn 0.2230 0.0099 0.9748
vn 0.3516 -0.2482 0.9027
vn 0.9229 0.3850 0.0095
vn 0.9228 0.3853 0.0038
vn 0.9305 0.3664 0.0066
vn 0.9061 0.4218 0.0321
vn 0.9589 0.2783 0.0557
vn 0.8682 0.4963 0.0051
vn 0.0415 0.7393 -0.6721
vn 0.0456 0.9200 -0.3891
vn 0.0452 0.9990 -0.0061
vn 0.0127 0.9591 0.2829
vn -0.0213 0.8252 0.5644
vn 0.0519 -0.9838 -0.1717
vn 0.1068 -0.9751 0.1941
vn -0.0372 0.7841 -0.6195
vn -0.1064 0.9366 -0.3339
vn -0.1198 0.9925 -0.0230
vn -0.0706 0.9091 0.4105
vn 0.0196 0.6877 0.7258
vn 0.1139 -0.9589 -0.2598
vn 0.1310 -0.9914 0.0077
vn 0.1014 -0.9693 0.2238
vn -0.2866 0.7110 -0.6421
vn -0.3476 0.8644 -0.3634
vn -0.3834 0.9232 -0.0255
vn -0.3596 0.8697 0.3381
vn 0.3774 -0.9008 -0.2149
vn 0.3772 -0.9258 0.0260
vn 0.3644 -0.9011 0.2350
vn -0.5938 0.5431 -0.5936
vn -0.6795 0.6482 -0.3437
vn -0.7269 0.6867 -0.0114
vn -0.7117 0.6223 0.3259
vn -0.6164 0.4584 0.6403
vn 0.7142 -0.6707 -0.2001
vn 0.7202 -0.6935 0.0191
vn 0.7067 -0.6647 0.2424
vn -0.6561 0.4505 -0.6055
vn -0.8101 0.4904 -0.3212
vn -0.8597 0.5103 -0.0228
vn -0.8160 0.5494 0.1796
vn -0.6928 0.5803 0.4281
vn 0.7839 -0.6123 -0.1029
vn 0.7843 -0.6198 0.0283
vn 0.7026 -0.6971 0.1429
vn -0.9377 -0.3474 -0.0068
vn -0.9176 -0.3967 -0.0256
vn -0.9379 -0.3460 -0.0263
vn -0.9479 -0.3178 -0.0232
vn -0.9170 -0.3988 -0.0051
vn -0.3627 0.9267 -0.0986
vn -0.3755 0.9250 0.0581
vn -0.4769 0.8789 -0.0103
vn 0.4074 0.2543 -0.8771
vn 0.0855 0.1177 -0.9894
vn -0.8318 -0.3528 -0.4286
vn -0.7210 -0.2407 0.6498
vn -0.0524 0.0797 0.9954
vn 0.5402 0.3664 0.7576
vn 0.3858 -0.9167 0.1036
vn 0.3987 -0.9121 -0.0955
vn 0.3473 -0.9377 0.0094
vn 0.4230 0.2313 -0.8761
vn 0.0881 0.1083 -0.9902
vn -0.8300 -0.2930 -0.4747
vn -0.6076 -0.3880 0.6930
vn 0.0844 -0.2159 0.9728
vn 0.4562 -0.0558 0.8881
s 0
usemtl LIGHT_BLUE
f 82//9 78//9 76//9
f 76//10 84//10 83//10
f 77//11 85//11 84//11
f 87//13 86//13 78//13
f 88//14 87//14 79//14
f 81//15 89//15 88//15
f 82//16 90//16 89//16
f 75//17 83//17 90//17
f 84//18 92//18 91//18
f 85//19 93//19 92//19
f 95//21 94//21 86//21
f 96//22 95//22 87//22
f 97//23 96//23 88//23
f 90//24 98//24 97//24
f 83//25 91//25 98//25
f 92//26 100//26 99//26
f 101//27 100//27 92//27
f 103//29 102//29 94//29
f 96//30 104//30 103//30
f 105//31 104//31 96//31
f 106//32 105//32 97//32
f 99//33 106//33 98//33
f 108//34 107//34 99//34
f 109//35 108//35 100//35
f 103//37 111//37 110//37
f 104//38 112//38 111//38
f 113//39 112//39 104//39
f 114//40 113//40 105//40
f 107//41 114//41 106//41
f 116//42 115//42 107//42
f 117//43 116//43 108//43
f 111//45 119//45 118//45
f 112//46 120//46 119//46
f 121//47 120//47 112//47
f 122//48 121//48 113//48
f 115//49 122//49 114//49
f 119//50 122//50 117//50
f 136//56 135//56 127//56
f 130//58 138//58 137//58
f 136//64 144//64 143//64
f 146//66 145//66 137//66
f 144//72 151//72 150//72
f 147//74 152//74 145//74
f 157//77 160//77 155//77
f 154//78 153//78 161//78
f 155//79 154//79 162//79
f 156//81 164//81 165//81
f 157//82 165//82 166//82
f 158//83 166//83 167//83
f 159//84 167//84 168//84
f 160//85 168//85 161//85
f 162//86 161//86 169//86
f 163//87 162//87 170//87
f 164//89 172//89 173//89
f 165//90 173//90 174//90
f 166//91 174//91 175//91
f 167//92 175//92 176//92
f 161//93 168//93 176//93
f 169//94 177//94 178//94
f 171//95 170//95 178//95
f 173//97 172//97 180//97
f 173//98 181//98 182//98
f 174//99 182//99 183//99
f 175//100 183//100 184//100
f 169//101 176//101 184//101
f 177//102 185//102 186//102
f 178//103 186//103 187//103
f 181//105 180//105 188//105
f 182//106 181//106 189//106
f 183//107 182//107 190//107
f 184//108 183//108 191//108
f 177//109 184//109 192//109
f 185//110 193//110 194//110
f 186//111 194//111 195//111
f 189//113 188//113 196//113
f 190//114 189//114 197//114
f 191//115 190//115 198//115
f 192//116 191//116 199//116
f 185//117 192//117 200//117
f 200//118 196//118 194//118
f 201//119 203//119 205//119
f 201//120 207//120 208//120
f 202//121 208//121 209//121
f 203//122 209//122 210//122
f 204//123 210//123 211//123
f 206//124 205//124 211//124
f 201//125 206//125 212//125
f 213//126 217//126 215//126
f 220//127 219//127 213//127
f 221//128 220//128 214//128
f 216//129 222//129 221//129
f 217//130 223//130 222//130
f 218//131 224//131 223//131
f 219//132 224//132 218//132
f 78//133 80//133 79//133
f 78//134 81//134 80//134
f 76//135 78//135 77//135
f 82//136 76//136 75//136
f 78//137 82//137 81//137
f 76//138 83//138 75//138
f 77//139 84//139 76//139
f 87//141 78//141 79//141
f 88//142 79//142 80//142
f 81//143 88//143 80//143
f 82//144 89//144 81//144
f 75//145 90//145 82//145
f 84//146 91//146 83//146
f 85//147 92//147 84//147
f 95//149 86//149 87//149
f 96//150 87//150 88//150
f 97//151 88//151 89//151
f 90//152 97//152 89//152
f 83//153 98//153 90//153
f 92//154 99//154 91//154
f 101//155 92//155 93//155
f 103//157 94//157 95//157
f 96//158 103//158 95//158
f 105//31 96//31 97//31
f 106//159 97//159 98//159
f 99//160 98//160 91//160
f 108//161 99//161 100//161
f 109//162 100//162 101//162
f 103//164 110//164 102//164
f 104//165 111//165 103//165
f 113//166 104//166 105//166
f 114//167 105//167 106//167
f 107//168 106//168 99//168
f 116//169 107//169 108//169
f 117//170 108//170 109//170
f 111//172 118//172 110//172
f 112//173 119//173 111//173
f 121//174 112//174 113//174
f 122//175 113//175 114//175
f 115//176 114//176 107//176
f 121//177 119//177 120//177
f 119//178 117//178 118//178
f 117//179 115//179 116//179
f 122//180 119//180 121//180
f 117//181 122//181 115//181
f 136//191 127//191 128//191
f 130//193 137//193 129//193
f 136//64 143//64 135//64
f 146//66 137//66 138//66
f 144//202 150//202 143//202
f 147//204 145//204 146//204
f 159//136 157//136 158//136
f 157//208 155//208 156//208
f 155//209 153//209 154//209
f 160//210 157//210 159//210
f 155//134 160//134 153//134
f 154//211 161//211 162//211
f 155//212 162//212 163//212
f 156//214 165//214 157//214
f 157//215 166//215 158//215
f 158//216 167//216 159//216
f 159//84 168//84 160//84
f 160//217 161//217 153//217
f 162//218 169//218 170//218
f 163//219 170//219 171//219
f 164//221 173//221 165//221
f 165//222 174//222 166//222
f 166//223 175//223 167//223
f 167//224 176//224 168//224
f 161//225 176//225 169//225
f 169//226 178//226 170//226
f 171//227 178//227 179//227
f 173//229 180//229 181//229
f 173//98 182//98 174//98
f 174//230 183//230 175//230
f 175//231 184//231 176//231
f 169//232 184//232 177//232
f 177//233 186//233 178//233
f 178//234 187//234 179//234
f 181//236 188//236 189//236
f 182//237 189//237 190//237
f 183//238 190//238 191//238
f 184//239 191//239 192//239
f 177//240 192//240 185//240
f 185//241 194//241 186//241
f 186//242 195//242 187//242
f 189//244 196//244 197//244
f 190//245 197//245 198//245
f 191//246 198//246 199//246
f 192//247 199//247 200//247
f 185//248 200//248 193//248
f 196//249 198//249 197//249
f 196//250 199//250 198//250
f 194//251 196//251 195//251
f 200//252 194//252 193//252
f 196//253 200//253 199//253
f 203//254 201//254 202//254
f 201//255 205//255 206//255
f 205//256 203//256 204//256
f 201//257 208//257 202//257
f 202//258 209//258 203//258
f 203//259 210//259 204//259
f 204//260 211//260 205//260
f 206//261 211//261 212//261
f 201//262 212//262 207//262
f 217//263 213//263 218//263
f 213//264 215//264 214//264
f 215//265 217//265 216//265
f 220//266 213//266 214//266
f 221//267 214//267 215//267
f 216//268 221//268 215//268
f 217//269 222//269 216//269
f 218//270 223//270 217//270
f 219//271 218//271 213//271
usemtl BLACK
f 86//12 85//12 77//12
f 94//20 93//20 85//20
f 94//28 102//28 101//28
f 102//36 110//36 109//36
f 110//44 118//44 117//44
f 156//80 155//80 163//80
f 164//88 163//88 171//88
f 171//96 179//96 180//96
f 179//104 187//104 188//104
f 187//112 195//112 196//112
f 86//140 77//140 78//140
f 94//148 85//148 86//148
f 94//156 101//156 93//156
f 102//163 109//163 101//163
f 110//171 117//171 109//171
f 156//213 163//213 164//213
f 164//220 171//220 172//220
f 171//228 180//228 172//228
f 179//235 188//235 180//235
f 187//243 196//243 188//243
usemtl ORANGE
f 124//51 128//51 126//51
f 128//182 130//182 129//182
f 130//183 124//183 123//183
f 124//184 126//184 125//184
f 126//185 128//185 127//185
f 128//186 124//186 130//186
usemtl GREY
f 132//52 131//52 123//52
f 133//53 132//53 124//53
f 126//54 134//54 133//54
f 127//55 135//55 134//55
f 137//57 136//57 128//57
f 123//59 131//59 138//59
f 132//60 140//60 139//60
f 133//61 141//61 140//61
f 134//62 142//62 141//62
f 143//63 142//63 134//63
f 145//65 144//65 136//65
f 131//67 139//67 146//67
f 140//68 148//68 147//68
f 141//69 149//69 148//69
f 150//70 149//70 141//70
f 150//71 142//71 143//71
f 145//73 152//73 151//73
f 147//75 146//75 139//75
f 147//76 149//76 151//76
f 132//187 123//187 124//187
f 133//188 124//188 125//188
f 126//189 133//189 125//189
f 127//190 134//190 126//190
f 137//192 128//192 129//192
f 123//194 138//194 130//194
f 132//195 139//195 131//195
f 133//61 140//61 132//61
f 134//196 141//196 133//196
f 143//197 134//197 135//197
f 145//65 136//65 137//65
f 131//198 146//198 138//198
f 140//199 147//199 139//199
f 141//200 148//200 140//200
f 150//201 141//201 142//201
f 145//203 151//203 144//203
f 149//205 147//205 148//205
f 147//206 151//206 152//206
f 151//207 149//207 150//207
o talojota
v -115.496094 -117.621094 16.949219
v -82.191406 -117.621094 16.949219
v -82.191406 -106.925781 16.949219
v -115.496094 -106.925781 16.949219
v -115.496094 -117.621094 0.089844
v -82.191406 -117.621094 0.089844
v -82.191406 -106.925781 0.089844
v -115.496094 -106.925781 0.089844
vn -0.0000 -0.0000 1.0000
vn -0.0000 -1.0000 -0.0000
vn 1.0000 -0.0000 -0.0000
vn -0.0000 1.0000 -0.0000
vn -1.0000 -0.0000 -0.0000
vn -0.0000 -0.0000 -1.0000
s 0
usemtl DEFAULT
f 226//272 228//272 225//272
f 229//273 226//273 225//273
f 230//274 227//274 226//274
f 231//275 228//275 227//275
f 232//276 225//276 228//276
f 232//277 230//277 229//277
f 226//272 227//272 228//272
f 229//273 230//273 226//273
f 230//274 231//274 227//274
f 231//275 232//275 228//275
f 232//276 229//276 225//276
f 232//277 231//277 230//277
