# Blender 3.6.5
# www.blender.org
mtllib U2E_anim95.mtl
o CameraBox
v -97.456451 -132.928467 5.096194
v -97.624031 -133.037338 5.103889
v -97.453842 -132.918365 5.295913
v -97.621422 -133.027237 5.303607
v -97.347328 -133.095932 5.103234
v -97.514908 -133.204803 5.110929
v -97.344719 -133.085831 5.302952
v -97.512299 -133.194702 5.310647
vn -0.5456 0.8373 -0.0352
vn 0.0131 0.0505 0.9986
vn 0.5456 -0.8373 0.0352
vn -0.0131 -0.0505 -0.9986
vn 0.8379 0.5444 -0.0385
vn -0.8379 -0.5444 0.0385
s 0
usemtl None
f 2//1 3//1 1//1
f 8//3 5//3 7//3
f 6//4 1//4 5//4
f 4//6 6//6 8//6
f 2//1 4//1 3//1
f 8//3 6//3 5//3
f 6//4 2//4 1//4
f 4//6 2//6 6//6
usemtl UpDir
f 4//2 7//2 3//2
f 4//2 8//2 7//2
usemtl LookingDir
f 7//5 1//5 3//5
f 7//5 5//5 1//5
o _L_pohja
v -74.218750 -58.593750 0.128906
v -54.687500 -58.593750 0.128906
v -54.687500 -105.468750 0.128906
v -31.250000 -105.468750 0.128906
v -31.250000 -125.000000 0.128906
v -74.218750 -125.000000 0.128906
vn -0.0000 -0.0000 1.0000
s 0
usemtl WHITE#NEON
f 13//7 11//7 14//7
f 9//7 11//7 10//7
f 13//7 12//7 11//7
f 9//7 14//7 11//7
o _laatta01
v -97.656250 -7.812500 0.128906
v -97.656250 11.718750 0.128906
v -54.687500 11.718750 0.128906
v -54.687500 -7.812500 0.128906
v -50.781250 11.718750 0.128906
v 39.062500 11.718750 0.128906
v 39.062500 -7.812500 0.128906
v -50.781250 -7.812500 0.128906
v -101.562500 11.718750 0.128906
v -101.562500 -31.250000 0.128906
v -117.187500 -31.250000 0.128906
v -117.187500 11.718750 0.128906
v -117.187500 -82.031250 0.128906
v -101.562500 -82.031250 0.128906
v -101.562500 -105.468750 0.128906
v -78.125000 -105.468750 0.128906
v -78.125000 -125.000000 0.128906
v -117.187500 -125.000000 0.128906
vn -0.0000 -0.0000 1.0000
s 0
usemtl WHITE#NEON
f 18//8 16//8 15//8
f 22//8 20//8 19//8
f 26//8 24//8 23//8
f 31//8 29//8 32//8
f 27//8 29//8 28//8
f 18//8 17//8 16//8
f 22//8 21//8 20//8
f 26//8 25//8 24//8
f 31//8 30//8 29//8
f 27//8 32//8 29//8
o s01
v -82.485168 -124.666389 4.715743
v -82.435654 -124.715492 4.810798
v -82.405182 -124.749313 4.956678
v -82.411789 -124.747826 5.105942
v -82.444427 -124.711594 5.262602
v -82.495361 -124.660896 5.367931
v -82.459106 -124.695297 5.113044
v -82.455414 -124.699402 4.963780
v -82.759552 -125.120979 4.623092
v -82.670761 -125.213684 4.734493
v -82.611649 -125.279282 4.916198
v -82.615631 -125.274864 5.104753
v -82.683243 -125.211487 5.300241
v -82.776398 -125.113937 5.432402
v -82.710815 -125.180901 5.115111
v -82.703949 -125.182701 4.926557
v -83.220398 -125.876648 4.460773
v -83.124069 -125.977715 4.619450
v -83.062759 -126.045769 4.860133
v -83.070084 -126.043457 5.111553
v -83.137878 -125.974052 5.369865
v -83.242142 -125.870026 5.545120
v -83.167633 -125.941048 5.121828
v -83.160294 -125.943344 4.870407
v -83.651810 -126.297119 4.457105
v -83.558350 -126.400833 4.611853
v -83.496780 -126.463326 4.856423
v -83.501480 -126.463936 5.107886
v -83.571869 -126.391647 5.362226
v -83.673538 -126.290504 5.541452
v -83.599030 -126.361519 5.118160
v -83.597229 -126.363525 4.866698
v -84.183914 -126.500748 4.537439
v -84.095276 -126.593262 4.672416
v -84.036392 -126.658607 4.885553
v -84.043503 -126.656555 5.105541
v -84.108414 -126.590347 5.328533
v -84.201736 -126.492599 5.484268
v -84.135742 -126.560005 5.111970
v -84.128677 -126.562027 4.895912
v -84.506393 -126.621651 4.583249
v -84.457153 -126.670471 4.713665
v -84.427032 -126.703880 4.910625
v -84.433990 -126.702019 5.107038
v -84.469849 -126.668037 5.310846
v -84.521072 -126.617050 5.451538
v -84.484207 -126.652107 5.114140
v -84.477249 -126.653999 4.913797
v -84.590607 -125.973480 4.974366
v -84.690338 -125.868622 4.925662
v -84.893585 -125.660576 4.946127
v -84.997101 -125.557396 5.015296
v -84.997910 -125.556488 5.129240
v -84.898117 -125.661377 5.174015
v -84.694885 -125.869423 5.153550
v -84.594284 -125.975220 5.084381
v -84.120041 -126.057762 4.891956
v -84.354019 -125.815613 4.801902
v -84.823608 -125.329514 4.849681
v -85.061844 -125.082634 4.987473
v -85.066360 -125.083435 5.215361
v -84.832397 -125.325577 5.305415
v -84.362778 -125.811714 5.253706
v -84.121643 -126.055977 5.115914
v -83.816940 -125.763519 4.891781
v -84.050934 -125.521339 4.805656
v -84.520523 -125.035233 4.853435
v -84.756134 -124.791267 4.991269
v -84.763290 -124.789154 5.219114
v -84.529327 -125.031296 5.309169
v -84.059692 -125.517441 5.257461
v -83.821472 -125.764320 5.119669
v -83.309875 -124.872269 4.974760
v -83.446762 -124.732033 4.937297
v -83.716003 -124.456589 4.964611
v -83.848114 -124.315811 5.033276
v -83.716812 -124.455688 5.078555
v -83.447571 -124.731125 5.051240
v -83.614456 -123.500710 4.831976
v -83.662491 -123.447395 4.937305
v -83.700653 -123.410866 5.093923
v -83.704636 -123.412292 5.243229
v -83.674164 -123.446114 5.389110
v -83.624649 -123.495216 5.484165
v -83.654404 -123.462204 5.236127
v -83.653336 -123.463394 5.086822
v -84.073410 -123.762161 4.756113
v -84.172119 -123.664276 4.892160
v -84.236832 -123.598282 5.087649
v -84.238159 -123.596809 5.272316
v -84.181671 -123.659500 5.453979
v -84.090286 -123.755081 5.569352
v -84.145889 -123.693359 5.265887
v -84.144547 -123.694862 5.077291
v -84.845901 -124.201187 4.632266
v -84.947220 -124.094528 4.807520
v -85.017929 -124.027740 5.065832
v -85.022324 -124.022858 5.313323
v -84.961044 -124.090874 5.557936
v -84.864670 -124.191971 5.712684
v -84.924805 -124.125267 5.303049
v -84.917496 -124.127541 5.055557
v -85.279922 -124.618736 4.628556
v -85.378632 -124.515015 4.803853
v -85.451965 -124.445305 5.062123
v -85.453735 -124.443329 5.309656
v -85.395081 -124.508438 5.554226
v -85.298706 -124.609535 5.708974
v -85.356201 -124.545746 5.299381
v -85.354431 -124.547714 5.051848
v -85.497787 -125.141891 4.674390
v -85.596634 -125.043854 4.830083
v -85.661560 -124.977638 5.053075
v -85.666031 -124.978500 5.273105
v -85.609787 -125.040939 5.486200
v -85.518509 -125.136368 5.621219
v -85.573746 -125.075089 5.262746
v -85.569260 -125.074226 5.042717
v -85.635727 -125.455933 4.703412
v -85.683990 -125.402374 4.840174
v -85.722504 -125.365463 5.043940
v -85.726837 -125.366486 5.244324
v -85.696716 -125.399902 5.441284
v -85.650345 -125.451370 5.567771
v -85.676620 -125.416405 5.237223
v -85.672546 -125.420914 5.036880
v -83.855698 -125.802246 4.993981
v -83.896393 -125.844666 4.962591
v -84.088364 -126.028671 4.931246
v -84.106491 -126.049431 4.990225
v -84.089020 -126.027946 5.021616
v -83.896851 -125.844162 5.025456
v -83.406769 -126.136948 5.015579
v -83.461502 -126.187157 4.952715
v -83.697372 -126.421730 4.890022
v -83.727264 -126.446930 5.011825
v -83.701324 -126.417343 5.074648
v -83.462402 -126.186157 5.078445
v -84.797516 -124.827087 5.093426
v -84.840851 -124.866585 5.061995
v -85.030197 -125.053505 5.030692
v -85.053864 -125.073967 5.089629
v -85.030838 -125.052780 5.121061
v -84.841263 -124.866112 5.120931
v -85.119263 -124.370750 5.193585
v -85.171097 -124.418327 5.134650
v -85.406937 -124.652924 5.068029
v -85.436859 -124.678116 5.189831
v -85.413818 -124.651154 5.252654
v -85.174896 -124.419968 5.256452
vn 0.7147 0.6992 0.0188
vn 0.6727 -0.2087 -0.7099
vn 0.8666 -0.3076 -0.3930
vn 0.9307 -0.3647 0.0282
vn 0.8535 -0.3310 0.4025
vn 0.6795 -0.2734 0.6808
vn -0.8553 0.4422 -0.2701
vn -0.8876 0.4592 -0.0368
vn -0.8507 0.4625 0.2500
vn 0.7040 -0.3224 -0.6328
vn 0.8214 -0.4586 -0.3390
vn 0.8605 -0.5086 0.0297
vn 0.8106 -0.4763 0.3407
vn 0.6943 -0.3569 0.6249
vn -0.8436 0.4853 -0.2299
vn -0.8562 0.5159 -0.0297
vn -0.8547 0.4776 0.2032
vn 0.5244 -0.5262 -0.6694
vn 0.6599 -0.6712 -0.3376
vn 0.6979 -0.7161 0.0113
vn 0.6472 -0.6672 0.3688
vn 0.5423 -0.5619 0.6247
vn -0.6772 0.6969 -0.2361
vn -0.6979 0.7161 -0.0107
vn -0.6794 0.7047 0.2048
vn 0.1898 -0.7473 -0.6368
vn 0.2805 -0.8932 -0.3514
vn 0.3347 -0.9421 0.0196
vn 0.3056 -0.8848 0.3517
vn 0.2243 -0.7592 0.6110
vn -0.3270 0.9181 -0.2242
vn -0.3466 0.9378 -0.0201
vn -0.3321 0.9199 0.2084
vn 0.2645 -0.8661 -0.4241
vn 0.1839 -0.9641 -0.1917
vn 0.1157 -0.9932 0.0135
vn 0.1970 -0.9608 0.1949
vn 0.2924 -0.8601 0.4180
vn -0.3478 0.9279 -0.1344
vn -0.2556 0.9666 -0.0180
vn -0.2478 0.9618 0.1160
vn -0.7051 -0.7090 -0.0119
vn -0.7141 -0.6999 -0.0133
vn -0.2376 -0.5319 -0.8128
vn -0.3089 -0.2072 -0.9282
vn -0.5922 -0.1274 -0.7957
vn -0.9900 -0.1396 -0.0202
vn -0.5446 -0.2259 0.8077
vn -0.2260 -0.3163 0.9214
vn -0.1545 -0.5967 0.7874
vn -0.1752 -0.9845 0.0066
vn 0.1788 -0.1718 -0.9688
vn -0.0427 0.0567 -0.9975
vn -0.2538 0.2783 -0.9264
vn -0.6895 0.7238 -0.0284
vn -0.1861 0.1794 0.9660
vn 0.0468 -0.0609 0.9970
vn 0.2537 -0.2731 0.9279
vn 0.6965 -0.7175 0.0113
vn 0.2417 -0.0232 -0.9701
vn 0.0389 0.1362 -0.9899
vn -0.1183 0.3434 -0.9317
vn -0.4629 0.8861 -0.0228
vn 0.0308 0.3339 0.9421
vn 0.2006 0.0994 0.9746
vn 0.4152 -0.0857 0.9057
vn 0.8684 -0.4955 0.0155
vn 0.7153 0.6988 -0.0004
vn 0.7437 0.6684 0.0130
vn -0.3454 0.7644 -0.5444
vn -0.3523 0.8888 -0.2932
vn -0.3300 0.9440 0.0002
vn -0.2819 0.8765 0.3901
vn -0.1928 0.6751 0.7121
vn 0.4351 -0.8634 -0.2553
vn 0.4261 -0.9046 0.0103
vn 0.4058 -0.8724 0.2727
vn -0.2740 0.6753 -0.6847
vn -0.4079 0.8156 -0.4104
vn -0.4815 0.8764 -0.0104
vn -0.4350 0.8335 0.3408
vn -0.3019 0.7011 0.6460
vn 0.4512 -0.8679 -0.2075
vn 0.4856 -0.8739 0.0223
vn 0.4631 -0.8413 0.2789
vn -0.5341 0.5608 -0.6326
vn -0.6517 0.6718 -0.3521
vn -0.6932 0.7207 -0.0107
vn -0.6553 0.6693 0.3503
vn -0.5177 0.5321 0.6700
vn 0.6795 -0.7045 -0.2051
vn 0.6979 -0.7161 0.0107
vn 0.6726 -0.7015 0.2358
vn -0.7372 0.2521 -0.6269
vn -0.8705 0.3412 -0.3547
vn -0.9302 0.3665 -0.0175
vn -0.8928 0.3335 0.3029
vn -0.7542 0.2253 0.6168
vn 0.9177 -0.3523 -0.1837
vn 0.9247 -0.3807 0.0097
vn 0.9016 -0.3717 0.2211
vn -0.8420 0.3304 -0.4265
vn -0.9492 0.2250 -0.2201
vn -0.9876 0.1557 -0.0206
vn -0.9491 0.1274 0.2879
vn -0.7841 0.1136 0.6102
vn 0.9154 -0.3490 -0.2007
vn 0.9569 -0.2897 0.0183
vn 0.9311 -0.2813 0.2324
vn -0.7442 -0.6677 -0.0196
vn -0.6959 0.7181 -0.0107
vn 0.4116 0.5030 -0.7600
vn 0.1029 0.1590 -0.9819
vn -0.6909 -0.6553 -0.3052
vn -0.6284 -0.5708 0.5285
vn -0.0766 0.0593 0.9953
vn 0.2311 0.4289 0.8733
vn 0.6959 -0.7181 0.0107
vn 0.4347 0.4745 -0.7654
vn 0.0683 0.2084 -0.9757
vn -0.7218 -0.6210 -0.3057
vn -0.5442 -0.6799 0.4916
vn 0.1567 -0.1779 0.9715
vn 0.6249 0.2418 0.7423
vn 0.6721 0.7398 -0.0311
vn 0.7439 0.6682 0.0156
vn 0.6906 0.7229 0.0233
vn 0.6912 0.7226 0.0133
vn 0.7429 0.6694 -0.0000
vn 0.7516 -0.3383 -0.5662
vn 0.8856 -0.3762 -0.2723
vn 0.9317 -0.3604 0.0448
vn 0.8756 -0.3976 0.2744
vn 0.7449 -0.3845 0.5453
vn -0.8464 0.4984 -0.1876
vn -0.8874 0.4598 -0.0346
vn -0.8823 0.4410 0.1645
vn 0.6505 -0.2421 -0.7199
vn 0.8089 -0.4176 -0.4139
vn 0.8605 -0.5085 0.0301
vn 0.7968 -0.4370 0.4173
vn 0.6589 -0.3033 0.6884
vn -0.8252 0.4935 -0.2747
vn -0.8567 0.5145 -0.0362
vn -0.8379 0.4841 0.2520
vn 0.5269 -0.5348 -0.6606
vn 0.6496 -0.6720 -0.3555
vn 0.6929 -0.7205 0.0268
vn 0.6459 -0.6777 0.3516
vn 0.5250 -0.5574 0.6432
vn -0.6928 0.7206 -0.0268
vn -0.6827 0.6986 0.2140
vn 0.1996 -0.7540 -0.6259
vn 0.3091 -0.8999 -0.3077
vn 0.3405 -0.9402 0.0041
vn 0.3137 -0.8870 0.3389
vn 0.2507 -0.7753 0.5797
vn -0.3367 0.9172 -0.2132
vn -0.3504 0.9366 -0.0100
vn -0.3251 0.9257 0.1934
vn 0.0993 -0.7892 -0.6061
vn 0.0893 -0.9451 -0.3145
vn 0.1159 -0.9932 0.0130
vn 0.1110 -0.9434 0.3124
vn 0.1427 -0.7976 0.5861
vn -0.2508 0.9438 -0.2153
vn -0.2559 0.9665 -0.0174
vn -0.3175 0.9254 0.2071
vn -0.7123 -0.7019 -0.0048
vn -0.7450 -0.6667 -0.0200
vn -0.6731 -0.7392 -0.0225
vn -0.6428 -0.7659 -0.0151
vn -0.7050 -0.7092 -0.0072
vn -0.7132 -0.7001 0.0336
vn -0.7159 -0.6973 -0.0350
vn -0.7165 -0.6968 -0.0327
vn -0.7246 -0.6892 0.0003
vn -0.7221 -0.6913 -0.0273
vn -0.2048 -0.5658 -0.7987
vn -0.3049 -0.2064 -0.9298
vn -0.6179 -0.0967 -0.7803
vn -0.9908 -0.1355 -0.0060
vn -0.5689 -0.2007 0.7975
vn -0.2246 -0.3103 0.9237
vn -0.1246 -0.6232 0.7721
vn -0.1670 -0.9857 -0.0212
vn 0.1797 -0.1857 -0.9660
vn -0.2537 0.2731 -0.9279
vn -0.6965 0.7175 -0.0113
vn 0.2537 -0.2730 0.9280
vn 0.6968 -0.7172 0.0107
vn 0.2799 -0.0701 -0.9575
vn 0.0392 0.1351 -0.9901
vn -0.1519 0.3710 -0.9162
vn 0.0067 0.3542 0.9351
vn 0.2076 0.0970 0.9734
vn 0.4222 -0.0957 0.9014
vn 0.7152 0.6989 0.0027
vn 0.7150 0.6992 -0.0030
vn 0.7291 0.6844 -0.0002
vn 0.6861 0.7270 0.0252
vn 0.7883 0.6133 0.0491
vn 0.6232 0.7820 -0.0018
vn 0.7439 0.6682 0.0157
vn -0.2375 0.6986 -0.6750
vn -0.2994 0.8696 -0.3927
vn -0.3273 0.9449 -0.0099
vn -0.3416 0.8974 0.2794
vn -0.3225 0.7620 0.5616
vn 0.4111 -0.8959 -0.1685
vn 0.4605 -0.8655 0.1970
vn -0.3270 0.7114 -0.6220
vn -0.4465 0.8291 -0.3366
vn -0.4783 0.8778 -0.0258
vn -0.4000 0.8209 0.4076
vn -0.2330 0.6502 0.7232
vn 0.4592 -0.8503 -0.2571
vn 0.4882 -0.8727 0.0104
vn 0.4535 -0.8619 0.2267
vn -0.5318 0.5512 -0.6430
vn -0.6440 0.6727 -0.3644
vn -0.6976 0.7160 -0.0265
vn -0.6542 0.6770 0.3371
vn 0.6827 -0.6986 -0.2140
vn 0.6928 -0.7206 0.0271
vn 0.6727 -0.7013 0.2361
vn -0.7550 0.2819 -0.5920
vn -0.8724 0.3493 -0.3420
vn -0.9293 0.3693 -0.0096
vn -0.8900 0.3169 0.3279
vn -0.7395 0.2016 0.6423
vn 0.9107 -0.3603 -0.2019
vn 0.9256 -0.3780 0.0174
vn 0.9033 -0.3551 0.2406
vn -0.7787 0.1727 -0.6032
vn -0.9354 0.1545 -0.3182
vn -0.9875 0.1562 -0.0195
vn -0.9606 0.2099 0.1825
vn -0.8564 0.2854 0.4302
vn 0.9543 -0.2797 -0.1054
vn 0.9579 -0.2858 0.0259
vn 0.9111 -0.3872 0.1412
vn -0.7429 -0.6694 -0.0000
vn -0.7060 -0.7079 -0.0188
vn -0.7436 -0.6683 -0.0195
vn -0.7633 -0.6458 -0.0164
vn -0.7047 -0.7095 0.0017
vn -0.6800 0.7264 -0.0998
vn -0.6906 0.7210 0.0570
vn -0.7680 0.6403 -0.0106
vn 0.2809 0.3820 -0.8804
vn 0.0318 0.1355 -0.9903
vn -0.6443 -0.6376 -0.4224
vn -0.5783 -0.4866 0.6549
vn -0.0740 0.0602 0.9954
vn 0.3696 0.5443 0.7531
vn 0.6978 -0.7086 0.1045
vn 0.7072 -0.7006 -0.0946
vn 0.6694 -0.7429 0.0107
vn 0.3039 0.3664 -0.8794
vn 0.0377 0.1278 -0.9911
vn -0.6649 -0.5816 -0.4687
vn -0.4183 -0.5813 0.6979
vn 0.1623 -0.1641 0.9730
vn 0.4482 0.1216 0.8856
s 0
usemtl LIGHT_BLUE
f 40//9 36//9 34//9
f 34//10 42//10 41//10
f 35//11 43//11 42//11
f 45//13 44//13 36//13
f 46//14 45//14 37//14
f 39//15 47//15 46//15
f 40//16 48//16 47//16
f 33//17 41//17 48//17
f 42//18 50//18 49//18
f 43//19 51//19 50//19
f 53//21 52//21 44//21
f 54//22 53//22 45//22
f 55//23 54//23 46//23
f 48//24 56//24 55//24
f 41//25 49//25 56//25
f 50//26 58//26 57//26
f 59//27 58//27 50//27
f 61//29 60//29 52//29
f 54//30 62//30 61//30
f 63//31 62//31 54//31
f 64//32 63//32 55//32
f 57//33 64//33 56//33
f 66//34 65//34 57//34
f 67//35 66//35 58//35
f 61//37 69//37 68//37
f 62//38 70//38 69//38
f 71//39 70//39 62//39
f 72//40 71//40 63//40
f 65//41 72//41 64//41
f 74//42 73//42 65//42
f 75//43 74//43 66//43
f 69//45 77//45 76//45
f 70//46 78//46 77//46
f 79//47 78//47 70//47
f 80//48 79//48 71//48
f 73//49 80//49 72//49
f 77//50 80//50 75//50
f 94//56 93//56 85//56
f 88//58 96//58 95//58
f 94//64 102//64 101//64
f 104//66 103//66 95//66
f 102//72 109//72 108//72
f 105//74 110//74 103//74
f 115//77 118//77 113//77
f 112//78 111//78 119//78
f 113//79 112//79 120//79
f 114//81 122//81 123//81
f 115//82 123//82 124//82
f 116//83 124//83 125//83
f 117//84 125//84 126//84
f 118//85 126//85 119//85
f 120//86 119//86 127//86
f 121//87 120//87 128//87
f 122//89 130//89 131//89
f 123//90 131//90 132//90
f 124//91 132//91 133//91
f 125//92 133//92 134//92
f 119//93 126//93 134//93
f 127//94 135//94 136//94
f 129//95 128//95 136//95
f 131//97 130//97 138//97
f 131//98 139//98 140//98
f 132//99 140//99 141//99
f 133//100 141//100 142//100
f 127//101 134//101 142//101
f 135//102 143//102 144//102
f 136//103 144//103 145//103
f 139//105 138//105 146//105
f 140//106 139//106 147//106
f 141//107 140//107 148//107
f 142//108 141//108 149//108
f 135//109 142//109 150//109
f 143//110 151//110 152//110
f 144//111 152//111 153//111
f 147//113 146//113 154//113
f 148//114 147//114 155//114
f 149//115 148//115 156//115
f 150//116 149//116 157//116
f 143//117 150//117 158//117
f 158//118 154//118 152//118
f 159//119 161//119 163//119
f 159//120 165//120 166//120
f 160//121 166//121 167//121
f 161//122 167//122 168//122
f 162//123 168//123 169//123
f 164//124 163//124 169//124
f 159//125 164//125 170//125
f 171//126 175//126 173//126
f 178//127 177//127 171//127
f 179//128 178//128 172//128
f 174//129 180//129 179//129
f 175//130 181//130 180//130
f 176//131 182//131 181//131
f 177//132 182//132 176//132
f 36//133 38//133 37//133
f 36//134 39//134 38//134
f 34//135 36//135 35//135
f 40//136 34//136 33//136
f 36//137 40//137 39//137
f 34//138 41//138 33//138
f 35//139 42//139 34//139
f 45//141 36//141 37//141
f 46//142 37//142 38//142
f 39//143 46//143 38//143
f 40//144 47//144 39//144
f 33//145 48//145 40//145
f 42//146 49//146 41//146
f 43//147 50//147 42//147
f 53//149 44//149 45//149
f 54//150 45//150 46//150
f 55//151 46//151 47//151
f 48//152 55//152 47//152
f 41//153 56//153 48//153
f 50//154 57//154 49//154
f 59//155 50//155 51//155
f 61//157 52//157 53//157
f 54//158 61//158 53//158
f 63//31 54//31 55//31
f 64//159 55//159 56//159
f 57//160 56//160 49//160
f 66//161 57//161 58//161
f 67//162 58//162 59//162
f 61//164 68//164 60//164
f 62//165 69//165 61//165
f 71//166 62//166 63//166
f 72//167 63//167 64//167
f 65//168 64//168 57//168
f 74//169 65//169 66//169
f 75//170 66//170 67//170
f 69//172 76//172 68//172
f 70//173 77//173 69//173
f 79//174 70//174 71//174
f 80//175 71//175 72//175
f 73//176 72//176 65//176
f 79//177 77//177 78//177
f 77//178 75//178 76//178
f 75//179 73//179 74//179
f 80//180 77//180 79//180
f 75//181 80//181 73//181
f 94//191 85//191 86//191
f 88//193 95//193 87//193
f 94//64 101//64 93//64
f 104//198 95//198 96//198
f 102//203 108//203 101//203
f 105//205 103//205 104//205
f 117//136 115//136 116//136
f 115//209 113//209 114//209
f 113//210 111//210 112//210
f 118//211 115//211 117//211
f 113//212 118//212 111//212
f 112//213 119//213 120//213
f 113//214 120//214 121//214
f 114//216 123//216 115//216
f 115//217 124//217 116//217
f 116//218 125//218 117//218
f 117//84 126//84 118//84
f 118//219 119//219 111//219
f 120//220 127//220 128//220
f 121//221 128//221 129//221
f 122//223 131//223 123//223
f 123//224 132//224 124//224
f 124//225 133//225 125//225
f 125//226 134//226 126//226
f 119//227 134//227 127//227
f 127//228 136//228 128//228
f 129//229 136//229 137//229
f 131//231 138//231 139//231
f 131//98 140//98 132//98
f 132//232 141//232 133//232
f 133//233 142//233 134//233
f 127//234 142//234 135//234
f 135//235 144//235 136//235
f 136//236 145//236 137//236
f 139//238 146//238 147//238
f 140//239 147//239 148//239
f 141//240 148//240 149//240
f 142//241 149//241 150//241
f 135//242 150//242 143//242
f 143//243 152//243 144//243
f 144//244 153//244 145//244
f 147//246 154//246 155//246
f 148//247 155//247 156//247
f 149//248 156//248 157//248
f 150//249 157//249 158//249
f 143//250 158//250 151//250
f 154//251 156//251 155//251
f 154//252 157//252 156//252
f 152//253 154//253 153//253
f 158//254 152//254 151//254
f 154//255 158//255 157//255
f 161//256 159//256 160//256
f 159//257 163//257 164//257
f 163//258 161//258 162//258
f 159//259 166//259 160//259
f 160//260 167//260 161//260
f 161//261 168//261 162//261
f 162//262 169//262 163//262
f 164//263 169//263 170//263
f 159//264 170//264 165//264
f 175//265 171//265 176//265
f 171//266 173//266 172//266
f 173//267 175//267 174//267
f 178//268 171//268 172//268
f 179//269 172//269 173//269
f 174//270 179//270 173//270
f 175//271 180//271 174//271
f 176//272 181//272 175//272
f 177//273 176//273 171//273
usemtl BLACK
f 44//12 43//12 35//12
f 52//20 51//20 43//20
f 52//28 60//28 59//28
f 60//36 68//36 67//36
f 68//44 76//44 75//44
f 114//80 113//80 121//80
f 122//88 121//88 129//88
f 129//96 137//96 138//96
f 137//104 145//104 146//104
f 145//112 153//112 154//112
f 44//140 35//140 36//140
f 52//148 43//148 44//148
f 52//156 59//156 51//156
f 60//163 67//163 59//163
f 68//171 75//171 67//171
f 114//215 121//215 122//215
f 122//222 129//222 130//222
f 129//230 138//230 130//230
f 137//237 146//237 138//237
f 145//245 154//245 146//245
usemtl ORANGE
f 82//51 86//51 84//51
f 86//182 88//182 87//182
f 88//183 82//183 81//183
f 82//184 84//184 83//184
f 84//185 86//185 85//185
f 86//186 82//186 88//186
usemtl GREY
f 90//52 89//52 81//52
f 91//53 90//53 82//53
f 84//54 92//54 91//54
f 85//55 93//55 92//55
f 95//57 94//57 86//57
f 81//59 89//59 96//59
f 90//60 98//60 97//60
f 91//61 99//61 98//61
f 92//62 100//62 99//62
f 101//63 100//63 92//63
f 103//65 102//65 94//65
f 89//67 97//67 104//67
f 98//68 106//68 105//68
f 99//69 107//69 106//69
f 108//70 107//70 99//70
f 108//71 100//71 101//71
f 103//73 110//73 109//73
f 105//75 104//75 97//75
f 105//76 107//76 109//76
f 90//187 81//187 82//187
f 91//188 82//188 83//188
f 84//189 91//189 83//189
f 85//190 92//190 84//190
f 95//192 86//192 87//192
f 81//194 96//194 88//194
f 90//195 97//195 89//195
f 91//61 98//61 90//61
f 92//196 99//196 91//196
f 101//197 92//197 93//197
f 103//65 94//65 95//65
f 89//199 104//199 96//199
f 98//200 105//200 97//200
f 99//201 106//201 98//201
f 108//202 99//202 100//202
f 103//204 109//204 102//204
f 107//206 105//206 106//206
f 105//207 109//207 110//207
f 109//208 107//208 108//208
o sivutalo
v -55.019531 -109.093750 17.003906
v -33.535156 -109.093750 17.003906
v -33.535156 -120.812500 17.003906
v -55.019531 -120.812500 17.003906
v -55.019531 -109.093750 0.113281
v -33.535156 -109.093750 0.113281
v -33.535156 -120.812500 0.113281
v -55.019531 -120.812500 0.113281
vn -0.0000 -0.0000 1.0000
vn -0.0000 1.0000 -0.0000
vn 1.0000 -0.0000 -0.0000
vn -0.0000 -1.0000 -0.0000
vn -1.0000 -0.0000 -0.0000
vn -0.0000 -0.0000 -1.0000
s 0
usemtl DEFAULT
f 186//274 184//274 183//274
f 184//275 187//275 183//275
f 185//276 188//276 184//276
f 186//277 189//277 185//277
f 183//278 190//278 186//278
f 190//279 188//279 189//279
f 186//274 185//274 184//274
f 184//275 188//275 187//275
f 185//276 189//276 188//276
f 186//277 190//277 189//277
f 183//278 187//278 190//278
f 190//279 187//279 188//279
o talojota
v -115.496094 -117.621094 16.949219
v -82.191406 -117.621094 16.949219
v -82.191406 -106.925781 16.949219
v -115.496094 -106.925781 16.949219
v -115.496094 -117.621094 0.089844
v -82.191406 -117.621094 0.089844
v -82.191406 -106.925781 0.089844
v -115.496094 -106.925781 0.089844
vn -0.0000 -0.0000 1.0000
vn -0.0000 -1.0000 -0.0000
vn 1.0000 -0.0000 -0.0000
vn -0.0000 1.0000 -0.0000
vn -1.0000 -0.0000 -0.0000
vn -0.0000 -0.0000 -1.0000
s 0
usemtl DEFAULT
f 192//280 194//280 191//280
f 195//281 192//281 191//281
f 196//282 193//282 192//282
f 197//283 194//283 193//283
f 198//284 191//284 194//284
f 198//285 196//285 195//285
f 192//280 193//280 194//280
f 195//281 196//281 192//281
f 196//282 197//282 193//282
f 197//283 198//283 194//283
f 198//284 195//284 191//284
f 198//285 197//285 196//285
o tunneli2
v -70.199219 -120.886719 0.125000
v -70.199219 -105.371094 0.125000
v -70.199219 -105.371094 35.449219
v -70.199219 -120.886719 35.449219
v -57.882812 -120.886719 0.125000
v -57.882812 -105.371094 0.125000
v -57.882812 -105.371094 35.449219
v -57.882812 -120.886719 35.449219
vn -1.0000 -0.0000 -0.0000
vn -0.0000 -0.0000 -1.0000
vn -0.0000 1.0000 -0.0000
vn -0.0000 -0.0000 1.0000
vn -0.0000 -1.0000 -0.0000
vn 1.0000 -0.0000 -0.0000
s 0
usemtl DEFAULT
f 202//286 200//286 199//286
f 200//287 203//287 199//287
f 201//288 204//288 200//288
f 202//289 205//289 201//289
f 199//290 206//290 202//290
f 204//291 206//291 203//291
f 202//286 201//286 200//286
f 200//287 204//287 203//287
f 201//288 205//288 204//288
f 202//289 206//289 205//289
f 199//290 203//290 206//290
f 204//291 205//291 206//291
