# Blender 3.6.5
# www.blender.org
mtllib U2E_anim92.mtl
o CameraBox
v -97.726135 -133.404434 5.095556
v -97.888962 -133.520294 5.103418
v -97.723808 -133.394150 5.295269
v -97.886642 -133.509995 5.303131
v -97.610031 -133.567154 5.102592
v -97.772865 -133.682999 5.110454
v -97.607712 -133.556854 5.302304
v -97.770538 -133.672714 5.310166
vn -0.5805 0.8135 -0.0352
vn 0.0116 0.0515 0.9986
vn 0.5805 -0.8135 0.0352
vn -0.0116 -0.0515 -0.9986
vn 0.8142 0.5793 -0.0393
vn -0.8142 -0.5793 0.0393
s 0
usemtl None
f 2//1 3//1 1//1
f 8//3 5//3 7//3
f 6//4 1//4 5//4
f 4//6 6//6 8//6
f 2//1 4//1 3//1
f 8//3 6//3 5//3
f 6//4 2//4 1//4
f 4//6 2//6 6//6
usemtl UpDir
f 4//2 7//2 3//2
f 4//2 8//2 7//2
usemtl LookingDir
f 7//5 1//5 3//5
f 7//5 5//5 1//5
o _L_pohja
v -74.218750 -58.593750 0.128906
v -54.687500 -58.593750 0.128906
v -54.687500 -105.468750 0.128906
v -31.250000 -105.468750 0.128906
v -31.250000 -125.000000 0.128906
v -74.218750 -125.000000 0.128906
vn -0.0000 -0.0000 1.0000
s 0
usemtl WHITE#NEON
f 13//7 11//7 14//7
f 9//7 11//7 10//7
f 13//7 12//7 11//7
f 9//7 14//7 11//7
o _laatta01
v -97.656250 -7.812500 0.128906
v -97.656250 11.718750 0.128906
v -54.687500 11.718750 0.128906
v -54.687500 -7.812500 0.128906
v -50.781250 11.718750 0.128906
v 39.062500 11.718750 0.128906
v 39.062500 -7.812500 0.128906
v -50.781250 -7.812500 0.128906
v -101.562500 11.718750 0.128906
v -101.562500 -31.250000 0.128906
v -117.187500 -31.250000 0.128906
v -117.187500 11.718750 0.128906
v -117.187500 -82.031250 0.128906
v -101.562500 -82.031250 0.128906
v -101.562500 -105.468750 0.128906
v -78.125000 -105.468750 0.128906
v -78.125000 -125.000000 0.128906
v -117.187500 -125.000000 0.128906
vn -0.0000 -0.0000 1.0000
s 0
usemtl WHITE#NEON
f 18//8 16//8 15//8
f 22//8 20//8 19//8
f 26//8 24//8 23//8
f 31//8 29//8 32//8
f 27//8 29//8 28//8
f 18//8 17//8 16//8
f 22//8 21//8 20//8
f 26//8 25//8 24//8
f 31//8 30//8 29//8
f 27//8 32//8 29//8
o s01
v -83.183975 -125.141739 4.715671
v -83.136627 -125.192780 4.810818
v -83.107788 -125.227768 4.956756
v -83.114578 -125.225975 5.106008
v -83.146011 -125.188431 5.262605
v -83.195053 -125.135704 5.367839
v -83.159790 -125.171585 5.113020
v -83.155991 -125.175865 4.963763
v -83.476273 -125.584946 4.622617
v -83.391449 -125.681122 4.734185
v -83.335358 -125.749008 4.916002
v -83.339462 -125.744392 5.104548
v -83.404800 -125.678299 5.299911
v -83.494202 -125.577049 5.431896
v -83.430817 -125.646667 5.114728
v -83.423676 -125.648781 4.926186
v -83.966858 -126.321503 4.459620
v -83.874939 -126.426331 4.618479
v -83.816818 -126.496735 4.859278
v -83.824478 -126.494087 5.110685
v -83.889877 -126.421944 5.368869
v -83.990173 -126.313774 5.543928
v -83.917847 -126.387825 5.120775
v -83.910172 -126.390472 4.869369
v -84.414825 -126.724274 4.455276
v -84.325882 -126.831635 4.610199
v -84.267288 -126.896492 4.854885
v -84.272446 -126.896866 5.106339
v -84.340302 -126.821739 5.360547
v -84.438126 -126.716545 5.539582
v -84.365814 -126.790604 5.116430
v -84.363663 -126.792732 4.864972
v -84.954819 -126.906311 4.534725
v -84.870224 -127.002289 4.669868
v -84.814377 -127.069908 4.883117
v -84.821762 -127.067520 5.103091
v -84.884354 -126.998695 5.325961
v -84.973953 -126.897247 5.481520
v -84.910095 -126.967331 5.109347
v -84.902725 -126.969681 4.893301
v -85.281998 -127.014130 4.579998
v -85.234970 -127.064865 4.710506
v -85.206558 -127.099426 4.907522
v -85.213760 -127.097229 5.103922
v -85.248596 -127.061783 5.307664
v -85.297943 -127.008751 5.448259
v -85.261963 -127.045334 5.110930
v -85.254745 -127.047554 4.910601
v -85.340714 -126.363014 4.970870
v -85.436081 -126.254242 4.921978
v -85.630829 -126.038185 4.942061
v -85.730209 -125.930908 5.011036
v -85.731186 -125.929939 5.124978
v -85.635788 -126.038750 5.169941
v -85.441040 -126.254807 5.149858
v -85.344666 -126.364586 5.080878
v -84.873795 -126.466171 4.889282
v -85.097687 -126.214836 4.798789
v -85.547409 -125.710220 4.845685
v -85.775757 -125.453926 4.983028
v -85.780716 -125.454491 5.210907
v -85.556824 -125.705833 5.301402
v -85.107056 -126.210487 5.250576
v -84.875702 -126.464272 5.113237
v -84.559097 -126.184357 4.889584
v -84.783020 -125.932983 4.803020
v -85.232742 -125.428375 4.849916
v -85.458588 -125.175095 4.987306
v -85.466049 -125.172638 5.215138
v -85.242157 -125.423981 5.305632
v -84.792374 -125.928635 5.254807
v -84.564041 -126.184929 5.117464
v -84.016724 -125.314217 4.973299
v -84.147797 -125.168602 4.935578
v -84.405777 -124.882545 4.962387
v -84.532227 -124.736549 5.030803
v -84.406754 -124.881584 5.076329
v -84.148773 -125.167633 5.049520
v -84.265625 -123.931549 4.829780
v -84.311676 -123.876320 4.935019
v -84.348602 -123.838242 5.091564
v -84.352890 -123.839485 5.240863
v -84.324051 -123.874474 5.386802
v -84.276733 -123.925507 5.481949
v -84.304688 -123.891373 5.233856
v -84.303406 -123.892639 5.084553
v -84.734604 -124.174347 4.753167
v -84.829529 -124.072525 4.889030
v -84.891891 -124.003952 5.084396
v -84.893463 -124.002388 5.269061
v -84.839844 -124.067253 5.450830
v -84.752563 -124.166397 5.566375
v -84.805161 -124.102570 5.262805
v -84.803543 -124.104164 5.074211
v -85.523895 -124.581955 4.628058
v -85.621170 -124.471283 4.803121
v -85.689590 -124.401642 5.061301
v -85.694199 -124.396523 5.308784
v -85.636124 -124.466896 5.553512
v -85.544159 -124.571762 5.708440
v -85.600845 -124.502785 5.298692
v -85.593201 -124.505402 5.051214
v -85.974365 -124.981712 4.623665
v -86.069138 -124.874054 4.798776
v -86.140045 -124.801399 5.056909
v -86.142166 -124.799301 5.304438
v -86.086578 -124.866661 5.549119
v -85.994629 -124.971527 5.704048
v -86.048798 -124.905563 5.294347
v -86.046692 -124.907661 5.046818
v -86.213181 -125.495667 4.669205
v -86.308289 -125.393692 4.824712
v -86.370880 -125.324867 5.047582
v -86.375778 -125.325508 5.267604
v -86.322418 -125.390114 5.480806
v -86.235321 -125.489098 5.615995
v -86.287415 -125.425728 5.257419
v -86.282532 -125.425095 5.037397
v -86.363708 -125.803902 4.698037
v -86.410019 -125.748405 4.834707
v -86.447357 -125.709938 5.038402
v -86.452072 -125.710747 5.238778
v -86.423660 -125.745300 5.435794
v -86.379623 -125.798561 5.562369
v -86.403885 -125.762634 5.231771
v -86.399673 -125.767349 5.031437
v -84.599548 -126.221481 4.991723
v -84.641876 -126.262222 4.960269
v -84.841064 -126.438362 4.928623
v -84.860107 -126.458374 4.987574
v -84.841827 -126.437599 5.018991
v -84.642410 -126.261688 5.023134
v -84.164505 -126.573959 5.014145
v -84.221085 -126.621948 4.951194
v -84.466095 -126.846863 4.888133
v -84.497208 -126.870796 5.009887
v -84.470184 -126.842270 5.072750
v -84.222168 -126.620880 5.076924
v -85.501556 -125.209198 5.089397
v -85.546387 -125.246933 5.057897
v -85.743042 -125.426086 5.026297
v -85.767609 -125.445564 5.085196
v -85.743820 -125.425316 5.116665
v -85.546890 -125.246429 5.116832
v -85.804855 -124.740265 5.188932
v -85.858459 -124.785721 5.129915
v -86.103439 -125.010666 5.062924
v -86.134552 -125.034607 5.184679
v -86.110535 -125.008575 5.247537
v -85.862518 -124.787186 5.251711
vn 0.7422 0.6698 0.0199
vn 0.6650 -0.2358 -0.7087
vn 0.8542 -0.3423 -0.3914
vn 0.9152 -0.4019 0.0298
vn 0.8388 -0.3650 0.4041
vn 0.6668 -0.3003 0.6820
vn -0.8363 0.4762 -0.2717
vn -0.8683 0.4946 -0.0384
vn -0.8318 0.4964 0.2484
vn 0.6916 -0.3506 -0.6315
vn 0.8029 -0.4914 -0.3375
vn 0.8393 -0.5428 0.0313
vn 0.7902 -0.5084 0.3422
vn 0.6784 -0.3844 0.6262
vn -0.8230 0.5188 -0.2314
vn -0.8347 0.5499 -0.0312
vn -0.8352 0.5117 0.2017
vn 0.5040 -0.5470 -0.6684
vn 0.6329 -0.6973 -0.3364
vn 0.6685 -0.7436 0.0126
vn 0.6192 -0.6926 0.3700
vn 0.5182 -0.5831 0.6257
vn -0.6482 0.7235 -0.2374
vn -0.6685 0.7436 -0.0120
vn -0.6508 0.7315 0.2035
vn 0.1607 -0.7545 -0.6364
vn 0.2449 -0.9039 -0.3508
vn 0.2965 -0.9548 0.0203
vn 0.2692 -0.8963 0.3524
vn 0.1926 -0.7675 0.6115
vn -0.2894 0.9304 -0.2249
vn -0.3085 0.9510 -0.0209
vn -0.2952 0.9326 0.2077
vn 0.2301 -0.8762 -0.4235
vn 0.1453 -0.9707 -0.1912
vn 0.0756 -0.9970 0.0139
vn 0.1578 -0.9679 0.1954
vn 0.2568 -0.8711 0.4187
vn -0.3100 0.9411 -0.1351
vn -0.2165 0.9761 -0.0186
vn -0.2091 0.9710 0.1154
vn -0.7331 -0.6800 -0.0130
vn -0.7416 -0.6707 -0.0145
vn -0.2574 -0.5221 -0.8131
vn -0.3154 -0.1948 -0.9287
vn -0.5955 -0.1036 -0.7966
vn -0.9948 -0.0997 -0.0219
vn -0.5547 -0.2036 0.8068
vn -0.2401 -0.3067 0.9210
vn -0.1797 -0.5898 0.7873
vn -0.2147 -0.9767 0.0064
vn 0.1734 -0.1790 -0.9684
vn -0.0387 0.0582 -0.9976
vn -0.2408 0.2881 -0.9268
vn -0.6597 0.7509 -0.0297
vn -0.1804 0.1869 0.9657
vn 0.0426 -0.0625 0.9971
vn 0.2409 -0.2829 0.9284
vn 0.6671 -0.7449 0.0126
vn 0.2422 -0.0331 -0.9697
vn 0.0460 0.1343 -0.9899
vn -0.1028 0.3477 -0.9320
vn -0.4269 0.9040 -0.0237
vn 0.0426 0.3326 0.9421
vn 0.2028 0.0915 0.9749
vn 0.4099 -0.1021 0.9064
vn 0.8478 -0.5301 0.0171
vn 0.7428 0.6695 0.0007
vn 0.7700 0.6379 0.0142
vn -0.3135 0.7775 -0.5452
vn -0.3157 0.9022 -0.2939
vn -0.2917 0.9565 -0.0005
vn -0.2471 0.8873 0.3895
vn -0.1667 0.6825 0.7116
vn 0.4005 -0.8803 -0.2545
vn 0.3893 -0.9210 0.0111
vn 0.3699 -0.8879 0.2735
vn -0.2455 0.6856 -0.6853
vn -0.3741 0.8313 -0.4112
vn -0.4459 0.8950 -0.0114
vn -0.4017 0.8504 0.3399
vn -0.2745 0.7128 0.6454
vn 0.4163 -0.8854 -0.2066
vn 0.4501 -0.8927 0.0233
vn 0.4284 -0.8592 0.2798
vn -0.5100 0.5817 -0.6337
vn -0.6236 0.6974 -0.3533
vn -0.6636 0.7480 -0.0120
vn -0.6284 0.6952 0.3491
vn -0.4970 0.5527 0.6690
vn 0.6509 -0.7313 -0.2038
vn 0.6685 -0.7436 0.0120
vn 0.6434 -0.7279 0.2371
vn -0.7254 0.2814 -0.6282
vn -0.8554 0.3759 -0.3563
vn -0.9147 0.4037 -0.0192
vn -0.8791 0.3692 0.3013
vn -0.7456 0.2556 0.6155
vn 0.9031 -0.3890 -0.1820
vn 0.9086 -0.4176 0.0113
vn 0.8856 -0.4077 0.2227
vn -0.8272 0.3639 -0.4280
vn -0.9389 0.2630 -0.2218
vn -0.9805 0.1953 -0.0223
vn -0.9437 0.1655 0.2863
vn -0.7799 0.1452 0.6088
vn 0.9009 -0.3856 -0.1991
vn 0.9445 -0.3280 0.0200
vn 0.9186 -0.3184 0.2340
vn -0.7704 -0.6372 -0.0208
vn -0.6664 0.7455 -0.0120
vn 0.4328 0.4858 -0.7594
vn 0.1109 0.1545 -0.9818
vn -0.7162 -0.6271 -0.3063
vn -0.6518 -0.5449 0.5275
vn -0.0759 0.0625 0.9952
vn 0.2467 0.4194 0.8736
vn 0.6664 -0.7455 0.0120
vn 0.4548 0.4565 -0.7647
vn 0.0783 0.2053 -0.9756
vn -0.7457 -0.5915 -0.3068
vn -0.5719 -0.6573 0.4907
vn 0.1478 -0.1839 0.9718
vn 0.6329 0.2167 0.7433
vn 0.7013 0.7122 -0.0300
vn 0.7701 0.6377 0.0168
vn 0.7190 0.6945 0.0244
vn 0.7197 0.6942 0.0143
vn 0.7692 0.6390 0.0012
vn 0.7384 -0.3684 -0.5649
vn 0.8702 -0.4116 -0.2707
vn 0.9164 -0.3976 0.0464
vn 0.8584 -0.4325 0.2760
vn 0.7279 -0.4140 0.5466
vn -0.8254 0.5320 -0.1892
vn -0.8681 0.4951 -0.0362
vn -0.8641 0.4762 0.1629
vn 0.6415 -0.2682 -0.7187
vn 0.7921 -0.4499 -0.4125
vn 0.8393 -0.5427 0.0316
vn 0.7779 -0.4686 0.4187
vn 0.6450 -0.3294 0.6895
vn -0.8042 0.5262 -0.2762
vn -0.8353 0.5486 -0.0377
vn -0.8182 0.5175 0.2505
vn 0.5061 -0.5557 -0.6596
vn 0.6226 -0.6977 -0.3543
vn 0.6633 -0.7478 0.0281
vn 0.6175 -0.7030 0.3528
vn 0.5010 -0.5779 0.6442
vn -0.6632 0.7479 -0.0281
vn -0.6545 0.7256 0.2127
vn 0.1702 -0.7615 -0.6254
vn 0.2731 -0.9117 -0.3070
vn 0.3024 -0.9532 0.0048
vn 0.2772 -0.8988 0.3396
vn 0.2183 -0.7846 0.5803
vn -0.2992 0.9299 -0.2139
vn -0.3124 0.9499 -0.0107
vn -0.2879 0.9381 0.1927
vn 0.0685 -0.7927 -0.6058
vn 0.0518 -0.9480 -0.3142
vn 0.0759 -0.9970 0.0134
vn 0.0725 -0.9471 0.3128
vn 0.1095 -0.8025 0.5865
vn -0.2123 0.9531 -0.2159
vn -0.2168 0.9760 -0.0180
vn -0.2804 0.9374 0.2064
vn -0.7399 -0.6727 -0.0060
vn -0.7712 -0.6362 -0.0212
vn -0.7023 -0.7115 -0.0235
vn -0.6730 -0.7394 -0.0161
vn -0.7330 -0.6802 -0.0083
vn -0.7409 -0.6708 0.0325
vn -0.7433 -0.6679 -0.0362
vn -0.7439 -0.6674 -0.0338
vn -0.7518 -0.6594 -0.0008
vn -0.7493 -0.6617 -0.0284
vn -0.2260 -0.5572 -0.7990
vn -0.3113 -0.1942 -0.9302
vn -0.6199 -0.0719 -0.7813
vn -0.9954 -0.0955 -0.0077
vn -0.5779 -0.1775 0.7966
vn -0.2385 -0.3008 0.9234
vn -0.1509 -0.6175 0.7720
vn -0.2065 -0.9782 -0.0213
vn 0.1737 -0.1930 -0.9657
vn -0.2409 0.2829 -0.9284
vn -0.6670 0.7449 -0.0126
vn 0.2409 -0.2828 0.9284
vn 0.6673 -0.7447 0.0120
vn 0.2785 -0.0815 -0.9570
vn 0.0463 0.1332 -0.9900
vn -0.1352 0.3766 -0.9165
vn 0.0193 0.3539 0.9351
vn 0.2096 0.0888 0.9737
vn 0.4165 -0.1124 0.9022
vn 0.7428 0.6695 0.0038
vn 0.7425 0.6698 -0.0019
vn 0.7561 0.6545 0.0009
vn 0.7148 0.6989 0.0263
vn 0.8123 0.5811 0.0504
vn 0.6542 0.7563 -0.0008
vn -0.2080 0.7074 -0.6755
vn -0.2635 0.8808 -0.3933
vn -0.2890 0.9573 -0.0106
vn -0.3057 0.9104 0.2787
vn -0.2926 0.7745 0.5609
vn 0.3750 -0.9117 -0.1677
vn 0.4250 -0.8833 0.1979
vn -0.2970 0.7239 -0.6227
vn -0.4122 0.8463 -0.3375
vn -0.4425 0.8964 -0.0268
vn -0.3673 0.8364 0.4068
vn -0.2078 0.6592 0.7227
vn 0.4251 -0.8681 -0.2562
vn 0.4527 -0.8916 0.0114
vn 0.4181 -0.8794 0.2276
vn -0.5081 0.5720 -0.6440
vn -0.6158 0.6979 -0.3656
vn -0.6682 0.7435 -0.0278
vn -0.6270 0.7029 0.3359
vn 0.6545 -0.7256 -0.2127
vn 0.6632 -0.7479 0.0284
vn 0.6435 -0.7277 0.2373
vn -0.7421 0.3119 -0.5934
vn -0.8570 0.3840 -0.3435
vn -0.9136 0.4064 -0.0113
vn -0.8771 0.3526 0.3263
vn -0.7319 0.2313 0.6410
vn 0.8958 -0.3967 -0.2003
vn 0.9096 -0.4149 0.0190
vn 0.8879 -0.3911 0.2422
vn -0.7700 0.2038 -0.6046
vn -0.9278 0.1919 -0.3198
vn -0.9804 0.1958 -0.0212
vn -0.9516 0.2484 0.1808
vn -0.8450 0.3198 0.4286
vn 0.9424 -0.3179 -0.1037
vn 0.9456 -0.3241 0.0275
vn 0.8946 -0.4235 0.1429
vn -0.7692 -0.6390 -0.0012
vn -0.7339 -0.6790 -0.0199
vn -0.7699 -0.6379 -0.0207
vn -0.7887 -0.6146 -0.0177
vn -0.7327 -0.6806 0.0006
vn -0.6500 0.7532 -0.1011
vn -0.6612 0.7482 0.0557
vn -0.7416 0.6707 -0.0120
vn 0.2975 0.3702 -0.8800
vn 0.0389 0.1339 -0.9902
vn -0.6687 -0.6112 -0.4234
vn -0.5985 -0.4628 0.6540
vn -0.0733 0.0633 0.9953
vn 0.3899 0.5292 0.7536
vn 0.6686 -0.7361 0.1059
vn 0.6786 -0.7285 -0.0933
vn 0.6389 -0.7692 0.0120
vn 0.3199 0.3537 -0.8790
vn 0.0445 0.1260 -0.9910
vn -0.6869 -0.5545 -0.4698
vn -0.4425 -0.5639 0.6973
vn 0.1538 -0.1703 0.9733
vn 0.4512 0.1037 0.8864
s 0
usemtl LIGHT_BLUE
f 40//9 36//9 34//9
f 34//10 42//10 41//10
f 35//11 43//11 42//11
f 45//13 44//13 36//13
f 46//14 45//14 37//14
f 39//15 47//15 46//15
f 40//16 48//16 47//16
f 33//17 41//17 48//17
f 42//18 50//18 49//18
f 43//19 51//19 50//19
f 53//21 52//21 44//21
f 54//22 53//22 45//22
f 55//23 54//23 46//23
f 48//24 56//24 55//24
f 41//25 49//25 56//25
f 50//26 58//26 57//26
f 59//27 58//27 50//27
f 61//29 60//29 52//29
f 54//30 62//30 61//30
f 63//31 62//31 54//31
f 64//32 63//32 55//32
f 57//33 64//33 56//33
f 66//34 65//34 57//34
f 67//35 66//35 58//35
f 61//37 69//37 68//37
f 62//38 70//38 69//38
f 71//39 70//39 62//39
f 72//40 71//40 63//40
f 65//41 72//41 64//41
f 74//42 73//42 65//42
f 75//43 74//43 66//43
f 69//45 77//45 76//45
f 70//46 78//46 77//46
f 79//47 78//47 70//47
f 80//48 79//48 71//48
f 73//49 80//49 72//49
f 77//50 80//50 75//50
f 94//56 93//56 85//56
f 88//58 96//58 95//58
f 94//64 102//64 101//64
f 104//66 103//66 95//66
f 102//72 109//72 108//72
f 105//74 110//74 103//74
f 115//77 118//77 113//77
f 112//78 111//78 119//78
f 113//79 112//79 120//79
f 114//81 122//81 123//81
f 115//82 123//82 124//82
f 116//83 124//83 125//83
f 117//84 125//84 126//84
f 118//85 126//85 119//85
f 120//86 119//86 127//86
f 121//87 120//87 128//87
f 122//89 130//89 131//89
f 123//90 131//90 132//90
f 124//91 132//91 133//91
f 125//92 133//92 134//92
f 119//93 126//93 134//93
f 127//94 135//94 136//94
f 129//95 128//95 136//95
f 131//97 130//97 138//97
f 131//98 139//98 140//98
f 132//99 140//99 141//99
f 133//100 141//100 142//100
f 127//101 134//101 142//101
f 135//102 143//102 144//102
f 136//103 144//103 145//103
f 139//105 138//105 146//105
f 140//106 139//106 147//106
f 141//107 140//107 148//107
f 142//108 141//108 149//108
f 135//109 142//109 150//109
f 143//110 151//110 152//110
f 144//111 152//111 153//111
f 147//113 146//113 154//113
f 148//114 147//114 155//114
f 149//115 148//115 156//115
f 150//116 149//116 157//116
f 143//117 150//117 158//117
f 158//118 154//118 152//118
f 159//119 161//119 163//119
f 159//120 165//120 166//120
f 160//121 166//121 167//121
f 161//122 167//122 168//122
f 162//123 168//123 169//123
f 164//124 163//124 169//124
f 159//125 164//125 170//125
f 171//126 175//126 173//126
f 178//127 177//127 171//127
f 179//128 178//128 172//128
f 174//129 180//129 179//129
f 175//130 181//130 180//130
f 176//131 182//131 181//131
f 177//132 182//132 176//132
f 36//133 38//133 37//133
f 36//134 39//134 38//134
f 34//135 36//135 35//135
f 40//136 34//136 33//136
f 36//137 40//137 39//137
f 34//138 41//138 33//138
f 35//139 42//139 34//139
f 45//141 36//141 37//141
f 46//142 37//142 38//142
f 39//143 46//143 38//143
f 40//144 47//144 39//144
f 33//145 48//145 40//145
f 42//146 49//146 41//146
f 43//147 50//147 42//147
f 53//149 44//149 45//149
f 54//150 45//150 46//150
f 55//151 46//151 47//151
f 48//152 55//152 47//152
f 41//153 56//153 48//153
f 50//154 57//154 49//154
f 59//155 50//155 51//155
f 61//157 52//157 53//157
f 54//158 61//158 53//158
f 63//31 54//31 55//31
f 64//159 55//159 56//159
f 57//160 56//160 49//160
f 66//161 57//161 58//161
f 67//162 58//162 59//162
f 61//164 68//164 60//164
f 62//165 69//165 61//165
f 71//166 62//166 63//166
f 72//167 63//167 64//167
f 65//168 64//168 57//168
f 74//169 65//169 66//169
f 75//170 66//170 67//170
f 69//172 76//172 68//172
f 70//173 77//173 69//173
f 79//174 70//174 71//174
f 80//175 71//175 72//175
f 73//176 72//176 65//176
f 79//177 77//177 78//177
f 77//178 75//178 76//178
f 75//179 73//179 74//179
f 80//180 77//180 79//180
f 75//181 80//181 73//181
f 94//191 85//191 86//191
f 88//193 95//193 87//193
f 94//64 101//64 93//64
f 104//198 95//198 96//198
f 102//203 108//203 101//203
f 105//205 103//205 104//205
f 117//136 115//136 116//136
f 115//209 113//209 114//209
f 113//210 111//210 112//210
f 118//211 115//211 117//211
f 113//134 118//134 111//134
f 112//212 119//212 120//212
f 113//213 120//213 121//213
f 114//215 123//215 115//215
f 115//216 124//216 116//216
f 116//217 125//217 117//217
f 117//84 126//84 118//84
f 118//218 119//218 111//218
f 120//219 127//219 128//219
f 121//220 128//220 129//220
f 122//222 131//222 123//222
f 123//223 132//223 124//223
f 124//224 133//224 125//224
f 125//225 134//225 126//225
f 119//226 134//226 127//226
f 127//227 136//227 128//227
f 129//228 136//228 137//228
f 131//230 138//230 139//230
f 131//98 140//98 132//98
f 132//231 141//231 133//231
f 133//232 142//232 134//232
f 127//233 142//233 135//233
f 135//234 144//234 136//234
f 136//235 145//235 137//235
f 139//237 146//237 147//237
f 140//238 147//238 148//238
f 141//239 148//239 149//239
f 142//240 149//240 150//240
f 135//241 150//241 143//241
f 143//242 152//242 144//242
f 144//243 153//243 145//243
f 147//245 154//245 155//245
f 148//246 155//246 156//246
f 149//247 156//247 157//247
f 150//248 157//248 158//248
f 143//249 158//249 151//249
f 154//250 156//250 155//250
f 154//251 157//251 156//251
f 152//252 154//252 153//252
f 158//253 152//253 151//253
f 154//254 158//254 157//254
f 161//255 159//255 160//255
f 159//256 163//256 164//256
f 163//257 161//257 162//257
f 159//258 166//258 160//258
f 160//259 167//259 161//259
f 161//260 168//260 162//260
f 162//261 169//261 163//261
f 164//262 169//262 170//262
f 159//263 170//263 165//263
f 175//264 171//264 176//264
f 171//265 173//265 172//265
f 173//266 175//266 174//266
f 178//267 171//267 172//267
f 179//268 172//268 173//268
f 174//269 179//269 173//269
f 175//270 180//270 174//270
f 176//271 181//271 175//271
f 177//272 176//272 171//272
usemtl BLACK
f 44//12 43//12 35//12
f 52//20 51//20 43//20
f 52//28 60//28 59//28
f 60//36 68//36 67//36
f 68//44 76//44 75//44
f 114//80 113//80 121//80
f 122//88 121//88 129//88
f 129//96 137//96 138//96
f 137//104 145//104 146//104
f 145//112 153//112 154//112
f 44//140 35//140 36//140
f 52//148 43//148 44//148
f 52//156 59//156 51//156
f 60//163 67//163 59//163
f 68//171 75//171 67//171
f 114//214 121//214 122//214
f 122//221 129//221 130//221
f 129//229 138//229 130//229
f 137//236 146//236 138//236
f 145//244 154//244 146//244
usemtl ORANGE
f 82//51 86//51 84//51
f 86//182 88//182 87//182
f 88//183 82//183 81//183
f 82//184 84//184 83//184
f 84//185 86//185 85//185
f 86//186 82//186 88//186
usemtl GREY
f 90//52 89//52 81//52
f 91//53 90//53 82//53
f 84//54 92//54 91//54
f 85//55 93//55 92//55
f 95//57 94//57 86//57
f 81//59 89//59 96//59
f 90//60 98//60 97//60
f 91//61 99//61 98//61
f 92//62 100//62 99//62
f 101//63 100//63 92//63
f 103//65 102//65 94//65
f 89//67 97//67 104//67
f 98//68 106//68 105//68
f 99//69 107//69 106//69
f 108//70 107//70 99//70
f 108//71 100//71 101//71
f 103//73 110//73 109//73
f 105//75 104//75 97//75
f 105//76 107//76 109//76
f 90//187 81//187 82//187
f 91//188 82//188 83//188
f 84//189 91//189 83//189
f 85//190 92//190 84//190
f 95//192 86//192 87//192
f 81//194 96//194 88//194
f 90//195 97//195 89//195
f 91//61 98//61 90//61
f 92//196 99//196 91//196
f 101//197 92//197 93//197
f 103//65 94//65 95//65
f 89//199 104//199 96//199
f 98//200 105//200 97//200
f 99//201 106//201 98//201
f 108//202 99//202 100//202
f 103//204 109//204 102//204
f 107//206 105//206 106//206
f 105//207 109//207 110//207
f 109//208 107//208 108//208
o sivutalo
v -55.019531 -109.093750 17.003906
v -33.535156 -109.093750 17.003906
v -33.535156 -120.812500 17.003906
v -55.019531 -120.812500 17.003906
v -55.019531 -109.093750 0.113281
v -33.535156 -109.093750 0.113281
v -33.535156 -120.812500 0.113281
v -55.019531 -120.812500 0.113281
vn -0.0000 -0.0000 1.0000
vn -0.0000 1.0000 -0.0000
vn 1.0000 -0.0000 -0.0000
vn -0.0000 -1.0000 -0.0000
vn -1.0000 -0.0000 -0.0000
vn -0.0000 -0.0000 -1.0000
s 0
usemtl DEFAULT
f 186//273 184//273 183//273
f 184//274 187//274 183//274
f 185//275 188//275 184//275
f 186//276 189//276 185//276
f 183//277 190//277 186//277
f 190//278 188//278 189//278
f 186//273 185//273 184//273
f 184//274 188//274 187//274
f 185//275 189//275 188//275
f 186//276 190//276 189//276
f 183//277 187//277 190//277
f 190//278 187//278 188//278
o talojota
v -115.496094 -117.621094 16.949219
v -82.191406 -117.621094 16.949219
v -82.191406 -106.925781 16.949219
v -115.496094 -106.925781 16.949219
v -115.496094 -117.621094 0.089844
v -82.191406 -117.621094 0.089844
v -82.191406 -106.925781 0.089844
v -115.496094 -106.925781 0.089844
vn -0.0000 -0.0000 1.0000
vn -0.0000 -1.0000 -0.0000
vn 1.0000 -0.0000 -0.0000
vn -0.0000 1.0000 -0.0000
vn -1.0000 -0.0000 -0.0000
vn -0.0000 -0.0000 -1.0000
s 0
usemtl DEFAULT
f 192//279 194//279 191//279
f 195//280 192//280 191//280
f 196//281 193//281 192//281
f 197//282 194//282 193//282
f 198//283 191//283 194//283
f 198//284 196//284 195//284
f 192//279 193//279 194//279
f 195//280 196//280 192//280
f 196//281 197//281 193//281
f 197//282 198//282 194//282
f 198//283 195//283 191//283
f 198//284 197//284 196//284
o tunneli2
v -70.199219 -120.886719 0.125000
v -70.199219 -105.371094 0.125000
v -70.199219 -105.371094 35.449219
v -70.199219 -120.886719 35.449219
v -57.882812 -120.886719 0.125000
v -57.882812 -105.371094 0.125000
v -57.882812 -105.371094 35.449219
v -57.882812 -120.886719 35.449219
vn -1.0000 -0.0000 -0.0000
vn -0.0000 -0.0000 -1.0000
vn -0.0000 1.0000 -0.0000
vn -0.0000 -0.0000 1.0000
vn -0.0000 -1.0000 -0.0000
vn 1.0000 -0.0000 -0.0000
s 0
usemtl DEFAULT
f 202//285 200//285 199//285
f 200//286 203//286 199//286
f 201//287 204//287 200//287
f 202//288 205//288 201//288
f 199//289 206//289 202//289
f 204//290 206//290 203//290
f 202//285 201//285 200//285
f 200//286 204//286 203//286
f 201//287 205//287 204//287
f 202//288 206//288 205//288
f 199//289 203//289 206//289
f 204//290 205//290 206//290
