# Blender 3.6.5
# www.blender.org
mtllib U2E_anim59.mtl
o CameraBox
v -99.022713 -140.014267 5.016801
v -99.013680 -140.213943 5.023717
v -99.026688 -140.007523 5.216639
v -99.017654 -140.207199 5.223555
v -98.822952 -140.005112 5.020464
v -98.813919 -140.204788 5.027380
v -98.826927 -139.998367 5.220302
v -98.817894 -140.198044 5.227218
vn -0.9988 -0.0458 -0.0183
vn -0.0199 0.0337 0.9992
vn 0.9988 0.0458 0.0183
vn 0.0199 -0.0337 -0.9992
vn -0.0452 0.9984 -0.0346
vn 0.0452 -0.9984 0.0346
s 0
usemtl None
f 2//1 3//1 1//1
f 8//3 5//3 7//3
f 6//4 1//4 5//4
f 4//6 6//6 8//6
f 2//1 4//1 3//1
f 8//3 6//3 5//3
f 6//4 2//4 1//4
f 4//6 2//6 6//6
usemtl UpDir
f 4//2 7//2 3//2
f 4//2 8//2 7//2
usemtl LookingDir
f 7//5 1//5 3//5
f 7//5 5//5 1//5
o _laatta01
v -97.656250 -7.812500 0.128906
v -97.656250 11.718750 0.128906
v -54.687500 11.718750 0.128906
v -54.687500 -7.812500 0.128906
v -50.781250 11.718750 0.128906
v 39.062500 11.718750 0.128906
v 39.062500 -7.812500 0.128906
v -50.781250 -7.812500 0.128906
v -101.562500 11.718750 0.128906
v -101.562500 -31.250000 0.128906
v -117.187500 -31.250000 0.128906
v -117.187500 11.718750 0.128906
v -117.187500 -82.031250 0.128906
v -101.562500 -82.031250 0.128906
v -101.562500 -105.468750 0.128906
v -78.125000 -105.468750 0.128906
v -78.125000 -125.000000 0.128906
v -117.187500 -125.000000 0.128906
vn -0.0000 -0.0000 1.0000
s 0
usemtl WHITE#NEON
f 12//7 10//7 9//7
f 16//7 14//7 13//7
f 20//7 18//7 17//7
f 25//7 23//7 26//7
f 21//7 23//7 22//7
f 12//7 11//7 10//7
f 16//7 15//7 14//7
f 20//7 19//7 18//7
f 25//7 24//7 23//7
f 21//7 26//7 23//7
o fcirto01
v -95.593750 -117.921875 11.671875
v -95.593750 -117.921875 9.718750
v -97.546875 -117.921875 9.718750
v -97.546875 -117.921875 11.671875
v -95.593750 -117.921875 7.765625
v -95.593750 -117.921875 5.812500
v -97.546875 -117.921875 5.812500
v -97.546875 -117.921875 7.765625
v -95.593750 -117.921875 3.859375
v -95.593750 -117.921875 1.906250
v -97.546875 -117.921875 1.906250
v -97.546875 -117.921875 3.859375
v -99.500000 -117.921875 7.765625
v -99.500000 -117.921875 5.812500
v -101.453125 -117.921875 5.812500
v -101.453125 -117.921875 7.765625
v -99.500000 -117.921875 3.859375
v -99.500000 -117.921875 1.906250
v -101.453125 -117.921875 1.906250
v -101.453125 -117.921875 3.859375
v -99.500000 -117.921875 11.671875
v -99.500000 -117.921875 9.718750
v -101.453125 -117.921875 9.718750
v -101.453125 -117.921875 11.671875
v -87.519531 -117.921875 11.671875
v -87.519531 -117.921875 9.718750
v -89.472656 -117.921875 9.718750
v -89.472656 -117.921875 11.671875
v -87.519531 -117.921875 7.765625
v -87.519531 -117.921875 5.812500
v -89.472656 -117.921875 5.812500
v -89.472656 -117.921875 7.765625
v -87.519531 -117.921875 3.859375
v -87.519531 -117.921875 1.906250
v -89.472656 -117.921875 1.906250
v -89.472656 -117.921875 3.859375
v -91.425781 -117.921875 7.765625
v -91.425781 -117.921875 5.812500
v -93.378906 -117.921875 5.812500
v -93.378906 -117.921875 7.765625
v -91.425781 -117.921875 3.859375
v -91.425781 -117.921875 1.906250
v -93.378906 -117.921875 1.906250
v -93.378906 -117.921875 3.859375
v -91.425781 -117.921875 11.671875
v -91.425781 -117.921875 9.718750
v -93.378906 -117.921875 9.718750
v -93.378906 -117.921875 11.671875
vn -0.0000 -1.0000 -0.0000
s 0
usemtl C_GROUND
f 30//8 28//8 27//8
f 34//8 32//8 31//8
f 38//8 36//8 35//8
f 42//8 40//8 39//8
f 46//8 44//8 43//8
f 50//8 48//8 47//8
f 54//8 52//8 51//8
f 58//8 56//8 55//8
f 62//8 60//8 59//8
f 66//8 64//8 63//8
f 70//8 68//8 67//8
f 74//8 72//8 71//8
f 30//8 29//8 28//8
f 34//8 33//8 32//8
f 38//8 37//8 36//8
f 42//8 41//8 40//8
f 46//8 45//8 44//8
f 50//8 49//8 48//8
f 54//8 53//8 52//8
f 58//8 57//8 56//8
f 62//8 61//8 60//8
f 66//8 65//8 64//8
f 70//8 69//8 68//8
f 74//8 73//8 72//8
o s01
v -93.620880 -128.466232 4.250202
v -93.603073 -128.534088 4.344944
v -93.594437 -128.579529 4.490600
v -93.600296 -128.575867 4.639856
v -93.611420 -128.529144 4.796746
v -93.630859 -128.460434 4.902390
v -93.615112 -128.506760 4.647300
v -93.613068 -128.511230 4.498015
v -94.085098 -128.722382 4.153180
v -94.055161 -128.847717 4.263985
v -94.037796 -128.935211 4.445256
v -94.040161 -128.930573 4.633833
v -94.068253 -128.843109 4.829704
v -94.101028 -128.712891 4.962484
v -94.075760 -128.801666 4.644781
v -94.069550 -128.805496 4.456232
v -94.860840 -129.145721 3.983587
v -94.828827 -129.282379 4.141611
v -94.811127 -129.373474 4.381842
v -94.817825 -129.369385 4.633258
v -94.843445 -129.276978 4.892001
v -94.882843 -129.135880 5.067904
v -94.851242 -129.231995 4.644187
v -94.844543 -129.236084 4.392772
v -95.444565 -129.294418 3.975507
v -95.416336 -129.431915 4.129574
v -95.395676 -129.518326 4.373739
v -95.401566 -129.518066 4.625177
v -95.427948 -129.421860 4.879969
v -95.466583 -129.284576 5.059824
v -95.434967 -129.380676 4.636107
v -95.432907 -129.381744 4.384641
v -96.007706 -129.205475 4.053032
v -95.977951 -129.330750 4.187412
v -95.960861 -129.418091 4.400117
v -95.967300 -129.414124 4.620099
v -95.991806 -129.325729 4.843503
v -96.024750 -129.195404 4.999857
v -95.999039 -129.284454 4.627146
v -95.992615 -129.288391 4.411093
v -96.347763 -129.149384 4.097161
v -96.330246 -129.217102 4.227266
v -96.322037 -129.262299 4.424000
v -96.328278 -129.258453 4.620407
v -96.343613 -129.212341 4.824419
v -96.363327 -129.143494 4.965425
v -96.346924 -129.190155 4.627823
v -96.340637 -129.194031 4.427486
v -96.099243 -128.548279 4.493516
v -96.132980 -128.407318 4.445486
v -96.205231 -128.125702 4.467272
v -96.243759 -127.985039 4.537088
v -96.244690 -127.984550 4.651033
v -96.210922 -128.125534 4.695135
v -96.138657 -128.407166 4.673349
v -96.103958 -128.548645 4.603506
v -95.733200 -128.855865 4.411377
v -95.814392 -128.528656 4.322870
v -95.978653 -127.873268 4.373746
v -96.062531 -127.541252 4.513107
v -96.068207 -127.541100 4.740970
v -95.987015 -127.868309 4.829477
v -95.822754 -128.523712 4.774672
v -95.735046 -128.854919 4.635339
v -95.323639 -128.752380 4.414293
v -95.404861 -128.425171 4.329715
v -95.569122 -127.769783 4.380591
v -95.652176 -127.441605 4.519975
v -95.658676 -127.437614 4.747815
v -95.577484 -127.764824 4.836323
v -95.413208 -128.420227 4.781517
v -95.329346 -128.752228 4.642156
v -94.439682 -128.234192 4.505779
v -94.487976 -128.044098 4.469209
v -94.583786 -127.671150 4.498271
v -94.628311 -127.483627 4.567839
v -94.584717 -127.670662 4.612217
v -94.488907 -128.043610 4.583154
v -94.017517 -126.893028 4.373856
v -94.033127 -126.823502 4.479527
v -94.048889 -126.773758 4.636367
v -94.053940 -126.773933 4.785646
v -94.045303 -126.819366 4.931302
v -94.027512 -126.887230 5.026044
v -94.035309 -126.842232 4.778231
v -94.034073 -126.842865 4.628923
v -94.545242 -126.889748 4.294857
v -94.582687 -126.756493 4.431515
v -94.606964 -126.668205 4.627415
v -94.608475 -126.667419 4.812085
v -94.591934 -126.751076 4.993333
v -94.561203 -126.880241 5.108090
v -94.576721 -126.797104 4.805037
v -94.575180 -126.797913 4.616439
v -95.432999 -126.883369 4.165740
v -95.468567 -126.741447 4.341671
v -95.497986 -126.649879 4.600387
v -95.500839 -126.644989 4.847901
v -95.483185 -126.736046 5.092062
v -95.451126 -126.872726 5.246156
v -95.467438 -126.782364 4.836971
v -95.460770 -126.786446 4.589485
v -96.017548 -127.028236 4.157637
v -96.052307 -126.890144 4.333591
v -96.082535 -126.794739 4.592283
v -96.084564 -126.793686 4.839821
v -96.067734 -126.880905 5.083958
v -96.035690 -127.017593 5.238053
v -96.051163 -126.931068 4.828891
v -96.049149 -126.932121 4.581354
v -96.467896 -127.372856 4.198638
v -96.505478 -127.239502 4.354942
v -96.529984 -127.151115 4.578346
v -96.535599 -127.150986 4.798350
v -96.519333 -127.234505 5.011032
v -96.488739 -127.363594 5.145435
v -96.503830 -127.280693 4.787374
v -96.498215 -127.280815 4.567370
v -96.744446 -127.576157 4.224744
v -96.760300 -127.506500 4.361849
v -96.776443 -127.456558 4.565838
v -96.781921 -127.456520 4.766197
v -96.773697 -127.501740 4.962932
v -96.759995 -127.570274 5.089079
v -96.763290 -127.524818 4.758781
v -96.760834 -127.529510 4.558418
v -95.377182 -128.767212 4.516084
v -95.433441 -128.783417 4.484256
v -95.691498 -128.846710 4.450975
v -95.717911 -128.856018 4.509741
v -95.692230 -128.846329 4.541346
v -95.433960 -128.783157 4.547122
v -95.155640 -129.281555 4.535808
v -95.227737 -129.297333 4.472412
v -95.548859 -129.382294 4.407270
v -95.588104 -129.389923 4.528795
v -95.551193 -129.377655 4.591917
v -95.228775 -129.296783 4.598145
v -95.706528 -127.452591 4.621743
v -95.763611 -127.464966 4.589892
v -96.020828 -127.532089 4.556634
v -96.051880 -127.538368 4.615349
v -96.021561 -127.531708 4.647005
v -95.764084 -127.464714 4.648829
v -95.757889 -126.897186 4.725054
v -95.826202 -126.912125 4.665615
v -96.147293 -126.997108 4.596544
v -96.186523 -127.004745 4.718070
v -96.153442 -126.993301 4.781163
v -95.831009 -126.912422 4.787391
vn 0.9683 0.2485 0.0261
vn 0.4827 -0.5125 -0.7102
vn 0.5994 -0.6969 -0.3938
vn 0.6239 -0.7811 0.0270
vn 0.5716 -0.7156 0.4015
vn 0.4480 -0.5805 0.6799
vn -0.5184 0.8120 -0.2682
vn -0.5392 0.8414 -0.0348
vn -0.5073 0.8241 0.2521
vn 0.4526 -0.6271 -0.6340
vn 0.4845 -0.8056 -0.3411
vn 0.4912 -0.8706 0.0273
vn 0.4622 -0.8196 0.3384
vn 0.4195 -0.6599 0.6233
vn -0.4869 0.8433 -0.2276
vn -0.4838 0.8748 -0.0271
vn -0.5031 0.8395 0.2054
vn 0.1954 -0.7136 -0.6727
vn 0.2384 -0.9090 -0.3419
vn 0.2468 -0.9691 0.0068
vn 0.2251 -0.9036 0.3645
vn 0.1854 -0.7615 0.6211
vn -0.2371 0.9434 -0.2317
vn -0.2468 0.9691 -0.0061
vn -0.2377 0.9485 0.2093
vn -0.2051 -0.7382 -0.6427
vn -0.2011 -0.9117 -0.3583
vn -0.1808 -0.9834 0.0124
vn -0.1794 -0.9213 0.3449
vn -0.1886 -0.7735 0.6050
vn 0.1767 0.9600 -0.2171
vn 0.1684 0.9856 -0.0130
vn 0.1706 0.9615 0.2154
vn -0.2010 -0.8798 -0.4308
vn -0.3212 -0.9258 -0.1994
vn -0.3960 -0.9182 0.0054
vn -0.3105 -0.9319 0.1873
vn -0.1789 -0.8937 0.4114
vn 0.1630 0.9784 -0.1273
vn 0.2616 0.9651 -0.0105
vn 0.2651 0.9563 0.1235
vn -0.9649 -0.2618 -0.0193
vn -0.9682 -0.2495 -0.0207
vn -0.4667 -0.3370 -0.8177
vn -0.3656 -0.0194 -0.9306
vn -0.5719 0.1904 -0.7979
vn -0.9272 0.3738 -0.0234
vn -0.5894 0.0714 0.8046
vn -0.3593 -0.1668 0.9182
vn -0.4366 -0.4446 0.7821
vn -0.6436 -0.7654 -0.0020
vn 0.0749 -0.2321 -0.9698
vn -0.0027 0.0767 -0.9970
vn -0.0753 0.3736 -0.9245
vn -0.2355 0.9716 -0.0238
vn -0.0774 0.2424 0.9671
vn 0.0041 -0.0823 0.9966
vn 0.0778 -0.3691 0.9261
vn 0.2449 -0.9695 0.0068
vn 0.2036 -0.1348 -0.9697
vn 0.1076 0.1047 -0.9887
vn 0.0747 0.3624 -0.9290
vn 0.0418 0.9990 -0.0163
vn 0.1879 0.2680 0.9449
vn 0.2176 -0.0201 0.9758
vn 0.3115 -0.2873 0.9058
vn 0.5047 -0.8632 0.0132
vn 0.9687 0.2480 0.0069
vn 0.9781 0.2074 0.0202
vn 0.0858 0.8381 -0.5387
vn 0.1406 0.9477 -0.2864
vn 0.1857 0.9826 0.0075
vn 0.1914 0.8977 0.3969
vn 0.1659 0.6767 0.7173
vn -0.0528 -0.9637 -0.2617
vn -0.0829 -0.9966 0.0036
vn -0.0859 -0.9601 0.2662
vn 0.1041 0.7261 -0.6796
vn 0.0565 0.9128 -0.4044
vn 0.0207 0.9998 -0.0041
vn 0.0375 0.9372 0.3468
vn 0.0849 0.7541 0.6512
vn -0.0414 -0.9760 -0.2139
vn -0.0160 -0.9997 0.0160
vn -0.0208 -0.9619 0.2728
vn -0.1788 0.7565 -0.6290
vn -0.2269 0.9097 -0.3478
vn -0.2404 0.9706 -0.0061
vn -0.2354 0.9049 0.3545
vn -0.1866 0.7154 0.6734
vn 0.2379 -0.9484 -0.2096
vn 0.2468 -0.9691 0.0061
vn 0.2308 -0.9451 0.2313
vn -0.5090 0.5906 -0.6263
vn -0.5815 0.7327 -0.3537
vn -0.6226 0.7824 -0.0164
vn -0.6086 0.7330 0.3039
vn -0.5445 0.5681 0.6171
vn 0.6201 -0.7625 -0.1847
vn 0.6108 -0.7918 0.0084
vn 0.5940 -0.7738 0.2198
vn -0.5618 0.7095 -0.4255
vn -0.7085 0.6705 -0.2202
vn -0.7776 0.6284 -0.0213
vn -0.7603 0.5827 0.2870
vn -0.6261 0.4863 0.6095
vn 0.6198 -0.7584 -0.2017
vn 0.6841 -0.7292 0.0179
vn 0.6647 -0.7102 0.2319
vn -0.9781 -0.2065 -0.0267
vn -0.2440 0.9697 -0.0061
vn 0.6123 0.2348 -0.7549
vn 0.1744 0.0924 -0.9803
vn -0.9241 -0.2206 -0.3121
vn -0.8327 -0.1838 0.5224
vn -0.0427 0.0834 0.9956
vn 0.4092 0.2506 0.8773
vn 0.2440 -0.9697 0.0061
vn 0.6182 0.1986 -0.7605
vn 0.1691 0.1525 -0.9737
vn -0.9336 -0.1754 -0.3124
vn -0.8140 -0.3202 0.4847
vn 0.0411 -0.2385 0.9703
vn 0.6577 -0.1073 0.7456
vn 0.9520 0.3053 -0.0235
vn 0.9781 0.2071 0.0228
vn 0.9592 0.2811 0.0308
vn 0.9596 0.2805 0.0207
vn 0.9779 0.2087 0.0071
vn 0.4855 -0.6650 -0.5675
vn 0.5809 -0.7667 -0.2736
vn 0.6268 -0.7780 0.0437
vn 0.5582 -0.7836 0.2729
vn 0.4499 -0.7086 0.5436
vn -0.4831 0.8557 -0.1852
vn -0.5388 0.8418 -0.0326
vn -0.5450 0.8218 0.1664
vn 0.4469 -0.5302 -0.7206
vn 0.4946 -0.7633 -0.4157
vn 0.4912 -0.8706 0.0276
vn 0.4695 -0.7792 0.4153
vn 0.4152 -0.5962 0.6872
vn -0.4667 0.8414 -0.2723
vn -0.4849 0.8739 -0.0336
vn -0.4855 0.8364 0.2543
vn 0.1932 -0.7224 -0.6639
vn 0.2291 -0.9045 -0.3598
vn 0.2402 -0.9705 0.0222
vn 0.2189 -0.9119 0.3473
vn 0.1725 -0.7491 0.6396
vn -0.2400 0.9705 -0.0222
vn -0.2437 0.9449 0.2184
vn -0.2000 -0.7489 -0.6317
vn -0.1800 -0.9320 -0.3146
vn -0.1748 -0.9846 -0.0031
vn -0.1733 -0.9272 0.3321
vn -0.1736 -0.8004 0.5737
vn 0.1678 0.9640 -0.2062
vn 0.1644 0.9864 -0.0029
vn 0.1797 0.9631 0.2005
vn -0.3046 -0.7295 -0.6125
vn -0.3928 -0.8613 -0.3222
vn -0.3958 -0.9183 0.0049
vn -0.3770 -0.8747 0.3048
vn -0.2783 -0.7658 0.5797
vn 0.2555 0.9442 -0.2079
vn 0.2612 0.9652 -0.0099
vn 0.1860 0.9589 0.2142
vn -0.9676 -0.2522 -0.0122
vn -0.9783 -0.2052 -0.0271
vn -0.9522 -0.3039 -0.0301
vn -0.9393 -0.3423 -0.0228
vn -0.9649 -0.2621 -0.0146
vn -0.9678 -0.2504 0.0262
vn -0.9683 -0.2462 -0.0424
vn -0.9686 -0.2454 -0.0400
vn -0.9720 -0.2350 -0.0070
vn -0.9707 -0.2379 -0.0346
vn -0.4552 -0.3828 -0.8039
vn -0.3617 -0.0207 -0.9321
vn -0.5789 0.2298 -0.7824
vn -0.9259 0.3776 -0.0092
vn -0.5979 0.1054 0.7947
vn -0.3552 -0.1623 0.9206
vn -0.4238 -0.4824 0.7666
vn -0.6370 -0.7703 -0.0298
vn 0.0687 -0.2446 -0.9672
vn -0.0778 0.3691 -0.9261
vn -0.2449 0.9695 -0.0068
vn 0.0778 -0.3690 0.9262
vn 0.2452 -0.9694 0.0061
vn 0.2132 -0.1946 -0.9574
vn 0.1074 0.1037 -0.9888
vn 0.0592 0.4029 -0.9133
vn 0.1772 0.2977 0.9381
vn 0.2224 -0.0257 0.9746
vn 0.3125 -0.2994 0.9015
vn 0.9687 0.2481 0.0100
vn 0.9686 0.2485 0.0043
vn 0.9735 0.2286 0.0070
vn 0.9574 0.2869 0.0327
vn 0.9890 0.1371 0.0559
vn 0.9306 0.3661 0.0061
vn 0.1473 0.7280 -0.6696
vn 0.1774 0.9053 -0.3860
vn 0.1885 0.9821 -0.0026
vn 0.1507 0.9462 0.2862
vn 0.0979 0.8177 0.5673
vn -0.0904 -0.9804 -0.1752
vn -0.0346 -0.9810 0.1907
vn 0.0758 0.7835 -0.6167
vn 0.0294 0.9433 -0.3305
vn 0.0243 0.9995 -0.0195
vn 0.0611 0.9084 0.4137
vn 0.1187 0.6751 0.7281
vn -0.0254 -0.9644 -0.2633
vn -0.0131 -0.9999 0.0042
vn -0.0391 -0.9746 0.2204
vn -0.1815 0.7471 -0.6394
vn -0.2197 0.9067 -0.3601
vn -0.2465 0.9689 -0.0220
vn -0.2305 0.9112 0.3414
vn 0.2437 -0.9449 -0.2184
vn 0.2400 -0.9705 0.0224
vn 0.2310 -0.9450 0.2316
vn -0.5097 0.6250 -0.5912
vn -0.5792 0.7405 -0.3408
vn -0.6205 0.7842 -0.0084
vn -0.6146 0.7171 0.3287
vn -0.5438 0.5401 0.6424
vn 0.6101 -0.7658 -0.2030
vn 0.6129 -0.7900 0.0161
vn 0.6037 -0.7604 0.2395
vn -0.5846 0.5424 -0.6033
vn -0.7312 0.6031 -0.3188
vn -0.7773 0.6288 -0.0202
vn -0.7284 0.6605 0.1822
vn -0.6019 0.6724 0.4308
vn 0.6876 -0.7184 -0.1057
vn 0.6869 -0.7263 0.0254
vn 0.5950 -0.7914 0.1399
vn -0.9779 -0.2087 -0.0071
vn -0.9651 -0.2604 -0.0262
vn -0.9779 -0.2073 -0.0266
vn -0.9838 -0.1780 -0.0234
vn -0.9649 -0.2626 -0.0057
vn -0.2255 0.9696 -0.0951
vn -0.2385 0.9692 0.0616
vn -0.3454 0.9384 -0.0068
vn 0.4394 0.1961 -0.8766
vn 0.1012 0.1076 -0.9890
vn -0.8741 -0.2278 -0.4291
vn -0.7479 -0.1367 0.6496
vn -0.0400 0.0829 0.9958
vn 0.5876 0.2822 0.7584
vn 0.2499 -0.9631 0.1001
vn 0.2632 -0.9596 -0.0990
vn 0.2087 -0.9780 0.0059
vn 0.4515 0.1711 -0.8757
vn 0.1024 0.0981 -0.9899
vn -0.8637 -0.1687 -0.4750
vn -0.6569 -0.2990 0.6922
vn 0.0528 -0.2293 0.9719
vn 0.4437 -0.1241 0.8875
s 0
usemtl LIGHT_BLUE
f 82//9 78//9 76//9
f 76//10 84//10 83//10
f 77//11 85//11 84//11
f 87//13 86//13 78//13
f 88//14 87//14 79//14
f 81//15 89//15 88//15
f 82//16 90//16 89//16
f 75//17 83//17 90//17
f 84//18 92//18 91//18
f 85//19 93//19 92//19
f 95//21 94//21 86//21
f 96//22 95//22 87//22
f 97//23 96//23 88//23
f 90//24 98//24 97//24
f 83//25 91//25 98//25
f 92//26 100//26 99//26
f 101//27 100//27 92//27
f 103//29 102//29 94//29
f 96//30 104//30 103//30
f 105//31 104//31 96//31
f 106//32 105//32 97//32
f 99//33 106//33 98//33
f 108//34 107//34 99//34
f 109//35 108//35 100//35
f 103//37 111//37 110//37
f 104//38 112//38 111//38
f 113//39 112//39 104//39
f 114//40 113//40 105//40
f 107//41 114//41 106//41
f 116//42 115//42 107//42
f 117//43 116//43 108//43
f 111//45 119//45 118//45
f 112//46 120//46 119//46
f 121//47 120//47 112//47
f 122//48 121//48 113//48
f 115//49 122//49 114//49
f 119//50 122//50 117//50
f 136//56 135//56 127//56
f 130//58 138//58 137//58
f 136//64 144//64 143//64
f 146//66 145//66 137//66
f 144//72 151//72 150//72
f 147//74 152//74 145//74
f 157//77 160//77 155//77
f 154//78 153//78 161//78
f 155//79 154//79 162//79
f 156//81 164//81 165//81
f 157//82 165//82 166//82
f 158//83 166//83 167//83
f 159//84 167//84 168//84
f 160//85 168//85 161//85
f 162//86 161//86 169//86
f 163//87 162//87 170//87
f 164//89 172//89 173//89
f 165//90 173//90 174//90
f 166//91 174//91 175//91
f 167//92 175//92 176//92
f 161//93 168//93 176//93
f 169//94 177//94 178//94
f 171//95 170//95 178//95
f 173//97 172//97 180//97
f 173//98 181//98 182//98
f 174//99 182//99 183//99
f 175//100 183//100 184//100
f 169//101 176//101 184//101
f 177//102 185//102 186//102
f 178//103 186//103 187//103
f 181//105 180//105 188//105
f 182//106 181//106 189//106
f 183//107 182//107 190//107
f 184//108 183//108 191//108
f 177//109 184//109 192//109
f 185//110 193//110 194//110
f 186//111 194//111 195//111
f 189//113 188//113 196//113
f 190//114 189//114 197//114
f 191//115 190//115 198//115
f 192//116 191//116 199//116
f 185//117 192//117 200//117
f 200//118 196//118 194//118
f 201//119 203//119 205//119
f 201//120 207//120 208//120
f 202//121 208//121 209//121
f 203//122 209//122 210//122
f 204//123 210//123 211//123
f 206//124 205//124 211//124
f 201//125 206//125 212//125
f 213//126 217//126 215//126
f 220//127 219//127 213//127
f 221//128 220//128 214//128
f 216//129 222//129 221//129
f 217//130 223//130 222//130
f 218//131 224//131 223//131
f 219//132 224//132 218//132
f 78//133 80//133 79//133
f 78//134 81//134 80//134
f 76//135 78//135 77//135
f 82//136 76//136 75//136
f 78//137 82//137 81//137
f 76//138 83//138 75//138
f 77//139 84//139 76//139
f 87//141 78//141 79//141
f 88//142 79//142 80//142
f 81//143 88//143 80//143
f 82//144 89//144 81//144
f 75//145 90//145 82//145
f 84//146 91//146 83//146
f 85//147 92//147 84//147
f 95//149 86//149 87//149
f 96//150 87//150 88//150
f 97//151 88//151 89//151
f 90//152 97//152 89//152
f 83//153 98//153 90//153
f 92//154 99//154 91//154
f 101//155 92//155 93//155
f 103//157 94//157 95//157
f 96//158 103//158 95//158
f 105//31 96//31 97//31
f 106//159 97//159 98//159
f 99//160 98//160 91//160
f 108//161 99//161 100//161
f 109//162 100//162 101//162
f 103//164 110//164 102//164
f 104//165 111//165 103//165
f 113//166 104//166 105//166
f 114//167 105//167 106//167
f 107//168 106//168 99//168
f 116//169 107//169 108//169
f 117//170 108//170 109//170
f 111//172 118//172 110//172
f 112//173 119//173 111//173
f 121//174 112//174 113//174
f 122//175 113//175 114//175
f 115//176 114//176 107//176
f 121//177 119//177 120//177
f 119//178 117//178 118//178
f 117//179 115//179 116//179
f 122//180 119//180 121//180
f 117//181 122//181 115//181
f 136//191 127//191 128//191
f 130//193 137//193 129//193
f 136//64 143//64 135//64
f 146//198 137//198 138//198
f 144//203 150//203 143//203
f 147//205 145//205 146//205
f 159//136 157//136 158//136
f 157//209 155//209 156//209
f 155//210 153//210 154//210
f 160//211 157//211 159//211
f 155//134 160//134 153//134
f 154//212 161//212 162//212
f 155//213 162//213 163//213
f 156//215 165//215 157//215
f 157//216 166//216 158//216
f 158//217 167//217 159//217
f 159//84 168//84 160//84
f 160//218 161//218 153//218
f 162//219 169//219 170//219
f 163//220 170//220 171//220
f 164//222 173//222 165//222
f 165//223 174//223 166//223
f 166//224 175//224 167//224
f 167//225 176//225 168//225
f 161//226 176//226 169//226
f 169//227 178//227 170//227
f 171//228 178//228 179//228
f 173//230 180//230 181//230
f 173//98 182//98 174//98
f 174//231 183//231 175//231
f 175//232 184//232 176//232
f 169//233 184//233 177//233
f 177//234 186//234 178//234
f 178//235 187//235 179//235
f 181//237 188//237 189//237
f 182//238 189//238 190//238
f 183//239 190//239 191//239
f 184//240 191//240 192//240
f 177//241 192//241 185//241
f 185//242 194//242 186//242
f 186//243 195//243 187//243
f 189//245 196//245 197//245
f 190//246 197//246 198//246
f 191//247 198//247 199//247
f 192//248 199//248 200//248
f 185//249 200//249 193//249
f 196//250 198//250 197//250
f 196//251 199//251 198//251
f 194//252 196//252 195//252
f 200//253 194//253 193//253
f 196//254 200//254 199//254
f 203//255 201//255 202//255
f 201//256 205//256 206//256
f 205//257 203//257 204//257
f 201//258 208//258 202//258
f 202//259 209//259 203//259
f 203//260 210//260 204//260
f 204//261 211//261 205//261
f 206//262 211//262 212//262
f 201//263 212//263 207//263
f 217//264 213//264 218//264
f 213//265 215//265 214//265
f 215//266 217//266 216//266
f 220//267 213//267 214//267
f 221//268 214//268 215//268
f 216//269 221//269 215//269
f 217//270 222//270 216//270
f 218//271 223//271 217//271
f 219//272 218//272 213//272
usemtl BLACK
f 86//12 85//12 77//12
f 94//20 93//20 85//20
f 94//28 102//28 101//28
f 102//36 110//36 109//36
f 110//44 118//44 117//44
f 156//80 155//80 163//80
f 164//88 163//88 171//88
f 171//96 179//96 180//96
f 179//104 187//104 188//104
f 187//112 195//112 196//112
f 86//140 77//140 78//140
f 94//148 85//148 86//148
f 94//156 101//156 93//156
f 102//163 109//163 101//163
f 110//171 117//171 109//171
f 156//214 163//214 164//214
f 164//221 171//221 172//221
f 171//229 180//229 172//229
f 179//236 188//236 180//236
f 187//244 196//244 188//244
usemtl ORANGE
f 124//51 128//51 126//51
f 128//182 130//182 129//182
f 130//183 124//183 123//183
f 124//184 126//184 125//184
f 126//185 128//185 127//185
f 128//186 124//186 130//186
usemtl GREY
f 132//52 131//52 123//52
f 133//53 132//53 124//53
f 126//54 134//54 133//54
f 127//55 135//55 134//55
f 137//57 136//57 128//57
f 123//59 131//59 138//59
f 132//60 140//60 139//60
f 133//61 141//61 140//61
f 134//62 142//62 141//62
f 143//63 142//63 134//63
f 145//65 144//65 136//65
f 131//67 139//67 146//67
f 140//68 148//68 147//68
f 141//69 149//69 148//69
f 150//70 149//70 141//70
f 150//71 142//71 143//71
f 145//73 152//73 151//73
f 147//75 146//75 139//75
f 147//76 149//76 151//76
f 132//187 123//187 124//187
f 133//188 124//188 125//188
f 126//189 133//189 125//189
f 127//190 134//190 126//190
f 137//192 128//192 129//192
f 123//194 138//194 130//194
f 132//195 139//195 131//195
f 133//61 140//61 132//61
f 134//196 141//196 133//196
f 143//197 134//197 135//197
f 145//65 136//65 137//65
f 131//199 146//199 138//199
f 140//200 147//200 139//200
f 141//201 148//201 140//201
f 150//202 141//202 142//202
f 145//204 151//204 144//204
f 149//206 147//206 148//206
f 147//207 151//207 152//207
f 151//208 149//208 150//208
o talojota
v -115.496094 -117.621094 16.949219
v -82.191406 -117.621094 16.949219
v -82.191406 -106.925781 16.949219
v -115.496094 -106.925781 16.949219
v -115.496094 -117.621094 0.089844
v -82.191406 -117.621094 0.089844
v -82.191406 -106.925781 0.089844
v -115.496094 -106.925781 0.089844
vn -0.0000 -0.0000 1.0000
vn -0.0000 -1.0000 -0.0000
vn 1.0000 -0.0000 -0.0000
vn -0.0000 1.0000 -0.0000
vn -1.0000 -0.0000 -0.0000
vn -0.0000 -0.0000 -1.0000
s 0
usemtl DEFAULT
f 226//273 228//273 225//273
f 229//274 226//274 225//274
f 230//275 227//275 226//275
f 231//276 228//276 227//276
f 232//277 225//277 228//277
f 232//278 230//278 229//278
f 226//273 227//273 228//273
f 229//274 230//274 226//274
f 230//275 231//275 227//275
f 231//276 232//276 228//276
f 232//277 229//277 225//277
f 232//278 231//278 230//278
