# Blender 3.6.5
# www.blender.org
mtllib U2E_anim72.mtl
o CameraBox
v -98.857872 -137.136871 5.052941
v -98.926750 -137.324448 5.061171
v -98.861649 -137.126724 5.252639
v -98.930527 -137.314301 5.260868
v -98.670135 -137.205505 5.059979
v -98.739014 -137.393082 5.068209
v -98.673912 -137.195358 5.259677
v -98.742790 -137.382935 5.267906
vn -0.9386 0.3431 -0.0352
vn -0.0189 0.0507 0.9985
vn 0.9386 -0.3431 0.0352
vn 0.0189 -0.0507 -0.9985
vn 0.3444 0.9379 -0.0411
vn -0.3444 -0.9379 0.0411
s 0
usemtl None
f 2//1 3//1 1//1
f 8//3 5//3 7//3
f 6//4 1//4 5//4
f 4//6 6//6 8//6
f 2//1 4//1 3//1
f 8//3 6//3 5//3
f 6//4 2//4 1//4
f 4//6 2//6 6//6
usemtl UpDir
f 4//2 7//2 3//2
f 4//2 8//2 7//2
usemtl LookingDir
f 7//5 1//5 3//5
f 7//5 5//5 1//5
o _laatta01
v -97.656250 -7.812500 0.128906
v -97.656250 11.718750 0.128906
v -54.687500 11.718750 0.128906
v -54.687500 -7.812500 0.128906
v -50.781250 11.718750 0.128906
v 39.062500 11.718750 0.128906
v 39.062500 -7.812500 0.128906
v -50.781250 -7.812500 0.128906
v -101.562500 11.718750 0.128906
v -101.562500 -31.250000 0.128906
v -117.187500 -31.250000 0.128906
v -117.187500 11.718750 0.128906
v -117.187500 -82.031250 0.128906
v -101.562500 -82.031250 0.128906
v -101.562500 -105.468750 0.128906
v -78.125000 -105.468750 0.128906
v -78.125000 -125.000000 0.128906
v -117.187500 -125.000000 0.128906
vn -0.0000 -0.0000 1.0000
s 0
usemtl WHITE#NEON
f 12//7 10//7 9//7
f 16//7 14//7 13//7
f 20//7 18//7 17//7
f 25//7 23//7 26//7
f 21//7 23//7 22//7
f 12//7 11//7 10//7
f 16//7 15//7 14//7
f 20//7 19//7 18//7
f 25//7 24//7 23//7
f 21//7 26//7 23//7
o fcirto01
v -95.593750 -117.921875 11.671875
v -95.593750 -117.921875 9.718750
v -97.546875 -117.921875 9.718750
v -97.546875 -117.921875 11.671875
v -95.593750 -117.921875 7.765625
v -95.593750 -117.921875 5.812500
v -97.546875 -117.921875 5.812500
v -97.546875 -117.921875 7.765625
v -95.593750 -117.921875 3.859375
v -95.593750 -117.921875 1.906250
v -97.546875 -117.921875 1.906250
v -97.546875 -117.921875 3.859375
v -99.500000 -117.921875 7.765625
v -99.500000 -117.921875 5.812500
v -101.453125 -117.921875 5.812500
v -101.453125 -117.921875 7.765625
v -99.500000 -117.921875 3.859375
v -99.500000 -117.921875 1.906250
v -101.453125 -117.921875 1.906250
v -101.453125 -117.921875 3.859375
v -99.500000 -117.921875 11.671875
v -99.500000 -117.921875 9.718750
v -101.453125 -117.921875 9.718750
v -101.453125 -117.921875 11.671875
v -87.519531 -117.921875 11.671875
v -87.519531 -117.921875 9.718750
v -89.472656 -117.921875 9.718750
v -89.472656 -117.921875 11.671875
v -87.519531 -117.921875 7.765625
v -87.519531 -117.921875 5.812500
v -89.472656 -117.921875 5.812500
v -89.472656 -117.921875 7.765625
v -87.519531 -117.921875 3.859375
v -87.519531 -117.921875 1.906250
v -89.472656 -117.921875 1.906250
v -89.472656 -117.921875 3.859375
v -91.425781 -117.921875 7.765625
v -91.425781 -117.921875 5.812500
v -93.378906 -117.921875 5.812500
v -93.378906 -117.921875 7.765625
v -91.425781 -117.921875 3.859375
v -91.425781 -117.921875 1.906250
v -93.378906 -117.921875 1.906250
v -93.378906 -117.921875 3.859375
v -91.425781 -117.921875 11.671875
v -91.425781 -117.921875 9.718750
v -93.378906 -117.921875 9.718750
v -93.378906 -117.921875 11.671875
vn -0.0000 -1.0000 -0.0000
s 0
usemtl C_GROUND
f 30//8 28//8 27//8
f 34//8 32//8 31//8
f 38//8 36//8 35//8
f 42//8 40//8 39//8
f 46//8 44//8 43//8
f 50//8 48//8 47//8
f 54//8 52//8 51//8
f 58//8 56//8 55//8
f 62//8 60//8 59//8
f 66//8 64//8 63//8
f 70//8 68//8 67//8
f 74//8 72//8 71//8
f 30//8 29//8 28//8
f 34//8 33//8 32//8
f 38//8 37//8 36//8
f 42//8 41//8 40//8
f 46//8 45//8 44//8
f 50//8 49//8 48//8
f 54//8 53//8 52//8
f 58//8 57//8 56//8
f 62//8 61//8 60//8
f 66//8 65//8 64//8
f 70//8 69//8 68//8
f 74//8 73//8 72//8
o s01
v -89.417023 -127.650330 4.397082
v -89.387817 -127.713661 4.492124
v -89.371597 -127.756287 4.637978
v -89.378174 -127.753082 4.787215
v -89.397400 -127.708344 4.943897
v -89.428589 -127.643608 5.049236
v -89.404755 -127.687561 4.794354
v -89.401810 -127.692245 4.645091
v -89.829590 -127.983620 4.301006
v -89.778442 -128.101395 4.412363
v -89.746368 -128.183777 4.594017
v -89.749695 -128.178833 4.782571
v -89.792786 -128.096756 4.978052
v -89.847809 -127.973648 5.110255
v -89.807159 -128.058029 4.792948
v -89.800186 -128.061523 4.604420
v -90.519821 -128.536011 4.132971
v -90.464722 -128.664368 4.291596
v -90.431732 -128.749969 4.532227
v -90.439331 -128.746063 4.783619
v -90.480865 -128.658447 5.041950
v -90.544373 -128.525574 5.217228
v -90.496078 -128.616516 4.793942
v -90.488510 -128.620453 4.542550
v -91.068832 -128.783875 4.125328
v -91.017319 -128.913727 4.279998
v -90.982224 -128.994202 4.524543
v -90.988342 -128.993927 4.775975
v -91.031311 -128.902695 5.030338
v -91.093399 -128.773453 5.209584
v -91.045105 -128.864395 4.786299
v -91.042618 -128.866150 4.534841
v -91.638931 -128.793793 4.202268
v -91.588013 -128.911407 4.337199
v -91.556244 -128.993576 4.550286
v -91.563522 -128.989868 4.770246
v -91.603256 -128.906143 4.993257
v -91.658524 -128.782867 5.149034
v -91.617310 -128.867645 4.776720
v -91.610077 -128.871307 4.560689
v -91.983597 -128.797455 4.246032
v -91.954758 -128.860535 4.376435
v -91.939026 -128.902802 4.573366
v -91.946075 -128.899277 4.769753
v -91.969391 -128.855682 4.973557
v -92.000931 -128.790695 5.114258
v -91.976288 -128.835220 4.776865
v -91.969208 -128.838776 4.576550
v -91.843719 -128.160645 4.639871
v -91.901367 -128.027893 4.591218
v -92.021484 -127.763016 4.611759
v -92.083939 -127.630890 4.680952
v -92.085068 -127.630096 4.794894
v -92.027374 -127.762894 4.839617
v -91.907272 -128.027771 4.819077
v -91.848434 -128.161362 4.749858
v -91.429733 -128.400299 4.559193
v -91.566452 -128.092560 4.469241
v -91.842102 -127.475464 4.517221
v -91.982513 -127.162483 4.655114
v -91.988403 -127.162361 4.882973
v -91.851715 -127.470108 4.972924
v -91.576019 -128.087234 4.921014
v -91.431946 -128.398743 4.783148
v -91.044388 -128.227234 4.561807
v -91.181107 -127.919472 4.475783
v -91.456772 -127.302376 4.523764
v -91.595718 -126.993027 4.661696
v -91.603073 -126.989265 4.889515
v -91.466385 -127.297028 4.979466
v -91.190704 -127.914146 4.927557
v -91.050262 -128.227127 4.789664
v -90.263977 -127.562981 4.651362
v -90.344528 -127.384331 4.613952
v -90.503708 -127.033577 4.641366
v -90.580215 -126.856346 4.710106
v -90.504837 -127.032784 4.755309
v -90.345657 -127.383537 4.727894
v -90.081070 -126.169441 4.513784
v -90.108643 -126.103241 4.619149
v -90.132980 -126.056328 4.775765
v -90.138077 -126.056763 4.925043
v -90.121841 -126.099388 5.070897
v -90.092636 -126.162720 5.165938
v -90.107864 -126.120804 4.917930
v -90.106384 -126.121849 4.768626
v -90.601257 -126.258232 4.434585
v -90.661423 -126.132912 4.570651
v -90.700867 -126.049370 4.766158
v -90.702698 -126.048080 4.950823
v -90.672089 -126.126831 5.132437
v -90.619507 -126.248215 5.247764
v -90.648911 -126.170319 4.944349
v -90.647049 -126.171638 4.755755
v -91.476471 -126.406708 4.305127
v -91.536346 -126.272385 4.480429
v -91.581528 -126.186226 4.738735
v -91.585449 -126.180870 4.986224
v -91.552521 -126.266449 5.230783
v -91.497375 -126.394829 5.385480
v -91.528687 -126.310402 4.975902
v -91.521133 -126.314301 4.728437
v -92.026962 -126.650940 4.297443
v -92.085388 -126.520248 4.472785
v -92.132019 -126.430458 4.731051
v -92.134476 -126.428734 4.978580
v -92.102997 -126.510689 5.223100
v -92.047867 -126.639076 5.377796
v -92.077682 -126.558273 4.968258
v -92.075226 -126.559998 4.720729
v -92.410629 -127.068382 4.339776
v -92.470993 -126.942940 4.495487
v -92.510712 -126.859207 4.718498
v -92.516525 -126.859138 4.938498
v -92.486221 -126.937660 5.151545
v -92.433838 -127.058907 5.286516
v -92.462708 -126.981400 4.928095
v -92.456894 -126.981468 4.708095
v -92.647690 -127.316528 4.366663
v -92.675568 -127.250114 4.503460
v -92.700378 -127.202873 4.707225
v -92.705978 -127.202942 4.907580
v -92.690247 -127.245209 5.104511
v -92.664978 -127.309799 5.230959
v -92.675766 -127.266991 4.900467
v -92.672302 -127.272034 4.700126
v -91.094635 -128.250732 4.663642
v -91.147202 -128.276581 4.631865
v -91.390274 -128.383881 4.598765
v -91.414749 -128.397385 4.657561
v -91.391174 -128.383270 4.689134
v -91.147827 -128.276154 4.694729
v -90.787140 -128.718658 4.685670
v -90.855331 -128.746979 4.622317
v -91.156754 -128.886719 4.557430
v -91.194183 -128.900543 4.678973
v -91.160049 -128.881805 4.742055
v -90.856567 -128.746109 4.748047
v -91.647446 -127.012863 4.763492
v -91.701492 -127.035103 4.731674
v -91.943100 -127.146034 4.698616
v -91.972672 -127.157364 4.757346
v -91.943985 -127.145409 4.788984
v -91.702072 -127.034691 4.790610
v -91.794632 -126.474396 4.864379
v -91.859253 -126.501228 4.804981
v -92.160629 -126.640991 4.736165
v -92.198059 -126.654816 4.857708
v -92.167572 -126.637535 4.920764
v -91.864090 -126.501846 4.926756
vn 0.9104 0.4130 0.0254
vn 0.5652 -0.4238 -0.7078
vn 0.7118 -0.5838 -0.3905
vn 0.7500 -0.6607 0.0306
vn 0.6868 -0.6037 0.4048
vn 0.5413 -0.4910 0.6826
vn -0.6513 0.7084 -0.2719
vn -0.6772 0.7348 -0.0386
vn -0.6431 0.7244 0.2483
vn 0.5553 -0.5416 -0.6311
vn 0.6174 -0.7106 -0.3374
vn 0.6349 -0.7720 0.0312
vn 0.5972 -0.7255 0.3421
vn 0.5270 -0.5744 0.6263
vn -0.6258 0.7449 -0.2314
vn -0.6284 0.7773 -0.0311
vn -0.6415 0.7402 0.2016
vn 0.3172 -0.6717 -0.6695
vn 0.3930 -0.8552 -0.3378
vn 0.4113 -0.9114 0.0110
vn 0.3783 -0.8492 0.3685
vn 0.3142 -0.7151 0.6244
vn -0.3971 0.8869 -0.2359
vn -0.4113 0.9114 -0.0104
vn -0.3991 0.8937 0.2051
vn -0.0730 -0.7653 -0.6395
vn -0.0393 -0.9343 -0.3544
vn -0.0072 -0.9998 0.0166
vn -0.0170 -0.9370 0.3488
vn -0.0520 -0.7920 0.6083
vn 0.0075 0.9752 -0.2212
vn -0.0054 0.9998 -0.0172
vn 0.0007 0.9774 0.2113
vn -0.0447 -0.9031 -0.4271
vn -0.1553 -0.9683 -0.1955
vn -0.2305 -0.9730 0.0093
vn -0.1441 -0.9709 0.1912
vn -0.0214 -0.9095 0.4152
vn -0.0093 0.9913 -0.1315
vn 0.0899 0.9958 -0.0145
vn 0.0948 0.9883 0.1195
vn -0.9047 -0.4255 -0.0185
vn -0.9101 -0.4140 -0.0199
vn -0.4001 -0.4164 -0.8164
vn -0.3556 -0.0865 -0.9306
vn -0.5954 0.0848 -0.7989
vn -0.9780 0.2069 -0.0254
vn -0.5938 -0.0287 0.8041
vn -0.3258 -0.2228 0.9188
vn -0.3536 -0.5104 0.7839
vn -0.5009 -0.8655 0.0011
vn 0.1151 -0.2196 -0.9688
vn -0.0149 0.0709 -0.9974
vn -0.1380 0.3510 -0.9262
vn -0.4007 0.9158 -0.0280
vn -0.1194 0.2293 0.9660
vn 0.0173 -0.0761 0.9969
vn 0.1397 -0.3461 0.9278
vn 0.4096 -0.9122 0.0111
vn 0.2250 -0.1015 -0.9691
vn 0.0889 0.1176 -0.9891
vn 0.0116 0.3659 -0.9306
vn -0.1324 0.9910 -0.0206
vn 0.1374 0.3005 0.9438
vn 0.2167 0.0221 0.9760
vn 0.3556 -0.2250 0.9071
vn 0.6469 -0.7623 0.0171
vn 0.9109 0.4126 0.0062
vn 0.9271 0.3742 0.0196
vn -0.0605 0.8380 -0.5423
vn -0.0259 0.9565 -0.2905
vn 0.0122 0.9999 0.0033
vn 0.0321 0.9190 0.3931
vn 0.0451 0.6983 0.7144
vn 0.1157 -0.9593 -0.2575
vn 0.0915 -0.9958 0.0078
vn 0.0819 -0.9593 0.2703
vn -0.0229 0.7303 -0.6827
vn -0.1025 0.9071 -0.4083
vn -0.1533 0.9881 -0.0084
vn -0.1263 0.9309 0.3428
vn -0.0482 0.7601 0.6480
vn 0.1290 -0.9692 -0.2097
vn 0.1579 -0.9872 0.0204
vn 0.1463 -0.9497 0.2769
vn -0.3068 0.7113 -0.6324
vn -0.3811 0.8550 -0.3518
vn -0.4054 0.9141 -0.0104
vn -0.3894 0.8518 0.3505
vn -0.3088 0.6749 0.6702
vn 0.3993 -0.8935 -0.2054
vn 0.4113 -0.9114 0.0104
vn 0.3912 -0.8897 0.2355
vn -0.6031 0.4905 -0.6290
vn -0.6995 0.6190 -0.3570
vn -0.7490 0.6622 -0.0200
vn -0.7270 0.6174 0.3005
vn -0.6356 0.4674 0.6145
vn 0.7433 -0.6439 -0.1812
vn 0.7390 -0.6736 0.0120
vn 0.7192 -0.6579 0.2234
vn -0.6760 0.5993 -0.4288
vn -0.8139 0.5363 -0.2234
vn -0.8749 0.4836 -0.0243
vn -0.8503 0.4430 0.2842
vn -0.7018 0.3727 0.6072
vn 0.7423 -0.6400 -0.1982
vn 0.8004 -0.5991 0.0213
vn 0.7777 -0.5830 0.2353
vn -0.9273 -0.3734 -0.0262
vn -0.4088 0.9126 -0.0104
vn 0.5630 0.3344 -0.7557
vn 0.1568 0.1172 -0.9807
vn -0.8714 -0.3791 -0.3115
vn -0.7887 -0.3235 0.5229
vn -0.0576 0.0789 0.9952
vn 0.3585 0.3216 0.8764
vn 0.4088 -0.9126 0.0104
vn 0.5751 0.2998 -0.7612
vn 0.1411 0.1755 -0.9743
vn -0.8886 -0.3363 -0.3119
vn -0.7465 -0.4547 0.4858
vn 0.0808 -0.2236 0.9713
vn 0.6656 0.0117 0.7462
vn 0.8845 0.4660 -0.0245
vn 0.9272 0.3739 0.0222
vn 0.8957 0.4436 0.0299
vn 0.8963 0.4431 0.0199
vn 0.9268 0.3755 0.0066
vn 0.5943 -0.5729 -0.5644
vn 0.7055 -0.6552 -0.2700
vn 0.7523 -0.6571 0.0473
vn 0.6855 -0.6735 0.2765
vn 0.5656 -0.6173 0.5468
vn -0.6242 0.7580 -0.1891
vn -0.6768 0.7353 -0.0364
vn -0.6796 0.7153 0.1626
vn 0.5330 -0.4475 -0.7181
vn 0.6201 -0.6675 -0.4123
vn 0.6350 -0.7719 0.0315
vn 0.5973 -0.6840 0.4188
vn 0.5117 -0.5121 0.6899
vn -0.6055 0.7464 -0.2761
vn -0.6293 0.7762 -0.0376
vn -0.6237 0.7404 0.2505
vn 0.3165 -0.6807 -0.6607
vn 0.3832 -0.8524 -0.3558
vn 0.4051 -0.9139 0.0265
vn 0.3736 -0.8585 0.3513
vn 0.2993 -0.7051 0.6429
vn -0.4049 0.9140 -0.0265
vn -0.4044 0.8891 0.2142
vn -0.0662 -0.7749 -0.6286
vn -0.0150 -0.9504 -0.3106
vn -0.0011 -1.0000 0.0011
vn -0.0100 -0.9418 0.3361
vn -0.0325 -0.8160 0.5771
vn -0.0020 0.9776 -0.2103
vn -0.0094 0.9999 -0.0071
vn 0.0094 0.9805 0.1964
vn -0.1726 -0.7738 -0.6094
vn -0.2369 -0.9178 -0.3186
vn -0.2302 -0.9731 0.0088
vn -0.2196 -0.9256 0.3084
vn -0.1416 -0.8001 0.5829
vn 0.0878 0.9733 -0.2119
vn 0.0896 0.9959 -0.0139
vn 0.0163 0.9775 0.2101
vn -0.9091 -0.4165 -0.0115
vn -0.9278 -0.3722 -0.0266
vn -0.8849 -0.4648 -0.0291
vn -0.8656 -0.5003 -0.0217
vn -0.9047 -0.4258 -0.0138
vn -0.9096 -0.4146 0.0270
vn -0.9108 -0.4108 -0.0416
vn -0.9112 -0.4101 -0.0393
vn -0.9164 -0.4003 -0.0063
vn -0.9145 -0.4031 -0.0339
vn -0.3809 -0.4595 -0.8024
vn -0.3515 -0.0871 -0.9321
vn -0.6091 0.1224 -0.7836
vn -0.9774 0.2110 -0.0112
vn -0.6079 0.0033 0.7940
vn -0.3226 -0.2177 0.9212
vn -0.3344 -0.5455 0.7685
vn -0.4934 -0.8694 -0.0267
vn 0.1112 -0.2330 -0.9661
vn -0.1397 0.3461 -0.9278
vn -0.4096 0.9122 -0.0111
vn 0.1397 -0.3460 0.9278
vn 0.4099 -0.9121 0.0104
vn 0.2448 -0.1586 -0.9565
vn 0.0888 0.1166 -0.9892
vn -0.0107 0.4032 -0.9150
vn 0.1217 0.3279 0.9368
vn 0.2225 0.0174 0.9748
vn 0.3588 -0.2368 0.9029
vn 0.9109 0.4126 0.0093
vn 0.9107 0.4130 0.0036
vn 0.9190 0.3942 0.0064
vn 0.8930 0.4490 0.0318
vn 0.9501 0.3071 0.0556
vn 0.8528 0.5222 0.0048
vn 0.0193 0.7397 -0.6727
vn 0.0179 0.9207 -0.3898
vn 0.0150 0.9999 -0.0068
vn -0.0163 0.9592 0.2822
vn -0.0463 0.8246 0.5638
vn 0.0815 -0.9819 -0.1710
vn 0.1361 -0.9713 0.1949
vn -0.0607 0.7822 -0.6201
vn -0.1345 0.9327 -0.3346
vn -0.1496 0.9885 -0.0238
vn -0.0980 0.9069 0.4098
vn -0.0012 0.6885 0.7252
vn 0.1428 -0.9552 -0.2591
vn 0.1608 -0.9869 0.0085
vn 0.1306 -0.9657 0.2246
vn -0.3078 0.7016 -0.6427
vn -0.3735 0.8532 -0.3641
vn -0.4110 0.9112 -0.0263
vn -0.3857 0.8587 0.3374
vn 0.4044 -0.8891 -0.2142
vn 0.4049 -0.9140 0.0267
vn 0.3914 -0.8895 0.2357
vn -0.6099 0.5245 -0.5941
vn -0.6987 0.6272 -0.3442
vn -0.7472 0.6644 -0.0120
vn -0.7302 0.6008 0.3253
vn -0.6300 0.4401 0.6399
vn 0.7341 -0.6490 -0.1995
vn 0.7408 -0.6714 0.0197
vn 0.7264 -0.6429 0.2430
vn -0.6693 0.4300 -0.6059
vn -0.8245 0.4655 -0.3217
vn -0.8747 0.4841 -0.0232
vn -0.8322 0.5247 0.1791
vn -0.7100 0.5595 0.4276
vn 0.8020 -0.5884 -0.1024
vn 0.8026 -0.5958 0.0288
vn 0.7233 -0.6754 0.1435
vn -0.9268 -0.3755 -0.0066
vn -0.9052 -0.4242 -0.0254
vn -0.9270 -0.3742 -0.0261
vn -0.9379 -0.3463 -0.0230
vn -0.9046 -0.4262 -0.0049
vn -0.3904 0.9152 -0.0994
vn -0.4033 0.9133 0.0573
vn -0.5032 0.8641 -0.0110
vn 0.3996 0.2658 -0.8773
vn 0.0820 0.1194 -0.9895
vn -0.8207 -0.3780 -0.4284
vn -0.7135 -0.2618 0.6499
vn -0.0549 0.0789 0.9954
vn 0.5288 0.3831 0.7574
vn 0.4133 -0.9046 0.1043
vn 0.4261 -0.8997 -0.0947
vn 0.3754 -0.9268 0.0102
vn 0.4159 0.2432 -0.8763
vn 0.0849 0.1102 -0.9903
vn -0.8207 -0.3182 -0.4745
vn -0.5957 -0.4056 0.6932
vn 0.0907 -0.2125 0.9729
vn 0.4576 -0.0414 0.8882
s 0
usemtl LIGHT_BLUE
f 82//9 78//9 76//9
f 76//10 84//10 83//10
f 77//11 85//11 84//11
f 87//13 86//13 78//13
f 88//14 87//14 79//14
f 81//15 89//15 88//15
f 82//16 90//16 89//16
f 75//17 83//17 90//17
f 84//18 92//18 91//18
f 85//19 93//19 92//19
f 95//21 94//21 86//21
f 96//22 95//22 87//22
f 97//23 96//23 88//23
f 90//24 98//24 97//24
f 83//25 91//25 98//25
f 92//26 100//26 99//26
f 101//27 100//27 92//27
f 103//29 102//29 94//29
f 96//30 104//30 103//30
f 105//31 104//31 96//31
f 106//32 105//32 97//32
f 99//33 106//33 98//33
f 108//34 107//34 99//34
f 109//35 108//35 100//35
f 103//37 111//37 110//37
f 104//38 112//38 111//38
f 113//39 112//39 104//39
f 114//40 113//40 105//40
f 107//41 114//41 106//41
f 116//42 115//42 107//42
f 117//43 116//43 108//43
f 111//45 119//45 118//45
f 112//46 120//46 119//46
f 121//47 120//47 112//47
f 122//48 121//48 113//48
f 115//49 122//49 114//49
f 119//50 122//50 117//50
f 136//56 135//56 127//56
f 130//58 138//58 137//58
f 136//64 144//64 143//64
f 146//66 145//66 137//66
f 144//72 151//72 150//72
f 147//74 152//74 145//74
f 157//77 160//77 155//77
f 154//78 153//78 161//78
f 155//79 154//79 162//79
f 156//81 164//81 165//81
f 157//82 165//82 166//82
f 158//83 166//83 167//83
f 159//84 167//84 168//84
f 160//85 168//85 161//85
f 162//86 161//86 169//86
f 163//87 162//87 170//87
f 164//89 172//89 173//89
f 165//90 173//90 174//90
f 166//91 174//91 175//91
f 167//92 175//92 176//92
f 161//93 168//93 176//93
f 169//94 177//94 178//94
f 171//95 170//95 178//95
f 173//97 172//97 180//97
f 173//98 181//98 182//98
f 174//99 182//99 183//99
f 175//100 183//100 184//100
f 169//101 176//101 184//101
f 177//102 185//102 186//102
f 178//103 186//103 187//103
f 181//105 180//105 188//105
f 182//106 181//106 189//106
f 183//107 182//107 190//107
f 184//108 183//108 191//108
f 177//109 184//109 192//109
f 185//110 193//110 194//110
f 186//111 194//111 195//111
f 189//113 188//113 196//113
f 190//114 189//114 197//114
f 191//115 190//115 198//115
f 192//116 191//116 199//116
f 185//117 192//117 200//117
f 200//118 196//118 194//118
f 201//119 203//119 205//119
f 201//120 207//120 208//120
f 202//121 208//121 209//121
f 203//122 209//122 210//122
f 204//123 210//123 211//123
f 206//124 205//124 211//124
f 201//125 206//125 212//125
f 213//126 217//126 215//126
f 220//127 219//127 213//127
f 221//128 220//128 214//128
f 216//129 222//129 221//129
f 217//130 223//130 222//130
f 218//131 224//131 223//131
f 219//132 224//132 218//132
f 78//133 80//133 79//133
f 78//134 81//134 80//134
f 76//135 78//135 77//135
f 82//136 76//136 75//136
f 78//137 82//137 81//137
f 76//138 83//138 75//138
f 77//139 84//139 76//139
f 87//141 78//141 79//141
f 88//142 79//142 80//142
f 81//143 88//143 80//143
f 82//144 89//144 81//144
f 75//145 90//145 82//145
f 84//146 91//146 83//146
f 85//147 92//147 84//147
f 95//149 86//149 87//149
f 96//150 87//150 88//150
f 97//151 88//151 89//151
f 90//152 97//152 89//152
f 83//153 98//153 90//153
f 92//154 99//154 91//154
f 101//155 92//155 93//155
f 103//157 94//157 95//157
f 96//158 103//158 95//158
f 105//31 96//31 97//31
f 106//159 97//159 98//159
f 99//160 98//160 91//160
f 108//161 99//161 100//161
f 109//162 100//162 101//162
f 103//164 110//164 102//164
f 104//165 111//165 103//165
f 113//166 104//166 105//166
f 114//167 105//167 106//167
f 107//168 106//168 99//168
f 116//169 107//169 108//169
f 117//170 108//170 109//170
f 111//172 118//172 110//172
f 112//173 119//173 111//173
f 121//174 112//174 113//174
f 122//175 113//175 114//175
f 115//176 114//176 107//176
f 121//177 119//177 120//177
f 119//178 117//178 118//178
f 117//179 115//179 116//179
f 122//180 119//180 121//180
f 117//181 122//181 115//181
f 136//191 127//191 128//191
f 130//193 137//193 129//193
f 136//64 143//64 135//64
f 146//198 137//198 138//198
f 144//203 150//203 143//203
f 147//205 145//205 146//205
f 159//136 157//136 158//136
f 157//209 155//209 156//209
f 155//210 153//210 154//210
f 160//211 157//211 159//211
f 155//134 160//134 153//134
f 154//212 161//212 162//212
f 155//213 162//213 163//213
f 156//215 165//215 157//215
f 157//216 166//216 158//216
f 158//217 167//217 159//217
f 159//84 168//84 160//84
f 160//218 161//218 153//218
f 162//219 169//219 170//219
f 163//220 170//220 171//220
f 164//222 173//222 165//222
f 165//223 174//223 166//223
f 166//224 175//224 167//224
f 167//225 176//225 168//225
f 161//226 176//226 169//226
f 169//227 178//227 170//227
f 171//228 178//228 179//228
f 173//230 180//230 181//230
f 173//98 182//98 174//98
f 174//231 183//231 175//231
f 175//232 184//232 176//232
f 169//233 184//233 177//233
f 177//234 186//234 178//234
f 178//235 187//235 179//235
f 181//237 188//237 189//237
f 182//238 189//238 190//238
f 183//239 190//239 191//239
f 184//240 191//240 192//240
f 177//241 192//241 185//241
f 185//242 194//242 186//242
f 186//243 195//243 187//243
f 189//245 196//245 197//245
f 190//246 197//246 198//246
f 191//247 198//247 199//247
f 192//248 199//248 200//248
f 185//249 200//249 193//249
f 196//250 198//250 197//250
f 196//251 199//251 198//251
f 194//252 196//252 195//252
f 200//253 194//253 193//253
f 196//254 200//254 199//254
f 203//255 201//255 202//255
f 201//256 205//256 206//256
f 205//257 203//257 204//257
f 201//258 208//258 202//258
f 202//259 209//259 203//259
f 203//260 210//260 204//260
f 204//261 211//261 205//261
f 206//262 211//262 212//262
f 201//263 212//263 207//263
f 217//264 213//264 218//264
f 213//265 215//265 214//265
f 215//266 217//266 216//266
f 220//267 213//267 214//267
f 221//268 214//268 215//268
f 216//269 221//269 215//269
f 217//270 222//270 216//270
f 218//271 223//271 217//271
f 219//272 218//272 213//272
usemtl BLACK
f 86//12 85//12 77//12
f 94//20 93//20 85//20
f 94//28 102//28 101//28
f 102//36 110//36 109//36
f 110//44 118//44 117//44
f 156//80 155//80 163//80
f 164//88 163//88 171//88
f 171//96 179//96 180//96
f 179//104 187//104 188//104
f 187//112 195//112 196//112
f 86//140 77//140 78//140
f 94//148 85//148 86//148
f 94//156 101//156 93//156
f 102//163 109//163 101//163
f 110//171 117//171 109//171
f 156//214 163//214 164//214
f 164//221 171//221 172//221
f 171//229 180//229 172//229
f 179//236 188//236 180//236
f 187//244 196//244 188//244
usemtl ORANGE
f 124//51 128//51 126//51
f 128//182 130//182 129//182
f 130//183 124//183 123//183
f 124//184 126//184 125//184
f 126//185 128//185 127//185
f 128//186 124//186 130//186
usemtl GREY
f 132//52 131//52 123//52
f 133//53 132//53 124//53
f 126//54 134//54 133//54
f 127//55 135//55 134//55
f 137//57 136//57 128//57
f 123//59 131//59 138//59
f 132//60 140//60 139//60
f 133//61 141//61 140//61
f 134//62 142//62 141//62
f 143//63 142//63 134//63
f 145//65 144//65 136//65
f 131//67 139//67 146//67
f 140//68 148//68 147//68
f 141//69 149//69 148//69
f 150//70 149//70 141//70
f 150//71 142//71 143//71
f 145//73 152//73 151//73
f 147//75 146//75 139//75
f 147//76 149//76 151//76
f 132//187 123//187 124//187
f 133//188 124//188 125//188
f 126//189 133//189 125//189
f 127//190 134//190 126//190
f 137//192 128//192 129//192
f 123//194 138//194 130//194
f 132//195 139//195 131//195
f 133//61 140//61 132//61
f 134//196 141//196 133//196
f 143//197 134//197 135//197
f 145//65 136//65 137//65
f 131//199 146//199 138//199
f 140//200 147//200 139//200
f 141//201 148//201 140//201
f 150//202 141//202 142//202
f 145//204 151//204 144//204
f 149//206 147//206 148//206
f 147//207 151//207 152//207
f 151//208 149//208 150//208
o talojota
v -115.496094 -117.621094 16.949219
v -82.191406 -117.621094 16.949219
v -82.191406 -106.925781 16.949219
v -115.496094 -106.925781 16.949219
v -115.496094 -117.621094 0.089844
v -82.191406 -117.621094 0.089844
v -82.191406 -106.925781 0.089844
v -115.496094 -106.925781 0.089844
vn -0.0000 -0.0000 1.0000
vn -0.0000 -1.0000 -0.0000
vn 1.0000 -0.0000 -0.0000
vn -0.0000 1.0000 -0.0000
vn -1.0000 -0.0000 -0.0000
vn -0.0000 -0.0000 -1.0000
s 0
usemtl DEFAULT
f 226//273 228//273 225//273
f 229//274 226//274 225//274
f 230//275 227//275 226//275
f 231//276 228//276 227//276
f 232//277 225//277 228//277
f 232//278 230//278 229//278
f 226//273 227//273 228//273
f 229//274 230//274 226//274
f 230//275 231//275 227//275
f 231//276 232//276 228//276
f 232//277 229//277 225//277
f 232//278 231//278 230//278
