# Blender 3.6.5
# www.blender.org
mtllib U2E_anim65.mtl
o CameraBox
v -98.993591 -138.651077 5.028039
v -99.016609 -138.849594 5.035615
v -98.996368 -138.643127 5.227852
v -99.019386 -138.841660 5.235429
v -98.794930 -138.673965 5.031710
v -98.817947 -138.872498 5.039286
v -98.797707 -138.666031 5.231523
v -98.820724 -138.864548 5.239100
vn -0.9933 0.1145 -0.0184
vn -0.0139 0.0397 0.9991
vn 0.9933 -0.1145 0.0184
vn 0.0139 -0.0397 -0.9991
vn 0.1151 0.9926 -0.0379
vn -0.1151 -0.9926 0.0379
s 0
usemtl None
f 2//1 3//1 1//1
f 8//3 5//3 7//3
f 6//4 1//4 5//4
f 4//6 6//6 8//6
f 2//1 4//1 3//1
f 8//3 6//3 5//3
f 6//4 2//4 1//4
f 4//6 2//6 6//6
usemtl UpDir
f 4//2 7//2 3//2
f 4//2 8//2 7//2
usemtl LookingDir
f 7//5 1//5 3//5
f 7//5 5//5 1//5
o _laatta01
v -97.656250 -7.812500 0.128906
v -97.656250 11.718750 0.128906
v -54.687500 11.718750 0.128906
v -54.687500 -7.812500 0.128906
v -50.781250 11.718750 0.128906
v 39.062500 11.718750 0.128906
v 39.062500 -7.812500 0.128906
v -50.781250 -7.812500 0.128906
v -101.562500 11.718750 0.128906
v -101.562500 -31.250000 0.128906
v -117.187500 -31.250000 0.128906
v -117.187500 11.718750 0.128906
v -117.187500 -82.031250 0.128906
v -101.562500 -82.031250 0.128906
v -101.562500 -105.468750 0.128906
v -78.125000 -105.468750 0.128906
v -78.125000 -125.000000 0.128906
v -117.187500 -125.000000 0.128906
vn -0.0000 -0.0000 1.0000
s 0
usemtl WHITE#NEON
f 12//7 10//7 9//7
f 16//7 14//7 13//7
f 20//7 18//7 17//7
f 25//7 23//7 26//7
f 21//7 23//7 22//7
f 12//7 11//7 10//7
f 16//7 15//7 14//7
f 20//7 19//7 18//7
f 25//7 24//7 23//7
f 21//7 26//7 23//7
o fcirto01
v -95.593750 -117.921875 11.671875
v -95.593750 -117.921875 9.718750
v -97.546875 -117.921875 9.718750
v -97.546875 -117.921875 11.671875
v -95.593750 -117.921875 7.765625
v -95.593750 -117.921875 5.812500
v -97.546875 -117.921875 5.812500
v -97.546875 -117.921875 7.765625
v -95.593750 -117.921875 3.859375
v -95.593750 -117.921875 1.906250
v -97.546875 -117.921875 1.906250
v -97.546875 -117.921875 3.859375
v -99.500000 -117.921875 7.765625
v -99.500000 -117.921875 5.812500
v -101.453125 -117.921875 5.812500
v -101.453125 -117.921875 7.765625
v -99.500000 -117.921875 3.859375
v -99.500000 -117.921875 1.906250
v -101.453125 -117.921875 1.906250
v -101.453125 -117.921875 3.859375
v -99.500000 -117.921875 11.671875
v -99.500000 -117.921875 9.718750
v -101.453125 -117.921875 9.718750
v -101.453125 -117.921875 11.671875
v -87.519531 -117.921875 11.671875
v -87.519531 -117.921875 9.718750
v -89.472656 -117.921875 9.718750
v -89.472656 -117.921875 11.671875
v -87.519531 -117.921875 7.765625
v -87.519531 -117.921875 5.812500
v -89.472656 -117.921875 5.812500
v -89.472656 -117.921875 7.765625
v -87.519531 -117.921875 3.859375
v -87.519531 -117.921875 1.906250
v -89.472656 -117.921875 1.906250
v -89.472656 -117.921875 3.859375
v -91.425781 -117.921875 7.765625
v -91.425781 -117.921875 5.812500
v -93.378906 -117.921875 5.812500
v -93.378906 -117.921875 7.765625
v -91.425781 -117.921875 3.859375
v -91.425781 -117.921875 1.906250
v -93.378906 -117.921875 1.906250
v -93.378906 -117.921875 3.859375
v -91.425781 -117.921875 11.671875
v -91.425781 -117.921875 9.718750
v -93.378906 -117.921875 9.718750
v -93.378906 -117.921875 11.671875
vn -0.0000 -1.0000 -0.0000
s 0
usemtl C_GROUND
f 30//8 28//8 27//8
f 34//8 32//8 31//8
f 38//8 36//8 35//8
f 42//8 40//8 39//8
f 46//8 44//8 43//8
f 50//8 48//8 47//8
f 54//8 52//8 51//8
f 58//8 56//8 55//8
f 62//8 60//8 59//8
f 66//8 64//8 63//8
f 70//8 68//8 67//8
f 74//8 72//8 71//8
f 30//8 29//8 28//8
f 34//8 33//8 32//8
f 38//8 37//8 36//8
f 42//8 41//8 40//8
f 46//8 45//8 44//8
f 50//8 49//8 48//8
f 54//8 53//8 52//8
f 58//8 57//8 56//8
f 62//8 61//8 60//8
f 66//8 65//8 64//8
f 70//8 69//8 68//8
f 74//8 73//8 72//8
o s01
v -91.763702 -128.188995 4.296202
v -91.741013 -128.255203 4.391070
v -91.729111 -128.299622 4.536808
v -91.735291 -128.296143 4.686057
v -91.749878 -128.250092 4.842860
v -91.774353 -128.182800 4.948377
v -91.755142 -128.228302 4.693373
v -91.752716 -128.232864 4.544097
v -92.207840 -128.478668 4.199504
v -92.168823 -128.601288 4.310539
v -92.145157 -128.686951 4.491970
v -92.147934 -128.682190 4.680538
v -92.182465 -128.596664 4.876246
v -92.224747 -128.468964 5.008785
v -92.192886 -128.556229 4.691247
v -92.186356 -128.559906 4.502707
v -92.950348 -128.958099 4.030441
v -92.908463 -129.091766 4.188717
v -92.884247 -129.180878 4.429114
v -92.891327 -129.176849 4.680520
v -92.923737 -129.086151 4.939092
v -92.973465 -128.947998 5.114733
v -92.934708 -129.042282 4.691196
v -92.927628 -129.046295 4.439791
v -93.521591 -129.149231 4.022460
v -93.483414 -129.284027 4.176778
v -93.456573 -129.368256 4.421103
v -93.462555 -129.367996 4.672538
v -93.496048 -129.273544 4.927151
v -93.544693 -129.139130 5.106751
v -93.505966 -129.233414 4.683214
v -93.503723 -129.234772 4.431751
v -94.089767 -129.101730 4.099668
v -94.050964 -129.224228 4.234278
v -94.027603 -129.309723 4.447142
v -94.034393 -129.305862 4.667115
v -94.065414 -129.219116 4.890354
v -94.107895 -129.091278 5.046468
v -94.075577 -129.178833 4.673922
v -94.068802 -129.182678 4.457879
v -94.433044 -129.070663 4.143600
v -94.410660 -129.136658 4.273829
v -94.399231 -129.180817 4.470646
v -94.405823 -129.177094 4.667044
v -94.424591 -129.131866 4.870969
v -94.449371 -129.064392 5.011847
v -94.429428 -129.110321 4.674333
v -94.422791 -129.114075 4.474006
v -94.229446 -128.452240 4.538959
v -94.273422 -128.314224 4.490668
v -94.366165 -128.038620 4.511934
v -94.414932 -127.901047 4.581490
v -94.415939 -127.900429 4.695434
v -94.371948 -128.038483 4.739795
v -94.279190 -128.314087 4.718530
v -94.234177 -128.452759 4.648947
v -93.841827 -128.732269 4.457469
v -93.946747 -128.412079 4.368358
v -94.158661 -127.770416 4.418025
v -94.266739 -127.445206 4.556772
v -94.272522 -127.445068 4.784634
v -94.167572 -127.765282 4.873744
v -93.955627 -128.406952 4.820148
v -93.843811 -128.731079 4.681428
v -93.440948 -128.599030 4.460318
v -93.545929 -128.278809 4.375136
v -93.757843 -127.637146 4.424803
v -93.864792 -127.315697 4.563580
v -93.871674 -127.311806 4.791411
v -93.766739 -127.632019 4.880522
v -93.554794 -128.273682 4.826926
v -93.446732 -128.598907 4.688178
v -92.597427 -128.017212 4.551135
v -92.659515 -127.831230 4.514214
v -92.782455 -127.466278 4.542587
v -92.840652 -127.282402 4.611810
v -92.783463 -127.465660 4.656532
v -92.660538 -127.830620 4.628158
v -92.274750 -126.648918 4.416951
v -92.295471 -126.580536 4.522496
v -92.314896 -126.531822 4.679241
v -92.319977 -126.532104 4.828520
v -92.308090 -126.576523 4.974258
v -92.285400 -126.642731 5.069127
v -92.296371 -126.598862 4.821231
v -92.295044 -126.599663 4.671925
v -92.801270 -126.684517 4.337797
v -92.848434 -126.554115 4.474208
v -92.879196 -126.467522 4.669944
v -92.880829 -126.466522 4.854612
v -92.858276 -126.548416 5.036013
v -92.818207 -126.674789 5.151008
v -92.839676 -126.593544 4.847805
v -92.837997 -126.594559 4.659207
v -93.687027 -126.743515 4.208417
v -93.733002 -126.604279 4.384087
v -93.769150 -126.514656 4.642631
v -93.772461 -126.509552 4.890135
v -93.748276 -126.598648 5.134461
v -93.706345 -126.732346 5.288808
v -93.729080 -126.644142 4.879458
v -93.722015 -126.648148 4.631982
v -94.259384 -126.930885 4.200405
v -94.304245 -126.795418 4.376105
v -94.341507 -126.702034 4.634619
v -94.343704 -126.700699 4.882153
v -94.320602 -126.786026 5.126450
v -94.278702 -126.919716 5.280796
v -94.300308 -126.835281 4.871476
v -94.298111 -126.836617 4.623942
v -94.683243 -127.307556 4.241890
v -94.730576 -127.177048 4.397946
v -94.761581 -127.090294 4.621186
v -94.767288 -127.090202 4.841189
v -94.745026 -127.171936 5.054023
v -94.705109 -127.298195 5.188663
v -94.726105 -127.217247 4.830452
v -94.720383 -127.217346 4.610450
v -94.944138 -127.530563 4.268278
v -94.965134 -127.462006 4.405255
v -94.984970 -127.413025 4.609150
v -94.990509 -127.413040 4.809507
v -94.979080 -127.457184 5.006324
v -94.960434 -127.524315 5.132597
v -94.966904 -127.479797 4.802218
v -94.964035 -127.484642 4.601864
v -93.493286 -128.617584 4.562119
v -93.548203 -128.637924 4.530305
v -93.800888 -128.720032 4.497063
v -93.826584 -128.731140 4.555837
v -93.801682 -128.719543 4.587432
v -93.548767 -128.637589 4.593170
v -93.234604 -129.114227 4.582819
v -93.305344 -129.135361 4.519431
v -93.619354 -129.243774 4.454349
v -93.657944 -129.254059 4.575876
v -93.622101 -129.239014 4.638987
v -93.306458 -129.134689 4.645162
v -93.918243 -127.330467 4.665352
v -93.974243 -127.347054 4.633507
v -94.225830 -127.432938 4.600295
v -94.256378 -127.441368 4.659012
v -94.226639 -127.432449 4.690664
v -93.974777 -127.346733 4.692444
v -94.010269 -126.780151 4.767663
v -94.077271 -126.800163 4.708231
v -94.391235 -126.908600 4.639220
v -94.429840 -126.918884 4.760747
v -94.397736 -126.904938 4.823831
v -94.082108 -126.800598 4.830006
vn 0.9474 0.3189 0.0259
vn 0.5193 -0.4769 -0.7091
vn 0.6491 -0.6517 -0.3923
vn 0.6795 -0.7331 0.0286
vn 0.6224 -0.6710 0.4030
vn 0.4891 -0.5449 0.6811
vn -0.5765 0.7713 -0.2698
vn -0.5995 0.7995 -0.0364
vn -0.5665 0.7850 0.2505
vn 0.4976 -0.5933 -0.6328
vn 0.5424 -0.7684 -0.3395
vn 0.5537 -0.8322 0.0289
vn 0.5210 -0.7829 0.3400
vn 0.4665 -0.6263 0.6246
vn -0.5474 0.8049 -0.2292
vn -0.5467 0.8369 -0.0288
vn -0.5634 0.8007 0.2038
vn 0.2475 -0.6986 -0.6714
vn 0.3045 -0.8897 -0.3402
vn 0.3172 -0.9483 0.0085
vn 0.2907 -0.8840 0.3662
vn 0.2405 -0.7448 0.6225
vn -0.3056 0.9231 -0.2334
vn -0.3172 0.9483 -0.0079
vn -0.3068 0.9289 0.2075
vn -0.1501 -0.7524 -0.6414
vn -0.1336 -0.9246 -0.3567
vn -0.1081 -0.9940 0.0141
vn -0.1114 -0.9314 0.3465
vn -0.1316 -0.7842 0.6064
vn 0.1059 0.9700 -0.2188
vn 0.0956 0.9953 -0.0147
vn 0.0995 0.9718 0.2138
vn -0.1358 -0.8929 -0.4293
vn -0.2523 -0.9472 -0.1978
vn -0.3276 -0.9448 0.0069
vn -0.2414 -0.9519 0.1888
vn -0.1130 -0.9037 0.4130
vn 0.0908 0.9875 -0.1290
vn 0.1900 0.9817 -0.0121
vn 0.1942 0.9734 0.1219
vn -0.9431 -0.3319 -0.0191
vn -0.9472 -0.3199 -0.0205
vn -0.4404 -0.3717 -0.8173
vn -0.3628 -0.0478 -0.9307
vn -0.5840 0.1466 -0.7984
vn -0.9521 0.3047 -0.0243
vn -0.5934 0.0294 0.8044
vn -0.3464 -0.1911 0.9184
vn -0.4031 -0.4741 0.7828
vn -0.5857 -0.8105 -0.0008
vn 0.0921 -0.2277 -0.9694
vn -0.0079 0.0746 -0.9972
vn -0.1021 0.3655 -0.9252
vn -0.3062 0.9516 -0.0255
vn -0.0954 0.2377 0.9666
vn 0.0098 -0.0800 0.9967
vn 0.1043 -0.3608 0.9268
vn 0.3154 -0.9489 0.0086
vn 0.2133 -0.1212 -0.9694
vn 0.1000 0.1106 -0.9888
vn 0.0483 0.3653 -0.9297
vn -0.0316 0.9993 -0.0181
vn 0.1673 0.2827 0.9445
vn 0.2181 -0.0024 0.9759
vn 0.3313 -0.2621 0.9064
vn 0.5666 -0.8238 0.0149
vn 0.9479 0.3185 0.0067
vn 0.9602 0.2786 0.0201
vn 0.0243 0.8412 -0.5402
vn 0.0708 0.9550 -0.2881
vn 0.1131 0.9936 0.0058
vn 0.1248 0.9100 0.3953
vn 0.1155 0.6883 0.7161
vn 0.0181 -0.9654 -0.2600
vn -0.0095 -0.9999 0.0053
vn -0.0153 -0.9633 0.2679
vn 0.0508 0.7306 -0.6809
vn -0.0105 0.9138 -0.4060
vn -0.0527 0.9986 -0.0059
vn -0.0315 0.9380 0.3452
vn 0.0290 0.7594 0.6499
vn 0.0304 -0.9768 -0.2122
vn 0.0574 -0.9982 0.0178
vn 0.0498 -0.9603 0.2745
vn -0.2335 0.7403 -0.6304
vn -0.2929 0.8900 -0.3495
vn -0.3110 0.9504 -0.0079
vn -0.3013 0.8858 0.3529
vn -0.2389 0.7009 0.6720
vn 0.3070 -0.9288 -0.2078
vn 0.3172 -0.9483 0.0079
vn 0.2994 -0.9252 0.2331
vn -0.5507 0.5505 -0.6274
vn -0.6335 0.6874 -0.3551
vn -0.6783 0.7345 -0.0179
vn -0.6609 0.6869 0.3024
vn -0.5849 0.5277 0.6160
vn 0.6744 -0.7153 -0.1832
vn 0.6672 -0.7448 0.0100
vn 0.6491 -0.7278 0.2214
vn -0.6121 0.6656 -0.4269
vn -0.7557 0.6163 -0.2216
vn -0.8216 0.5696 -0.0227
vn -0.8011 0.5259 0.2858
vn -0.6604 0.4401 0.6085
vn 0.6739 -0.7112 -0.2002
vn 0.7358 -0.6770 0.0194
vn 0.7149 -0.6591 0.2334
vn -0.9603 -0.2777 -0.0267
vn -0.3145 0.9492 -0.0079
vn 0.5937 0.2778 -0.7552
vn 0.1676 0.1032 -0.9804
vn -0.9053 -0.2883 -0.3120
vn -0.8172 -0.2435 0.5225
vn -0.0491 0.0818 0.9954
vn 0.3894 0.2815 0.8770
vn 0.3145 -0.9492 0.0079
vn 0.6023 0.2421 -0.7607
vn 0.1578 0.1628 -0.9739
vn -0.9181 -0.2440 -0.3123
vn -0.7885 -0.3782 0.4851
vn 0.0581 -0.2331 0.9707
vn 0.6635 -0.0575 0.7459
vn 0.9270 0.3743 -0.0238
vn 0.9602 0.2783 0.0227
vn 0.9360 0.3508 0.0306
vn 0.9364 0.3502 0.0205
vn 0.9600 0.2799 0.0070
vn 0.5332 -0.6286 -0.5662
vn 0.6357 -0.7224 -0.2720
vn 0.6822 -0.7298 0.0453
vn 0.6141 -0.7400 0.2744
vn 0.5005 -0.6727 0.5450
vn -0.5445 0.8176 -0.1869
vn -0.5991 0.7999 -0.0342
vn -0.6039 0.7799 0.1647
vn 0.4849 -0.4972 -0.7195
vn 0.5494 -0.7256 -0.4142
vn 0.5538 -0.8322 0.0293
vn 0.5252 -0.7419 0.4168
vn 0.4576 -0.5629 0.6883
vn -0.5271 0.8045 -0.2739
vn -0.5477 0.8359 -0.0353
vn -0.5457 0.7990 0.2527
vn 0.2460 -0.7075 -0.6626
vn 0.2950 -0.8858 -0.3581
vn 0.3107 -0.9502 0.0240
vn 0.2850 -0.8928 0.3489
vn 0.2267 -0.7333 0.6410
vn -0.3105 0.9503 -0.0240
vn -0.3125 0.9249 0.2166
vn -0.1442 -0.7627 -0.6305
vn -0.1110 -0.9432 -0.3130
vn -0.1020 -0.9948 -0.0014
vn -0.1050 -0.9368 0.3337
vn -0.1146 -0.8100 0.5751
vn 0.0967 0.9734 -0.2078
vn 0.0916 0.9958 -0.0046
vn 0.1085 0.9740 0.1988
vn -0.2500 -0.7509 -0.6113
vn -0.3284 -0.8884 -0.3208
vn -0.3273 -0.9449 0.0064
vn -0.3119 -0.8994 0.3062
vn -0.2216 -0.7832 0.5810
vn 0.1856 0.9600 -0.2095
vn 0.1897 0.9818 -0.0115
vn 0.1150 0.9704 0.2125
vn -0.9465 -0.3225 -0.0120
vn -0.9606 -0.2765 -0.0270
vn -0.9273 -0.3730 -0.0298
vn -0.9117 -0.4103 -0.0225
vn -0.9431 -0.3322 -0.0144
vn -0.9468 -0.3206 0.0264
vn -0.9476 -0.3166 -0.0422
vn -0.9480 -0.3159 -0.0399
vn -0.9521 -0.3057 -0.0068
vn -0.9506 -0.3086 -0.0344
vn -0.4256 -0.4166 -0.8033
vn -0.3588 -0.0488 -0.9321
vn -0.5939 0.1853 -0.7829
vn -0.9511 0.3087 -0.0101
vn -0.6043 0.0626 0.7943
vn -0.3427 -0.1864 0.9208
vn -0.3876 -0.5109 0.7673
vn -0.5787 -0.8150 -0.0286
vn 0.0868 -0.2406 -0.9667
vn -0.1043 0.3608 -0.9268
vn -0.3154 0.9489 -0.0086
vn 0.1043 -0.3607 0.9268
vn 0.3157 -0.9488 0.0079
vn 0.2272 -0.1801 -0.9570
vn 0.0999 0.1095 -0.9890
vn 0.0299 0.4046 -0.9140
vn 0.1544 0.3115 0.9376
vn 0.2233 -0.0076 0.9747
vn 0.3333 -0.2741 0.9021
vn 0.9479 0.3185 0.0098
vn 0.9478 0.3189 0.0042
vn 0.9541 0.2994 0.0069
vn 0.9338 0.3564 0.0325
vn 0.9762 0.2094 0.0559
vn 0.9012 0.4334 0.0057
vn 0.0937 0.7357 -0.6708
vn 0.1107 0.9152 -0.3875
vn 0.1159 0.9932 -0.0043
vn 0.0807 0.9552 0.2846
vn 0.0374 0.8237 0.5658
vn -0.0181 -0.9847 -0.1735
vn 0.0374 -0.9806 0.1924
vn 0.0184 0.7859 -0.6181
vn -0.0397 0.9424 -0.3322
vn -0.0490 0.9986 -0.0212
vn -0.0058 0.9111 0.4121
vn 0.0685 0.6833 0.7270
vn 0.0455 -0.9641 -0.2616
vn 0.0603 -0.9982 0.0059
vn 0.0325 -0.9745 0.2221
vn -0.2355 0.7307 -0.6408
vn -0.2855 0.8875 -0.3618
vn -0.3169 0.9482 -0.0238
vn -0.2969 0.8924 0.3398
vn 0.3125 -0.9249 -0.2166
vn 0.3105 -0.9503 0.0242
vn 0.2996 -0.9251 0.2333
vn -0.5539 0.5849 -0.5925
vn -0.6318 0.6954 -0.3423
vn -0.6763 0.7365 -0.0100
vn -0.6657 0.6707 0.3272
vn -0.5822 0.4998 0.6413
vn 0.6648 -0.7194 -0.2015
vn 0.6692 -0.7429 0.0177
vn 0.6578 -0.7136 0.2410
vn -0.6226 0.4970 -0.6045
vn -0.7734 0.5472 -0.3201
vn -0.8214 0.5700 -0.0216
vn -0.7749 0.6056 0.1808
vn -0.6498 0.6272 0.4294
vn 0.7385 -0.6662 -0.1043
vn 0.7383 -0.6739 0.0269
vn 0.6514 -0.7454 0.1415
vn -0.9600 -0.2799 -0.0070
vn -0.9434 -0.3306 -0.0260
vn -0.9601 -0.2786 -0.0265
vn -0.9680 -0.2497 -0.0234
vn -0.9430 -0.3327 -0.0055
vn -0.2960 0.9502 -0.0969
vn -0.3089 0.9492 0.0598
vn -0.4133 0.9105 -0.0086
vn 0.4242 0.2263 -0.8768
vn 0.0934 0.1130 -0.9892
vn -0.8548 -0.2921 -0.4289
vn -0.7361 -0.1900 0.6496
vn -0.0464 0.0815 0.9956
vn 0.5650 0.3259 0.7581
vn 0.3198 -0.9420 0.1018
vn 0.3330 -0.9379 -0.0972
vn 0.2799 -0.9600 0.0077
vn 0.4381 0.2022 -0.8759
vn 0.0953 0.1036 -0.9900
vn -0.8488 -0.2325 -0.4749
vn -0.6335 -0.3452 0.6925
vn 0.0690 -0.2231 0.9724
vn 0.4513 -0.0896 0.8879
s 0
usemtl LIGHT_BLUE
f 82//9 78//9 76//9
f 76//10 84//10 83//10
f 77//11 85//11 84//11
f 87//13 86//13 78//13
f 88//14 87//14 79//14
f 81//15 89//15 88//15
f 82//16 90//16 89//16
f 75//17 83//17 90//17
f 84//18 92//18 91//18
f 85//19 93//19 92//19
f 95//21 94//21 86//21
f 96//22 95//22 87//22
f 97//23 96//23 88//23
f 90//24 98//24 97//24
f 83//25 91//25 98//25
f 92//26 100//26 99//26
f 101//27 100//27 92//27
f 103//29 102//29 94//29
f 96//30 104//30 103//30
f 105//31 104//31 96//31
f 106//32 105//32 97//32
f 99//33 106//33 98//33
f 108//34 107//34 99//34
f 109//35 108//35 100//35
f 103//37 111//37 110//37
f 104//38 112//38 111//38
f 113//39 112//39 104//39
f 114//40 113//40 105//40
f 107//41 114//41 106//41
f 116//42 115//42 107//42
f 117//43 116//43 108//43
f 111//45 119//45 118//45
f 112//46 120//46 119//46
f 121//47 120//47 112//47
f 122//48 121//48 113//48
f 115//49 122//49 114//49
f 119//50 122//50 117//50
f 136//56 135//56 127//56
f 130//58 138//58 137//58
f 136//64 144//64 143//64
f 146//66 145//66 137//66
f 144//72 151//72 150//72
f 147//74 152//74 145//74
f 157//77 160//77 155//77
f 154//78 153//78 161//78
f 155//79 154//79 162//79
f 156//81 164//81 165//81
f 157//82 165//82 166//82
f 158//83 166//83 167//83
f 159//84 167//84 168//84
f 160//85 168//85 161//85
f 162//86 161//86 169//86
f 163//87 162//87 170//87
f 164//89 172//89 173//89
f 165//90 173//90 174//90
f 166//91 174//91 175//91
f 167//92 175//92 176//92
f 161//93 168//93 176//93
f 169//94 177//94 178//94
f 171//95 170//95 178//95
f 173//97 172//97 180//97
f 173//98 181//98 182//98
f 174//99 182//99 183//99
f 175//100 183//100 184//100
f 169//101 176//101 184//101
f 177//102 185//102 186//102
f 178//103 186//103 187//103
f 181//105 180//105 188//105
f 182//106 181//106 189//106
f 183//107 182//107 190//107
f 184//108 183//108 191//108
f 177//109 184//109 192//109
f 185//110 193//110 194//110
f 186//111 194//111 195//111
f 189//113 188//113 196//113
f 190//114 189//114 197//114
f 191//115 190//115 198//115
f 192//116 191//116 199//116
f 185//117 192//117 200//117
f 200//118 196//118 194//118
f 201//119 203//119 205//119
f 201//120 207//120 208//120
f 202//121 208//121 209//121
f 203//122 209//122 210//122
f 204//123 210//123 211//123
f 206//124 205//124 211//124
f 201//125 206//125 212//125
f 213//126 217//126 215//126
f 220//127 219//127 213//127
f 221//128 220//128 214//128
f 216//129 222//129 221//129
f 217//130 223//130 222//130
f 218//131 224//131 223//131
f 219//132 224//132 218//132
f 78//133 80//133 79//133
f 78//134 81//134 80//134
f 76//135 78//135 77//135
f 82//136 76//136 75//136
f 78//137 82//137 81//137
f 76//138 83//138 75//138
f 77//139 84//139 76//139
f 87//141 78//141 79//141
f 88//142 79//142 80//142
f 81//143 88//143 80//143
f 82//144 89//144 81//144
f 75//145 90//145 82//145
f 84//146 91//146 83//146
f 85//147 92//147 84//147
f 95//149 86//149 87//149
f 96//150 87//150 88//150
f 97//151 88//151 89//151
f 90//152 97//152 89//152
f 83//153 98//153 90//153
f 92//154 99//154 91//154
f 101//155 92//155 93//155
f 103//157 94//157 95//157
f 96//158 103//158 95//158
f 105//31 96//31 97//31
f 106//159 97//159 98//159
f 99//160 98//160 91//160
f 108//161 99//161 100//161
f 109//162 100//162 101//162
f 103//164 110//164 102//164
f 104//165 111//165 103//165
f 113//166 104//166 105//166
f 114//167 105//167 106//167
f 107//168 106//168 99//168
f 116//169 107//169 108//169
f 117//170 108//170 109//170
f 111//172 118//172 110//172
f 112//173 119//173 111//173
f 121//174 112//174 113//174
f 122//175 113//175 114//175
f 115//176 114//176 107//176
f 121//177 119//177 120//177
f 119//178 117//178 118//178
f 117//179 115//179 116//179
f 122//180 119//180 121//180
f 117//181 122//181 115//181
f 136//191 127//191 128//191
f 130//193 137//193 129//193
f 136//64 143//64 135//64
f 146//198 137//198 138//198
f 144//203 150//203 143//203
f 147//205 145//205 146//205
f 159//136 157//136 158//136
f 157//209 155//209 156//209
f 155//210 153//210 154//210
f 160//211 157//211 159//211
f 155//134 160//134 153//134
f 154//212 161//212 162//212
f 155//213 162//213 163//213
f 156//215 165//215 157//215
f 157//216 166//216 158//216
f 158//217 167//217 159//217
f 159//84 168//84 160//84
f 160//218 161//218 153//218
f 162//219 169//219 170//219
f 163//220 170//220 171//220
f 164//222 173//222 165//222
f 165//223 174//223 166//223
f 166//224 175//224 167//224
f 167//225 176//225 168//225
f 161//226 176//226 169//226
f 169//227 178//227 170//227
f 171//228 178//228 179//228
f 173//230 180//230 181//230
f 173//98 182//98 174//98
f 174//231 183//231 175//231
f 175//232 184//232 176//232
f 169//233 184//233 177//233
f 177//234 186//234 178//234
f 178//235 187//235 179//235
f 181//237 188//237 189//237
f 182//238 189//238 190//238
f 183//239 190//239 191//239
f 184//240 191//240 192//240
f 177//241 192//241 185//241
f 185//242 194//242 186//242
f 186//243 195//243 187//243
f 189//245 196//245 197//245
f 190//246 197//246 198//246
f 191//247 198//247 199//247
f 192//248 199//248 200//248
f 185//249 200//249 193//249
f 196//250 198//250 197//250
f 196//251 199//251 198//251
f 194//252 196//252 195//252
f 200//253 194//253 193//253
f 196//254 200//254 199//254
f 203//255 201//255 202//255
f 201//256 205//256 206//256
f 205//257 203//257 204//257
f 201//258 208//258 202//258
f 202//259 209//259 203//259
f 203//260 210//260 204//260
f 204//261 211//261 205//261
f 206//262 211//262 212//262
f 201//263 212//263 207//263
f 217//264 213//264 218//264
f 213//265 215//265 214//265
f 215//266 217//266 216//266
f 220//267 213//267 214//267
f 221//268 214//268 215//268
f 216//269 221//269 215//269
f 217//270 222//270 216//270
f 218//271 223//271 217//271
f 219//272 218//272 213//272
usemtl BLACK
f 86//12 85//12 77//12
f 94//20 93//20 85//20
f 94//28 102//28 101//28
f 102//36 110//36 109//36
f 110//44 118//44 117//44
f 156//80 155//80 163//80
f 164//88 163//88 171//88
f 171//96 179//96 180//96
f 179//104 187//104 188//104
f 187//112 195//112 196//112
f 86//140 77//140 78//140
f 94//148 85//148 86//148
f 94//156 101//156 93//156
f 102//163 109//163 101//163
f 110//171 117//171 109//171
f 156//214 163//214 164//214
f 164//221 171//221 172//221
f 171//229 180//229 172//229
f 179//236 188//236 180//236
f 187//244 196//244 188//244
usemtl ORANGE
f 124//51 128//51 126//51
f 128//182 130//182 129//182
f 130//183 124//183 123//183
f 124//184 126//184 125//184
f 126//185 128//185 127//185
f 128//186 124//186 130//186
usemtl GREY
f 132//52 131//52 123//52
f 133//53 132//53 124//53
f 126//54 134//54 133//54
f 127//55 135//55 134//55
f 137//57 136//57 128//57
f 123//59 131//59 138//59
f 132//60 140//60 139//60
f 133//61 141//61 140//61
f 134//62 142//62 141//62
f 143//63 142//63 134//63
f 145//65 144//65 136//65
f 131//67 139//67 146//67
f 140//68 148//68 147//68
f 141//69 149//69 148//69
f 150//70 149//70 141//70
f 150//71 142//71 143//71
f 145//73 152//73 151//73
f 147//75 146//75 139//75
f 147//76 149//76 151//76
f 132//187 123//187 124//187
f 133//188 124//188 125//188
f 126//189 133//189 125//189
f 127//190 134//190 126//190
f 137//192 128//192 129//192
f 123//194 138//194 130//194
f 132//195 139//195 131//195
f 133//61 140//61 132//61
f 134//196 141//196 133//196
f 143//197 134//197 135//197
f 145//65 136//65 137//65
f 131//199 146//199 138//199
f 140//200 147//200 139//200
f 141//201 148//201 140//201
f 150//202 141//202 142//202
f 145//204 151//204 144//204
f 149//206 147//206 148//206
f 147//207 151//207 152//207
f 151//208 149//208 150//208
o talojota
v -115.496094 -117.621094 16.949219
v -82.191406 -117.621094 16.949219
v -82.191406 -106.925781 16.949219
v -115.496094 -106.925781 16.949219
v -115.496094 -117.621094 0.089844
v -82.191406 -117.621094 0.089844
v -82.191406 -106.925781 0.089844
v -115.496094 -106.925781 0.089844
vn -0.0000 -0.0000 1.0000
vn -0.0000 -1.0000 -0.0000
vn 1.0000 -0.0000 -0.0000
vn -0.0000 1.0000 -0.0000
vn -1.0000 -0.0000 -0.0000
vn -0.0000 -0.0000 -1.0000
s 0
usemtl DEFAULT
f 226//273 228//273 225//273
f 229//274 226//274 225//274
f 230//275 227//275 226//275
f 231//276 228//276 227//276
f 232//277 225//277 228//277
f 232//278 230//278 229//278
f 226//273 227//273 228//273
f 229//274 230//274 226//274
f 230//275 231//275 227//275
f 231//276 232//276 228//276
f 232//277 229//277 225//277
f 232//278 231//278 230//278
