# Blender 3.6.5
# www.blender.org
mtllib U2E_anim9.mtl
o CameraBox
v -97.084114 -152.961655 4.803422
v -96.950142 -153.109940 4.811057
v -97.089233 -152.955978 5.003267
v -96.955261 -153.104279 5.010902
v -96.935699 -152.827576 4.803423
v -96.801727 -152.975876 4.811059
v -96.940819 -152.821915 5.003269
v -96.806847 -152.970200 5.010903
vn -0.7420 -0.6704 -0.0000
vn -0.0256 0.0283 0.9993
vn 0.7420 0.6704 -0.0000
vn 0.0256 -0.0283 -0.9993
vn -0.6699 0.7415 -0.0382
vn 0.6699 -0.7415 0.0382
s 0
usemtl None
f 2//1 3//1 1//1
f 8//3 5//3 7//3
f 6//4 1//4 5//4
f 4//6 6//6 8//6
f 2//1 4//1 3//1
f 8//3 6//3 5//3
f 6//4 2//4 1//4
f 4//6 2//6 6//6
usemtl UpDir
f 4//2 7//2 3//2
f 4//2 8//2 7//2
usemtl LookingDir
f 7//5 1//5 3//5
f 7//5 5//5 1//5
o kulmatalot
v -115.203125 -130.859375 26.375000
v -103.484375 -130.859375 26.375000
v -103.484375 -162.109375 26.375000
v -115.203125 -162.109375 26.375000
v -93.011719 -133.519531 26.375000
v -82.707031 -133.519531 26.375000
v -82.707031 -143.820312 26.375000
v -93.011719 -143.820312 26.375000
v -95.671875 -154.296875 26.375000
v -80.046875 -154.296875 26.375000
v -80.046875 -195.312500 26.375000
v -95.671875 -195.312500 26.375000
v -72.234375 -130.859375 26.375000
v -33.171875 -130.859375 26.375000
v -33.171875 -146.484375 26.375000
v -72.234375 -146.484375 26.375000
v -115.203125 -130.859375 0.109375
v -103.484375 -130.859375 0.109375
v -103.484375 -162.109375 0.109375
v -115.203125 -162.109375 0.109375
v -93.011719 -133.519531 0.109375
v -82.707031 -133.519531 0.109375
v -82.707031 -143.820312 0.109375
v -93.011719 -143.820312 0.109375
v -95.671875 -154.296875 0.109375
v -80.046875 -154.296875 0.109375
v -80.046875 -195.312500 0.109375
v -95.671875 -195.312500 0.109375
v -72.234375 -130.859375 0.109375
v -33.171875 -130.859375 0.109375
v -33.171875 -146.484375 0.109375
v -72.234375 -146.484375 0.109375
vn -0.0000 -0.0000 1.0000
vn -0.0000 1.0000 -0.0000
vn 1.0000 -0.0000 -0.0000
vn -0.0000 -1.0000 -0.0000
vn -1.0000 -0.0000 -0.0000
vn -0.0000 -0.0000 -1.0000
s 0
usemtl WHITE#NEON
f 12//7 10//7 9//7
f 10//8 25//8 9//8
f 11//9 26//9 10//9
f 12//10 27//10 11//10
f 9//11 28//11 12//11
f 28//12 26//12 27//12
f 12//7 11//7 10//7
f 10//8 26//8 25//8
f 11//9 27//9 26//9
f 12//10 28//10 27//10
f 9//11 25//11 28//11
f 28//12 25//12 26//12
usemtl TALO1
f 16//7 14//7 13//7
f 20//7 18//7 17//7
f 24//7 22//7 21//7
f 14//8 29//8 13//8
f 15//9 30//9 14//9
f 16//10 31//10 15//10
f 13//11 32//11 16//11
f 18//8 33//8 17//8
f 19//9 34//9 18//9
f 20//10 35//10 19//10
f 17//11 36//11 20//11
f 22//8 37//8 21//8
f 23//9 38//9 22//9
f 24//10 39//10 23//10
f 21//11 40//11 24//11
f 32//12 30//12 31//12
f 36//12 34//12 35//12
f 40//12 38//12 39//12
f 16//7 15//7 14//7
f 20//7 19//7 18//7
f 24//7 23//7 22//7
f 14//8 30//8 29//8
f 15//9 31//9 30//9
f 16//10 32//10 31//10
f 13//11 29//11 32//11
f 18//8 34//8 33//8
f 19//9 35//9 34//9
f 20//10 36//10 35//10
f 17//11 33//11 36//11
f 22//8 38//8 37//8
f 23//9 39//9 38//9
f 24//10 40//10 39//10
f 21//11 37//11 40//11
f 32//12 29//12 30//12
f 36//12 33//12 34//12
f 40//12 37//12 38//12
