# Blender 3.6.5
# www.blender.org
mtllib U2E_anim57.mtl
o CameraBox
v -99.011063 -140.478577 5.017366
v -98.993279 -140.677658 5.024139
v -99.015327 -140.472153 5.217208
v -98.997536 -140.671249 5.223981
v -98.811897 -140.460648 5.021036
v -98.794106 -140.659744 5.027809
v -98.816154 -140.454239 5.220878
v -98.798370 -140.653320 5.227651
vn -0.9958 -0.0896 -0.0183
vn -0.0213 0.0321 0.9993
vn 0.9958 0.0896 0.0183
vn 0.0213 -0.0321 -0.9993
vn -0.0889 0.9955 -0.0339
vn 0.0889 -0.9955 0.0339
s 0
usemtl None
f 2//1 3//1 1//1
f 8//3 5//3 7//3
f 6//4 1//4 5//4
f 4//6 6//6 8//6
f 2//1 4//1 3//1
f 8//3 6//3 5//3
f 6//4 2//4 1//4
f 4//6 2//6 6//6
usemtl UpDir
f 4//2 7//2 3//2
f 4//2 8//2 7//2
usemtl LookingDir
f 7//5 1//5 3//5
f 7//5 5//5 1//5
o _laatta01
v -97.656250 -7.812500 0.128906
v -97.656250 11.718750 0.128906
v -54.687500 11.718750 0.128906
v -54.687500 -7.812500 0.128906
v -50.781250 11.718750 0.128906
v 39.062500 11.718750 0.128906
v 39.062500 -7.812500 0.128906
v -50.781250 -7.812500 0.128906
v -101.562500 11.718750 0.128906
v -101.562500 -31.250000 0.128906
v -117.187500 -31.250000 0.128906
v -117.187500 11.718750 0.128906
v -117.187500 -82.031250 0.128906
v -101.562500 -82.031250 0.128906
v -101.562500 -105.468750 0.128906
v -78.125000 -105.468750 0.128906
v -78.125000 -125.000000 0.128906
v -117.187500 -125.000000 0.128906
vn -0.0000 -0.0000 1.0000
s 0
usemtl WHITE#NEON
f 12//7 10//7 9//7
f 16//7 14//7 13//7
f 20//7 18//7 17//7
f 25//7 23//7 26//7
f 21//7 23//7 22//7
f 12//7 11//7 10//7
f 16//7 15//7 14//7
f 20//7 19//7 18//7
f 25//7 24//7 23//7
f 21//7 26//7 23//7
o fcirto01
v -95.593750 -117.921875 11.671875
v -95.593750 -117.921875 9.718750
v -97.546875 -117.921875 9.718750
v -97.546875 -117.921875 11.671875
v -95.593750 -117.921875 7.765625
v -95.593750 -117.921875 5.812500
v -97.546875 -117.921875 5.812500
v -97.546875 -117.921875 7.765625
v -95.593750 -117.921875 3.859375
v -95.593750 -117.921875 1.906250
v -97.546875 -117.921875 1.906250
v -97.546875 -117.921875 3.859375
v -99.500000 -117.921875 7.765625
v -99.500000 -117.921875 5.812500
v -101.453125 -117.921875 5.812500
v -101.453125 -117.921875 7.765625
v -99.500000 -117.921875 3.859375
v -99.500000 -117.921875 1.906250
v -101.453125 -117.921875 1.906250
v -101.453125 -117.921875 3.859375
v -99.500000 -117.921875 11.671875
v -99.500000 -117.921875 9.718750
v -101.453125 -117.921875 9.718750
v -101.453125 -117.921875 11.671875
v -87.519531 -117.921875 11.671875
v -87.519531 -117.921875 9.718750
v -89.472656 -117.921875 9.718750
v -89.472656 -117.921875 11.671875
v -87.519531 -117.921875 7.765625
v -87.519531 -117.921875 5.812500
v -89.472656 -117.921875 5.812500
v -89.472656 -117.921875 7.765625
v -87.519531 -117.921875 3.859375
v -87.519531 -117.921875 1.906250
v -89.472656 -117.921875 1.906250
v -89.472656 -117.921875 3.859375
v -91.425781 -117.921875 7.765625
v -91.425781 -117.921875 5.812500
v -93.378906 -117.921875 5.812500
v -93.378906 -117.921875 7.765625
v -91.425781 -117.921875 3.859375
v -91.425781 -117.921875 1.906250
v -93.378906 -117.921875 1.906250
v -93.378906 -117.921875 3.859375
v -91.425781 -117.921875 11.671875
v -91.425781 -117.921875 9.718750
v -93.378906 -117.921875 9.718750
v -93.378906 -117.921875 11.671875
vn -0.0000 -1.0000 -0.0000
s 0
usemtl C_GROUND
f 30//8 28//8 27//8
f 34//8 32//8 31//8
f 38//8 36//8 35//8
f 42//8 40//8 39//8
f 46//8 44//8 43//8
f 50//8 48//8 47//8
f 54//8 52//8 51//8
f 58//8 56//8 55//8
f 62//8 60//8 59//8
f 66//8 64//8 63//8
f 70//8 68//8 67//8
f 74//8 72//8 71//8
f 30//8 29//8 28//8
f 34//8 33//8 32//8
f 38//8 37//8 36//8
f 42//8 41//8 40//8
f 46//8 45//8 44//8
f 50//8 49//8 48//8
f 54//8 53//8 52//8
f 58//8 57//8 56//8
f 62//8 61//8 60//8
f 66//8 65//8 64//8
f 70//8 69//8 68//8
f 74//8 73//8 72//8
o s01
v -94.190186 -128.517410 4.242866
v -94.173798 -128.585663 4.337583
v -94.166107 -128.631302 4.483222
v -94.171890 -128.627579 4.632481
v -94.182022 -128.580688 4.789388
v -94.200027 -128.511642 4.895058
v -94.185257 -128.558182 4.639949
v -94.183304 -128.562653 4.490663
v -94.659637 -128.763809 4.145780
v -94.632294 -128.889801 4.256538
v -94.616745 -128.977692 4.437778
v -94.619019 -128.973083 4.626356
v -94.645264 -128.885101 4.822261
v -94.675323 -128.754288 4.955089
v -94.651917 -128.843475 4.637352
v -94.645813 -128.847351 4.448802
v -95.444000 -129.170898 3.976081
v -95.414825 -129.308258 4.134054
v -95.399033 -129.399780 4.374252
v -95.405640 -129.395630 4.625669
v -95.429306 -129.302826 4.884447
v -95.465744 -129.160995 5.060403
v -95.436172 -129.257584 4.636650
v -95.429565 -129.261719 4.385233
v -96.030701 -129.307434 3.967982
v -96.005341 -129.445541 4.121998
v -95.986465 -129.532440 4.366131
v -95.992340 -129.532166 4.617570
v -96.016693 -129.435516 4.872396
v -96.052444 -129.297516 5.052303
v -96.022873 -129.394119 4.628551
v -96.020844 -129.395142 4.377084
v -96.591873 -129.206848 4.045571
v -96.564713 -129.332733 4.179905
v -96.549423 -129.420502 4.392577
v -96.555786 -129.416504 4.612561
v -96.578430 -129.327682 4.835998
v -96.608658 -129.196747 4.992401
v -96.584808 -129.286163 4.619656
v -96.578491 -129.290176 4.403601
v -96.930679 -129.143707 4.089739
v -96.914566 -129.211823 4.219819
v -96.907288 -129.257263 4.416537
v -96.913452 -129.253342 4.612946
v -96.927811 -129.207001 4.816975
v -96.946091 -129.137802 4.958007
v -96.930664 -129.184692 4.620387
v -96.924469 -129.188629 4.420049
v -96.669693 -128.548065 4.486295
v -96.700500 -128.406403 4.438317
v -96.766907 -128.123322 4.460207
v -96.802490 -127.981926 4.530076
v -96.803406 -127.981468 4.644022
v -96.772568 -128.123138 4.688071
v -96.706177 -128.406204 4.666181
v -96.674423 -128.548340 4.596284
v -96.310165 -128.863129 4.404025
v -96.384521 -128.534271 4.315639
v -96.535110 -127.875633 4.366758
v -96.612076 -127.542000 4.506243
v -96.617752 -127.541801 4.734106
v -96.543365 -127.870659 4.822492
v -96.392761 -128.529327 4.767443
v -96.311966 -128.862213 4.627987
v -95.898529 -128.768188 4.406954
v -95.972931 -128.439331 4.322497
v -96.123520 -127.780685 4.373617
v -96.199738 -127.450897 4.513123
v -96.206146 -127.446854 4.740964
v -96.131775 -127.775703 4.829350
v -95.981155 -128.434357 4.774301
v -95.904205 -128.768005 4.634817
v -95.003983 -128.268494 4.498574
v -95.048340 -128.077423 4.462074
v -95.136353 -127.702591 4.491275
v -95.176987 -127.514198 4.560912
v -95.137268 -127.702126 4.605221
v -95.049255 -128.076965 4.576019
v -94.554062 -126.936348 4.367104
v -94.568222 -126.866547 4.472802
v -94.582932 -126.816536 4.629659
v -94.587982 -126.816673 4.778939
v -94.580276 -126.862328 4.924578
v -94.563889 -126.930573 5.019295
v -94.570755 -126.885330 4.771499
v -94.569565 -126.885933 4.622190
v -95.081604 -126.922096 4.288136
v -95.116257 -126.788124 4.424845
v -95.138672 -126.699417 4.620777
v -95.140152 -126.698669 4.805448
v -95.125366 -126.782715 4.986665
v -95.097321 -126.912544 5.101374
v -95.111130 -126.828995 4.798352
v -95.109619 -126.829765 4.609753
v -95.969040 -126.897209 4.159074
v -96.001633 -126.754646 4.335057
v -96.029129 -126.662582 4.593807
v -96.031876 -126.657715 4.841323
v -96.016098 -126.749214 5.085450
v -95.986908 -126.886581 5.239494
v -96.001343 -126.795753 4.830342
v -95.994766 -126.799881 4.582855
v -96.556473 -127.029900 4.150953
v -96.588333 -126.891182 4.326958
v -96.616577 -126.795258 4.585687
v -96.618576 -126.794250 4.833224
v -96.603546 -126.881897 5.077329
v -96.574326 -127.019264 5.231373
v -96.588043 -126.932289 4.822243
v -96.586044 -126.933296 4.574706
v -97.013885 -127.365112 4.191857
v -97.048691 -127.231064 4.348211
v -97.071320 -127.142250 4.571648
v -97.076935 -127.142090 4.791653
v -97.062378 -127.226013 5.004303
v -97.034500 -127.355751 5.138659
v -97.047867 -127.272430 4.780628
v -97.042267 -127.272591 4.560624
v -97.294586 -127.562630 4.217906
v -97.309006 -127.492706 4.355038
v -97.324097 -127.442520 4.559045
v -97.329544 -127.442436 4.759404
v -97.322250 -127.487877 4.956122
v -97.309967 -127.556732 5.082244
v -97.312332 -127.511101 4.751964
v -97.309998 -127.515770 4.551598
v -95.952362 -128.781937 4.508743
v -96.008942 -128.796967 4.476912
v -96.268234 -128.854874 4.443624
v -96.294861 -128.863647 4.502387
v -96.268967 -128.854507 4.533994
v -96.009445 -128.796707 4.539779
v -95.741531 -129.300781 4.528270
v -95.813965 -129.315018 4.464873
v -96.136795 -129.393280 4.399719
v -96.176163 -129.400146 4.521245
v -96.139008 -129.388672 4.584369
v -95.814972 -129.314514 4.590606
v -96.254303 -127.460785 4.614889
v -96.311630 -127.471962 4.583037
v -96.570206 -127.533722 4.549770
v -96.601379 -127.539368 4.608484
v -96.570923 -127.533356 4.640141
v -96.312103 -127.471725 4.641975
v -96.294113 -126.904480 4.718401
v -96.362732 -126.917969 4.658961
v -96.685532 -126.996239 4.589879
v -96.724899 -127.003113 4.711404
v -96.691589 -126.992371 4.774499
v -96.367554 -126.918213 4.780737
vn 0.9732 0.2283 0.0261
vn 0.4719 -0.5221 -0.7104
vn 0.5848 -0.7091 -0.3940
vn 0.6075 -0.7939 0.0267
vn 0.5566 -0.7275 0.4012
vn 0.4359 -0.5899 0.6797
vn -0.5014 0.8227 -0.2679
vn -0.5217 0.8525 -0.0344
vn -0.4901 0.8343 0.2524
vn 0.4394 -0.6361 -0.6343
vn 0.4676 -0.8153 -0.3414
vn 0.4730 -0.8807 0.0269
vn 0.4451 -0.8292 0.3381
vn 0.4057 -0.6687 0.6231
vn -0.4693 0.8533 -0.2273
vn -0.4655 0.8846 -0.0268
vn -0.4855 0.8497 0.2058
vn 0.1805 -0.7173 -0.6730
vn 0.2194 -0.9137 -0.3422
vn 0.2266 -0.9740 0.0064
vn 0.2063 -0.9082 0.3642
vn 0.1696 -0.7654 0.6208
vn -0.2175 0.9483 -0.2313
vn -0.2266 0.9740 -0.0058
vn -0.2180 0.9532 0.2096
vn -0.2204 -0.7336 -0.6429
vn -0.2201 -0.9072 -0.3586
vn -0.2012 -0.9795 0.0121
vn -0.1985 -0.9175 0.3446
vn -0.2046 -0.7697 0.6048
vn 0.1966 0.9562 -0.2168
vn 0.1888 0.9819 -0.0126
vn 0.1905 0.9577 0.2158
vn -0.2193 -0.8753 -0.4311
vn -0.3404 -0.9189 -0.1997
vn -0.4150 -0.9098 0.0051
vn -0.3298 -0.9254 0.1870
vn -0.1974 -0.8900 0.4111
vn 0.1833 0.9748 -0.1270
vn 0.2815 0.9595 -0.0101
vn 0.2849 0.9505 0.1239
vn -0.9702 -0.2417 -0.0194
vn -0.9731 -0.2293 -0.0207
vn -0.4736 -0.3269 -0.8178
vn -0.3659 -0.0114 -0.9306
vn -0.5679 0.2026 -0.7978
vn -0.9193 0.3930 -0.0232
vn -0.5878 0.0833 0.8047
vn -0.3626 -0.1597 0.9182
vn -0.4457 -0.4357 0.7820
vn -0.6594 -0.7518 -0.0023
vn 0.0700 -0.2332 -0.9699
vn -0.0012 0.0771 -0.9970
vn -0.0675 0.3754 -0.9244
vn -0.2153 0.9763 -0.0234
vn -0.0723 0.2436 0.9672
vn 0.0025 -0.0827 0.9966
vn 0.0701 -0.3710 0.9260
vn 0.2247 -0.9744 0.0064
vn 0.2007 -0.1387 -0.9698
vn 0.1097 0.1028 -0.9886
vn 0.0821 0.3611 -0.9289
vn 0.0625 0.9979 -0.0160
vn 0.1935 0.2637 0.9450
vn 0.2172 -0.0250 0.9758
vn 0.3055 -0.2940 0.9057
vn 0.4866 -0.8735 0.0129
vn 0.9737 0.2279 0.0069
vn 0.9822 0.1870 0.0202
vn 0.1032 0.8363 -0.5384
vn 0.1602 0.9447 -0.2861
vn 0.2061 0.9785 0.0078
vn 0.2100 0.8934 0.3972
vn 0.1800 0.6729 0.7175
vn -0.0728 -0.9623 -0.2620
vn -0.1035 -0.9946 0.0032
vn -0.1058 -0.9582 0.2659
vn 0.1191 0.7241 -0.6794
vn 0.0754 0.9116 -0.4041
vn 0.0415 0.9991 -0.0037
vn 0.0570 0.9361 0.3472
vn 0.1005 0.7520 0.6515
vn -0.0617 -0.9748 -0.2142
vn -0.0367 -0.9992 0.0157
vn -0.0407 -0.9613 0.2724
vn -0.1630 0.7603 -0.6288
vn -0.2080 0.9143 -0.3475
vn -0.2202 0.9754 -0.0057
vn -0.2166 0.9095 0.3549
vn -0.1717 0.7189 0.6736
vn 0.2182 -0.9531 -0.2099
vn 0.2266 -0.9740 0.0058
vn 0.2111 -0.9498 0.2310
vn -0.4966 0.6012 -0.6260
vn -0.5662 0.7447 -0.3534
vn -0.6062 0.7951 -0.0160
vn -0.5932 0.7454 0.3042
vn -0.5325 0.5790 0.6174
vn 0.6041 -0.7751 -0.1850
vn 0.5942 -0.8043 0.0081
vn 0.5778 -0.7861 0.2195
vn -0.5469 0.7212 -0.4252
vn -0.6944 0.6851 -0.2199
vn -0.7644 0.6444 -0.0211
vn -0.7480 0.5983 0.2873
vn -0.6159 0.4990 0.6097
vn 0.6039 -0.7710 -0.2020
vn 0.6688 -0.7432 0.0176
vn 0.6498 -0.7240 0.2317
vn -0.9822 -0.1861 -0.0268
vn -0.2238 0.9746 -0.0058
vn 0.6170 0.2223 -0.7549
vn 0.1762 0.0891 -0.9803
vn -0.9285 -0.2012 -0.3122
vn -0.8363 -0.1667 0.5224
vn -0.0409 0.0839 0.9956
vn 0.4144 0.2418 0.8774
vn 0.2238 -0.9746 0.0058
vn 0.6221 0.1860 -0.7605
vn 0.1722 0.1493 -0.9737
vn -0.9371 -0.1559 -0.3124
vn -0.8204 -0.3034 0.4846
vn 0.0362 -0.2396 0.9702
vn 0.6554 -0.1212 0.7455
vn 0.9581 0.2855 -0.0234
vn 0.9822 0.1867 0.0228
vn 0.9648 0.2611 0.0308
vn 0.9652 0.2605 0.0208
vn 0.9821 0.1884 0.0071
vn 0.4716 -0.6748 -0.5677
vn 0.5648 -0.7785 -0.2739
vn 0.6105 -0.7908 0.0434
vn 0.5418 -0.7951 0.2726
vn 0.4351 -0.7179 0.5433
vn -0.4653 0.8656 -0.1849
vn -0.5212 0.8528 -0.0323
vn -0.5278 0.8329 0.1667
vn 0.4357 -0.5391 -0.7208
vn 0.4786 -0.7732 -0.4160
vn 0.4730 -0.8806 0.0272
vn 0.4532 -0.7889 0.4150
vn 0.4028 -0.6049 0.6869
vn -0.4491 0.8511 -0.2720
vn -0.4666 0.8838 -0.0333
vn -0.4680 0.8462 0.2547
vn 0.1781 -0.7260 -0.6642
vn 0.2103 -0.9089 -0.3601
vn 0.2200 -0.9753 0.0218
vn 0.1999 -0.9163 0.3469
vn 0.1569 -0.7528 0.6393
vn -0.2198 0.9753 -0.0218
vn -0.2240 0.9497 0.2187
vn -0.2155 -0.7444 -0.6320
vn -0.1993 -0.9280 -0.3149
vn -0.1952 -0.9808 -0.0034
vn -0.1925 -0.9235 0.3318
vn -0.1901 -0.7969 0.5735
vn 0.1877 0.9604 -0.2058
vn 0.1849 0.9828 -0.0025
vn 0.1997 0.9591 0.2008
vn -0.3197 -0.7228 -0.6127
vn -0.4106 -0.8529 -0.3225
vn -0.4148 -0.9099 0.0046
vn -0.3950 -0.8667 0.3045
vn -0.2941 -0.7601 0.5794
vn 0.2750 0.9388 -0.2076
vn 0.2812 0.9596 -0.0095
vn 0.2059 0.9548 0.2145
vn -0.9726 -0.2320 -0.0122
vn -0.9824 -0.1849 -0.0271
vn -0.9583 -0.2841 -0.0301
vn -0.9462 -0.3227 -0.0229
vn -0.9702 -0.2420 -0.0147
vn -0.9728 -0.2302 0.0262
vn -0.9732 -0.2260 -0.0424
vn -0.9735 -0.2252 -0.0400
vn -0.9766 -0.2147 -0.0070
vn -0.9754 -0.2177 -0.0346
vn -0.4631 -0.3730 -0.8040
vn -0.3621 -0.0128 -0.9321
vn -0.5740 0.2420 -0.7822
vn -0.9179 0.3968 -0.0090
vn -0.5955 0.1175 0.7947
vn -0.3584 -0.1553 0.9206
vn -0.4337 -0.4738 0.7664
vn -0.6528 -0.7569 -0.0300
vn 0.0635 -0.2456 -0.9673
vn -0.0701 0.3710 -0.9260
vn -0.2247 0.9744 -0.0064
vn 0.0702 -0.3709 0.9260
vn 0.2250 -0.9743 0.0058
vn 0.2090 -0.1986 -0.9575
vn 0.1094 0.1018 -0.9888
vn 0.0675 0.4019 -0.9132
vn 0.1833 0.2936 0.9382
vn 0.2219 -0.0307 0.9746
vn 0.3063 -0.3062 0.9013
vn 0.9736 0.2279 0.0100
vn 0.9736 0.2283 0.0044
vn 0.9780 0.2083 0.0070
vn 0.9632 0.2669 0.0328
vn 0.9916 0.1165 0.0559
vn 0.9380 0.3467 0.0061
vn 0.1623 0.7250 -0.6693
vn 0.1962 0.9015 -0.3857
vn 0.2089 0.9779 -0.0023
vn 0.1703 0.9428 0.2865
vn 0.1149 0.8153 0.5676
vn -0.1107 -0.9782 -0.1755
vn -0.0550 -0.9802 0.1903
vn 0.0921 0.7820 -0.6165
vn 0.0490 0.9426 -0.3302
vn 0.0451 0.9988 -0.0191
vn 0.0800 0.9068 0.4140
vn 0.1327 0.6722 0.7284
vn -0.0454 -0.9636 -0.2636
vn -0.0338 -0.9994 0.0038
vn -0.0593 -0.9737 0.2200
vn -0.1659 0.7510 -0.6391
vn -0.2008 0.9112 -0.3597
vn -0.2263 0.9738 -0.0216
vn -0.2115 0.9157 0.3418
vn 0.2240 -0.9497 -0.2187
vn 0.2198 -0.9753 0.0221
vn 0.2113 -0.9497 0.2312
vn -0.4966 0.6357 -0.5909
vn -0.5637 0.7525 -0.3405
vn -0.6040 0.7969 -0.0081
vn -0.5995 0.7296 0.3289
vn -0.5324 0.5510 0.6426
vn 0.5941 -0.7783 -0.2033
vn 0.5964 -0.8026 0.0158
vn 0.5878 -0.7729 0.2392
vn -0.5733 0.5546 -0.6031
vn -0.7185 0.6182 -0.3185
vn -0.7641 0.6448 -0.0200
vn -0.7145 0.6754 0.1825
vn -0.5878 0.6846 0.4310
vn 0.6725 -0.7325 -0.1060
vn 0.6717 -0.7404 0.0251
vn 0.5785 -0.8037 0.1396
vn -0.9821 -0.1884 -0.0071
vn -0.9703 -0.2403 -0.0262
vn -0.9820 -0.1869 -0.0267
vn -0.9872 -0.1575 -0.0234
vn -0.9701 -0.2425 -0.0057
vn -0.2054 0.9741 -0.0947
vn -0.2183 0.9739 0.0620
vn -0.3258 0.9454 -0.0065
vn 0.4433 0.1872 -0.8766
vn 0.1033 0.1059 -0.9890
vn -0.8786 -0.2095 -0.4291
vn -0.7505 -0.1213 0.6496
vn -0.0383 0.0834 0.9958
vn 0.5933 0.2696 0.7585
vn 0.2298 -0.9681 0.0997
vn 0.2432 -0.9649 -0.0993
vn 0.1883 -0.9821 0.0055
vn 0.4550 0.1620 -0.8757
vn 0.1044 0.0963 -0.9899
vn -0.8670 -0.1506 -0.4750
vn -0.6629 -0.2855 0.6921
vn 0.0480 -0.2307 0.9718
vn 0.4411 -0.1336 0.8875
s 0
usemtl LIGHT_BLUE
f 82//9 78//9 76//9
f 76//10 84//10 83//10
f 77//11 85//11 84//11
f 87//13 86//13 78//13
f 88//14 87//14 79//14
f 81//15 89//15 88//15
f 82//16 90//16 89//16
f 75//17 83//17 90//17
f 84//18 92//18 91//18
f 85//19 93//19 92//19
f 95//21 94//21 86//21
f 96//22 95//22 87//22
f 97//23 96//23 88//23
f 90//24 98//24 97//24
f 83//25 91//25 98//25
f 92//26 100//26 99//26
f 101//27 100//27 92//27
f 103//29 102//29 94//29
f 96//30 104//30 103//30
f 105//31 104//31 96//31
f 106//32 105//32 97//32
f 99//33 106//33 98//33
f 108//34 107//34 99//34
f 109//35 108//35 100//35
f 103//37 111//37 110//37
f 104//38 112//38 111//38
f 113//39 112//39 104//39
f 114//40 113//40 105//40
f 107//41 114//41 106//41
f 116//42 115//42 107//42
f 117//43 116//43 108//43
f 111//45 119//45 118//45
f 112//46 120//46 119//46
f 121//47 120//47 112//47
f 122//48 121//48 113//48
f 115//49 122//49 114//49
f 119//50 122//50 117//50
f 136//56 135//56 127//56
f 130//58 138//58 137//58
f 136//64 144//64 143//64
f 146//66 145//66 137//66
f 144//72 151//72 150//72
f 147//74 152//74 145//74
f 157//77 160//77 155//77
f 154//78 153//78 161//78
f 155//79 154//79 162//79
f 156//81 164//81 165//81
f 157//82 165//82 166//82
f 158//83 166//83 167//83
f 159//84 167//84 168//84
f 160//85 168//85 161//85
f 162//86 161//86 169//86
f 163//87 162//87 170//87
f 164//89 172//89 173//89
f 165//90 173//90 174//90
f 166//91 174//91 175//91
f 167//92 175//92 176//92
f 161//93 168//93 176//93
f 169//94 177//94 178//94
f 171//95 170//95 178//95
f 173//97 172//97 180//97
f 173//98 181//98 182//98
f 174//99 182//99 183//99
f 175//100 183//100 184//100
f 169//101 176//101 184//101
f 177//102 185//102 186//102
f 178//103 186//103 187//103
f 181//105 180//105 188//105
f 182//106 181//106 189//106
f 183//107 182//107 190//107
f 184//108 183//108 191//108
f 177//109 184//109 192//109
f 185//110 193//110 194//110
f 186//111 194//111 195//111
f 189//113 188//113 196//113
f 190//114 189//114 197//114
f 191//115 190//115 198//115
f 192//116 191//116 199//116
f 185//117 192//117 200//117
f 200//118 196//118 194//118
f 201//119 203//119 205//119
f 201//120 207//120 208//120
f 202//121 208//121 209//121
f 203//122 209//122 210//122
f 204//123 210//123 211//123
f 206//124 205//124 211//124
f 201//125 206//125 212//125
f 213//126 217//126 215//126
f 220//127 219//127 213//127
f 221//128 220//128 214//128
f 216//129 222//129 221//129
f 217//130 223//130 222//130
f 218//131 224//131 223//131
f 219//132 224//132 218//132
f 78//133 80//133 79//133
f 78//134 81//134 80//134
f 76//135 78//135 77//135
f 82//136 76//136 75//136
f 78//137 82//137 81//137
f 76//138 83//138 75//138
f 77//139 84//139 76//139
f 87//141 78//141 79//141
f 88//142 79//142 80//142
f 81//143 88//143 80//143
f 82//144 89//144 81//144
f 75//145 90//145 82//145
f 84//146 91//146 83//146
f 85//147 92//147 84//147
f 95//149 86//149 87//149
f 96//150 87//150 88//150
f 97//151 88//151 89//151
f 90//152 97//152 89//152
f 83//153 98//153 90//153
f 92//154 99//154 91//154
f 101//155 92//155 93//155
f 103//157 94//157 95//157
f 96//158 103//158 95//158
f 105//31 96//31 97//31
f 106//159 97//159 98//159
f 99//160 98//160 91//160
f 108//161 99//161 100//161
f 109//162 100//162 101//162
f 103//164 110//164 102//164
f 104//165 111//165 103//165
f 113//166 104//166 105//166
f 114//167 105//167 106//167
f 107//168 106//168 99//168
f 116//169 107//169 108//169
f 117//170 108//170 109//170
f 111//172 118//172 110//172
f 112//173 119//173 111//173
f 121//174 112//174 113//174
f 122//175 113//175 114//175
f 115//176 114//176 107//176
f 121//177 119//177 120//177
f 119//178 117//178 118//178
f 117//179 115//179 116//179
f 122//180 119//180 121//180
f 117//181 122//181 115//181
f 136//191 127//191 128//191
f 130//193 137//193 129//193
f 136//64 143//64 135//64
f 146//198 137//198 138//198
f 144//203 150//203 143//203
f 147//205 145//205 146//205
f 159//136 157//136 158//136
f 157//209 155//209 156//209
f 155//210 153//210 154//210
f 160//211 157//211 159//211
f 155//134 160//134 153//134
f 154//212 161//212 162//212
f 155//213 162//213 163//213
f 156//215 165//215 157//215
f 157//216 166//216 158//216
f 158//217 167//217 159//217
f 159//84 168//84 160//84
f 160//218 161//218 153//218
f 162//219 169//219 170//219
f 163//220 170//220 171//220
f 164//222 173//222 165//222
f 165//223 174//223 166//223
f 166//224 175//224 167//224
f 167//225 176//225 168//225
f 161//226 176//226 169//226
f 169//227 178//227 170//227
f 171//228 178//228 179//228
f 173//230 180//230 181//230
f 173//98 182//98 174//98
f 174//231 183//231 175//231
f 175//232 184//232 176//232
f 169//233 184//233 177//233
f 177//234 186//234 178//234
f 178//235 187//235 179//235
f 181//237 188//237 189//237
f 182//238 189//238 190//238
f 183//239 190//239 191//239
f 184//240 191//240 192//240
f 177//241 192//241 185//241
f 185//242 194//242 186//242
f 186//243 195//243 187//243
f 189//245 196//245 197//245
f 190//246 197//246 198//246
f 191//247 198//247 199//247
f 192//248 199//248 200//248
f 185//249 200//249 193//249
f 196//250 198//250 197//250
f 196//251 199//251 198//251
f 194//252 196//252 195//252
f 200//253 194//253 193//253
f 196//254 200//254 199//254
f 203//255 201//255 202//255
f 201//256 205//256 206//256
f 205//257 203//257 204//257
f 201//258 208//258 202//258
f 202//259 209//259 203//259
f 203//260 210//260 204//260
f 204//261 211//261 205//261
f 206//262 211//262 212//262
f 201//263 212//263 207//263
f 217//264 213//264 218//264
f 213//265 215//265 214//265
f 215//266 217//266 216//266
f 220//267 213//267 214//267
f 221//268 214//268 215//268
f 216//269 221//269 215//269
f 217//270 222//270 216//270
f 218//271 223//271 217//271
f 219//272 218//272 213//272
usemtl BLACK
f 86//12 85//12 77//12
f 94//20 93//20 85//20
f 94//28 102//28 101//28
f 102//36 110//36 109//36
f 110//44 118//44 117//44
f 156//80 155//80 163//80
f 164//88 163//88 171//88
f 171//96 179//96 180//96
f 179//104 187//104 188//104
f 187//112 195//112 196//112
f 86//140 77//140 78//140
f 94//148 85//148 86//148
f 94//156 101//156 93//156
f 102//163 109//163 101//163
f 110//171 117//171 109//171
f 156//214 163//214 164//214
f 164//221 171//221 172//221
f 171//229 180//229 172//229
f 179//236 188//236 180//236
f 187//244 196//244 188//244
usemtl ORANGE
f 124//51 128//51 126//51
f 128//182 130//182 129//182
f 130//183 124//183 123//183
f 124//184 126//184 125//184
f 126//185 128//185 127//185
f 128//186 124//186 130//186
usemtl GREY
f 132//52 131//52 123//52
f 133//53 132//53 124//53
f 126//54 134//54 133//54
f 127//55 135//55 134//55
f 137//57 136//57 128//57
f 123//59 131//59 138//59
f 132//60 140//60 139//60
f 133//61 141//61 140//61
f 134//62 142//62 141//62
f 143//63 142//63 134//63
f 145//65 144//65 136//65
f 131//67 139//67 146//67
f 140//68 148//68 147//68
f 141//69 149//69 148//69
f 150//70 149//70 141//70
f 150//71 142//71 143//71
f 145//73 152//73 151//73
f 147//75 146//75 139//75
f 147//76 149//76 151//76
f 132//187 123//187 124//187
f 133//188 124//188 125//188
f 126//189 133//189 125//189
f 127//190 134//190 126//190
f 137//192 128//192 129//192
f 123//194 138//194 130//194
f 132//195 139//195 131//195
f 133//61 140//61 132//61
f 134//196 141//196 133//196
f 143//197 134//197 135//197
f 145//65 136//65 137//65
f 131//199 146//199 138//199
f 140//200 147//200 139//200
f 141//201 148//201 140//201
f 150//202 141//202 142//202
f 145//204 151//204 144//204
f 149//206 147//206 148//206
f 147//207 151//207 152//207
f 151//208 149//208 150//208
o talojota
v -115.496094 -117.621094 16.949219
v -82.191406 -117.621094 16.949219
v -82.191406 -106.925781 16.949219
v -115.496094 -106.925781 16.949219
v -115.496094 -117.621094 0.089844
v -82.191406 -117.621094 0.089844
v -82.191406 -106.925781 0.089844
v -115.496094 -106.925781 0.089844
vn -0.0000 -0.0000 1.0000
vn -0.0000 -1.0000 -0.0000
vn 1.0000 -0.0000 -0.0000
vn -0.0000 1.0000 -0.0000
vn -1.0000 -0.0000 -0.0000
vn -0.0000 -0.0000 -1.0000
s 0
usemtl DEFAULT
f 226//273 228//273 225//273
f 229//274 226//274 225//274
f 230//275 227//275 226//275
f 231//276 228//276 227//276
f 232//277 225//277 228//277
f 232//278 230//278 229//278
f 226//273 227//273 228//273
f 229//274 230//274 226//274
f 230//275 231//275 227//275
f 231//276 232//276 228//276
f 232//277 229//277 225//277
f 232//278 231//278 230//278
