# Blender 3.6.5
# www.blender.org
mtllib U2E_anim60.mtl
o CameraBox
v -99.021545 -139.779510 5.020853
v -99.017235 -139.979340 5.027882
v -99.025360 -139.772568 5.220686
v -99.021042 -139.972397 5.227715
v -98.821625 -139.775070 5.024509
v -98.817307 -139.974899 5.031539
v -98.825432 -139.768127 5.224343
v -98.821121 -139.967957 5.231372
vn -0.9996 -0.0222 -0.0183
vn -0.0191 0.0347 0.9992
vn 0.9996 0.0222 0.0183
vn 0.0191 -0.0347 -0.9992
vn -0.0216 0.9991 -0.0351
vn 0.0216 -0.9991 0.0351
s 0
usemtl None
f 2//1 3//1 1//1
f 8//3 5//3 7//3
f 6//4 1//4 5//4
f 4//6 6//6 8//6
f 2//1 4//1 3//1
f 8//3 6//3 5//3
f 6//4 2//4 1//4
f 4//6 2//6 6//6
usemtl UpDir
f 4//2 7//2 3//2
f 4//2 8//2 7//2
usemtl LookingDir
f 7//5 1//5 3//5
f 7//5 5//5 1//5
o _laatta01
v -97.656250 -7.812500 0.128906
v -97.656250 11.718750 0.128906
v -54.687500 11.718750 0.128906
v -54.687500 -7.812500 0.128906
v -50.781250 11.718750 0.128906
v 39.062500 11.718750 0.128906
v 39.062500 -7.812500 0.128906
v -50.781250 -7.812500 0.128906
v -101.562500 11.718750 0.128906
v -101.562500 -31.250000 0.128906
v -117.187500 -31.250000 0.128906
v -117.187500 11.718750 0.128906
v -117.187500 -82.031250 0.128906
v -101.562500 -82.031250 0.128906
v -101.562500 -105.468750 0.128906
v -78.125000 -105.468750 0.128906
v -78.125000 -125.000000 0.128906
v -117.187500 -125.000000 0.128906
vn -0.0000 -0.0000 1.0000
s 0
usemtl WHITE#NEON
f 12//7 10//7 9//7
f 16//7 14//7 13//7
f 20//7 18//7 17//7
f 25//7 23//7 26//7
f 21//7 23//7 22//7
f 12//7 11//7 10//7
f 16//7 15//7 14//7
f 20//7 19//7 18//7
f 25//7 24//7 23//7
f 21//7 26//7 23//7
o fcirto01
v -95.593750 -117.921875 11.671875
v -95.593750 -117.921875 9.718750
v -97.546875 -117.921875 9.718750
v -97.546875 -117.921875 11.671875
v -95.593750 -117.921875 7.765625
v -95.593750 -117.921875 5.812500
v -97.546875 -117.921875 5.812500
v -97.546875 -117.921875 7.765625
v -95.593750 -117.921875 3.859375
v -95.593750 -117.921875 1.906250
v -97.546875 -117.921875 1.906250
v -97.546875 -117.921875 3.859375
v -99.500000 -117.921875 7.765625
v -99.500000 -117.921875 5.812500
v -101.453125 -117.921875 5.812500
v -101.453125 -117.921875 7.765625
v -99.500000 -117.921875 3.859375
v -99.500000 -117.921875 1.906250
v -101.453125 -117.921875 1.906250
v -101.453125 -117.921875 3.859375
v -99.500000 -117.921875 11.671875
v -99.500000 -117.921875 9.718750
v -101.453125 -117.921875 9.718750
v -101.453125 -117.921875 11.671875
v -87.519531 -117.921875 11.671875
v -87.519531 -117.921875 9.718750
v -89.472656 -117.921875 9.718750
v -89.472656 -117.921875 11.671875
v -87.519531 -117.921875 7.765625
v -87.519531 -117.921875 5.812500
v -89.472656 -117.921875 5.812500
v -89.472656 -117.921875 7.765625
v -87.519531 -117.921875 3.859375
v -87.519531 -117.921875 1.906250
v -89.472656 -117.921875 1.906250
v -89.472656 -117.921875 3.859375
v -91.425781 -117.921875 7.765625
v -91.425781 -117.921875 5.812500
v -93.378906 -117.921875 5.812500
v -93.378906 -117.921875 7.765625
v -91.425781 -117.921875 3.859375
v -91.425781 -117.921875 1.906250
v -93.378906 -117.921875 1.906250
v -93.378906 -117.921875 3.859375
v -91.425781 -117.921875 11.671875
v -91.425781 -117.921875 9.718750
v -93.378906 -117.921875 9.718750
v -93.378906 -117.921875 11.671875
vn -0.0000 -1.0000 -0.0000
s 0
usemtl C_GROUND
f 30//8 28//8 27//8
f 34//8 32//8 31//8
f 38//8 36//8 35//8
f 42//8 40//8 39//8
f 46//8 44//8 43//8
f 50//8 48//8 47//8
f 54//8 52//8 51//8
f 58//8 56//8 55//8
f 62//8 60//8 59//8
f 66//8 64//8 63//8
f 70//8 68//8 67//8
f 74//8 72//8 71//8
f 30//8 29//8 28//8
f 34//8 33//8 32//8
f 38//8 37//8 36//8
f 42//8 41//8 40//8
f 46//8 45//8 44//8
f 50//8 49//8 48//8
f 54//8 53//8 52//8
f 58//8 57//8 56//8
f 62//8 61//8 60//8
f 66//8 65//8 64//8
f 70//8 69//8 68//8
f 74//8 73//8 72//8
o s01
v -93.328323 -128.432556 4.255207
v -93.309769 -128.500183 4.349969
v -93.300629 -128.545486 4.495638
v -93.306534 -128.541840 4.644894
v -93.318176 -128.495209 4.801770
v -93.338364 -128.426697 4.907394
v -93.322098 -128.472900 4.652317
v -93.320023 -128.477417 4.503034
v -93.789658 -128.693878 4.158258
v -93.758316 -128.818878 4.269099
v -93.739990 -128.906113 4.450397
v -93.742401 -128.901443 4.638971
v -93.771469 -128.814240 4.834818
v -93.805679 -128.684341 4.967559
v -93.779419 -128.772949 4.649881
v -93.773178 -128.776764 4.461334
v -94.560638 -129.125916 3.988784
v -94.527100 -129.262177 4.146849
v -94.508377 -129.352982 4.387107
v -94.515137 -129.348877 4.638520
v -94.541763 -129.256714 4.897237
v -94.582733 -129.115997 5.073099
v -94.550049 -129.211884 4.649410
v -94.543320 -129.215973 4.397996
v -95.142654 -129.281113 3.980745
v -95.112900 -129.418243 4.134852
v -95.091293 -129.504349 4.379043
v -95.097183 -129.504089 4.630481
v -95.124634 -129.408112 4.885243
v -95.164780 -129.271194 5.065059
v -95.132095 -129.367065 4.641370
v -95.130020 -129.368195 4.389904
v -95.706757 -129.198456 4.058241
v -95.675598 -129.323334 4.192657
v -95.657532 -129.410431 4.405388
v -95.664032 -129.406464 4.625369
v -95.689514 -129.318283 4.848746
v -95.723923 -129.188293 5.005063
v -95.697205 -129.277145 4.632377
v -95.690735 -129.281067 4.416326
v -96.047409 -129.146118 4.102352
v -96.029160 -129.213608 4.232476
v -96.020432 -129.258667 4.429224
v -96.026733 -129.254822 4.625629
v -96.042572 -129.208832 4.829628
v -96.063049 -129.140167 4.970614
v -96.046112 -129.186737 4.633025
v -96.039795 -129.190598 4.432690
v -95.805603 -128.542175 4.498532
v -95.840912 -128.401611 4.450460
v -95.916306 -128.120804 4.472163
v -95.956406 -127.980568 4.541938
v -95.957336 -127.980057 4.655884
v -95.922012 -128.120636 4.700027
v -95.846603 -128.401459 4.678324
v -95.810333 -128.542542 4.608521
v -95.436172 -128.845673 4.416485
v -95.521011 -128.519424 4.327881
v -95.692551 -127.865898 4.378565
v -95.780121 -127.534798 4.517828
v -95.785812 -127.534645 4.745691
v -95.700989 -127.860893 4.834295
v -95.529419 -128.514435 4.779682
v -95.438019 -128.844681 4.640447
v -95.027786 -128.737640 4.419373
v -95.112656 -128.411377 4.334699
v -95.284210 -127.757851 4.385382
v -95.370911 -127.430565 4.524669
v -95.377457 -127.426590 4.752508
v -95.292633 -127.752846 4.841112
v -95.121063 -128.406387 4.786499
v -95.033493 -128.737488 4.647236
v -94.149658 -128.209595 4.510712
v -94.200073 -128.020050 4.474086
v -94.300034 -127.648201 4.503039
v -94.346649 -127.461166 4.572552
v -94.300980 -127.647690 4.616984
v -94.201019 -128.019562 4.588031
v -93.742477 -126.863846 4.378398
v -93.758865 -126.794464 4.484050
v -93.775177 -126.744850 4.640874
v -93.780228 -126.745049 4.790154
v -93.771103 -126.790337 4.935823
v -93.752548 -126.857964 5.030585
v -93.760849 -126.813133 4.782759
v -93.759613 -126.813797 4.633451
v -94.270218 -126.866486 4.299396
v -94.309128 -126.733604 4.436014
v -94.334381 -126.645546 4.631888
v -94.335907 -126.644722 4.816558
v -94.318451 -126.728127 4.997831
v -94.286270 -126.856918 5.112626
v -94.302734 -126.774040 4.809549
v -94.301178 -126.774887 4.620951
v -95.157974 -126.870041 4.170272
v -95.195114 -126.728477 4.346162
v -95.225571 -126.637154 4.604850
v -95.228470 -126.632233 4.852363
v -95.209808 -126.723015 5.096550
v -95.176239 -126.859283 5.250685
v -95.193542 -126.769226 4.841473
v -95.186829 -126.773308 4.593988
v -95.740875 -127.021400 4.162209
v -95.777161 -126.883667 4.338122
v -95.808472 -126.788528 4.596786
v -95.810516 -126.787422 4.844323
v -95.792709 -126.874382 5.088487
v -95.759140 -127.010651 5.242621
v -95.775589 -126.924423 4.833433
v -95.773544 -126.925522 4.585897
v -96.187347 -127.371017 4.203308
v -96.226425 -127.238052 4.359572
v -96.251892 -127.149864 4.582951
v -96.257523 -127.149742 4.802955
v -96.240326 -127.233017 5.015661
v -96.208313 -127.361725 5.150102
v -96.224319 -127.279099 4.792017
v -96.218704 -127.279213 4.572013
v -96.461609 -127.577393 4.229472
v -96.478256 -127.507874 4.366557
v -96.494965 -127.458054 4.570531
v -96.500427 -127.458015 4.770890
v -96.491699 -127.503075 4.967637
v -96.477234 -127.571426 5.093805
v -96.481033 -127.526108 4.763494
v -96.478516 -127.530823 4.563132
v -95.081161 -128.753052 4.521168
v -95.137253 -128.769897 4.489345
v -95.394562 -128.836060 4.456080
v -95.420883 -128.845642 4.514848
v -95.395309 -128.835663 4.546451
v -95.137772 -128.769608 4.552211
v -94.853882 -129.264862 4.541043
v -94.925812 -129.281464 4.477652
v -95.245972 -129.370026 4.412533
v -95.285110 -129.378067 4.534060
v -95.248367 -129.365372 4.597179
v -94.926849 -129.280899 4.603384
v -95.425125 -127.442139 4.626441
v -95.482071 -127.455147 4.594593
v -95.738541 -127.525154 4.561353
v -95.769516 -127.531761 4.620069
v -95.739288 -127.524757 4.651723
v -95.482559 -127.454887 4.653530
v -95.482681 -126.887314 4.729589
v -95.550842 -126.903023 4.670154
v -95.870972 -126.991608 4.601106
v -95.910095 -126.999649 4.722633
v -95.877151 -126.987808 4.785724
v -95.555664 -126.903343 4.791930
vn 0.9655 0.2593 0.0260
vn 0.4884 -0.5073 -0.7100
vn 0.6071 -0.6903 -0.3935
vn 0.6325 -0.7741 0.0273
vn 0.5795 -0.7091 0.4017
vn 0.4545 -0.5753 0.6801
vn -0.5274 0.8061 -0.2684
vn -0.5486 0.8354 -0.0350
vn -0.5165 0.8184 0.2518
vn 0.4596 -0.6222 -0.6338
vn 0.4934 -0.8002 -0.3409
vn 0.5008 -0.8651 0.0275
vn 0.4713 -0.8143 0.3386
vn 0.4268 -0.6550 0.6235
vn -0.4963 0.8377 -0.2278
vn -0.4935 0.8693 -0.0274
vn -0.5124 0.8339 0.2052
vn 0.2034 -0.7116 -0.6725
vn 0.2485 -0.9064 -0.3416
vn 0.2575 -0.9662 0.0070
vn 0.2352 -0.9009 0.3648
vn 0.1939 -0.7592 0.6213
vn -0.2476 0.9407 -0.2320
vn -0.2576 0.9662 -0.0064
vn -0.2483 0.9459 0.2090
vn -0.1968 -0.7406 -0.6424
vn -0.1910 -0.9140 -0.3580
vn -0.1698 -0.9854 0.0127
vn -0.1691 -0.9232 0.3452
vn -0.1799 -0.7754 0.6053
vn 0.1660 0.9619 -0.2174
vn 0.1574 0.9874 -0.0133
vn 0.1598 0.9634 0.2152
vn -0.1912 -0.8821 -0.4305
vn -0.3108 -0.9294 -0.1991
vn -0.3857 -0.9226 0.0057
vn -0.3001 -0.9353 0.1876
vn -0.1689 -0.8955 0.4117
vn 0.1521 0.9801 -0.1276
vn 0.2508 0.9680 -0.0107
vn 0.2544 0.9592 0.1232
vn -0.9619 -0.2726 -0.0193
vn -0.9653 -0.2603 -0.0206
vn -0.4629 -0.3424 -0.8176
vn -0.3653 -0.0237 -0.9306
vn -0.5740 0.1838 -0.7980
vn -0.9313 0.3634 -0.0235
vn -0.5902 0.0651 0.8046
vn -0.3574 -0.1706 0.9183
vn -0.4316 -0.4492 0.7822
vn -0.6350 -0.7725 -0.0018
vn 0.0774 -0.2315 -0.9697
vn -0.0036 0.0764 -0.9971
vn -0.0794 0.3725 -0.9246
vn -0.2464 0.9689 -0.0240
vn -0.0801 0.2418 0.9670
vn 0.0050 -0.0820 0.9966
vn 0.0819 -0.3679 0.9262
vn 0.2557 -0.9667 0.0071
vn 0.2051 -0.1328 -0.9697
vn 0.1064 0.1056 -0.9887
vn 0.0706 0.3629 -0.9291
vn 0.0306 0.9994 -0.0166
vn 0.1849 0.2703 0.9448
vn 0.2178 -0.0174 0.9758
vn 0.3146 -0.2835 0.9059
vn 0.5143 -0.8575 0.0134
vn 0.9659 0.2588 0.0068
vn 0.9757 0.2183 0.0201
vn 0.0765 0.8388 -0.5390
vn 0.1300 0.9492 -0.2867
vn 0.1748 0.9846 0.0072
vn 0.1813 0.8999 0.3966
vn 0.1584 0.6787 0.7171
vn -0.0421 -0.9643 -0.2614
vn -0.0717 -0.9974 0.0039
vn -0.0752 -0.9609 0.2665
vn 0.0960 0.7271 -0.6798
vn 0.0463 0.9133 -0.4046
vn 0.0095 0.9999 -0.0044
vn 0.0270 0.9376 0.3465
vn 0.0764 0.7552 0.6510
vn -0.0305 -0.9764 -0.2136
vn -0.0048 -0.9999 0.0163
vn -0.0100 -0.9619 0.2730
vn -0.1872 0.7543 -0.6293
vn -0.2370 0.9070 -0.3481
vn -0.2513 0.9679 -0.0064
vn -0.2455 0.9023 0.3543
vn -0.1946 0.7135 0.6731
vn 0.2485 -0.9458 -0.2093
vn 0.2576 -0.9662 0.0064
vn 0.2413 -0.9424 0.2316
vn -0.5155 0.5847 -0.6264
vn -0.5896 0.7260 -0.3539
vn -0.6313 0.7754 -0.0166
vn -0.6167 0.7262 0.3036
vn -0.5508 0.5622 0.6170
vn 0.6285 -0.7556 -0.1845
vn 0.6196 -0.7849 0.0086
vn 0.6026 -0.7671 0.2201
vn -0.5696 0.7031 -0.4257
vn -0.7159 0.6625 -0.2204
vn -0.7846 0.6196 -0.0215
vn -0.7668 0.5743 0.2869
vn -0.6315 0.4795 0.6093
vn 0.6282 -0.7515 -0.2015
vn 0.6922 -0.7215 0.0181
vn 0.6725 -0.7027 0.2322
vn -0.9757 -0.2174 -0.0267
vn -0.2548 0.9670 -0.0064
vn 0.6097 0.2414 -0.7550
vn 0.1734 0.0941 -0.9804
vn -0.9216 -0.2310 -0.3121
vn -0.8306 -0.1929 0.5224
vn -0.0436 0.0832 0.9956
vn 0.4064 0.2554 0.8773
vn 0.2548 -0.9670 0.0064
vn 0.6159 0.2053 -0.7606
vn 0.1674 0.1541 -0.9738
vn -0.9316 -0.1859 -0.3123
vn -0.8104 -0.3291 0.4848
vn 0.0437 -0.2377 0.9704
vn 0.6589 -0.0998 0.7456
vn 0.9485 0.3159 -0.0236
vn 0.9757 0.2180 0.0227
vn 0.9560 0.2918 0.0307
vn 0.9564 0.2912 0.0207
vn 0.9756 0.2196 0.0071
vn 0.4929 -0.6597 -0.5673
vn 0.5894 -0.7602 -0.2733
vn 0.6354 -0.7709 0.0439
vn 0.5669 -0.7772 0.2731
vn 0.4578 -0.7033 0.5438
vn -0.4927 0.8502 -0.1855
vn -0.5481 0.8357 -0.0328
vn -0.5541 0.8157 0.1661
vn 0.4528 -0.5254 -0.7204
vn 0.5031 -0.7578 -0.4155
vn 0.5009 -0.8651 0.0278
vn 0.4781 -0.7738 0.4155
vn 0.4218 -0.5913 0.6873
vn -0.4761 0.8361 -0.2726
vn -0.4946 0.8684 -0.0339
vn -0.4948 0.8310 0.2541
vn 0.2013 -0.7204 -0.6637
vn 0.2392 -0.9020 -0.3595
vn 0.2510 -0.9677 0.0225
vn 0.2290 -0.9093 0.3475
vn 0.1808 -0.7470 0.6398
vn -0.2508 0.9678 -0.0225
vn -0.2542 0.9422 0.2181
vn -0.1916 -0.7513 -0.6315
vn -0.1696 -0.9340 -0.3143
vn -0.1638 -0.9865 -0.0028
vn -0.1630 -0.9289 0.3324
vn -0.1646 -0.8022 0.5740
vn 0.1570 0.9658 -0.2064
vn 0.1534 0.9882 -0.0031
vn 0.1689 0.9651 0.2002
vn -0.2964 -0.7330 -0.6123
vn -0.3832 -0.8658 -0.3219
vn -0.3855 -0.9227 0.0052
vn -0.3672 -0.8787 0.3050
vn -0.2697 -0.7687 0.5799
vn 0.2450 0.9469 -0.2082
vn 0.2504 0.9681 -0.0101
vn 0.1753 0.9610 0.2139
vn -0.9647 -0.2629 -0.0121
vn -0.9760 -0.2161 -0.0271
vn -0.9488 -0.3145 -0.0300
vn -0.9355 -0.3527 -0.0227
vn -0.9620 -0.2728 -0.0145
vn -0.9649 -0.2611 0.0263
vn -0.9655 -0.2570 -0.0423
vn -0.9658 -0.2562 -0.0399
vn -0.9693 -0.2458 -0.0069
vn -0.9680 -0.2487 -0.0345
vn -0.4509 -0.3881 -0.8038
vn -0.3614 -0.0250 -0.9321
vn -0.5814 0.2231 -0.7824
vn -0.9301 0.3673 -0.0093
vn -0.5990 0.0989 0.7946
vn -0.3533 -0.1660 0.9207
vn -0.4184 -0.4869 0.7667
vn -0.6283 -0.7774 -0.0296
vn 0.0714 -0.2441 -0.9671
vn -0.0819 0.3679 -0.9262
vn -0.2557 0.9667 -0.0071
vn 0.0819 -0.3679 0.9263
vn 0.2560 -0.9666 0.0064
vn 0.2153 -0.1925 -0.9574
vn 0.1062 0.1046 -0.9888
vn 0.0547 0.4033 -0.9134
vn 0.1738 0.2999 0.9380
vn 0.2227 -0.0230 0.9746
vn 0.3159 -0.2957 0.9016
vn 0.9659 0.2589 0.0099
vn 0.9658 0.2593 0.0043
vn 0.9709 0.2394 0.0069
vn 0.9542 0.2975 0.0326
vn 0.9874 0.1482 0.0558
vn 0.9264 0.3764 0.0060
vn 0.1391 0.7294 -0.6698
vn 0.1673 0.9071 -0.3863
vn 0.1776 0.9841 -0.0029
vn 0.1401 0.9479 0.2859
vn 0.0888 0.8189 0.5670
vn -0.0794 -0.9814 -0.1749
vn -0.0237 -0.9813 0.1910
vn 0.0671 0.7841 -0.6170
vn 0.0189 0.9435 -0.3308
vn 0.0132 0.9997 -0.0198
vn 0.0510 0.9091 0.4134
vn 0.1111 0.6766 0.7279
vn -0.0146 -0.9647 -0.2630
vn -0.0019 -1.0000 0.0044
vn -0.0282 -0.9749 0.2207
vn -0.1898 0.7449 -0.6396
vn -0.2298 0.9041 -0.3603
vn -0.2573 0.9661 -0.0223
vn -0.2407 0.9087 0.3412
vn 0.2542 -0.9422 -0.2181
vn 0.2508 -0.9678 0.0227
vn 0.2415 -0.9423 0.2319
vn -0.5166 0.6192 -0.5914
vn -0.5874 0.7339 -0.3410
vn -0.6292 0.7772 -0.0087
vn -0.6226 0.7103 0.3284
vn -0.5498 0.5341 0.6422
vn 0.6186 -0.7590 -0.2028
vn 0.6217 -0.7831 0.0163
vn 0.6121 -0.7535 0.2397
vn -0.5906 0.5356 -0.6035
vn -0.7379 0.5948 -0.3190
vn -0.7843 0.6201 -0.0204
vn -0.7357 0.6524 0.1820
vn -0.6094 0.6658 0.4306
vn 0.6956 -0.7107 -0.1055
vn 0.6950 -0.7186 0.0257
vn 0.6038 -0.7847 0.1401
vn -0.9756 -0.2196 -0.0071
vn -0.9622 -0.2712 -0.0261
vn -0.9755 -0.2182 -0.0266
vn -0.9817 -0.1889 -0.0234
vn -0.9619 -0.2733 -0.0056
vn -0.2363 0.9670 -0.0954
vn -0.2492 0.9665 0.0613
vn -0.3559 0.9345 -0.0071
vn 0.4372 0.2007 -0.8767
vn 0.1000 0.1085 -0.9891
vn -0.8715 -0.2377 -0.4290
vn -0.7463 -0.1448 0.6496
vn -0.0410 0.0828 0.9957
vn 0.5844 0.2889 0.7583
vn 0.2606 -0.9602 0.1003
vn 0.2739 -0.9567 -0.0987
vn 0.2196 -0.9756 0.0062
vn 0.4496 0.1758 -0.8757
vn 0.1013 0.0989 -0.9899
vn -0.8617 -0.1785 -0.4749
vn -0.6535 -0.3061 0.6922
vn 0.0553 -0.2284 0.9720
vn 0.4451 -0.1188 0.8876
s 0
usemtl LIGHT_BLUE
f 82//9 78//9 76//9
f 76//10 84//10 83//10
f 77//11 85//11 84//11
f 87//13 86//13 78//13
f 88//14 87//14 79//14
f 81//15 89//15 88//15
f 82//16 90//16 89//16
f 75//17 83//17 90//17
f 84//18 92//18 91//18
f 85//19 93//19 92//19
f 95//21 94//21 86//21
f 96//22 95//22 87//22
f 97//23 96//23 88//23
f 90//24 98//24 97//24
f 83//25 91//25 98//25
f 92//26 100//26 99//26
f 101//27 100//27 92//27
f 103//29 102//29 94//29
f 96//30 104//30 103//30
f 105//31 104//31 96//31
f 106//32 105//32 97//32
f 99//33 106//33 98//33
f 108//34 107//34 99//34
f 109//35 108//35 100//35
f 103//37 111//37 110//37
f 104//38 112//38 111//38
f 113//39 112//39 104//39
f 114//40 113//40 105//40
f 107//41 114//41 106//41
f 116//42 115//42 107//42
f 117//43 116//43 108//43
f 111//45 119//45 118//45
f 112//46 120//46 119//46
f 121//47 120//47 112//47
f 122//48 121//48 113//48
f 115//49 122//49 114//49
f 119//50 122//50 117//50
f 136//56 135//56 127//56
f 130//58 138//58 137//58
f 136//64 144//64 143//64
f 146//66 145//66 137//66
f 144//72 151//72 150//72
f 147//74 152//74 145//74
f 157//77 160//77 155//77
f 154//78 153//78 161//78
f 155//79 154//79 162//79
f 156//81 164//81 165//81
f 157//82 165//82 166//82
f 158//83 166//83 167//83
f 159//84 167//84 168//84
f 160//85 168//85 161//85
f 162//86 161//86 169//86
f 163//87 162//87 170//87
f 164//89 172//89 173//89
f 165//90 173//90 174//90
f 166//91 174//91 175//91
f 167//92 175//92 176//92
f 161//93 168//93 176//93
f 169//94 177//94 178//94
f 171//95 170//95 178//95
f 173//97 172//97 180//97
f 173//98 181//98 182//98
f 174//99 182//99 183//99
f 175//100 183//100 184//100
f 169//101 176//101 184//101
f 177//102 185//102 186//102
f 178//103 186//103 187//103
f 181//105 180//105 188//105
f 182//106 181//106 189//106
f 183//107 182//107 190//107
f 184//108 183//108 191//108
f 177//109 184//109 192//109
f 185//110 193//110 194//110
f 186//111 194//111 195//111
f 189//113 188//113 196//113
f 190//114 189//114 197//114
f 191//115 190//115 198//115
f 192//116 191//116 199//116
f 185//117 192//117 200//117
f 200//118 196//118 194//118
f 201//119 203//119 205//119
f 201//120 207//120 208//120
f 202//121 208//121 209//121
f 203//122 209//122 210//122
f 204//123 210//123 211//123
f 206//124 205//124 211//124
f 201//125 206//125 212//125
f 213//126 217//126 215//126
f 220//127 219//127 213//127
f 221//128 220//128 214//128
f 216//129 222//129 221//129
f 217//130 223//130 222//130
f 218//131 224//131 223//131
f 219//132 224//132 218//132
f 78//133 80//133 79//133
f 78//134 81//134 80//134
f 76//135 78//135 77//135
f 82//136 76//136 75//136
f 78//137 82//137 81//137
f 76//138 83//138 75//138
f 77//139 84//139 76//139
f 87//141 78//141 79//141
f 88//142 79//142 80//142
f 81//143 88//143 80//143
f 82//144 89//144 81//144
f 75//145 90//145 82//145
f 84//146 91//146 83//146
f 85//147 92//147 84//147
f 95//149 86//149 87//149
f 96//150 87//150 88//150
f 97//151 88//151 89//151
f 90//152 97//152 89//152
f 83//153 98//153 90//153
f 92//154 99//154 91//154
f 101//155 92//155 93//155
f 103//157 94//157 95//157
f 96//158 103//158 95//158
f 105//31 96//31 97//31
f 106//159 97//159 98//159
f 99//160 98//160 91//160
f 108//161 99//161 100//161
f 109//162 100//162 101//162
f 103//164 110//164 102//164
f 104//165 111//165 103//165
f 113//166 104//166 105//166
f 114//167 105//167 106//167
f 107//168 106//168 99//168
f 116//169 107//169 108//169
f 117//170 108//170 109//170
f 111//172 118//172 110//172
f 112//173 119//173 111//173
f 121//174 112//174 113//174
f 122//175 113//175 114//175
f 115//176 114//176 107//176
f 121//177 119//177 120//177
f 119//178 117//178 118//178
f 117//179 115//179 116//179
f 122//180 119//180 121//180
f 117//181 122//181 115//181
f 136//191 127//191 128//191
f 130//193 137//193 129//193
f 136//64 143//64 135//64
f 146//198 137//198 138//198
f 144//203 150//203 143//203
f 147//205 145//205 146//205
f 159//136 157//136 158//136
f 157//209 155//209 156//209
f 155//210 153//210 154//210
f 160//211 157//211 159//211
f 155//134 160//134 153//134
f 154//212 161//212 162//212
f 155//213 162//213 163//213
f 156//215 165//215 157//215
f 157//216 166//216 158//216
f 158//217 167//217 159//217
f 159//84 168//84 160//84
f 160//218 161//218 153//218
f 162//219 169//219 170//219
f 163//220 170//220 171//220
f 164//222 173//222 165//222
f 165//223 174//223 166//223
f 166//224 175//224 167//224
f 167//225 176//225 168//225
f 161//226 176//226 169//226
f 169//227 178//227 170//227
f 171//228 178//228 179//228
f 173//230 180//230 181//230
f 173//98 182//98 174//98
f 174//231 183//231 175//231
f 175//232 184//232 176//232
f 169//233 184//233 177//233
f 177//234 186//234 178//234
f 178//235 187//235 179//235
f 181//237 188//237 189//237
f 182//238 189//238 190//238
f 183//239 190//239 191//239
f 184//240 191//240 192//240
f 177//241 192//241 185//241
f 185//242 194//242 186//242
f 186//243 195//243 187//243
f 189//245 196//245 197//245
f 190//246 197//246 198//246
f 191//247 198//247 199//247
f 192//248 199//248 200//248
f 185//249 200//249 193//249
f 196//250 198//250 197//250
f 196//251 199//251 198//251
f 194//252 196//252 195//252
f 200//253 194//253 193//253
f 196//254 200//254 199//254
f 203//255 201//255 202//255
f 201//256 205//256 206//256
f 205//257 203//257 204//257
f 201//258 208//258 202//258
f 202//259 209//259 203//259
f 203//260 210//260 204//260
f 204//261 211//261 205//261
f 206//262 211//262 212//262
f 201//263 212//263 207//263
f 217//264 213//264 218//264
f 213//265 215//265 214//265
f 215//266 217//266 216//266
f 220//267 213//267 214//267
f 221//268 214//268 215//268
f 216//269 221//269 215//269
f 217//270 222//270 216//270
f 218//271 223//271 217//271
f 219//272 218//272 213//272
usemtl BLACK
f 86//12 85//12 77//12
f 94//20 93//20 85//20
f 94//28 102//28 101//28
f 102//36 110//36 109//36
f 110//44 118//44 117//44
f 156//80 155//80 163//80
f 164//88 163//88 171//88
f 171//96 179//96 180//96
f 179//104 187//104 188//104
f 187//112 195//112 196//112
f 86//140 77//140 78//140
f 94//148 85//148 86//148
f 94//156 101//156 93//156
f 102//163 109//163 101//163
f 110//171 117//171 109//171
f 156//214 163//214 164//214
f 164//221 171//221 172//221
f 171//229 180//229 172//229
f 179//236 188//236 180//236
f 187//244 196//244 188//244
usemtl ORANGE
f 124//51 128//51 126//51
f 128//182 130//182 129//182
f 130//183 124//183 123//183
f 124//184 126//184 125//184
f 126//185 128//185 127//185
f 128//186 124//186 130//186
usemtl GREY
f 132//52 131//52 123//52
f 133//53 132//53 124//53
f 126//54 134//54 133//54
f 127//55 135//55 134//55
f 137//57 136//57 128//57
f 123//59 131//59 138//59
f 132//60 140//60 139//60
f 133//61 141//61 140//61
f 134//62 142//62 141//62
f 143//63 142//63 134//63
f 145//65 144//65 136//65
f 131//67 139//67 146//67
f 140//68 148//68 147//68
f 141//69 149//69 148//69
f 150//70 149//70 141//70
f 150//71 142//71 143//71
f 145//73 152//73 151//73
f 147//75 146//75 139//75
f 147//76 149//76 151//76
f 132//187 123//187 124//187
f 133//188 124//188 125//188
f 126//189 133//189 125//189
f 127//190 134//190 126//190
f 137//192 128//192 129//192
f 123//194 138//194 130//194
f 132//195 139//195 131//195
f 133//61 140//61 132//61
f 134//196 141//196 133//196
f 143//197 134//197 135//197
f 145//65 136//65 137//65
f 131//199 146//199 138//199
f 140//200 147//200 139//200
f 141//201 148//201 140//201
f 150//202 141//202 142//202
f 145//204 151//204 144//204
f 149//206 147//206 148//206
f 147//207 151//207 152//207
f 151//208 149//208 150//208
o talojota
v -115.496094 -117.621094 16.949219
v -82.191406 -117.621094 16.949219
v -82.191406 -106.925781 16.949219
v -115.496094 -106.925781 16.949219
v -115.496094 -117.621094 0.089844
v -82.191406 -117.621094 0.089844
v -82.191406 -106.925781 0.089844
v -115.496094 -106.925781 0.089844
vn -0.0000 -0.0000 1.0000
vn -0.0000 -1.0000 -0.0000
vn 1.0000 -0.0000 -0.0000
vn -0.0000 1.0000 -0.0000
vn -1.0000 -0.0000 -0.0000
vn -0.0000 -0.0000 -1.0000
s 0
usemtl DEFAULT
f 226//273 228//273 225//273
f 229//274 226//274 225//274
f 230//275 227//275 226//275
f 231//276 228//276 227//276
f 232//277 225//277 228//277
f 232//278 230//278 229//278
f 226//273 227//273 228//273
f 229//274 230//274 226//274
f 230//275 231//275 227//275
f 231//276 232//276 228//276
f 232//277 229//277 225//277
f 232//278 231//278 230//278
