# Blender 3.6.5
# www.blender.org
mtllib U2E_anim67.mtl
o CameraBox
v -98.960800 -138.213379 5.042082
v -98.996277 -138.410049 5.049903
v -98.963020 -138.205032 5.241886
v -98.998505 -138.401703 5.249708
v -98.763977 -138.248749 5.045751
v -98.799461 -138.445419 5.053573
v -98.766205 -138.240402 5.245555
v -98.801682 -138.437073 5.253376
vn -0.9841 0.1768 -0.0183
vn -0.0111 0.0417 0.9991
vn 0.9841 -0.1768 0.0183
vn 0.0111 -0.0417 -0.9991
vn 0.1774 0.9834 -0.0391
vn -0.1774 -0.9834 0.0391
s 0
usemtl None
f 2//1 3//1 1//1
f 8//3 5//3 7//3
f 6//4 1//4 5//4
f 4//6 6//6 8//6
f 2//1 4//1 3//1
f 8//3 6//3 5//3
f 6//4 2//4 1//4
f 4//6 2//6 6//6
usemtl UpDir
f 4//2 7//2 3//2
f 4//2 8//2 7//2
usemtl LookingDir
f 7//5 1//5 3//5
f 7//5 5//5 1//5
o _laatta01
v -97.656250 -7.812500 0.128906
v -97.656250 11.718750 0.128906
v -54.687500 11.718750 0.128906
v -54.687500 -7.812500 0.128906
v -50.781250 11.718750 0.128906
v 39.062500 11.718750 0.128906
v 39.062500 -7.812500 0.128906
v -50.781250 -7.812500 0.128906
v -101.562500 11.718750 0.128906
v -101.562500 -31.250000 0.128906
v -117.187500 -31.250000 0.128906
v -117.187500 11.718750 0.128906
v -117.187500 -82.031250 0.128906
v -101.562500 -82.031250 0.128906
v -101.562500 -105.468750 0.128906
v -78.125000 -105.468750 0.128906
v -78.125000 -125.000000 0.128906
v -117.187500 -125.000000 0.128906
vn -0.0000 -0.0000 1.0000
s 0
usemtl WHITE#NEON
f 12//7 10//7 9//7
f 16//7 14//7 13//7
f 20//7 18//7 17//7
f 25//7 23//7 26//7
f 21//7 23//7 22//7
f 12//7 11//7 10//7
f 16//7 15//7 14//7
f 20//7 19//7 18//7
f 25//7 24//7 23//7
f 21//7 26//7 23//7
o fcirto01
v -95.593750 -117.921875 11.671875
v -95.593750 -117.921875 9.718750
v -97.546875 -117.921875 9.718750
v -97.546875 -117.921875 11.671875
v -95.593750 -117.921875 7.765625
v -95.593750 -117.921875 5.812500
v -97.546875 -117.921875 5.812500
v -97.546875 -117.921875 7.765625
v -95.593750 -117.921875 3.859375
v -95.593750 -117.921875 1.906250
v -97.546875 -117.921875 1.906250
v -97.546875 -117.921875 3.859375
v -99.500000 -117.921875 7.765625
v -99.500000 -117.921875 5.812500
v -101.453125 -117.921875 5.812500
v -101.453125 -117.921875 7.765625
v -99.500000 -117.921875 3.859375
v -99.500000 -117.921875 1.906250
v -101.453125 -117.921875 1.906250
v -101.453125 -117.921875 3.859375
v -99.500000 -117.921875 11.671875
v -99.500000 -117.921875 9.718750
v -101.453125 -117.921875 9.718750
v -101.453125 -117.921875 11.671875
v -87.519531 -117.921875 11.671875
v -87.519531 -117.921875 9.718750
v -89.472656 -117.921875 9.718750
v -89.472656 -117.921875 11.671875
v -87.519531 -117.921875 7.765625
v -87.519531 -117.921875 5.812500
v -89.472656 -117.921875 5.812500
v -89.472656 -117.921875 7.765625
v -87.519531 -117.921875 3.859375
v -87.519531 -117.921875 1.906250
v -89.472656 -117.921875 1.906250
v -89.472656 -117.921875 3.859375
v -91.425781 -117.921875 7.765625
v -91.425781 -117.921875 5.812500
v -93.378906 -117.921875 5.812500
v -93.378906 -117.921875 7.765625
v -91.425781 -117.921875 3.859375
v -91.425781 -117.921875 1.906250
v -93.378906 -117.921875 1.906250
v -93.378906 -117.921875 3.859375
v -91.425781 -117.921875 11.671875
v -91.425781 -117.921875 9.718750
v -93.378906 -117.921875 9.718750
v -93.378906 -117.921875 11.671875
vn -0.0000 -1.0000 -0.0000
s 0
usemtl C_GROUND
f 30//8 28//8 27//8
f 34//8 32//8 31//8
f 38//8 36//8 35//8
f 42//8 40//8 39//8
f 46//8 44//8 43//8
f 50//8 48//8 47//8
f 54//8 52//8 51//8
f 58//8 56//8 55//8
f 62//8 60//8 59//8
f 66//8 64//8 63//8
f 70//8 68//8 67//8
f 74//8 72//8 71//8
f 30//8 29//8 28//8
f 34//8 33//8 32//8
f 38//8 37//8 36//8
f 42//8 41//8 40//8
f 46//8 45//8 44//8
f 50//8 49//8 48//8
f 54//8 53//8 52//8
f 58//8 57//8 56//8
f 62//8 61//8 60//8
f 66//8 65//8 64//8
f 70//8 69//8 68//8
f 74//8 73//8 72//8
o s01
v -91.107513 -128.056686 4.325933
v -91.083038 -128.122162 4.420848
v -91.069946 -128.166138 4.566618
v -91.076248 -128.162750 4.715863
v -91.092102 -128.117004 4.872634
v -91.118423 -128.050354 4.978103
v -91.097946 -128.095459 4.723132
v -91.095383 -128.100067 4.573859
v -91.543503 -128.358536 4.229383
v -91.501160 -128.479980 4.340505
v -91.475159 -128.564819 4.521996
v -91.478088 -128.559998 4.710560
v -91.514984 -128.475342 4.906207
v -91.560776 -128.348755 5.038656
v -91.526505 -128.435318 4.721180
v -91.519836 -128.438950 4.532643
v -92.272522 -128.858337 4.060565
v -92.226990 -128.990692 4.218935
v -92.200348 -129.078949 4.459395
v -92.207581 -129.074951 4.710797
v -92.242523 -128.984985 4.969304
v -92.296036 -128.848145 5.144847
v -92.254654 -128.941605 4.721378
v -92.247437 -128.945618 4.469976
v -92.838287 -129.065125 4.052651
v -92.796448 -129.198700 4.207064
v -92.767319 -129.282013 4.451448
v -92.773346 -129.281738 4.702883
v -92.809448 -129.188065 4.957428
v -92.861816 -129.054932 5.136933
v -92.820450 -129.148392 4.713465
v -92.818130 -129.149857 4.462003
v -93.407578 -129.033234 4.129766
v -93.365433 -129.154510 4.264463
v -93.339737 -129.239197 4.477387
v -93.346664 -129.235382 4.697357
v -93.380081 -129.149353 4.920535
v -93.426086 -129.022629 5.076558
v -93.391312 -129.109528 4.704074
v -93.384399 -129.113327 4.488034
v -93.751572 -129.011581 4.173641
v -93.727402 -129.076874 4.303918
v -93.714783 -129.120544 4.500766
v -93.721512 -129.116867 4.697160
v -93.741531 -129.072052 4.901053
v -93.768173 -129.005188 5.041883
v -93.746933 -129.050781 4.704402
v -93.740173 -129.054504 4.504078
v -93.565125 -128.387543 4.568605
v -93.612885 -128.250809 4.520218
v -93.713165 -127.977844 4.541288
v -93.765717 -127.841629 4.610746
v -93.766754 -127.840965 4.724689
v -93.718979 -127.977722 4.769148
v -93.618698 -128.250671 4.748078
v -93.569855 -128.388092 4.678593
v -93.169922 -128.656860 4.487346
v -93.283630 -128.339706 4.398008
v -93.513123 -127.704102 4.447220
v -93.630112 -127.381897 4.585737
v -93.635925 -127.381760 4.813598
v -93.522232 -127.698898 4.902935
v -93.292694 -128.334534 4.849793
v -93.171982 -128.655548 4.711304
v -92.772873 -128.512619 4.490147
v -92.886612 -128.195465 4.404738
v -93.116119 -127.559837 4.453951
v -93.231903 -127.241371 4.592501
v -93.238922 -127.237503 4.820328
v -93.125214 -127.554649 4.909665
v -92.895676 -128.190277 4.856524
v -92.778671 -128.512482 4.718007
v -91.945694 -127.907730 4.580663
v -92.012894 -127.723564 4.543609
v -92.145813 -127.362114 4.571724
v -92.209061 -127.179863 4.640816
v -92.146851 -127.361450 4.685668
v -92.013947 -127.722900 4.657553
v -91.660797 -126.531166 4.445592
v -91.683411 -126.463318 4.551088
v -91.704193 -126.415039 4.707799
v -91.709274 -126.415375 4.857077
v -91.696198 -126.459343 5.002846
v -91.671692 -126.524834 5.097761
v -91.683853 -126.481461 4.849835
v -91.682480 -126.482330 4.700530
v -92.186127 -126.581306 4.366405
v -92.236877 -126.452156 4.502724
v -92.270020 -126.366295 4.698398
v -92.271713 -126.365219 4.883065
v -92.246948 -126.446350 5.064524
v -92.203415 -126.571495 5.179608
v -92.227081 -126.491074 4.876347
v -92.225357 -126.492172 4.687751
v -93.069901 -126.664749 4.236972
v -93.119720 -126.526718 4.412542
v -93.158356 -126.437943 4.671022
v -93.161835 -126.432770 4.918522
v -93.135239 -126.520996 5.162911
v -93.089676 -126.653389 5.317352
v -93.114746 -126.566109 4.907941
v -93.107559 -126.570091 4.660468
v -93.636871 -126.867805 4.229025
v -93.685471 -126.733505 4.404628
v -93.725342 -126.640999 4.663075
v -93.727615 -126.639557 4.910608
v -93.702194 -126.724060 5.154965
v -93.656631 -126.856445 5.309405
v -93.680527 -126.772911 4.900027
v -93.678253 -126.774353 4.652494
v -94.050217 -127.255966 4.270719
v -94.101151 -127.126717 4.426682
v -94.134567 -127.040695 4.649860
v -94.140305 -127.040611 4.869862
v -94.115814 -127.121552 5.082753
v -94.072464 -127.246590 5.217483
v -94.095612 -127.166481 4.859215
v -94.089890 -127.166565 4.639213
v -94.304871 -127.486053 4.297229
v -94.327774 -127.418022 4.434157
v -94.348984 -127.369469 4.638018
v -94.354538 -127.369499 4.838374
v -94.341919 -127.413177 5.035222
v -94.321457 -127.479683 5.161542
v -94.329132 -127.435577 4.831132
v -94.326080 -127.440483 4.630781
v -92.824707 -128.532532 4.591956
v -92.879028 -128.554398 4.560148
v -93.129364 -128.643463 4.526935
v -93.154739 -128.655228 4.585714
v -93.130188 -128.642944 4.617304
v -92.879608 -128.554031 4.623014
v -92.552444 -129.021851 4.613017
v -92.622559 -129.044968 4.549635
v -92.933472 -129.162033 4.484593
v -92.971786 -129.173309 4.606123
v -92.936356 -129.157227 4.669228
v -92.623718 -129.044235 4.675366
v -93.284927 -127.257538 4.694277
v -93.340454 -127.275673 4.662437
v -93.589569 -127.368477 4.629256
v -93.619904 -127.377708 4.687975
v -93.590408 -127.367950 4.719625
v -93.341003 -127.275330 4.721374
v -93.392075 -126.709885 4.796207
v -93.458511 -126.731773 4.736782
v -93.769348 -126.848862 4.667810
v -93.807693 -126.860130 4.789340
v -93.775970 -126.845253 4.852418
v -93.463348 -126.732269 4.858557
vn 0.9383 0.3449 0.0258
vn 0.5323 -0.4629 -0.7088
vn 0.6668 -0.6339 -0.3918
vn 0.6994 -0.7141 0.0292
vn 0.6406 -0.6534 0.4035
vn 0.5039 -0.5308 0.6815
vn -0.5975 0.7549 -0.2704
vn -0.6213 0.7827 -0.0370
vn -0.5880 0.7693 0.2499
vn 0.5139 -0.5798 -0.6323
vn 0.5634 -0.7534 -0.3389
vn 0.5764 -0.8166 0.0296
vn 0.5423 -0.7681 0.3406
vn 0.4835 -0.6128 0.6251
vn -0.5693 0.7893 -0.2298
vn -0.5695 0.8215 -0.0294
vn -0.5852 0.7850 0.2032
vn 0.2667 -0.6919 -0.6709
vn 0.3290 -0.8812 -0.3396
vn 0.3432 -0.9392 0.0092
vn 0.3148 -0.8754 0.3668
vn 0.2608 -0.7375 0.6230
vn -0.3309 0.9142 -0.2341
vn -0.3432 0.9392 -0.0086
vn -0.3323 0.9202 0.2069
vn -0.1292 -0.7567 -0.6409
vn -0.1080 -0.9282 -0.3561
vn -0.0807 -0.9966 0.0148
vn -0.0858 -0.9339 0.3471
vn -0.1100 -0.7872 0.6069
vn 0.0791 0.9724 -0.2194
vn 0.0682 0.9976 -0.0153
vn 0.0727 0.9743 0.2131
vn -0.1111 -0.8966 -0.4287
vn -0.2261 -0.9539 -0.1972
vn -0.3014 -0.9535 0.0076
vn -0.2151 -0.9580 0.1895
vn -0.0881 -0.9062 0.4136
vn 0.0636 0.9895 -0.1297
vn 0.1629 0.9866 -0.0127
vn 0.1673 0.9784 0.1213
vn -0.9336 -0.3578 -0.0190
vn -0.9381 -0.3459 -0.0204
vn -0.4299 -0.3843 -0.8170
vn -0.3612 -0.0584 -0.9307
vn -0.5877 0.1299 -0.7986
vn -0.9602 0.2783 -0.0246
vn -0.5941 0.0136 0.8043
vn -0.3412 -0.2000 0.9185
vn -0.3900 -0.4845 0.7830
vn -0.5632 -0.8263 -0.0004
vn 0.0984 -0.2257 -0.9692
vn -0.0099 0.0737 -0.9972
vn -0.1120 0.3619 -0.9255
vn -0.3323 0.9428 -0.0262
vn -0.1020 0.2357 0.9665
vn 0.0118 -0.0791 0.9968
vn 0.1141 -0.3571 0.9271
vn 0.3414 -0.9399 0.0092
vn 0.2167 -0.1160 -0.9693
vn 0.0971 0.1126 -0.9889
vn 0.0383 0.3658 -0.9299
vn -0.0591 0.9981 -0.0187
vn 0.1594 0.2878 0.9443
vn 0.2180 0.0042 0.9759
vn 0.3383 -0.2523 0.9066
vn 0.5891 -0.8079 0.0155
vn 0.9388 0.3444 0.0066
vn 0.9522 0.3049 0.0200
vn 0.0012 0.8412 -0.5408
vn 0.0445 0.9564 -0.2887
vn 0.0857 0.9963 0.0051
vn 0.0997 0.9134 0.3947
vn 0.0965 0.6917 0.7157
vn 0.0447 -0.9648 -0.2593
vn 0.0180 -0.9998 0.0060
vn 0.0112 -0.9632 0.2685
vn 0.0307 0.7313 -0.6814
vn -0.0356 0.9129 -0.4066
vn -0.0802 0.9968 -0.0065
vn -0.0574 0.9370 0.3445
vn 0.0080 0.7604 0.6494
vn 0.0573 -0.9757 -0.2115
vn 0.0849 -0.9962 0.0185
vn 0.0761 -0.9584 0.2751
vn -0.2537 0.7332 -0.6309
vn -0.3172 0.8814 -0.3501
vn -0.3371 0.9414 -0.0086
vn -0.3256 0.8774 0.3522
vn -0.2582 0.6945 0.6715
vn 0.3324 -0.9201 -0.2071
vn 0.3432 -0.9392 0.0086
vn 0.3247 -0.9165 0.2337
vn -0.5655 0.5347 -0.6279
vn -0.6522 0.6695 -0.3557
vn -0.6983 0.7156 -0.0185
vn -0.6796 0.6686 0.3019
vn -0.5993 0.5118 0.6155
vn 0.6939 -0.6965 -0.1826
vn 0.6875 -0.7261 0.0105
vn 0.6689 -0.7095 0.2219
vn -0.6302 0.6482 -0.4274
vn -0.7723 0.5951 -0.2221
vn -0.8370 0.5467 -0.0231
vn -0.8153 0.5038 0.2853
vn -0.6723 0.4222 0.6081
vn 0.6932 -0.6925 -0.1996
vn 0.7541 -0.6564 0.0199
vn 0.7327 -0.6390 0.2339
vn -0.9523 -0.3041 -0.0266
vn -0.3405 0.9402 -0.0086
vn 0.5860 0.2935 -0.7553
vn 0.1648 0.1072 -0.9805
vn -0.8970 -0.3134 -0.3119
vn -0.8102 -0.2655 0.5225
vn -0.0515 0.0811 0.9954
vn 0.3814 0.2927 0.8769
vn 0.3405 -0.9402 0.0086
vn 0.5955 0.2581 -0.7608
vn 0.1534 0.1664 -0.9740
vn -0.9110 -0.2694 -0.3123
vn -0.7778 -0.3994 0.4852
vn 0.0643 -0.2308 0.9709
vn 0.6648 -0.0387 0.7460
vn 0.9163 0.3997 -0.0239
vn 0.9522 0.3047 0.0226
vn 0.9260 0.3764 0.0304
vn 0.9264 0.3759 0.0204
vn 0.9519 0.3063 0.0069
vn 0.5504 -0.6141 -0.5657
vn 0.6553 -0.7049 -0.2715
vn 0.7020 -0.7107 0.0458
vn 0.6342 -0.7226 0.2750
vn 0.5187 -0.6583 0.5455
vn -0.5668 0.8022 -0.1875
vn -0.6209 0.7831 -0.0348
vn -0.6251 0.7631 0.1642
vn 0.4985 -0.4842 -0.7191
vn 0.5692 -0.7105 -0.4137
vn 0.5765 -0.8166 0.0299
vn 0.5454 -0.7269 0.4173
vn 0.4728 -0.5496 0.6888
vn -0.5490 0.7895 -0.2745
vn -0.5705 0.8205 -0.0359
vn -0.5675 0.7838 0.2521
vn 0.2654 -0.7009 -0.6621
vn 0.3193 -0.8776 -0.3575
vn 0.3368 -0.9413 0.0247
vn 0.3095 -0.8843 0.3496
vn 0.2468 -0.7264 0.6415
vn -0.3366 0.9413 -0.0247
vn -0.3379 0.9161 0.2160
vn -0.1231 -0.7668 -0.6300
vn -0.0849 -0.9462 -0.3124
vn -0.0746 -0.9972 -0.0007
vn -0.0792 -0.9391 0.3344
vn -0.0923 -0.8125 0.5756
vn 0.0699 0.9755 -0.2085
vn 0.0642 0.9979 -0.0052
vn 0.0816 0.9768 0.1982
vn -0.2291 -0.7579 -0.6108
vn -0.3038 -0.8973 -0.3202
vn -0.3012 -0.9535 0.0070
vn -0.2871 -0.9075 0.3068
vn -0.2000 -0.7886 0.5815
vn 0.1591 0.9646 -0.2102
vn 0.1626 0.9866 -0.0121
vn 0.0883 0.9733 0.2119
vn -0.9373 -0.3484 -0.0119
vn -0.9527 -0.3029 -0.0269
vn -0.9167 -0.3984 -0.0297
vn -0.9000 -0.4352 -0.0223
vn -0.9336 -0.3580 -0.0143
vn -0.9376 -0.3466 0.0265
vn -0.9385 -0.3426 -0.0421
vn -0.9389 -0.3419 -0.0397
vn -0.9433 -0.3318 -0.0067
vn -0.9417 -0.3346 -0.0343
vn -0.4138 -0.4287 -0.8031
vn -0.3572 -0.0593 -0.9321
vn -0.5986 0.1684 -0.7831
vn -0.9593 0.2824 -0.0104
vn -0.6059 0.0465 0.7942
vn -0.3375 -0.1951 0.9209
vn -0.3735 -0.5208 0.7676
vn -0.5560 -0.8307 -0.0281
vn 0.0935 -0.2387 -0.9666
vn -0.1141 0.3571 -0.9271
vn -0.3414 0.9399 -0.0092
vn 0.3417 -0.9398 0.0086
vn 0.2322 -0.1744 -0.9569
vn 0.0969 0.1116 -0.9890
vn 0.0189 0.4046 -0.9143
vn 0.1457 0.3163 0.9374
vn 0.2233 -0.0008 0.9747
vn 0.3406 -0.2642 0.9023
vn 0.9387 0.3445 0.0097
vn 0.9386 0.3449 0.0041
vn 0.9455 0.3256 0.0068
vn 0.9236 0.3820 0.0323
vn 0.9701 0.2363 0.0559
vn 0.8889 0.4580 0.0055
vn 0.0735 0.7375 -0.6713
vn 0.0855 0.9176 -0.3881
vn 0.0886 0.9961 -0.0050
vn 0.0544 0.9573 0.2839
vn 0.0146 0.8248 0.5653
vn 0.0090 -0.9849 -0.1728
vn 0.0643 -0.9791 0.1931
vn -0.0032 0.7857 -0.6186
vn -0.0656 0.9407 -0.3328
vn -0.0765 0.9968 -0.0219
vn -0.0310 0.9109 0.4115
vn 0.0496 0.6854 0.7265
vn 0.0721 -0.9627 -0.2609
vn 0.0878 -0.9961 0.0066
vn 0.0592 -0.9731 0.2228
vn -0.2555 0.7235 -0.6413
vn -0.3098 0.8791 -0.3624
vn -0.3429 0.9391 -0.0244
vn -0.3214 0.8841 0.3391
vn 0.3379 -0.9161 -0.2160
vn 0.3366 -0.9413 0.0249
vn 0.3249 -0.9163 0.2340
vn -0.5698 0.5691 -0.5929
vn -0.6507 0.6775 -0.3428
vn -0.6963 0.7176 -0.0106
vn -0.6839 0.6523 0.3267
vn -0.5958 0.4840 0.6409
vn 0.6843 -0.7009 -0.2009
vn 0.6894 -0.7241 0.0183
vn 0.6771 -0.6951 0.2415
vn -0.6360 0.4792 -0.6049
vn -0.7881 0.5255 -0.3205
vn -0.8367 0.5472 -0.0220
vn -0.7913 0.5842 0.1804
vn -0.6669 0.6094 0.4289
vn 0.7566 -0.6457 -0.1037
vn 0.7566 -0.6533 0.0275
vn 0.6717 -0.7271 0.1420
vn -0.9519 -0.3063 -0.0069
vn -0.9340 -0.3564 -0.0259
vn -0.9520 -0.3049 -0.0265
vn -0.9608 -0.2763 -0.0233
vn -0.9335 -0.3585 -0.0054
vn -0.3221 0.9417 -0.0976
vn -0.3350 0.9404 0.0592
vn -0.4382 0.8988 -0.0092
vn 0.4179 0.2373 -0.8770
vn 0.0904 0.1149 -0.9893
vn -0.8464 -0.3158 -0.4288
vn -0.7307 -0.2098 0.6497
vn -0.0488 0.0809 0.9955
vn 0.5557 0.3418 0.7579
vn 0.3456 -0.9328 0.1025
vn 0.3587 -0.9285 -0.0965
vn 0.3062 -0.9519 0.0083
vn 0.4325 0.2136 -0.8760
vn 0.0926 0.1055 -0.9901
vn -0.8420 -0.2561 -0.4749
vn -0.6238 -0.3620 0.6927
vn 0.0750 -0.2204 0.9725
vn 0.4535 -0.0766 0.8880
s 0
usemtl LIGHT_BLUE
f 82//9 78//9 76//9
f 76//10 84//10 83//10
f 77//11 85//11 84//11
f 87//13 86//13 78//13
f 88//14 87//14 79//14
f 81//15 89//15 88//15
f 82//16 90//16 89//16
f 75//17 83//17 90//17
f 84//18 92//18 91//18
f 85//19 93//19 92//19
f 95//21 94//21 86//21
f 96//22 95//22 87//22
f 97//23 96//23 88//23
f 90//24 98//24 97//24
f 83//25 91//25 98//25
f 92//26 100//26 99//26
f 101//27 100//27 92//27
f 103//29 102//29 94//29
f 96//30 104//30 103//30
f 105//31 104//31 96//31
f 106//32 105//32 97//32
f 99//33 106//33 98//33
f 108//34 107//34 99//34
f 109//35 108//35 100//35
f 103//37 111//37 110//37
f 104//38 112//38 111//38
f 113//39 112//39 104//39
f 114//40 113//40 105//40
f 107//41 114//41 106//41
f 116//42 115//42 107//42
f 117//43 116//43 108//43
f 111//45 119//45 118//45
f 112//46 120//46 119//46
f 121//47 120//47 112//47
f 122//48 121//48 113//48
f 115//49 122//49 114//49
f 119//50 122//50 117//50
f 136//56 135//56 127//56
f 130//58 138//58 137//58
f 136//64 144//64 143//64
f 146//66 145//66 137//66
f 144//72 151//72 150//72
f 147//74 152//74 145//74
f 157//77 160//77 155//77
f 154//78 153//78 161//78
f 155//79 154//79 162//79
f 156//81 164//81 165//81
f 157//82 165//82 166//82
f 158//83 166//83 167//83
f 159//84 167//84 168//84
f 160//85 168//85 161//85
f 162//86 161//86 169//86
f 163//87 162//87 170//87
f 164//89 172//89 173//89
f 165//90 173//90 174//90
f 166//91 174//91 175//91
f 167//92 175//92 176//92
f 161//93 168//93 176//93
f 169//94 177//94 178//94
f 171//95 170//95 178//95
f 173//97 172//97 180//97
f 173//98 181//98 182//98
f 174//99 182//99 183//99
f 175//100 183//100 184//100
f 169//101 176//101 184//101
f 177//102 185//102 186//102
f 178//103 186//103 187//103
f 181//105 180//105 188//105
f 182//106 181//106 189//106
f 183//107 182//107 190//107
f 184//108 183//108 191//108
f 177//109 184//109 192//109
f 185//110 193//110 194//110
f 186//111 194//111 195//111
f 189//113 188//113 196//113
f 190//114 189//114 197//114
f 191//115 190//115 198//115
f 192//116 191//116 199//116
f 185//117 192//117 200//117
f 200//118 196//118 194//118
f 201//119 203//119 205//119
f 201//120 207//120 208//120
f 202//121 208//121 209//121
f 203//122 209//122 210//122
f 204//123 210//123 211//123
f 206//124 205//124 211//124
f 201//125 206//125 212//125
f 213//126 217//126 215//126
f 220//127 219//127 213//127
f 221//128 220//128 214//128
f 216//129 222//129 221//129
f 217//130 223//130 222//130
f 218//131 224//131 223//131
f 219//132 224//132 218//132
f 78//133 80//133 79//133
f 78//134 81//134 80//134
f 76//135 78//135 77//135
f 82//136 76//136 75//136
f 78//137 82//137 81//137
f 76//138 83//138 75//138
f 77//139 84//139 76//139
f 87//141 78//141 79//141
f 88//142 79//142 80//142
f 81//143 88//143 80//143
f 82//144 89//144 81//144
f 75//145 90//145 82//145
f 84//146 91//146 83//146
f 85//147 92//147 84//147
f 95//149 86//149 87//149
f 96//150 87//150 88//150
f 97//151 88//151 89//151
f 90//152 97//152 89//152
f 83//153 98//153 90//153
f 92//154 99//154 91//154
f 101//155 92//155 93//155
f 103//157 94//157 95//157
f 96//158 103//158 95//158
f 105//31 96//31 97//31
f 106//159 97//159 98//159
f 99//160 98//160 91//160
f 108//161 99//161 100//161
f 109//162 100//162 101//162
f 103//164 110//164 102//164
f 104//165 111//165 103//165
f 113//166 104//166 105//166
f 114//167 105//167 106//167
f 107//168 106//168 99//168
f 116//169 107//169 108//169
f 117//170 108//170 109//170
f 111//172 118//172 110//172
f 112//173 119//173 111//173
f 121//174 112//174 113//174
f 122//175 113//175 114//175
f 115//176 114//176 107//176
f 121//177 119//177 120//177
f 119//178 117//178 118//178
f 117//179 115//179 116//179
f 122//180 119//180 121//180
f 117//181 122//181 115//181
f 136//191 127//191 128//191
f 130//193 137//193 129//193
f 136//64 143//64 135//64
f 146//66 137//66 138//66
f 144//202 150//202 143//202
f 147//204 145//204 146//204
f 159//136 157//136 158//136
f 157//208 155//208 156//208
f 155//209 153//209 154//209
f 160//210 157//210 159//210
f 155//134 160//134 153//134
f 154//211 161//211 162//211
f 155//212 162//212 163//212
f 156//214 165//214 157//214
f 157//215 166//215 158//215
f 158//216 167//216 159//216
f 159//84 168//84 160//84
f 160//217 161//217 153//217
f 162//218 169//218 170//218
f 163//219 170//219 171//219
f 164//221 173//221 165//221
f 165//222 174//222 166//222
f 166//223 175//223 167//223
f 167//224 176//224 168//224
f 161//225 176//225 169//225
f 169//226 178//226 170//226
f 171//227 178//227 179//227
f 173//229 180//229 181//229
f 173//98 182//98 174//98
f 174//230 183//230 175//230
f 175//231 184//231 176//231
f 169//232 184//232 177//232
f 177//233 186//233 178//233
f 178//234 187//234 179//234
f 181//236 188//236 189//236
f 182//237 189//237 190//237
f 183//238 190//238 191//238
f 184//239 191//239 192//239
f 177//240 192//240 185//240
f 185//241 194//241 186//241
f 186//242 195//242 187//242
f 189//244 196//244 197//244
f 190//245 197//245 198//245
f 191//246 198//246 199//246
f 192//247 199//247 200//247
f 185//248 200//248 193//248
f 196//249 198//249 197//249
f 196//250 199//250 198//250
f 194//251 196//251 195//251
f 200//252 194//252 193//252
f 196//253 200//253 199//253
f 203//254 201//254 202//254
f 201//255 205//255 206//255
f 205//256 203//256 204//256
f 201//257 208//257 202//257
f 202//258 209//258 203//258
f 203//259 210//259 204//259
f 204//260 211//260 205//260
f 206//261 211//261 212//261
f 201//262 212//262 207//262
f 217//263 213//263 218//263
f 213//264 215//264 214//264
f 215//265 217//265 216//265
f 220//266 213//266 214//266
f 221//267 214//267 215//267
f 216//268 221//268 215//268
f 217//269 222//269 216//269
f 218//270 223//270 217//270
f 219//271 218//271 213//271
usemtl BLACK
f 86//12 85//12 77//12
f 94//20 93//20 85//20
f 94//28 102//28 101//28
f 102//36 110//36 109//36
f 110//44 118//44 117//44
f 156//80 155//80 163//80
f 164//88 163//88 171//88
f 171//96 179//96 180//96
f 179//104 187//104 188//104
f 187//112 195//112 196//112
f 86//140 77//140 78//140
f 94//148 85//148 86//148
f 94//156 101//156 93//156
f 102//163 109//163 101//163
f 110//171 117//171 109//171
f 156//213 163//213 164//213
f 164//220 171//220 172//220
f 171//228 180//228 172//228
f 179//235 188//235 180//235
f 187//243 196//243 188//243
usemtl ORANGE
f 124//51 128//51 126//51
f 128//182 130//182 129//182
f 130//183 124//183 123//183
f 124//184 126//184 125//184
f 126//185 128//185 127//185
f 128//186 124//186 130//186
usemtl GREY
f 132//52 131//52 123//52
f 133//53 132//53 124//53
f 126//54 134//54 133//54
f 127//55 135//55 134//55
f 137//57 136//57 128//57
f 123//59 131//59 138//59
f 132//60 140//60 139//60
f 133//61 141//61 140//61
f 134//62 142//62 141//62
f 143//63 142//63 134//63
f 145//65 144//65 136//65
f 131//67 139//67 146//67
f 140//68 148//68 147//68
f 141//69 149//69 148//69
f 150//70 149//70 141//70
f 150//71 142//71 143//71
f 145//73 152//73 151//73
f 147//75 146//75 139//75
f 147//76 149//76 151//76
f 132//187 123//187 124//187
f 133//188 124//188 125//188
f 126//189 133//189 125//189
f 127//190 134//190 126//190
f 137//192 128//192 129//192
f 123//194 138//194 130//194
f 132//195 139//195 131//195
f 133//61 140//61 132//61
f 134//196 141//196 133//196
f 143//197 134//197 135//197
f 145//65 136//65 137//65
f 131//198 146//198 138//198
f 140//199 147//199 139//199
f 141//200 148//200 140//200
f 150//201 141//201 142//201
f 145//203 151//203 144//203
f 149//205 147//205 148//205
f 147//206 151//206 152//206
f 151//207 149//207 150//207
o talojota
v -115.496094 -117.621094 16.949219
v -82.191406 -117.621094 16.949219
v -82.191406 -106.925781 16.949219
v -115.496094 -106.925781 16.949219
v -115.496094 -117.621094 0.089844
v -82.191406 -117.621094 0.089844
v -82.191406 -106.925781 0.089844
v -115.496094 -106.925781 0.089844
vn -0.0000 -0.0000 1.0000
vn -0.0000 -1.0000 -0.0000
vn 1.0000 -0.0000 -0.0000
vn -0.0000 1.0000 -0.0000
vn -1.0000 -0.0000 -0.0000
vn -0.0000 -0.0000 -1.0000
s 0
usemtl DEFAULT
f 226//272 228//272 225//272
f 229//273 226//273 225//273
f 230//274 227//274 226//274
f 231//275 228//275 227//275
f 232//276 225//276 228//276
f 232//277 230//277 229//277
f 226//272 227//272 228//272
f 229//273 230//273 226//273
f 230//274 231//274 227//274
f 231//275 232//275 228//275
f 232//276 229//276 225//276
f 232//277 231//277 230//277
