# Blender 3.6.5
# www.blender.org
mtllib U2E_anim100.mtl
o CameraBox
v -96.929420 -132.199951 5.101825
v -97.101669 -132.301315 5.109193
v -96.926643 -132.190155 5.301556
v -97.098892 -132.291519 5.308925
v -96.827820 -132.372086 5.108860
v -97.000069 -132.473450 5.116229
v -96.825043 -132.362289 5.308591
v -96.997292 -132.463654 5.315960
vn -0.5080 0.8606 -0.0352
vn 0.0139 0.0490 0.9987
vn 0.5080 -0.8606 0.0352
vn -0.0139 -0.0490 -0.9987
vn 0.8612 0.5068 -0.0368
vn -0.8612 -0.5068 0.0368
s 0
usemtl None
f 2//1 3//1 1//1
f 8//3 5//3 7//3
f 6//4 1//4 5//4
f 4//6 6//6 8//6
f 2//1 4//1 3//1
f 8//3 6//3 5//3
f 6//4 2//4 1//4
f 4//6 2//6 6//6
usemtl UpDir
f 4//2 7//2 3//2
f 4//2 8//2 7//2
usemtl LookingDir
f 7//5 1//5 3//5
f 7//5 5//5 1//5
o _L_pohja
v -74.218750 -58.593750 0.128906
v -54.687500 -58.593750 0.128906
v -54.687500 -105.468750 0.128906
v -31.250000 -105.468750 0.128906
v -31.250000 -125.000000 0.128906
v -74.218750 -125.000000 0.128906
vn -0.0000 -0.0000 1.0000
s 0
usemtl WHITE#NEON
f 13//7 11//7 14//7
f 9//7 11//7 10//7
f 13//7 12//7 11//7
f 9//7 14//7 11//7
o _laatta01
v -97.656250 -7.812500 0.128906
v -97.656250 11.718750 0.128906
v -54.687500 11.718750 0.128906
v -54.687500 -7.812500 0.128906
v -50.781250 11.718750 0.128906
v 39.062500 11.718750 0.128906
v 39.062500 -7.812500 0.128906
v -50.781250 -7.812500 0.128906
v -101.562500 11.718750 0.128906
v -101.562500 -31.250000 0.128906
v -117.187500 -31.250000 0.128906
v -117.187500 11.718750 0.128906
v -117.187500 -82.031250 0.128906
v -101.562500 -82.031250 0.128906
v -101.562500 -105.468750 0.128906
v -78.125000 -105.468750 0.128906
v -78.125000 -125.000000 0.128906
v -117.187500 -125.000000 0.128906
vn -0.0000 -0.0000 1.0000
s 0
usemtl WHITE#NEON
f 18//8 16//8 15//8
f 22//8 20//8 19//8
f 26//8 24//8 23//8
f 31//8 29//8 32//8
f 27//8 29//8 28//8
f 18//8 17//8 16//8
f 22//8 21//8 20//8
f 26//8 25//8 24//8
f 31//8 30//8 29//8
f 27//8 32//8 29//8
o Building08_1
v -23.886719 -120.796875 35.941406
v -12.167969 -120.796875 35.941406
v -12.167969 -109.078125 35.941406
v -23.886719 -109.078125 35.941406
v -23.886719 -120.796875 0.785156
v -12.167969 -120.796875 0.785156
v -12.167969 -109.078125 0.785156
v -23.886719 -109.078125 0.785156
vn -0.0000 -0.0000 1.0000
vn -0.0000 -1.0000 -0.0000
vn 1.0000 -0.0000 -0.0000
vn -0.0000 1.0000 -0.0000
vn -1.0000 -0.0000 -0.0000
vn -0.0000 -0.0000 -1.0000
s 0
usemtl BLUE#PLASTIC
f 34//9 36//9 33//9
f 37//10 34//10 33//10
f 38//11 35//11 34//11
f 39//12 36//12 35//12
f 40//13 33//13 36//13
f 40//14 38//14 37//14
f 34//9 35//9 36//9
f 37//10 38//10 34//10
f 38//11 39//11 35//11
f 39//12 40//12 36//12
f 40//13 37//13 33//13
f 40//14 39//14 38//14
o s01
v -81.555191 -123.822151 4.702546
v -81.502487 -123.868332 4.797343
v -81.469467 -123.900436 4.943061
v -81.475540 -123.899475 5.092351
v -81.509613 -123.865379 5.249183
v -81.563034 -123.817886 5.354776
v -81.525864 -123.849838 5.099705
v -81.522537 -123.853577 4.950423
v -81.802643 -124.292046 4.610457
v -81.708084 -124.379448 4.721392
v -81.644455 -124.441620 4.902781
v -81.647919 -124.437622 5.091355
v -81.718384 -124.378540 5.287188
v -81.816589 -124.286774 5.419836
v -81.748459 -124.349449 5.102206
v -81.742249 -124.350662 4.913624
v -82.218750 -125.073456 4.449092
v -82.115967 -125.168808 4.607262
v -82.049774 -125.233345 4.847617
v -82.056198 -125.231720 5.099067
v -82.126923 -125.166679 5.357730
v -82.236404 -125.069153 5.533525
v -82.159576 -125.135254 5.109854
v -82.153137 -125.136879 4.858403
v -82.624588 -125.518646 4.446656
v -82.524551 -125.616814 4.600905
v -82.458420 -125.675781 4.845153
v -82.462036 -125.676910 5.096631
v -82.535538 -125.609146 5.351337
v -82.642273 -125.514351 5.531089
v -82.565430 -125.580444 5.107418
v -82.564529 -125.582100 4.855948
v -83.143433 -125.753403 4.528882
v -83.048950 -125.840645 4.663392
v -82.985428 -125.902611 4.876214
v -82.991745 -125.901184 5.096231
v -83.059555 -125.839134 5.319560
v -83.157867 -125.747215 5.475783
v -83.089523 -125.810257 5.103144
v -83.083221 -125.811653 4.887057
v -83.458038 -125.893173 4.575840
v -83.405457 -125.939125 4.706000
v -83.372620 -125.970886 4.902798
v -83.378860 -125.969627 5.099239
v -83.415848 -125.938004 5.303230
v -83.469391 -125.890259 5.444185
v -83.431931 -125.922760 5.106601
v -83.425674 -125.924057 4.906230
v -83.578751 -125.251480 4.968059
v -83.684708 -125.152634 4.919879
v -83.899780 -124.956970 4.941405
v -84.008911 -124.860146 5.011111
v -84.009308 -124.859390 5.125058
v -83.903336 -124.958252 5.169308
v -83.688263 -125.153915 5.147782
v -83.581879 -125.253540 5.078085
v -83.104370 -125.307755 4.883664
v -83.352600 -125.079750 4.794835
v -83.849854 -124.622253 4.845071
v -84.101685 -124.390007 4.984109
v -84.105225 -124.391289 5.212012
v -83.857010 -124.619286 5.300841
v -83.359741 -125.076805 5.246675
v -83.105164 -125.306282 5.107629
v -82.819168 -124.996124 4.882622
v -83.067383 -124.768097 4.797722
v -83.564636 -124.310608 4.847959
v -83.813690 -124.081100 4.987025
v -83.820038 -124.079628 5.214900
v -83.571808 -124.307625 5.303729
v -83.074524 -124.765152 5.249562
v -82.822723 -124.997398 5.110525
v -82.365250 -124.076584 4.964622
v -82.510330 -123.944641 4.927875
v -82.795242 -123.685593 4.956594
v -82.935150 -123.552925 5.025955
v -82.795639 -123.684845 5.070541
v -82.510727 -123.943893 5.041822
v -82.750839 -122.725258 4.824686
v -82.801498 -122.674973 4.930270
v -82.841125 -122.640907 5.087082
v -82.844391 -122.642708 5.236401
v -82.811371 -122.674812 5.382118
v -82.758667 -122.720993 5.476916
v -82.791336 -122.689568 5.229039
v -82.790802 -122.690552 5.079729
v -83.193832 -123.013275 4.750353
v -83.297607 -122.921516 4.886911
v -83.365326 -122.859650 5.082735
v -83.365982 -122.858429 5.267408
v -83.305145 -122.917847 5.448769
v -83.207794 -123.007973 5.563661
v -83.268204 -122.949364 5.260495
v -83.267532 -122.950607 5.071893
v -83.939560 -123.497002 4.629084
v -84.046326 -123.396690 4.804869
v -84.119781 -123.334427 5.063541
v -84.123474 -123.330048 5.311053
v -84.057266 -123.394562 5.555338
v -83.954468 -123.489944 5.709578
v -84.020096 -123.426521 5.300267
v -84.013672 -123.428123 5.052746
v -84.348206 -123.939445 4.626619
v -84.452164 -123.841896 4.802433
v -84.528427 -123.776886 5.061077
v -84.529312 -123.775253 5.308618
v -84.465897 -123.837013 5.552874
v -84.363113 -123.932396 5.707114
v -84.425934 -123.871719 5.297831
v -84.425064 -123.873352 5.050291
v -84.534637 -124.474594 4.672707
v -84.638474 -124.382698 4.828911
v -84.706284 -124.320648 5.052239
v -84.709808 -124.321983 5.272285
v -84.649078 -124.381195 5.485079
v -84.551804 -124.471199 5.619617
v -84.612015 -124.412941 5.261441
v -84.608490 -124.411606 5.041397
v -84.653687 -124.796257 4.701909
v -84.704468 -124.745773 4.838927
v -84.744263 -124.711395 5.042890
v -84.747711 -124.712860 5.243288
v -84.714874 -124.744629 5.440085
v -84.665024 -124.793381 5.566325
v -84.694656 -124.759712 5.235926
v -84.691132 -124.763786 5.035564
v -82.855133 -125.037170 4.984930
v -82.893402 -125.081894 4.953653
v -83.074326 -125.276878 4.922861
v -83.090927 -125.298729 4.981887
v -83.074646 -125.276283 5.013233
v -82.893631 -125.081482 5.016521
v -82.387177 -125.344810 5.004333
v -82.439087 -125.398117 4.941628
v -82.660965 -125.646141 4.879604
v -82.688828 -125.673172 5.001496
v -82.664429 -125.642166 5.064250
v -82.439545 -125.397285 5.067363
v -83.852463 -124.119400 5.089305
v -83.893524 -124.161354 5.058001
v -84.071640 -124.359108 5.027236
v -84.093811 -124.380981 5.086243
v -84.071960 -124.358513 5.117608
v -83.893723 -124.160965 5.116939
v -84.200165 -123.682945 5.191293
v -84.249359 -123.733437 5.132510
v -84.471222 -123.981491 5.066556
v -84.499100 -124.008514 5.188448
v -84.477402 -123.980301 5.251210
v -84.252533 -123.735420 5.254324
vn 0.6723 0.7401 0.0167
vn 0.6809 -0.1680 -0.7128
vn 0.8816 -0.2555 -0.3968
vn 0.9507 -0.3092 0.0240
vn 0.8731 -0.2804 0.3987
vn 0.6972 -0.2334 0.6778
vn -0.8810 0.3912 -0.2662
vn -0.9133 0.4061 -0.0327
vn -0.8754 0.4113 0.2539
vn 0.7192 -0.2797 -0.6360
vn 0.8457 -0.4090 -0.3428
vn 0.8891 -0.4570 0.0257
vn 0.8387 -0.4279 0.3369
vn 0.7167 -0.3159 0.6217
vn -0.8717 0.4349 -0.2260
vn -0.8852 0.4644 -0.0256
vn -0.8806 0.4261 0.2072
vn 0.5518 -0.4937 -0.6721
vn 0.6970 -0.6308 -0.3411
vn 0.7390 -0.6737 0.0077
vn 0.6869 -0.6282 0.3654
vn 0.5771 -0.5295 0.6218
vn -0.7181 0.6559 -0.2326
vn -0.7390 0.6737 -0.0071
vn -0.7189 0.6631 0.2083
vn 0.2310 -0.7342 -0.6385
vn 0.3313 -0.8748 -0.3536
vn 0.3898 -0.9207 0.0171
vn 0.3587 -0.8656 0.3494
vn 0.2712 -0.7452 0.6091
vn -0.3815 0.8974 -0.2218
vn -0.4014 0.9157 -0.0176
vn -0.3850 0.8985 0.2108
vn 0.3134 -0.8486 -0.4262
vn 0.2397 -0.9514 -0.1935
vn 0.1742 -0.9846 0.0119
vn 0.2541 -0.9477 0.1930
vn 0.3443 -0.8417 0.4158
vn -0.4025 0.9058 -0.1319
vn -0.3123 0.9499 -0.0159
vn -0.3037 0.9454 0.1181
vn -0.6621 -0.7494 -0.0099
vn -0.6716 -0.7409 -0.0113
vn -0.2091 -0.5442 -0.8125
vn -0.2999 -0.2242 -0.9272
vn -0.5869 -0.1614 -0.7934
vn -0.9801 -0.1978 -0.0164
vn -0.5270 -0.2584 0.8096
vn -0.2032 -0.3300 0.9219
vn -0.1158 -0.6055 0.7873
vn -0.1167 -0.9931 0.0061
vn 0.1847 -0.1600 -0.9697
vn -0.0501 0.0551 -0.9972
vn -0.2735 0.2637 -0.9250
vn -0.7311 0.6818 -0.0248
vn -0.1925 0.1672 0.9670
vn 0.0543 -0.0590 0.9968
vn 0.2731 -0.2585 0.9266
vn 0.7377 -0.6751 0.0077
vn 0.2387 -0.0080 -0.9711
vn 0.0267 0.1391 -0.9899
vn -0.1421 0.3367 -0.9308
vn -0.5145 0.8573 -0.0199
vn 0.0149 0.3343 0.9424
vn 0.1984 0.1102 0.9739
vn 0.4232 -0.0619 0.9039
vn 0.8962 -0.4434 0.0115
vn 0.6728 0.7398 -0.0025
vn 0.7030 0.7111 0.0108
vn -0.3922 0.7432 -0.5421
vn -0.4053 0.8667 -0.2907
vn -0.3851 0.9229 0.0027
vn -0.3315 0.8580 0.3923
vn -0.2294 0.6619 0.7136
vn 0.4843 -0.8360 -0.2581
vn 0.4788 -0.8779 0.0075
vn 0.4577 -0.8471 0.2700
vn -0.3162 0.6586 -0.6828
vn -0.4570 0.7905 -0.4078
vn -0.5325 0.8464 -0.0075
vn -0.4820 0.8060 0.3435
vn -0.3401 0.6814 0.6481
vn 0.5008 -0.8396 -0.2104
vn 0.5365 -0.8437 0.0194
vn 0.5131 -0.8128 0.2760
vn -0.5688 0.5289 -0.6298
vn -0.6917 0.6325 -0.3487
vn -0.7346 0.6785 -0.0071
vn -0.6922 0.6291 0.3537
vn -0.5454 0.5000 0.6727
vn 0.7190 -0.6629 -0.2086
vn 0.7390 -0.6737 0.0071
vn 0.7137 -0.6608 0.2323
vn -0.7534 0.2087 -0.6236
vn -0.8905 0.2896 -0.3508
vn -0.9503 0.3110 -0.0133
vn -0.9097 0.2799 0.3069
vn -0.7636 0.1798 0.6201
vn 0.9361 -0.2973 -0.1878
vn 0.9455 -0.3255 0.0055
vn 0.9229 -0.3181 0.2170
vn -0.8617 0.2806 -0.4228
vn -0.9617 0.1688 -0.2161
vn -0.9951 0.0971 -0.0164
vn -0.9538 0.0709 0.2919
vn -0.7869 0.0665 0.6135
vn 0.9336 -0.2942 -0.2048
vn 0.9724 -0.2328 0.0142
vn 0.9470 -0.2260 0.2283
vn -0.7036 -0.7104 -0.0174
vn -0.7371 0.6758 -0.0071
vn 0.3781 0.5271 -0.7611
vn 0.0893 0.1657 -0.9821
vn -0.6523 -0.6947 -0.3032
vn -0.5915 -0.6074 0.5303
vn -0.0759 0.0537 0.9957
vn 0.2089 0.4410 0.8729
vn 0.7371 -0.6758 0.0071
vn 0.4028 0.5001 -0.7666
vn 0.0519 0.2130 -0.9757
vn -0.6851 -0.6622 -0.3035
vn -0.5011 -0.7113 0.4929
vn 0.1709 -0.1693 0.9706
vn 0.6126 0.2776 0.7400
vn 0.6271 0.7782 -0.0329
vn 0.7032 0.7109 0.0134
vn 0.6468 0.7624 0.0214
vn 0.6474 0.7621 0.0113
vn 0.7021 0.7121 -0.0022
vn 0.7680 -0.2928 -0.5696
vn 0.9052 -0.3231 -0.2762
vn 0.9515 -0.3049 0.0406
vn 0.8986 -0.3455 0.2704
vn 0.7685 -0.3404 0.5419
vn -0.8751 0.4477 -0.1837
vn -0.9131 0.4066 -0.0305
vn -0.9061 0.3880 0.1686
vn 0.6607 -0.2026 -0.7228
vn 0.8304 -0.3687 -0.4177
vn 0.8891 -0.4569 0.0260
vn 0.8229 -0.3896 0.4136
vn 0.6785 -0.2645 0.6854
vn -0.8540 0.4442 -0.2708
vn -0.8857 0.4631 -0.0321
vn -0.8640 0.4336 0.2560
vn 0.5549 -0.5022 -0.6633
vn 0.6867 -0.6322 -0.3589
vn 0.7344 -0.6784 0.0232
vn 0.6862 -0.6387 0.3482
vn 0.5596 -0.5260 0.6404
vn -0.7342 0.6785 -0.0232
vn -0.7219 0.6569 0.2175
vn 0.2412 -0.7403 -0.6276
vn 0.3604 -0.8798 -0.3100
vn 0.3954 -0.9185 0.0016
vn 0.3669 -0.8672 0.3366
vn 0.2984 -0.7597 0.5778
vn -0.3911 0.8959 -0.2107
vn -0.4051 0.9143 -0.0075
vn -0.3783 0.9047 0.1958
vn 0.1432 -0.7814 -0.6074
vn 0.1437 -0.9378 -0.3159
vn 0.1744 -0.9846 0.0114
vn 0.1678 -0.9355 0.3109
vn 0.1919 -0.7883 0.5846
vn -0.3069 0.9275 -0.2132
vn -0.3126 0.9498 -0.0152
vn -0.3707 0.9048 0.2095
vn -0.6696 -0.7427 -0.0028
vn -0.7045 -0.7095 -0.0178
vn -0.6284 -0.7776 -0.0207
vn -0.5965 -0.8025 -0.0134
vn -0.6619 -0.7495 -0.0052
vn -0.6705 -0.7410 0.0356
vn -0.6737 -0.7383 -0.0330
vn -0.6743 -0.7378 -0.0306
vn -0.6827 -0.7307 0.0024
vn -0.6801 -0.7327 -0.0252
vn -0.1743 -0.5761 -0.7986
vn -0.2960 -0.2232 -0.9288
vn -0.6143 -0.1323 -0.7779
vn -0.9811 -0.1937 -0.0022
vn -0.5528 -0.2347 0.7996
vn -0.2022 -0.3239 0.9242
vn -0.0844 -0.6302 0.7718
vn -0.1086 -0.9938 -0.0217
vn 0.1864 -0.1738 -0.9670
vn -0.2731 0.2585 -0.9266
vn -0.7377 0.6751 -0.0077
vn 0.7379 -0.6749 0.0071
vn 0.2796 -0.0525 -0.9587
vn 0.0271 0.1382 -0.9900
vn -0.1772 0.3622 -0.9151
vn -0.0104 0.3531 0.9355
vn 0.2055 0.1081 0.9727
vn 0.4308 -0.0715 0.8996
vn 0.6728 0.7399 0.0006
vn 0.6724 0.7401 -0.0050
vn 0.6875 0.7262 -0.0023
vn 0.6421 0.7662 0.0233
vn 0.7509 0.6587 0.0467
vn 0.5760 0.8175 -0.0033
vn 0.7032 0.7109 0.0135
vn -0.2811 0.6840 -0.6732
vn -0.3518 0.8508 -0.3904
vn -0.3825 0.9239 -0.0074
vn -0.3928 0.8754 0.2818
vn -0.3646 0.7411 0.5638
vn 0.4626 -0.8699 -0.1712
vn 0.5116 -0.8370 0.1941
vn -0.3709 0.6915 -0.6199
vn -0.4960 0.8016 -0.3338
vn -0.5294 0.8481 -0.0229
vn -0.4461 0.7955 0.4102
vn -0.2680 0.6346 0.7249
vn 0.5076 -0.8215 -0.2599
vn 0.5389 -0.8423 0.0075
vn 0.5045 -0.8339 0.2238
vn -0.5660 0.5195 -0.6402
vn -0.6841 0.6338 -0.3610
vn -0.7388 0.6736 -0.0229
vn -0.6916 0.6369 0.3406
vn 0.7219 -0.6569 -0.2175
vn 0.7342 -0.6785 0.0234
vn 0.7138 -0.6606 0.2325
vn -0.7727 0.2374 -0.5887
vn -0.8929 0.2975 -0.3380
vn -0.9495 0.3138 -0.0054
vn -0.9058 0.2636 0.3318
vn -0.7475 0.1570 0.6455
vn 0.9296 -0.3057 -0.2060
vn 0.9464 -0.3227 0.0132
vn 0.9237 -0.3014 0.2365
vn -0.7899 0.1270 -0.5999
vn -0.9441 0.0993 -0.3142
vn -0.9951 0.0977 -0.0153
vn -0.9705 0.1526 0.1866
vn -0.8700 0.2340 0.4339
vn 0.9687 -0.2228 -0.1095
vn 0.9732 -0.2288 0.0217
vn 0.9330 -0.3329 0.1371
vn -0.7021 -0.7121 0.0022
vn -0.6631 -0.7484 -0.0168
vn -0.7030 -0.7110 -0.0173
vn -0.7239 -0.6897 -0.0141
vn -0.6616 -0.7499 0.0037
vn -0.7220 0.6851 -0.0962
vn -0.7317 0.6789 0.0606
vn -0.8045 0.5939 -0.0068
vn 0.2542 0.3988 -0.8811
vn 0.0197 0.1381 -0.9902
vn -0.6072 -0.6741 -0.4206
vn -0.5459 -0.5205 0.6566
vn -0.0734 0.0548 0.9958
vn 0.3399 0.5645 0.7522
vn 0.7388 -0.6663 0.1009
vn 0.7470 -0.6576 -0.0983
vn 0.7121 -0.7021 0.0071
vn 0.2782 0.3846 -0.8802
vn 0.0260 0.1307 -0.9911
vn -0.6313 -0.6194 -0.4668
vn -0.3804 -0.6057 0.6989
vn 0.1756 -0.1552 0.9722
vn 0.4439 0.1470 0.8840
s 0
usemtl LIGHT_BLUE
f 48//15 44//15 42//15
f 42//16 50//16 49//16
f 43//17 51//17 50//17
f 53//19 52//19 44//19
f 54//20 53//20 45//20
f 47//21 55//21 54//21
f 48//22 56//22 55//22
f 41//23 49//23 56//23
f 50//24 58//24 57//24
f 51//25 59//25 58//25
f 61//27 60//27 52//27
f 62//28 61//28 53//28
f 63//29 62//29 54//29
f 56//30 64//30 63//30
f 49//31 57//31 64//31
f 58//32 66//32 65//32
f 67//33 66//33 58//33
f 69//35 68//35 60//35
f 62//36 70//36 69//36
f 71//37 70//37 62//37
f 72//38 71//38 63//38
f 65//39 72//39 64//39
f 74//40 73//40 65//40
f 75//41 74//41 66//41
f 69//43 77//43 76//43
f 70//44 78//44 77//44
f 79//45 78//45 70//45
f 80//46 79//46 71//46
f 73//47 80//47 72//47
f 82//48 81//48 73//48
f 83//49 82//49 74//49
f 77//51 85//51 84//51
f 78//52 86//52 85//52
f 87//53 86//53 78//53
f 88//54 87//54 79//54
f 81//55 88//55 80//55
f 85//56 88//56 83//56
f 102//62 101//62 93//62
f 96//64 104//64 103//64
f 102//70 110//70 109//70
f 112//72 111//72 103//72
f 110//78 117//78 116//78
f 113//80 118//80 111//80
f 123//83 126//83 121//83
f 120//84 119//84 127//84
f 121//85 120//85 128//85
f 122//87 130//87 131//87
f 123//88 131//88 132//88
f 124//89 132//89 133//89
f 125//90 133//90 134//90
f 126//91 134//91 127//91
f 128//92 127//92 135//92
f 129//93 128//93 136//93
f 130//95 138//95 139//95
f 131//96 139//96 140//96
f 132//97 140//97 141//97
f 133//98 141//98 142//98
f 127//99 134//99 142//99
f 135//100 143//100 144//100
f 137//101 136//101 144//101
f 139//103 138//103 146//103
f 139//104 147//104 148//104
f 140//105 148//105 149//105
f 141//106 149//106 150//106
f 135//107 142//107 150//107
f 143//108 151//108 152//108
f 144//109 152//109 153//109
f 147//111 146//111 154//111
f 148//112 147//112 155//112
f 149//113 148//113 156//113
f 150//114 149//114 157//114
f 143//115 150//115 158//115
f 151//116 159//116 160//116
f 152//117 160//117 161//117
f 155//119 154//119 162//119
f 156//120 155//120 163//120
f 157//121 156//121 164//121
f 158//122 157//122 165//122
f 151//123 158//123 166//123
f 166//124 162//124 160//124
f 167//125 169//125 171//125
f 167//126 173//126 174//126
f 168//127 174//127 175//127
f 169//128 175//128 176//128
f 170//129 176//129 177//129
f 172//130 171//130 177//130
f 167//131 172//131 178//131
f 179//132 183//132 181//132
f 186//133 185//133 179//133
f 187//134 186//134 180//134
f 182//135 188//135 187//135
f 183//136 189//136 188//136
f 184//137 190//137 189//137
f 185//138 190//138 184//138
f 44//139 46//139 45//139
f 44//140 47//140 46//140
f 42//141 44//141 43//141
f 48//142 42//142 41//142
f 44//143 48//143 47//143
f 42//144 49//144 41//144
f 43//145 50//145 42//145
f 53//147 44//147 45//147
f 54//148 45//148 46//148
f 47//149 54//149 46//149
f 48//150 55//150 47//150
f 41//151 56//151 48//151
f 50//152 57//152 49//152
f 51//153 58//153 50//153
f 61//155 52//155 53//155
f 62//156 53//156 54//156
f 63//157 54//157 55//157
f 56//158 63//158 55//158
f 49//159 64//159 56//159
f 58//160 65//160 57//160
f 67//161 58//161 59//161
f 69//163 60//163 61//163
f 62//164 69//164 61//164
f 71//37 62//37 63//37
f 72//165 63//165 64//165
f 65//166 64//166 57//166
f 74//167 65//167 66//167
f 75//168 66//168 67//168
f 69//170 76//170 68//170
f 70//171 77//171 69//171
f 79//172 70//172 71//172
f 80//173 71//173 72//173
f 73//174 72//174 65//174
f 82//175 73//175 74//175
f 83//176 74//176 75//176
f 77//178 84//178 76//178
f 78//179 85//179 77//179
f 87//180 78//180 79//180
f 88//181 79//181 80//181
f 81//182 80//182 73//182
f 87//183 85//183 86//183
f 85//184 83//184 84//184
f 83//185 81//185 82//185
f 88//186 85//186 87//186
f 83//187 88//187 81//187
f 102//197 93//197 94//197
f 96//199 103//199 95//199
f 102//70 109//70 101//70
f 112//72 103//72 104//72
f 110//208 116//208 109//208
f 113//210 111//210 112//210
f 125//142 123//142 124//142
f 123//214 121//214 122//214
f 121//215 119//215 120//215
f 126//216 123//216 125//216
f 121//217 126//217 119//217
f 120//218 127//218 128//218
f 121//219 128//219 129//219
f 122//221 131//221 123//221
f 123//222 132//222 124//222
f 124//223 133//223 125//223
f 125//90 134//90 126//90
f 126//224 127//224 119//224
f 128//225 135//225 136//225
f 129//226 136//226 137//226
f 130//228 139//228 131//228
f 131//229 140//229 132//229
f 132//230 141//230 133//230
f 133//231 142//231 134//231
f 127//232 142//232 135//232
f 135//233 144//233 136//233
f 137//234 144//234 145//234
f 139//236 146//236 147//236
f 139//104 148//104 140//104
f 140//237 149//237 141//237
f 141//238 150//238 142//238
f 135//239 150//239 143//239
f 143//240 152//240 144//240
f 144//241 153//241 145//241
f 147//243 154//243 155//243
f 148//244 155//244 156//244
f 149//245 156//245 157//245
f 150//246 157//246 158//246
f 143//247 158//247 151//247
f 151//248 160//248 152//248
f 152//249 161//249 153//249
f 155//251 162//251 163//251
f 156//252 163//252 164//252
f 157//253 164//253 165//253
f 158//254 165//254 166//254
f 151//255 166//255 159//255
f 162//256 164//256 163//256
f 162//257 165//257 164//257
f 160//258 162//258 161//258
f 166//259 160//259 159//259
f 162//260 166//260 165//260
f 169//261 167//261 168//261
f 167//262 171//262 172//262
f 171//263 169//263 170//263
f 167//264 174//264 168//264
f 168//265 175//265 169//265
f 169//266 176//266 170//266
f 170//267 177//267 171//267
f 172//268 177//268 178//268
f 167//269 178//269 173//269
f 183//270 179//270 184//270
f 179//271 181//271 180//271
f 181//272 183//272 182//272
f 186//273 179//273 180//273
f 187//274 180//274 181//274
f 182//275 187//275 181//275
f 183//276 188//276 182//276
f 184//277 189//277 183//277
f 185//278 184//278 179//278
usemtl BLACK
f 52//18 51//18 43//18
f 60//26 59//26 51//26
f 60//34 68//34 67//34
f 68//42 76//42 75//42
f 76//50 84//50 83//50
f 122//86 121//86 129//86
f 130//94 129//94 137//94
f 137//102 145//102 146//102
f 145//110 153//110 154//110
f 153//118 161//118 162//118
f 52//146 43//146 44//146
f 60//154 51//154 52//154
f 60//162 67//162 59//162
f 68//169 75//169 67//169
f 76//177 83//177 75//177
f 122//220 129//220 130//220
f 130//227 137//227 138//227
f 137//235 146//235 138//235
f 145//242 154//242 146//242
f 153//250 162//250 154//250
usemtl ORANGE
f 90//57 94//57 92//57
f 94//188 96//188 95//188
f 96//189 90//189 89//189
f 90//190 92//190 91//190
f 92//191 94//191 93//191
f 94//192 90//192 96//192
usemtl GREY
f 98//58 97//58 89//58
f 99//59 98//59 90//59
f 92//60 100//60 99//60
f 93//61 101//61 100//61
f 103//63 102//63 94//63
f 89//65 97//65 104//65
f 98//66 106//66 105//66
f 99//67 107//67 106//67
f 100//68 108//68 107//68
f 109//69 108//69 100//69
f 111//71 110//71 102//71
f 97//73 105//73 112//73
f 106//74 114//74 113//74
f 107//75 115//75 114//75
f 116//76 115//76 107//76
f 116//77 108//77 109//77
f 111//79 118//79 117//79
f 113//81 112//81 105//81
f 113//82 115//82 117//82
f 98//193 89//193 90//193
f 99//194 90//194 91//194
f 92//195 99//195 91//195
f 93//196 100//196 92//196
f 103//198 94//198 95//198
f 89//200 104//200 96//200
f 98//201 105//201 97//201
f 99//67 106//67 98//67
f 100//202 107//202 99//202
f 109//203 100//203 101//203
f 111//71 102//71 103//71
f 97//204 112//204 104//204
f 106//205 113//205 105//205
f 107//206 114//206 106//206
f 116//207 107//207 108//207
f 111//209 117//209 110//209
f 115//211 113//211 114//211
f 113//212 117//212 118//212
f 117//213 115//213 116//213
o sivutalo
v -55.019531 -109.093750 17.003906
v -33.535156 -109.093750 17.003906
v -33.535156 -120.812500 17.003906
v -55.019531 -120.812500 17.003906
v -55.019531 -109.093750 0.113281
v -33.535156 -109.093750 0.113281
v -33.535156 -120.812500 0.113281
v -55.019531 -120.812500 0.113281
vn -0.0000 -0.0000 1.0000
vn -0.0000 1.0000 -0.0000
vn 1.0000 -0.0000 -0.0000
vn -0.0000 -1.0000 -0.0000
vn -1.0000 -0.0000 -0.0000
vn -0.0000 -0.0000 -1.0000
s 0
usemtl DEFAULT
f 194//279 192//279 191//279
f 192//280 195//280 191//280
f 193//281 196//281 192//281
f 194//282 197//282 193//282
f 191//283 198//283 194//283
f 198//284 196//284 197//284
f 194//279 193//279 192//279
f 192//280 196//280 195//280
f 193//281 197//281 196//281
f 194//282 198//282 197//282
f 191//283 195//283 198//283
f 198//284 195//284 196//284
o talojota
v -115.496094 -117.621094 16.949219
v -82.191406 -117.621094 16.949219
v -82.191406 -106.925781 16.949219
v -115.496094 -106.925781 16.949219
v -115.496094 -117.621094 0.089844
v -82.191406 -117.621094 0.089844
v -82.191406 -106.925781 0.089844
v -115.496094 -106.925781 0.089844
vn -0.0000 -0.0000 1.0000
vn -0.0000 -1.0000 -0.0000
vn 1.0000 -0.0000 -0.0000
vn -0.0000 1.0000 -0.0000
vn -1.0000 -0.0000 -0.0000
vn -0.0000 -0.0000 -1.0000
s 0
usemtl DEFAULT
f 200//285 202//285 199//285
f 203//286 200//286 199//286
f 204//287 201//287 200//287
f 205//288 202//288 201//288
f 206//289 199//289 202//289
f 206//290 204//290 203//290
f 200//285 201//285 202//285
f 203//286 204//286 200//286
f 204//287 205//287 201//287
f 205//288 206//288 202//288
f 206//289 203//289 199//289
f 206//290 205//290 204//290
o tunneli2
v -70.199219 -120.886719 0.125000
v -70.199219 -105.371094 0.125000
v -70.199219 -105.371094 35.449219
v -70.199219 -120.886719 35.449219
v -57.882812 -120.886719 0.125000
v -57.882812 -105.371094 0.125000
v -57.882812 -105.371094 35.449219
v -57.882812 -120.886719 35.449219
vn -1.0000 -0.0000 -0.0000
vn -0.0000 -0.0000 -1.0000
vn -0.0000 1.0000 -0.0000
vn -0.0000 -0.0000 1.0000
vn -0.0000 -1.0000 -0.0000
vn 1.0000 -0.0000 -0.0000
s 0
usemtl DEFAULT
f 210//291 208//291 207//291
f 208//292 211//292 207//292
f 209//293 212//293 208//293
f 210//294 213//294 209//294
f 207//295 214//295 210//295
f 212//296 214//296 211//296
f 210//291 209//291 208//291
f 208//292 212//292 211//292
f 209//293 213//293 212//293
f 210//294 214//294 213//294
f 207//295 211//295 214//295
f 212//296 213//296 214//296
