# Blender 3.6.5
# www.blender.org
o KDETAIL04
v 68.156998 -59.257706 28.535156
v 77.828011 -59.257706 28.535156
v 77.828011 -58.628906 28.535156
v 68.156998 -58.628906 28.535156
v 68.156998 -59.257706 27.964844
v 77.828011 -59.257706 27.964844
v 77.828011 -58.628906 27.964844
v 68.156998 -58.628906 27.964844
v 68.156998 -58.355976 28.636719
v 68.802391 -58.355976 28.636719
v 68.802391 -54.272011 28.636719
v 68.156998 -54.272011 28.636719
v 68.156998 -58.355976 27.972656
v 68.802391 -58.355976 27.972656
v 68.802391 -54.272011 27.972656
v 68.156998 -54.272011 27.972656
v 68.156998 -46.761185 28.535156
v 77.828011 -46.761185 28.535156
v 77.828011 -46.135624 28.535156
v 68.156998 -46.135624 28.535156
v 68.156998 -46.761185 27.964844
v 77.828011 -46.761185 27.964844
v 77.828011 -46.135624 27.964844
v 68.156998 -46.135624 27.964844
v 74.022408 -49.192947 28.636719
v 74.395653 -49.705936 28.636719
v 77.815353 -47.344116 28.636719
v 77.442108 -46.831131 28.636719
v 74.022408 -49.192947 27.972656
v 74.395653 -49.705936 27.972656
v 77.815353 -47.344116 27.972656
v 77.442108 -46.831131 27.972656
v 74.371414 -49.815147 28.532881
v 74.014870 -50.339294 28.532881
v 77.508987 -52.595367 28.532881
v 77.865517 -52.071217 28.532881
v 74.371414 -50.045963 27.868818
v 74.014870 -50.339294 27.868818
v 77.508987 -52.595367 27.868818
v 77.865517 -52.302032 27.868818
v 67.961159 -53.398571 28.371374
v 77.632179 -53.398571 28.371374
v 77.632179 -52.773010 28.371374
v 67.961159 -52.773010 28.371374
v 67.961159 -53.398571 27.801062
v 77.632179 -53.398571 27.801062
v 77.632179 -52.773010 27.801062
v 67.961159 -52.773010 27.801062
v 68.939507 -54.264053 28.793501
v 68.937576 -54.892822 28.793501
v 70.187401 -54.933971 28.793501
v 70.189323 -54.305199 28.793501
v 68.939507 -54.264053 28.129438
v 68.937576 -54.892822 28.129438
v 70.187401 -54.933971 28.129438
v 70.189323 -54.305199 28.129438
vn -0.0000 -0.0000 1.0000
vn -0.0000 -1.0000 -0.0000
vn 1.0000 -0.0000 -0.0000
vn -0.0000 1.0000 -0.0000
vn -1.0000 -0.0000 -0.0000
vn -0.0000 -0.0000 -1.0000
vn -0.8086 -0.5883 -0.0000
vn 0.5683 -0.8228 -0.0000
vn 0.8086 0.5883 -0.0000
vn -0.5683 0.8228 -0.0000
vn -0.7487 0.6531 -0.1135
vn -0.5424 -0.8401 -0.0000
vn 0.5207 0.8064 -0.2803
vn -0.0329 -0.9995 -0.0000
vn 1.0000 -0.0031 -0.0000
vn 0.0329 0.9995 -0.0000
s 0
usemtl RED_HOUSE
f 1//1 2//1 3//1 4//1
f 1//2 5//2 6//2 2//2
f 2//3 6//3 7//3 3//3
f 3//4 7//4 8//4 4//4
f 4//5 8//5 5//5 1//5
f 5//6 8//6 7//6 6//6
f 9//1 10//1 11//1 12//1
f 9//2 13//2 14//2 10//2
f 10//3 14//3 15//3 11//3
f 11//4 15//4 16//4 12//4
f 12//5 16//5 13//5 9//5
f 13//6 16//6 15//6 14//6
f 17//1 18//1 19//1 20//1
f 17//2 21//2 22//2 18//2
f 18//3 22//3 23//3 19//3
f 19//4 23//4 24//4 20//4
f 20//5 24//5 21//5 17//5
f 21//6 24//6 23//6 22//6
f 25//1 26//1 27//1 28//1
f 25//7 29//7 30//7 26//7
f 26//8 30//8 31//8 27//8
f 27//9 31//9 32//9 28//9
f 28//10 32//10 29//10 25//10
f 29//6 32//6 31//6 30//6
f 33//1 34//1 35//1 36//1
f 33//11 37//11 38//11 34//11
f 34//12 38//12 39//12 35//12
f 36//13 40//13 37//13 33//13
f 41//1 42//1 43//1 44//1
f 41//2 45//2 46//2 42//2
f 42//3 46//3 47//3 43//3
f 43//4 47//4 48//4 44//4
f 44//5 48//5 45//5 41//5
f 45//6 48//6 47//6 46//6
f 49//1 50//1 51//1 52//1
f 50//14 54//14 55//14 51//14
f 51//15 55//15 56//15 52//15
f 52//16 56//16 53//16 49//16
