# Blender 3.6.5
# www.blender.org
mtllib KDETAIL04.mtl
o KDETAIL04
v 67.885605 -57.462784 28.535156
v 78.484100 -53.386215 28.535156
v 78.212051 -52.678917 28.535156
v 67.613548 -56.755486 28.535156
v 67.885605 -57.462784 27.964844
v 78.484100 -53.386215 27.964844
v 78.212051 -52.678917 27.964844
v 67.613548 -56.755486 27.964844
v 68.001968 -52.449524 27.929361
v 78.372978 -57.074333 27.929361
v 78.064339 -57.766449 27.929361
v 67.693329 -53.141640 27.929361
v 68.001968 -52.449524 28.499674
v 78.372978 -57.074333 28.499674
v 78.064339 -57.766449 28.499674
v 67.693329 -53.141640 28.499674
v 67.371094 -46.468750 28.535156
v 78.726562 -46.468750 28.535156
v 78.726562 -45.714844 28.535156
v 67.371094 -45.714844 28.535156
v 67.371094 -46.468750 27.964844
v 78.726562 -46.468750 27.964844
v 78.726562 -45.714844 27.964844
v 67.371094 -45.714844 27.964844
v 77.875000 -51.597656 28.636719
v 78.632812 -51.597656 28.636719
v 78.632812 -46.675781 28.636719
v 77.875000 -46.675781 28.636719
v 77.875000 -51.597656 27.972656
v 78.632812 -51.597656 27.972656
v 78.632812 -46.675781 27.972656
v 77.875000 -46.675781 27.972656
v 74.894531 -51.000000 28.453125
v 74.894531 -46.742188 28.453125
v 74.328125 -46.742188 28.453125
v 74.328125 -51.000000 28.453125
v 74.894531 -51.000000 27.980469
v 74.894531 -46.742188 27.980469
v 74.328125 -46.742188 27.980469
v 74.328125 -51.000000 27.980469
vn -0.0000 -0.0000 1.0000
vn 0.3590 -0.9333 -0.0000
vn 0.9333 0.3590 -0.0000
vn -0.3590 0.9333 -0.0000
vn -0.9333 -0.3590 -0.0000
vn -0.0000 -0.0000 -1.0000
vn -0.9133 0.4073 -0.0000
vn 0.4073 0.9133 -0.0000
vn 0.9133 -0.4073 -0.0000
vn -0.4073 -0.9133 -0.0000
vn -0.0000 -1.0000 -0.0000
vn 1.0000 -0.0000 -0.0000
vn -0.0000 1.0000 -0.0000
vn -1.0000 -0.0000 -0.0000
s 0
usemtl RED_HOUSE
f 1//1 2//1 3//1 4//1
f 1//2 5//2 6//2 2//2
f 2//3 6//3 7//3 3//3
f 3//4 7//4 8//4 4//4
f 4//5 8//5 5//5 1//5
f 5//6 8//6 7//6 6//6
f 12//6 9//6 10//6 11//6
f 13//7 9//7 12//7 16//7
f 14//8 10//8 9//8 13//8
f 15//9 11//9 10//9 14//9
f 16//10 12//10 11//10 15//10
f 16//1 15//1 14//1 13//1
f 17//1 18//1 19//1 20//1
f 17//11 21//11 22//11 18//11
f 18//12 22//12 23//12 19//12
f 19//13 23//13 24//13 20//13
f 20//14 24//14 21//14 17//14
f 21//6 24//6 23//6 22//6
f 25//1 26//1 27//1 28//1
f 25//11 29//11 30//11 26//11
f 26//12 30//12 31//12 27//12
f 27//13 31//13 32//13 28//13
f 28//14 32//14 29//14 25//14
f 29//6 32//6 31//6 30//6
f 33//1 34//1 35//1 36//1
f 33//12 37//12 38//12 34//12
f 34//13 38//13 39//13 35//13
f 35//14 39//14 40//14 36//14
f 36//11 40//11 37//11 33//11
f 37//6 40//6 39//6 38//6
