# Blender 3.6.5
# www.blender.org
mtllib test_cube28.mtl
o Cube
v 1.000000 -7.104313 1.000000
v 1.000000 -7.104313 -1.000000
v 1.000000 -9.104313 1.000000
v 1.000000 -9.104313 -1.000000
v -1.000000 -7.104313 1.000000
v -1.000000 -7.104313 -1.000000
v -1.000000 -9.104313 1.000000
v -1.000000 -9.104313 -1.000000
vn -0.0000 -0.0000 1.0000
vn -0.0000 -1.0000 -0.0000
vn -1.0000 -0.0000 -0.0000
vn -0.0000 -0.0000 -1.0000
vn 1.0000 -0.0000 -0.0000
vn -0.0000 1.0000 -0.0000
s 0
usemtl Yellow
f 7//3 6//3 8//3
f 2//4 8//4 6//4
f 1//5 4//5 2//5
f 5//6 2//6 6//6
f 7//3 5//3 6//3
f 2//4 4//4 8//4
f 1//5 3//5 4//5
f 5//6 1//6 2//6
usemtl Blue
f 5//1 3//1 1//1
f 5//1 7//1 3//1
usemtl Red
f 3//2 8//2 4//2
f 3//2 7//2 8//2
o CameraBox
v 7.769729 -7.702126 6.100786
v 8.078468 -7.678173 6.353978
v 7.517295 -7.721710 6.410454
v 7.826035 -7.697757 6.663646
v 7.738789 -7.303324 6.100786
v 8.047528 -7.279372 6.353978
v 7.486356 -7.322908 6.410454
v 7.795095 -7.298956 6.663646
vn 0.0773 -0.9970 -0.0000
vn -0.6311 -0.0490 0.7742
vn -0.0773 0.9970 -0.0000
vn 0.6311 0.0490 -0.7742
vn -0.7718 -0.0599 -0.6330
vn 0.7718 0.0599 0.6330
s 0
usemtl None
f 10//7 11//7 9//7
f 16//9 13//9 15//9
f 14//10 9//10 13//10
f 12//12 14//12 16//12
f 10//7 12//7 11//7
f 16//9 14//9 13//9
f 14//10 10//10 9//10
f 12//12 10//12 14//12
usemtl LookingDir
f 15//11 9//11 11//11
f 15//11 13//11 9//11
usemtl UpDir
f 12//8 15//8 11//8
f 12//8 16//8 15//8
