# Blender 3.6.5
# www.blender.org
mtllib test_cube39.mtl
o Cube
v 1.000000 1.000000 12.842882
v 1.000000 -1.000000 12.842882
v 1.000000 1.000000 14.842882
v 1.000000 -1.000000 14.842882
v -1.000000 1.000000 12.842882
v -1.000000 -1.000000 12.842882
v -1.000000 1.000000 14.842882
v -1.000000 -1.000000 14.842882
vn -0.0000 1.0000 -0.0000
vn -0.0000 -0.0000 1.0000
vn -1.0000 -0.0000 -0.0000
vn -0.0000 -1.0000 -0.0000
vn 1.0000 -0.0000 -0.0000
vn -0.0000 -0.0000 -1.0000
s 0
usemtl Yellow
f 7//3 6//3 8//3
f 2//4 8//4 6//4
f 1//5 4//5 2//5
f 5//6 2//6 6//6
f 7//3 5//3 6//3
f 2//4 4//4 8//4
f 1//5 3//5 4//5
f 5//6 1//6 2//6
usemtl Blue
f 5//1 3//1 1//1
f 5//1 7//1 3//1
usemtl Red
f 3//2 8//2 4//2
f 3//2 7//2 8//2
o CameraBox
v 7.837903 6.086484 7.598258
v 8.098212 6.299959 7.382232
v 7.673628 6.424756 7.734586
v 7.933937 6.638231 7.518560
v 7.582457 6.086484 7.290447
v 7.842766 6.299959 7.074421
v 7.418181 6.424756 7.426776
v 7.678491 6.638231 7.210750
vn 0.6386 -0.0000 0.7695
vn -0.4107 0.8457 0.3408
vn -0.6386 -0.0000 -0.7695
vn 0.4107 -0.8457 -0.3408
vn -0.6508 -0.5337 0.5401
vn 0.6508 0.5337 -0.5401
s 0
usemtl None
f 10//7 11//7 9//7
f 12//8 15//8 11//8
f 16//9 13//9 15//9
f 14//10 9//10 13//10
f 12//12 14//12 16//12
f 10//7 12//7 11//7
f 12//8 16//8 15//8
f 16//9 14//9 13//9
f 14//10 10//10 9//10
f 12//12 10//12 14//12
usemtl CameraFace
f 15//11 9//11 11//11
f 15//11 13//11 9//11
