# Blender 3.6.5
# www.blender.org
mtllib test_cube6.mtl
o Cube
v 1.000000 0.679375 1.000000
v 1.000000 0.679375 -1.000000
v 1.000000 -1.320625 1.000000
v 1.000000 -1.320625 -1.000000
v -1.000000 0.679375 1.000000
v -1.000000 0.679375 -1.000000
v -1.000000 -1.320625 1.000000
v -1.000000 -1.320625 -1.000000
vn -0.0000 -0.0000 1.0000
vn -0.0000 -1.0000 -0.0000
vn -1.0000 -0.0000 -0.0000
vn -0.0000 -0.0000 -1.0000
vn 1.0000 -0.0000 -0.0000
vn -0.0000 1.0000 -0.0000
s 0
usemtl Yellow
f 7//3 6//3 8//3
f 2//4 8//4 6//4
f 1//5 4//5 2//5
f 7//3 5//3 6//3
f 2//4 4//4 8//4
f 1//5 3//5 4//5
usemtl Blue
f 5//1 3//1 1//1
f 5//1 7//1 3//1
usemtl Red
f 3//2 8//2 4//2
f 3//2 7//2 8//2
usemtl Green
f 5//6 2//6 6//6
f 5//6 1//6 2//6
o CameraBox
v 7.565408 -7.728339 6.083871
v 7.815337 -7.963978 6.288834
v 7.416277 -7.587735 6.427369
v 7.666206 -7.823374 6.632331
v 7.839808 -7.437298 6.083871
v 8.089737 -7.672937 6.288834
v 7.690677 -7.296694 6.427369
v 7.940606 -7.532333 6.632331
vn -0.6860 -0.7276 -0.0000
vn -0.3728 0.3515 0.8587
vn 0.6860 0.7276 -0.0000
vn 0.3728 -0.3515 -0.8587
vn -0.6248 0.5891 -0.5124
vn 0.6248 -0.5891 0.5124
s 0
usemtl None
f 10//7 11//7 9//7
f 16//9 13//9 15//9
f 14//10 9//10 13//10
f 12//12 14//12 16//12
f 10//7 12//7 11//7
f 16//9 14//9 13//9
f 14//10 10//10 9//10
f 12//12 10//12 14//12
usemtl LookingDir
f 15//11 9//11 11//11
f 15//11 13//11 9//11
usemtl UpDir
f 12//8 15//8 11//8
f 12//8 16//8 15//8
