# Blender 3.6.5
# www.blender.org
mtllib test_cube59.mtl
o Cube
v 1.000000 -22.858664 1.000000
v 1.000000 -22.858664 -1.000000
v 1.000000 -24.858664 1.000000
v 1.000000 -24.858664 -1.000000
v -1.000000 -22.858664 1.000000
v -1.000000 -22.858664 -1.000000
v -1.000000 -24.858664 1.000000
v -1.000000 -24.858664 -1.000000
vn -0.0000 -0.0000 1.0000
vn -0.0000 -1.0000 -0.0000
vn -1.0000 -0.0000 -0.0000
vn -0.0000 -0.0000 -1.0000
vn 1.0000 -0.0000 -0.0000
vn -0.0000 1.0000 -0.0000
s 0
usemtl Yellow
f 7//3 6//3 8//3
f 2//4 8//4 6//4
f 1//5 4//5 2//5
f 5//6 2//6 6//6
f 7//3 5//3 6//3
f 2//4 4//4 8//4
f 1//5 3//5 4//5
f 5//6 1//6 2//6
usemtl Blue
f 5//1 3//1 1//1
f 5//1 7//1 3//1
usemtl Red
f 3//2 8//2 4//2
f 3//2 7//2 8//2
o CameraBox
v 7.836991 -7.537710 6.066660
v 7.996805 -7.195244 6.197721
v 7.781568 -7.656476 6.444580
v 7.941382 -7.314010 6.575640
v 7.474516 -7.368559 6.066660
v 7.634330 -7.026093 6.197721
v 7.419094 -7.487324 6.444580
v 7.578907 -7.144858 6.575640
vn 0.9062 -0.4229 -0.0000
vn -0.1386 -0.2969 0.9448
vn -0.9062 0.4229 -0.0000
vn 0.1386 0.2969 -0.9448
vn -0.3995 -0.8562 -0.3277
vn 0.3995 0.8562 0.3277
s 0
usemtl None
f 10//7 11//7 9//7
f 16//9 13//9 15//9
f 14//10 9//10 13//10
f 12//12 14//12 16//12
f 10//7 12//7 11//7
f 16//9 14//9 13//9
f 14//10 10//10 9//10
f 12//12 10//12 14//12
usemtl LookingDir
f 15//11 9//11 11//11
f 15//11 13//11 9//11
usemtl UpDir
f 12//8 15//8 11//8
f 12//8 16//8 15//8
