# Blender 3.6.5
# www.blender.org
mtllib test_cube23.mtl
o Cube
v 1.000000 1.000000 4.765536
v 1.000000 -1.000000 4.765536
v 1.000000 1.000000 6.765536
v 1.000000 -1.000000 6.765536
v -1.000000 1.000000 4.765536
v -1.000000 -1.000000 4.765536
v -1.000000 1.000000 6.765536
v -1.000000 -1.000000 6.765536
vn -0.0000 1.0000 -0.0000
vn -0.0000 -0.0000 1.0000
vn -1.0000 -0.0000 -0.0000
vn -0.0000 -1.0000 -0.0000
vn 1.0000 -0.0000 -0.0000
vn -0.0000 -0.0000 -1.0000
s 0
usemtl Yellow
f 7//3 6//3 8//3
f 2//4 8//4 6//4
f 1//5 4//5 2//5
f 5//6 2//6 6//6
f 7//3 5//3 6//3
f 2//4 4//4 8//4
f 1//5 3//5 4//5
f 5//6 1//6 2//6
usemtl Blue
f 5//1 3//1 1//1
f 5//1 7//1 3//1
usemtl Red
f 3//2 8//2 4//2
f 3//2 7//2 8//2
o CameraBox
v 7.705123 6.099399 7.735348
v 8.009679 6.349160 7.805098
v 7.461665 6.411840 7.679591
v 7.766221 6.661602 7.749341
v 7.794419 6.099399 7.345443
v 8.098975 6.349160 7.415193
v 7.550961 6.411840 7.289686
v 7.855517 6.661602 7.359436
vn -0.2232 -0.0000 0.9748
vn -0.6086 0.7811 -0.1394
vn 0.2232 -0.0000 -0.9748
vn 0.6086 -0.7811 0.1394
vn -0.7614 -0.6244 -0.1744
vn 0.7614 0.6244 0.1744
s 0
usemtl None
f 10//7 11//7 9//7
f 12//8 15//8 11//8
f 16//9 13//9 15//9
f 14//10 9//10 13//10
f 12//12 14//12 16//12
f 10//7 12//7 11//7
f 12//8 16//8 15//8
f 16//9 14//9 13//9
f 14//10 10//10 9//10
f 12//12 10//12 14//12
usemtl CameraFace
f 15//11 9//11 11//11
f 15//11 13//11 9//11
