# Blender 3.6.5
# www.blender.org
mtllib test_cube28.mtl
o Cube
v 1.000000 -4.635000 1.000000
v 1.000000 -4.635000 -1.000000
v 1.000000 -6.635000 1.000000
v 1.000000 -6.635000 -1.000000
v -1.000000 -4.635000 1.000000
v -1.000000 -4.635000 -1.000000
v -1.000000 -6.635000 1.000000
v -1.000000 -6.635000 -1.000000
vn -0.0000 -0.0000 1.0000
vn -0.0000 -1.0000 -0.0000
vn -1.0000 -0.0000 -0.0000
vn -0.0000 -0.0000 -1.0000
vn 1.0000 -0.0000 -0.0000
vn -0.0000 1.0000 -0.0000
s 0
usemtl Yellow
f 7//3 6//3 8//3
f 2//4 8//4 6//4
f 1//5 4//5 2//5
f 7//3 5//3 6//3
f 2//4 4//4 8//4
f 1//5 3//5 4//5
usemtl Blue
f 5//1 3//1 1//1
f 5//1 7//1 3//1
usemtl Red
f 3//2 8//2 4//2
f 3//2 7//2 8//2
usemtl Green
f 5//6 2//6 6//6
f 5//6 1//6 2//6
o CameraBox
v 7.701219 -7.736497 6.099165
v 8.005059 -7.811283 6.348340
v 7.459265 -7.676944 6.412075
v 7.763106 -7.751730 6.661249
v 7.796819 -7.348089 6.099165
v 8.100659 -7.422875 6.348340
v 7.554866 -7.288537 6.412075
v 7.858706 -7.363322 6.661249
vn -0.2390 -0.9710 -0.0000
vn -0.6049 0.1489 0.7823
vn 0.2390 0.9710 -0.0000
vn 0.6049 -0.1489 -0.7823
vn -0.7596 0.1870 -0.6229
vn 0.7596 -0.1870 0.6229
s 0
usemtl None
f 10//7 11//7 9//7
f 16//9 13//9 15//9
f 14//10 9//10 13//10
f 12//12 14//12 16//12
f 10//7 12//7 11//7
f 16//9 14//9 13//9
f 14//10 10//10 9//10
f 12//12 10//12 14//12
usemtl LookingDir
f 15//11 9//11 11//11
f 15//11 13//11 9//11
usemtl UpDir
f 12//8 15//8 11//8
f 12//8 16//8 15//8
