# Blender 3.6.5
# www.blender.org
mtllib test_cube34.mtl
o Cube
v 1.000000 1.000000 10.170397
v 1.000000 -1.000000 10.170397
v 1.000000 1.000000 12.170397
v 1.000000 -1.000000 12.170397
v -1.000000 1.000000 10.170397
v -1.000000 -1.000000 10.170397
v -1.000000 1.000000 12.170397
v -1.000000 -1.000000 12.170397
vn -0.0000 1.0000 -0.0000
vn -0.0000 -0.0000 1.0000
vn -1.0000 -0.0000 -0.0000
vn -0.0000 -1.0000 -0.0000
vn 1.0000 -0.0000 -0.0000
vn -0.0000 -0.0000 -1.0000
s 0
usemtl Yellow
f 7//3 6//3 8//3
f 2//4 8//4 6//4
f 1//5 4//5 2//5
f 5//6 2//6 6//6
f 7//3 5//3 6//3
f 2//4 4//4 8//4
f 1//5 3//5 4//5
f 5//6 1//6 2//6
usemtl Blue
f 5//1 3//1 1//1
f 5//1 7//1 3//1
usemtl Red
f 3//2 8//2 4//2
f 3//2 7//2 8//2
o CameraBox
v 7.821742 6.094810 7.641438
v 8.111742 6.332634 7.502374
v 7.607298 6.416430 7.744270
v 7.897299 6.654254 7.605206
v 7.648787 6.094810 7.280763
v 7.938787 6.332634 7.141699
v 7.434343 6.416430 7.383595
v 7.724344 6.654254 7.244531
vn 0.4324 -0.0000 0.9017
vn -0.5361 0.8041 0.2571
vn -0.4324 -0.0000 -0.9017
vn 0.5361 -0.8041 -0.2571
vn -0.7250 -0.5946 0.3477
vn 0.7250 0.5946 -0.3477
s 0
usemtl None
f 10//7 11//7 9//7
f 12//8 15//8 11//8
f 16//9 13//9 15//9
f 14//10 9//10 13//10
f 12//12 14//12 16//12
f 10//7 12//7 11//7
f 12//8 16//8 15//8
f 16//9 14//9 13//9
f 14//10 10//10 9//10
f 12//12 10//12 14//12
usemtl CameraFace
f 15//11 9//11 11//11
f 15//11 13//11 9//11
