# Blender 3.6.5
# www.blender.org
mtllib test_cube71.mtl
o Cube
v 1.000000 1.000000 26.753971
v 1.000000 -1.000000 26.753971
v 1.000000 1.000000 28.753971
v 1.000000 -1.000000 28.753971
v -1.000000 1.000000 26.753971
v -1.000000 -1.000000 26.753971
v -1.000000 1.000000 28.753971
v -1.000000 -1.000000 28.753971
vn -0.0000 1.0000 -0.0000
vn -0.0000 -0.0000 1.0000
vn -1.0000 -0.0000 -0.0000
vn -0.0000 -1.0000 -0.0000
vn 1.0000 -0.0000 -0.0000
vn -0.0000 -0.0000 -1.0000
s 0
usemtl Yellow
f 7//3 6//3 8//3
f 2//4 8//4 6//4
f 1//5 4//5 2//5
f 5//6 2//6 6//6
f 7//3 5//3 6//3
f 2//4 4//4 8//4
f 1//5 3//5 4//5
f 5//6 1//6 2//6
usemtl Blue
f 5//1 3//1 1//1
f 5//1 7//1 3//1
usemtl Red
f 3//2 8//2 4//2
f 3//2 7//2 8//2
o CameraBox
v 7.834787 6.063493 7.531053
v 7.970292 6.174618 7.171484
v 7.795600 6.447747 7.635039
v 7.931105 6.558872 7.275470
v 7.460485 6.063493 7.389996
v 7.595989 6.174618 7.030427
v 7.421297 6.447747 7.493981
v 7.556802 6.558872 7.134413
vn 0.9358 -0.0000 0.3526
vn -0.0980 0.9606 0.2600
vn -0.9358 -0.0000 -0.3526
vn 0.0980 -0.9606 -0.2600
vn -0.3388 -0.2778 0.8989
vn 0.3388 0.2778 -0.8989
s 0
usemtl None
f 10//7 11//7 9//7
f 12//8 15//8 11//8
f 16//9 13//9 15//9
f 14//10 9//10 13//10
f 12//12 14//12 16//12
f 10//7 12//7 11//7
f 12//8 16//8 15//8
f 16//9 14//9 13//9
f 14//10 10//10 9//10
f 12//12 10//12 14//12
usemtl CameraFace
f 15//11 9//11 11//11
f 15//11 13//11 9//11
