# Blender 3.6.5
# www.blender.org
mtllib test_cube37.mtl
o Cube
v 1.000000 -7.877109 1.000000
v 1.000000 -7.877109 -1.000000
v 1.000000 -9.877109 1.000000
v 1.000000 -9.877109 -1.000000
v -1.000000 -7.877109 1.000000
v -1.000000 -7.877109 -1.000000
v -1.000000 -9.877109 1.000000
v -1.000000 -9.877109 -1.000000
vn -0.0000 -0.0000 1.0000
vn -0.0000 -1.0000 -0.0000
vn -1.0000 -0.0000 -0.0000
vn -0.0000 -0.0000 -1.0000
vn 1.0000 -0.0000 -0.0000
vn -0.0000 1.0000 -0.0000
s 0
usemtl Yellow
f 7//3 6//3 8//3
f 2//4 8//4 6//4
f 1//5 4//5 2//5
f 7//3 5//3 6//3
f 2//4 4//4 8//4
f 1//5 3//5 4//5
usemtl Blue
f 5//1 3//1 1//1
f 5//1 7//1 3//1
usemtl Red
f 3//2 8//2 4//2
f 3//2 7//2 8//2
usemtl Green
f 5//6 2//6 6//6
f 5//6 1//6 2//6
o CameraBox
v 7.786925 -7.687269 6.099999
v 8.093303 -7.632461 6.351254
v 7.539597 -7.731514 6.411241
v 7.845975 -7.676705 6.662496
v 7.716487 -7.293520 6.099999
v 8.022864 -7.238711 6.351254
v 7.469159 -7.337765 6.411241
v 7.775537 -7.282956 6.662496
vn 0.1761 -0.9844 -0.0000
vn -0.6183 -0.1106 0.7781
vn -0.1761 0.9844 -0.0000
vn 0.6183 0.1106 -0.7781
vn -0.7659 -0.1370 -0.6281
vn 0.7659 0.1370 0.6281
s 0
usemtl None
f 10//7 11//7 9//7
f 16//9 13//9 15//9
f 14//10 9//10 13//10
f 12//12 14//12 16//12
f 10//7 12//7 11//7
f 16//9 14//9 13//9
f 14//10 10//10 9//10
f 12//12 10//12 14//12
usemtl LookingDir
f 15//11 9//11 11//11
f 15//11 13//11 9//11
usemtl UpDir
f 12//8 15//8 11//8
f 12//8 16//8 15//8
