# Blender 3.6.5
# www.blender.org
mtllib test_cube78.mtl
o Cube
v 1.000000 -27.711163 1.000000
v 1.000000 -27.711163 -1.000000
v 1.000000 -29.711163 1.000000
v 1.000000 -29.711163 -1.000000
v -1.000000 -27.711163 1.000000
v -1.000000 -27.711163 -1.000000
v -1.000000 -29.711163 1.000000
v -1.000000 -29.711163 -1.000000
vn -0.0000 -0.0000 1.0000
vn -0.0000 -1.0000 -0.0000
vn -1.0000 -0.0000 -0.0000
vn -0.0000 -0.0000 -1.0000
vn 1.0000 -0.0000 -0.0000
vn -0.0000 1.0000 -0.0000
s 0
usemtl Yellow
f 7//3 6//3 8//3
f 2//4 8//4 6//4
f 1//5 4//5 2//5
f 5//6 2//6 6//6
f 7//3 5//3 6//3
f 2//4 4//4 8//4
f 1//5 3//5 4//5
f 5//6 1//6 2//6
usemtl Blue
f 5//1 3//1 1//1
f 5//1 7//1 3//1
usemtl Red
f 3//2 8//2 4//2
f 3//2 7//2 8//2
o CameraBox
v 7.834347 -7.529885 6.062911
v 7.964843 -7.167231 6.169929
v 7.798112 -7.630582 6.448329
v 7.928608 -7.267928 6.555346
v 7.457972 -7.394452 6.062911
v 7.588468 -7.031798 6.169929
v 7.421738 -7.495149 6.448329
v 7.552234 -7.132495 6.555346
vn 0.9409 -0.3386 -0.0000
vn -0.0906 -0.2517 0.9635
vn -0.9409 0.3386 -0.0000
vn 0.0906 0.2517 -0.9635
vn -0.3262 -0.9066 -0.2675
vn 0.3262 0.9066 0.2675
s 0
usemtl None
f 10//7 11//7 9//7
f 16//9 13//9 15//9
f 14//10 9//10 13//10
f 12//12 14//12 16//12
f 10//7 12//7 11//7
f 16//9 14//9 13//9
f 14//10 10//10 9//10
f 12//12 10//12 14//12
usemtl LookingDir
f 15//11 9//11 11//11
f 15//11 13//11 9//11
usemtl UpDir
f 12//8 15//8 11//8
f 12//8 16//8 15//8
