# Blender 3.6.5
# www.blender.org
mtllib test_cube8.mtl
o Cube
v 1.000000 0.440000 1.000000
v 1.000000 0.440000 -1.000000
v 1.000000 -1.560000 1.000000
v 1.000000 -1.560000 -1.000000
v -1.000000 0.440000 1.000000
v -1.000000 0.440000 -1.000000
v -1.000000 -1.560000 1.000000
v -1.000000 -1.560000 -1.000000
vn -0.0000 -0.0000 1.0000
vn -0.0000 -1.0000 -0.0000
vn -1.0000 -0.0000 -0.0000
vn -0.0000 -0.0000 -1.0000
vn 1.0000 -0.0000 -0.0000
vn -0.0000 1.0000 -0.0000
s 0
usemtl Yellow
f 7//3 6//3 8//3
f 2//4 8//4 6//4
f 1//5 4//5 2//5
f 7//3 5//3 6//3
f 2//4 4//4 8//4
f 1//5 3//5 4//5
usemtl Blue
f 5//1 3//1 1//1
f 5//1 7//1 3//1
usemtl Red
f 3//2 8//2 4//2
f 3//2 7//2 8//2
usemtl Green
f 5//6 2//6 6//6
f 5//6 1//6 2//6
o CameraBox
v 7.569934 -7.730164 6.084583
v 7.822752 -7.960592 6.291914
v 7.416701 -7.590500 6.426656
v 7.669518 -7.820929 6.633987
v 7.839384 -7.434534 6.084583
v 8.092201 -7.664962 6.291914
v 7.686150 -7.294871 6.426656
v 7.938968 -7.525299 6.633987
vn -0.6736 -0.7391 -0.0000
vn -0.3831 0.3492 0.8552
vn 0.6736 0.7391 -0.0000
vn 0.3831 -0.3492 -0.8552
vn -0.6320 0.5761 -0.5183
vn 0.6320 -0.5761 0.5183
s 0
usemtl None
f 10//7 11//7 9//7
f 16//9 13//9 15//9
f 14//10 9//10 13//10
f 12//12 14//12 16//12
f 10//7 12//7 11//7
f 16//9 14//9 13//9
f 14//10 10//10 9//10
f 12//12 10//12 14//12
usemtl LookingDir
f 15//11 9//11 11//11
f 15//11 13//11 9//11
usemtl UpDir
f 12//8 15//8 11//8
f 12//8 16//8 15//8
