# Blender 3.6.5
# www.blender.org
mtllib test_cube76.mtl
o Cube
v 1.000000 -18.855000 1.000000
v 1.000000 -18.855000 -1.000000
v 1.000000 -20.855000 1.000000
v 1.000000 -20.855000 -1.000000
v -1.000000 -18.855000 1.000000
v -1.000000 -18.855000 -1.000000
v -1.000000 -20.855000 1.000000
v -1.000000 -20.855000 -1.000000
vn -0.0000 -0.0000 1.0000
vn -0.0000 -1.0000 -0.0000
vn -1.0000 -0.0000 -0.0000
vn -0.0000 -0.0000 -1.0000
vn 1.0000 -0.0000 -0.0000
vn -0.0000 1.0000 -0.0000
s 0
usemtl Yellow
f 7//3 6//3 8//3
f 2//4 8//4 6//4
f 1//5 4//5 2//5
f 7//3 5//3 6//3
f 2//4 4//4 8//4
f 1//5 3//5 4//5
usemtl Blue
f 5//1 3//1 1//1
f 5//1 7//1 3//1
usemtl Red
f 3//2 8//2 4//2
f 3//2 7//2 8//2
usemtl Green
f 5//6 2//6 6//6
f 5//6 1//6 2//6
o CameraBox
v 7.839801 -7.550306 6.071962
v 8.032909 -7.237849 6.230327
v 7.756544 -7.685019 6.439278
v 7.949653 -7.372562 6.597643
v 7.499540 -7.340014 6.071962
v 7.692649 -7.027557 6.230327
v 7.416283 -7.474728 6.439278
v 7.609392 -7.162271 6.597643
vn 0.8507 -0.5257 -0.0000
vn -0.2081 -0.3368 0.9183
vn -0.8507 0.5257 -0.0000
vn 0.2081 0.3368 -0.9183
vn -0.4828 -0.7811 -0.3959
vn 0.4828 0.7811 0.3959
s 0
usemtl None
f 10//7 11//7 9//7
f 16//9 13//9 15//9
f 14//10 9//10 13//10
f 12//12 14//12 16//12
f 10//7 12//7 11//7
f 16//9 14//9 13//9
f 14//10 10//10 9//10
f 12//12 10//12 14//12
usemtl LookingDir
f 15//11 9//11 11//11
f 15//11 13//11 9//11
usemtl UpDir
f 12//8 15//8 11//8
f 12//8 16//8 15//8
