# Blender 3.6.5
# www.blender.org
mtllib test_cube4.mtl
o Cube
v 1.000000 0.855000 1.000000
v 1.000000 0.855000 -1.000000
v 1.000000 -1.145000 1.000000
v 1.000000 -1.145000 -1.000000
v -1.000000 0.855000 1.000000
v -1.000000 0.855000 -1.000000
v -1.000000 -1.145000 1.000000
v -1.000000 -1.145000 -1.000000
vn -0.0000 -0.0000 1.0000
vn -0.0000 -1.0000 -0.0000
vn -1.0000 -0.0000 -0.0000
vn -0.0000 -0.0000 -1.0000
vn 1.0000 -0.0000 -0.0000
vn -0.0000 1.0000 -0.0000
s 0
usemtl Yellow
f 7//3 6//3 8//3
f 2//4 8//4 6//4
f 1//5 4//5 2//5
f 7//3 5//3 6//3
f 2//4 4//4 8//4
f 1//5 3//5 4//5
usemtl Blue
f 5//1 3//1 1//1
f 5//1 7//1 3//1
usemtl Red
f 3//2 8//2 4//2
f 3//2 7//2 8//2
usemtl Green
f 5//6 2//6 6//6
f 5//6 1//6 2//6
o CameraBox
v 7.562187 -7.726966 6.083357
v 7.810000 -7.966315 6.286583
v 7.416010 -7.585781 6.427884
v 7.663823 -7.825130 6.631110
v 7.840074 -7.439253 6.083357
v 8.087887 -7.678601 6.286583
v 7.693897 -7.298068 6.427884
v 7.941710 -7.537416 6.631110
vn -0.6947 -0.7193 -0.0000
vn -0.3654 0.3530 0.8613
vn 0.6947 0.7193 -0.0000
vn 0.3654 -0.3530 -0.8613
vn -0.6195 0.5984 -0.5081
vn 0.6195 -0.5984 0.5081
s 0
usemtl None
f 10//7 11//7 9//7
f 16//9 13//9 15//9
f 14//10 9//10 13//10
f 12//12 14//12 16//12
f 10//7 12//7 11//7
f 16//9 14//9 13//9
f 14//10 10//10 9//10
f 12//12 10//12 14//12
usemtl LookingDir
f 15//11 9//11 11//11
f 15//11 13//11 9//11
usemtl UpDir
f 12//8 15//8 11//8
f 12//8 16//8 15//8
