# Blender 3.6.5
# www.blender.org
mtllib test_cube44.mtl
o Cube
v 1.000000 -15.532223 1.000000
v 1.000000 -15.532223 -1.000000
v 1.000000 -17.532223 1.000000
v 1.000000 -17.532223 -1.000000
v -1.000000 -15.532223 1.000000
v -1.000000 -15.532223 -1.000000
v -1.000000 -17.532223 1.000000
v -1.000000 -17.532223 -1.000000
vn -0.0000 -0.0000 1.0000
vn -0.0000 -1.0000 -0.0000
vn -1.0000 -0.0000 -0.0000
vn -0.0000 -0.0000 -1.0000
vn 1.0000 -0.0000 -0.0000
vn -0.0000 1.0000 -0.0000
s 0
usemtl Yellow
f 7//3 6//3 8//3
f 2//4 8//4 6//4
f 1//5 4//5 2//5
f 5//6 2//6 6//6
f 7//3 5//3 6//3
f 2//4 4//4 8//4
f 1//5 3//5 4//5
f 5//6 1//6 2//6
usemtl Blue
f 5//1 3//1 1//1
f 5//1 7//1 3//1
usemtl Red
f 3//2 8//2 4//2
f 3//2 7//2 8//2
o CameraBox
v 7.841194 -7.570199 6.078874
v 8.069460 -7.300287 6.266070
v 7.720312 -7.713133 6.432366
v 7.948578 -7.443223 6.619563
v 7.535772 -7.311901 6.078874
v 7.764038 -7.041990 6.266070
v 7.414891 -7.454836 6.432366
v 7.643157 -7.184925 6.619563
vn 0.7636 -0.6457 -0.0000
vn -0.3022 -0.3573 0.8837
vn -0.7636 0.6457 -0.0000
vn 0.3022 0.3573 -0.8837
vn -0.5707 -0.6748 -0.4680
vn 0.5707 0.6748 0.4680
s 0
usemtl None
f 10//7 11//7 9//7
f 16//9 13//9 15//9
f 14//10 9//10 13//10
f 12//12 14//12 16//12
f 10//7 12//7 11//7
f 16//9 14//9 13//9
f 14//10 10//10 9//10
f 12//12 10//12 14//12
usemtl LookingDir
f 15//11 9//11 11//11
f 15//11 13//11 9//11
usemtl UpDir
f 12//8 15//8 11//8
f 12//8 16//8 15//8
