# Blender 3.6.5
# www.blender.org
mtllib test_cube26.mtl
o Cube
v 1.000000 -6.139812 1.000000
v 1.000000 -6.139812 -1.000000
v 1.000000 -8.139812 1.000000
v 1.000000 -8.139812 -1.000000
v -1.000000 -6.139812 1.000000
v -1.000000 -6.139812 -1.000000
v -1.000000 -8.139812 1.000000
v -1.000000 -8.139812 -1.000000
vn -0.0000 -0.0000 1.0000
vn -0.0000 -1.0000 -0.0000
vn -1.0000 -0.0000 -0.0000
vn -0.0000 -0.0000 -1.0000
vn 1.0000 -0.0000 -0.0000
vn -0.0000 1.0000 -0.0000
s 0
usemtl Yellow
f 7//3 6//3 8//3
f 2//4 8//4 6//4
f 1//5 4//5 2//5
f 5//6 2//6 6//6
f 7//3 5//3 6//3
f 2//4 4//4 8//4
f 1//5 3//5 4//5
f 5//6 1//6 2//6
usemtl Blue
f 5//1 3//1 1//1
f 5//1 7//1 3//1
usemtl Red
f 3//2 8//2 4//2
f 3//2 7//2 8//2
o CameraBox
v 7.744864 -7.718463 6.100899
v 8.053938 -7.733565 6.354365
v 7.491700 -7.706094 6.410342
v 7.800774 -7.721195 6.663808
v 7.764385 -7.318940 6.100899
v 8.073459 -7.334042 6.354365
v 7.511220 -7.306571 6.410342
v 7.820295 -7.321672 6.663808
vn -0.0488 -0.9988 -0.0000
vn -0.6329 0.0309 0.7736
vn 0.0488 0.9988 -0.0000
vn 0.6329 -0.0309 -0.7736
vn -0.7727 0.0378 -0.6337
vn 0.7727 -0.0378 0.6337
s 0
usemtl None
f 10//7 11//7 9//7
f 16//9 13//9 15//9
f 14//10 9//10 13//10
f 12//12 14//12 16//12
f 10//7 12//7 11//7
f 16//9 14//9 13//9
f 14//10 10//10 9//10
f 12//12 10//12 14//12
usemtl LookingDir
f 15//11 9//11 11//11
f 15//11 13//11 9//11
usemtl UpDir
f 12//8 15//8 11//8
f 12//8 16//8 15//8
