# Blender 3.6.5
# www.blender.org
mtllib test_cube27.mtl
o Cube
v 1.000000 -4.296640 1.000000
v 1.000000 -4.296640 -1.000000
v 1.000000 -6.296640 1.000000
v 1.000000 -6.296640 -1.000000
v -1.000000 -4.296640 1.000000
v -1.000000 -4.296640 -1.000000
v -1.000000 -6.296640 1.000000
v -1.000000 -6.296640 -1.000000
vn -0.0000 -0.0000 1.0000
vn -0.0000 -1.0000 -0.0000
vn -1.0000 -0.0000 -0.0000
vn -0.0000 -0.0000 -1.0000
vn 1.0000 -0.0000 -0.0000
vn -0.0000 1.0000 -0.0000
s 0
usemtl Yellow
f 7//3 6//3 8//3
f 2//4 8//4 6//4
f 1//5 4//5 2//5
f 7//3 5//3 6//3
f 2//4 4//4 8//4
f 1//5 3//5 4//5
usemtl Blue
f 5//1 3//1 1//1
f 5//1 7//1 3//1
usemtl Red
f 3//2 8//2 4//2
f 3//2 7//2 8//2
usemtl Green
f 5//6 2//6 6//6
f 5//6 1//6 2//6
o CameraBox
v 7.691079 -7.739096 6.098495
v 7.992854 -7.826759 6.345975
v 7.453423 -7.670059 6.412745
v 7.755198 -7.757722 6.660226
v 7.802662 -7.354975 6.098495
v 8.104438 -7.442638 6.345975
v 7.565006 -7.285938 6.412745
v 7.866782 -7.373601 6.660226
vn -0.2790 -0.9603 -0.0000
vn -0.5941 0.1726 0.7856
vn 0.2790 0.9603 -0.0000
vn 0.5941 -0.1726 -0.7856
vn -0.7544 0.2192 -0.6187
vn 0.7544 -0.2192 0.6187
s 0
usemtl None
f 10//7 11//7 9//7
f 16//9 13//9 15//9
f 14//10 9//10 13//10
f 12//12 14//12 16//12
f 10//7 12//7 11//7
f 16//9 14//9 13//9
f 14//10 10//10 9//10
f 12//12 10//12 14//12
usemtl LookingDir
f 15//11 9//11 11//11
f 15//11 13//11 9//11
usemtl UpDir
f 12//8 15//8 11//8
f 12//8 16//8 15//8
