# Blender 3.6.5
# www.blender.org
mtllib test_cube70.mtl
o Cube
v 1.000000 1.000000 26.528236
v 1.000000 -1.000000 26.528236
v 1.000000 1.000000 28.528236
v 1.000000 -1.000000 28.528236
v -1.000000 1.000000 26.528236
v -1.000000 -1.000000 26.528236
v -1.000000 1.000000 28.528236
v -1.000000 -1.000000 28.528236
vn -0.0000 1.0000 -0.0000
vn -0.0000 -0.0000 1.0000
vn -1.0000 -0.0000 -0.0000
vn -0.0000 -1.0000 -0.0000
vn 1.0000 -0.0000 -0.0000
vn -0.0000 -0.0000 -1.0000
s 0
usemtl Yellow
f 7//3 6//3 8//3
f 2//4 8//4 6//4
f 1//5 4//5 2//5
f 5//6 2//6 6//6
f 7//3 5//3 6//3
f 2//4 4//4 8//4
f 1//5 3//5 4//5
f 5//6 1//6 2//6
usemtl Blue
f 5//1 3//1 1//1
f 5//1 7//1 3//1
usemtl Red
f 3//2 8//2 4//2
f 3//2 7//2 8//2
o CameraBox
v 7.834897 6.063640 7.531349
v 7.971632 6.175774 7.172561
v 7.794964 6.447600 7.636132
v 7.931699 6.559734 7.277343
v 7.461120 6.063640 7.388902
v 7.597856 6.175774 7.030113
v 7.421187 6.447600 7.493685
v 7.557923 6.559734 7.134896
vn 0.9344 -0.0000 0.3561
vn -0.0998 0.9599 0.2620
vn -0.9344 -0.0000 -0.3561
vn 0.0998 -0.9599 -0.2620
vn -0.3418 -0.2803 0.8970
vn 0.3418 0.2803 -0.8970
s 0
usemtl None
f 10//7 11//7 9//7
f 12//8 15//8 11//8
f 16//9 13//9 15//9
f 14//10 9//10 13//10
f 12//12 14//12 16//12
f 10//7 12//7 11//7
f 12//8 16//8 15//8
f 16//9 14//9 13//9
f 14//10 10//10 9//10
f 12//12 10//12 14//12
usemtl CameraFace
f 15//11 9//11 11//11
f 15//11 13//11 9//11
