# Blender 3.6.5
# www.blender.org
mtllib test_cube13.mtl
o Cube
v 1.000000 1.000000 1.031808
v 1.000000 -1.000000 1.031808
v 1.000000 1.000000 3.031808
v 1.000000 -1.000000 3.031808
v -1.000000 1.000000 1.031808
v -1.000000 -1.000000 1.031808
v -1.000000 1.000000 3.031808
v -1.000000 -1.000000 3.031808
vn -0.0000 1.0000 -0.0000
vn -0.0000 -0.0000 1.0000
vn -1.0000 -0.0000 -0.0000
vn -0.0000 -1.0000 -0.0000
vn 1.0000 -0.0000 -0.0000
vn -0.0000 -0.0000 -1.0000
s 0
usemtl Yellow
f 7//3 6//3 8//3
f 2//4 8//4 6//4
f 1//5 4//5 2//5
f 5//6 2//6 6//6
f 7//3 5//3 6//3
f 2//4 4//4 8//4
f 1//5 3//5 4//5
f 5//6 1//6 2//6
usemtl Blue
f 5//1 3//1 1//1
f 5//1 7//1 3//1
usemtl Red
f 3//2 8//2 4//2
f 3//2 7//2 8//2
o CameraBox
v 7.601376 6.089159 7.739628
v 7.871747 6.310885 7.933888
v 7.421309 6.422081 7.610251
v 7.691679 6.643807 7.804511
v 7.834775 6.089159 7.414783
v 8.105146 6.310885 7.609043
v 7.654708 6.422081 7.285406
v 7.925079 6.643807 7.479666
vn -0.5835 -0.0000 0.8121
vn -0.4502 0.8323 -0.3234
vn 0.5835 -0.0000 -0.8121
vn 0.4502 -0.8323 0.3234
vn -0.6759 -0.5543 -0.4857
vn 0.6759 0.5543 0.4857
s 0
usemtl None
f 10//7 11//7 9//7
f 12//8 15//8 11//8
f 16//9 13//9 15//9
f 14//10 9//10 13//10
f 12//12 14//12 16//12
f 10//7 12//7 11//7
f 12//8 16//8 15//8
f 16//9 14//9 13//9
f 14//10 10//10 9//10
f 12//12 10//12 14//12
usemtl CameraFace
f 15//11 9//11 11//11
f 15//11 13//11 9//11
