# Blender 3.6.5
# www.blender.org
mtllib test_cube34.mtl
o Cube
v 1.000000 -6.766875 1.000000
v 1.000000 -6.766875 -1.000000
v 1.000000 -8.766874 1.000000
v 1.000000 -8.766874 -1.000000
v -1.000000 -6.766875 1.000000
v -1.000000 -6.766875 -1.000000
v -1.000000 -8.766874 1.000000
v -1.000000 -8.766874 -1.000000
vn -0.0000 -0.0000 1.0000
vn -0.0000 -1.0000 -0.0000
vn -1.0000 -0.0000 -0.0000
vn -0.0000 -0.0000 -1.0000
vn 1.0000 -0.0000 -0.0000
vn -0.0000 1.0000 -0.0000
s 0
usemtl Yellow
f 7//3 6//3 8//3
f 2//4 8//4 6//4
f 1//5 4//5 2//5
f 7//3 5//3 6//3
f 2//4 4//4 8//4
f 1//5 3//5 4//5
usemtl Blue
f 5//1 3//1 1//1
f 5//1 7//1 3//1
usemtl Red
f 3//2 8//2 4//2
f 3//2 7//2 8//2
usemtl Green
f 5//6 2//6 6//6
f 5//6 1//6 2//6
o CameraBox
v 7.761418 -7.708180 6.100938
v 8.070610 -7.697871 6.354501
v 7.507997 -7.716631 6.410302
v 7.817188 -7.706321 6.663865
v 7.748088 -7.308403 6.100938
v 8.057280 -7.298093 6.354501
v 7.494666 -7.316853 6.410302
v 7.803858 -7.306543 6.663865
vn 0.0333 -0.9994 -0.0000
vn -0.6336 -0.0211 0.7734
vn -0.0333 0.9994 -0.0000
vn 0.6336 0.0211 -0.7734
vn -0.7730 -0.0258 -0.6339
vn 0.7730 0.0258 0.6339
s 0
usemtl None
f 10//7 11//7 9//7
f 16//9 13//9 15//9
f 14//10 9//10 13//10
f 12//12 14//12 16//12
f 10//7 12//7 11//7
f 16//9 14//9 13//9
f 14//10 10//10 9//10
f 12//12 10//12 14//12
usemtl LookingDir
f 15//11 9//11 11//11
f 15//11 13//11 9//11
usemtl UpDir
f 12//8 15//8 11//8
f 12//8 16//8 15//8
