# Blender 3.6.5
# www.blender.org
mtllib test_cube12.mtl
o Cube
v 1.000000 -0.747425 1.000000
v 1.000000 -0.747425 -1.000000
v 1.000000 -2.747425 1.000000
v 1.000000 -2.747425 -1.000000
v -1.000000 -0.747425 1.000000
v -1.000000 -0.747425 -1.000000
v -1.000000 -2.747425 1.000000
v -1.000000 -2.747425 -1.000000
vn -0.0000 -0.0000 1.0000
vn -0.0000 -1.0000 -0.0000
vn -1.0000 -0.0000 -0.0000
vn -0.0000 -0.0000 -1.0000
vn 1.0000 -0.0000 -0.0000
vn -0.0000 1.0000 -0.0000
s 0
usemtl Yellow
f 7//3 6//3 8//3
f 2//4 8//4 6//4
f 1//5 4//5 2//5
f 5//6 2//6 6//6
f 7//3 5//3 6//3
f 2//4 4//4 8//4
f 1//5 3//5 4//5
f 5//6 1//6 2//6
usemtl Blue
f 5//1 3//1 1//1
f 5//1 7//1 3//1
usemtl Red
f 3//2 8//2 4//2
f 3//2 7//2 8//2
o CameraBox
v 7.594808 -7.738094 6.088257
v 7.861847 -7.939916 6.307251
v 7.420099 -7.606053 6.422983
v 7.687138 -7.807874 6.641977
v 7.835986 -7.418981 6.088257
v 8.103025 -7.620802 6.307251
v 7.661277 -7.286940 6.422983
v 7.928316 -7.488761 6.641977
vn -0.6029 -0.7978 -0.0000
vn -0.4368 0.3301 0.8368
vn 0.6029 0.7978 -0.0000
vn 0.4368 -0.3301 -0.8368
vn -0.6676 0.5046 -0.5475
vn 0.6676 -0.5046 0.5475
s 0
usemtl None
f 10//7 11//7 9//7
f 16//9 13//9 15//9
f 14//10 9//10 13//10
f 12//12 14//12 16//12
f 10//7 12//7 11//7
f 16//9 14//9 13//9
f 14//10 10//10 9//10
f 12//12 10//12 14//12
usemtl LookingDir
f 15//11 9//11 11//11
f 15//11 13//11 9//11
usemtl UpDir
f 12//8 15//8 11//8
f 12//8 16//8 15//8
