# Blender 3.6.5
# www.blender.org
mtllib test_cube5.mtl
o Cube
v 1.000000 0.676965 1.000000
v 1.000000 0.676965 -1.000000
v 1.000000 -1.323035 1.000000
v 1.000000 -1.323035 -1.000000
v -1.000000 0.676965 1.000000
v -1.000000 0.676965 -1.000000
v -1.000000 -1.323035 1.000000
v -1.000000 -1.323035 -1.000000
vn -0.0000 -0.0000 1.0000
vn -0.0000 -1.0000 -0.0000
vn -1.0000 -0.0000 -0.0000
vn -0.0000 -0.0000 -1.0000
vn 1.0000 -0.0000 -0.0000
vn -0.0000 1.0000 -0.0000
s 0
usemtl Yellow
f 7//3 6//3 8//3
f 2//4 8//4 6//4
f 1//5 4//5 2//5
f 5//6 2//6 6//6
f 7//3 5//3 6//3
f 2//4 4//4 8//4
f 1//5 3//5 4//5
f 5//6 1//6 2//6
usemtl Blue
f 5//1 3//1 1//1
f 5//1 7//1 3//1
usemtl Red
f 3//2 8//2 4//2
f 3//2 7//2 8//2
o CameraBox
v 7.565453 -7.728358 6.083879
v 7.815411 -7.963945 6.288865
v 7.416281 -7.587762 6.427361
v 7.666239 -7.823350 6.632348
v 7.839804 -7.437271 6.083879
v 8.089762 -7.672859 6.288865
v 7.690632 -7.296676 6.427361
v 7.940590 -7.532263 6.632348
vn -0.6859 -0.7277 -0.0000
vn -0.3729 0.3515 0.8587
vn 0.6859 0.7277 -0.0000
vn 0.3729 -0.3515 -0.8587
vn -0.6249 0.5890 -0.5125
vn 0.6249 -0.5890 0.5125
s 0
usemtl None
f 10//7 11//7 9//7
f 16//9 13//9 15//9
f 14//10 9//10 13//10
f 12//12 14//12 16//12
f 10//7 12//7 11//7
f 16//9 14//9 13//9
f 14//10 10//10 9//10
f 12//12 10//12 14//12
usemtl LookingDir
f 15//11 9//11 11//11
f 15//11 13//11 9//11
usemtl UpDir
f 12//8 15//8 11//8
f 12//8 16//8 15//8
