# Blender 3.6.5
# www.blender.org
mtllib test_cube23.mtl
o Cube
v 1.000000 -3.008828 1.000000
v 1.000000 -3.008828 -1.000000
v 1.000000 -5.008828 1.000000
v 1.000000 -5.008828 -1.000000
v -1.000000 -3.008828 1.000000
v -1.000000 -3.008828 -1.000000
v -1.000000 -5.008828 1.000000
v -1.000000 -5.008828 -1.000000
vn -0.0000 -0.0000 1.0000
vn -0.0000 -1.0000 -0.0000
vn -1.0000 -0.0000 -0.0000
vn -0.0000 -0.0000 -1.0000
vn 1.0000 -0.0000 -0.0000
vn -0.0000 1.0000 -0.0000
s 0
usemtl Yellow
f 7//3 6//3 8//3
f 2//4 8//4 6//4
f 1//5 4//5 2//5
f 7//3 5//3 6//3
f 2//4 4//4 8//4
f 1//5 3//5 4//5
usemtl Blue
f 5//1 3//1 1//1
f 5//1 7//1 3//1
usemtl Red
f 3//2 8//2 4//2
f 3//2 7//2 8//2
usemtl Green
f 5//6 2//6 6//6
f 5//6 1//6 2//6
o CameraBox
v 7.653165 -7.744145 6.095253
v 7.944623 -7.878016 6.334273
v 7.435962 -7.644380 6.415987
v 7.727420 -7.778252 6.655006
v 7.820123 -7.380654 6.095253
v 8.111581 -7.514526 6.334273
v 7.602919 -7.280890 6.415987
v 7.894377 -7.414761 6.655006
vn -0.4174 -0.9087 -0.0000
vn -0.5430 0.2494 0.8018
vn 0.4174 0.9087 -0.0000
vn 0.5430 -0.2494 -0.8018
vn -0.7286 0.3347 -0.5975
vn 0.7286 -0.3347 0.5975
s 0
usemtl None
f 10//7 11//7 9//7
f 16//9 13//9 15//9
f 14//10 9//10 13//10
f 12//12 14//12 16//12
f 10//7 12//7 11//7
f 16//9 14//9 13//9
f 14//10 10//10 9//10
f 12//12 10//12 14//12
usemtl LookingDir
f 15//11 9//11 11//11
f 15//11 13//11 9//11
usemtl UpDir
f 12//8 15//8 11//8
f 12//8 16//8 15//8
