# Blender 3.6.5
# www.blender.org
mtllib test_cube48.mtl
o Cube
v 1.000000 -11.959998 1.000000
v 1.000000 -11.959998 -1.000000
v 1.000000 -13.959998 1.000000
v 1.000000 -13.959998 -1.000000
v -1.000000 -11.959998 1.000000
v -1.000000 -11.959998 -1.000000
v -1.000000 -13.959998 1.000000
v -1.000000 -13.959998 -1.000000
vn -0.0000 -0.0000 1.0000
vn -0.0000 -1.0000 -0.0000
vn -1.0000 -0.0000 -0.0000
vn -0.0000 -0.0000 -1.0000
vn 1.0000 -0.0000 -0.0000
vn -0.0000 1.0000 -0.0000
s 0
usemtl Yellow
f 7//3 6//3 8//3
f 2//4 8//4 6//4
f 1//5 4//5 2//5
f 7//3 5//3 6//3
f 2//4 4//4 8//4
f 1//5 3//5 4//5
usemtl Blue
f 5//1 3//1 1//1
f 5//1 7//1 3//1
usemtl Red
f 3//2 8//2 4//2
f 3//2 7//2 8//2
usemtl Green
f 5//6 2//6 6//6
f 5//6 1//6 2//6
o CameraBox
v 7.834622 -7.610754 6.089264
v 8.105380 -7.417396 6.311307
v 7.653926 -7.739796 6.421976
v 7.924683 -7.546438 6.644019
v 7.602159 -7.285238 6.089264
v 7.872916 -7.091879 6.311307
v 7.421463 -7.414280 6.421976
v 7.692220 -7.220922 6.644019
vn 0.5812 -0.8138 -0.0000
vn -0.4517 -0.3226 0.8318
vn -0.5812 0.8138 -0.0000
vn 0.4517 0.3226 -0.8318
vn -0.6769 -0.4834 -0.5551
vn 0.6769 0.4834 0.5551
s 0
usemtl None
f 10//7 11//7 9//7
f 16//9 13//9 15//9
f 14//10 9//10 13//10
f 12//12 14//12 16//12
f 10//7 12//7 11//7
f 16//9 14//9 13//9
f 14//10 10//10 9//10
f 12//12 10//12 14//12
usemtl LookingDir
f 15//11 9//11 11//11
f 15//11 13//11 9//11
usemtl UpDir
f 12//8 15//8 11//8
f 12//8 16//8 15//8
