# Blender 3.6.5
# www.blender.org
mtllib test_cube19.mtl
o Cube
v 1.000000 -1.848516 1.000000
v 1.000000 -1.848516 -1.000000
v 1.000000 -3.848516 1.000000
v 1.000000 -3.848516 -1.000000
v -1.000000 -1.848516 1.000000
v -1.000000 -1.848516 -1.000000
v -1.000000 -3.848516 1.000000
v -1.000000 -3.848516 -1.000000
vn -0.0000 -0.0000 1.0000
vn -0.0000 -1.0000 -0.0000
vn -1.0000 -0.0000 -0.0000
vn -0.0000 -0.0000 -1.0000
vn 1.0000 -0.0000 -0.0000
vn -0.0000 1.0000 -0.0000
s 0
usemtl Yellow
f 7//3 6//3 8//3
f 2//4 8//4 6//4
f 1//5 4//5 2//5
f 7//3 5//3 6//3
f 2//4 4//4 8//4
f 1//5 3//5 4//5
usemtl Blue
f 5//1 3//1 1//1
f 5//1 7//1 3//1
usemtl Red
f 3//2 8//2 4//2
f 3//2 7//2 8//2
usemtl Green
f 5//6 2//6 6//6
f 5//6 1//6 2//6
o CameraBox
v 7.621532 -7.742959 6.091748
v 7.901152 -7.913926 6.321058
v 7.425893 -7.623340 6.419493
v 7.705513 -7.794307 6.648803
v 7.830191 -7.401694 6.091748
v 8.109810 -7.572661 6.321058
v 7.634552 -7.282075 6.419493
v 7.914171 -7.453042 6.648803
vn -0.5216 -0.8532 -0.0000
vn -0.4891 0.2990 0.8194
vn 0.5216 0.8532 -0.0000
vn 0.4891 -0.2990 -0.8194
vn -0.6990 0.4274 -0.5733
vn 0.6990 -0.4274 0.5733
s 0
usemtl None
f 10//7 11//7 9//7
f 16//9 13//9 15//9
f 14//10 9//10 13//10
f 12//12 14//12 16//12
f 10//7 12//7 11//7
f 16//9 14//9 13//9
f 14//10 10//10 9//10
f 12//12 10//12 14//12
usemtl LookingDir
f 15//11 9//11 11//11
f 15//11 13//11 9//11
usemtl UpDir
f 12//8 15//8 11//8
f 12//8 16//8 15//8
