# Blender 3.6.5
# www.blender.org
mtllib test_cube40.mtl
o Cube
v 1.000000 -13.382099 1.000000
v 1.000000 -13.382099 -1.000000
v 1.000000 -15.382099 1.000000
v 1.000000 -15.382099 -1.000000
v -1.000000 -13.382099 1.000000
v -1.000000 -13.382099 -1.000000
v -1.000000 -15.382099 1.000000
v -1.000000 -15.382099 -1.000000
vn -0.0000 -0.0000 1.0000
vn -0.0000 -1.0000 -0.0000
vn -1.0000 -0.0000 -0.0000
vn -0.0000 -0.0000 -1.0000
vn 1.0000 -0.0000 -0.0000
vn -0.0000 1.0000 -0.0000
s 0
usemtl Yellow
f 7//3 6//3 8//3
f 2//4 8//4 6//4
f 1//5 4//5 2//5
f 5//6 2//6 6//6
f 7//3 5//3 6//3
f 2//4 4//4 8//4
f 1//5 3//5 4//5
f 5//6 1//6 2//6
usemtl Blue
f 5//1 3//1 1//1
f 5//1 7//1 3//1
usemtl Red
f 3//2 8//2 4//2
f 3//2 7//2 8//2
o CameraBox
v 7.839219 -7.591486 6.084833
v 8.093038 -7.362906 6.292984
v 7.684545 -7.730782 6.426407
v 7.938363 -7.502201 6.634559
v 7.571540 -7.294253 6.084833
v 7.825358 -7.065672 6.292984
v 7.416866 -7.433548 6.426407
v 7.670684 -7.204967 6.634559
vn 0.6692 -0.7431 -0.0000
vn -0.3867 -0.3482 0.8539
vn -0.6692 0.7431 -0.0000
vn 0.3867 0.3482 -0.8539
vn -0.6345 -0.5715 -0.5204
vn 0.6345 0.5715 0.5204
s 0
usemtl None
f 10//7 11//7 9//7
f 16//9 13//9 15//9
f 14//10 9//10 13//10
f 12//12 14//12 16//12
f 10//7 12//7 11//7
f 16//9 14//9 13//9
f 14//10 10//10 9//10
f 12//12 10//12 14//12
usemtl LookingDir
f 15//11 9//11 11//11
f 15//11 13//11 9//11
usemtl UpDir
f 12//8 15//8 11//8
f 12//8 16//8 15//8
