# Blender 3.6.5
# www.blender.org
mtllib test_cube4.mtl
o Cube
v 1.000000 0.791460 1.000000
v 1.000000 0.791460 -1.000000
v 1.000000 -1.208540 1.000000
v 1.000000 -1.208540 -1.000000
v -1.000000 0.791460 1.000000
v -1.000000 0.791460 -1.000000
v -1.000000 -1.208540 1.000000
v -1.000000 -1.208540 -1.000000
vn -0.0000 -0.0000 1.0000
vn -0.0000 -1.0000 -0.0000
vn -1.0000 -0.0000 -0.0000
vn -0.0000 -0.0000 -1.0000
vn 1.0000 -0.0000 -0.0000
vn -0.0000 1.0000 -0.0000
s 0
usemtl Yellow
f 7//3 6//3 8//3
f 2//4 8//4 6//4
f 1//5 4//5 2//5
f 5//6 2//6 6//6
f 7//3 5//3 6//3
f 2//4 4//4 8//4
f 1//5 3//5 4//5
f 5//6 1//6 2//6
usemtl Blue
f 5//1 3//1 1//1
f 5//1 7//1 3//1
usemtl Red
f 3//2 8//2 4//2
f 3//2 7//2 8//2
o CameraBox
v 7.563343 -7.727467 6.083542
v 7.811921 -7.965484 6.287396
v 7.416102 -7.586481 6.427698
v 7.664680 -7.824499 6.631553
v 7.839982 -7.438553 6.083542
v 8.088560 -7.676571 6.287396
v 7.692741 -7.297568 6.427698
v 7.941319 -7.535585 6.631553
vn -0.6916 -0.7223 -0.0000
vn -0.3681 0.3525 0.8604
vn 0.6916 0.7223 -0.0000
vn 0.3681 -0.3525 -0.8604
vn -0.6214 0.5950 -0.5096
vn 0.6214 -0.5950 0.5096
s 0
usemtl None
f 10//7 11//7 9//7
f 16//9 13//9 15//9
f 14//10 9//10 13//10
f 12//12 14//12 16//12
f 10//7 12//7 11//7
f 16//9 14//9 13//9
f 14//10 10//10 9//10
f 12//12 10//12 14//12
usemtl LookingDir
f 15//11 9//11 11//11
f 15//11 13//11 9//11
usemtl UpDir
f 12//8 15//8 11//8
f 12//8 16//8 15//8
