# Blender 3.6.5
# www.blender.org
mtllib test_cube64.mtl
o Cube
v 1.000000 -16.919998 1.000000
v 1.000000 -16.919998 -1.000000
v 1.000000 -18.919998 1.000000
v 1.000000 -18.919998 -1.000000
v -1.000000 -16.919998 1.000000
v -1.000000 -16.919998 -1.000000
v -1.000000 -18.919998 1.000000
v -1.000000 -18.919998 -1.000000
vn -0.0000 -0.0000 1.0000
vn -0.0000 -1.0000 -0.0000
vn -1.0000 -0.0000 -0.0000
vn -0.0000 -0.0000 -1.0000
vn 1.0000 -0.0000 -0.0000
vn -0.0000 1.0000 -0.0000
s 0
usemtl Yellow
f 7//3 6//3 8//3
f 2//4 8//4 6//4
f 1//5 4//5 2//5
f 7//3 5//3 6//3
f 2//4 4//4 8//4
f 1//5 3//5 4//5
usemtl Blue
f 5//1 3//1 1//1
f 5//1 7//1 3//1
usemtl Red
f 3//2 8//2 4//2
f 3//2 7//2 8//2
usemtl Green
f 5//6 2//6 6//6
f 5//6 1//6 2//6
o CameraBox
v 7.840930 -7.560379 6.075654
v 8.053707 -7.270072 6.250148
v 7.737777 -7.701118 6.435586
v 7.950554 -7.410812 6.610081
v 7.518308 -7.323916 6.075654
v 7.731084 -7.033609 6.250148
v 7.415154 -7.464656 6.435586
v 7.627931 -7.174349 6.610081
vn 0.8066 -0.5912 -0.0000
vn -0.2579 -0.3518 0.8998
vn -0.8066 0.5912 -0.0000
vn 0.2579 0.3518 -0.8998
vn -0.5319 -0.7258 -0.4362
vn 0.5319 0.7258 0.4362
s 0
usemtl None
f 10//7 11//7 9//7
f 16//9 13//9 15//9
f 14//10 9//10 13//10
f 12//12 14//12 16//12
f 10//7 12//7 11//7
f 16//9 14//9 13//9
f 14//10 10//10 9//10
f 12//12 10//12 14//12
usemtl LookingDir
f 15//11 9//11 11//11
f 15//11 13//11 9//11
usemtl UpDir
f 12//8 15//8 11//8
f 12//8 16//8 15//8
