# Blender 3.6.5
# www.blender.org
mtllib test_cube64.mtl
o Cube
v 1.000000 1.000000 24.772718
v 1.000000 -1.000000 24.772718
v 1.000000 1.000000 26.772718
v 1.000000 -1.000000 26.772718
v -1.000000 1.000000 24.772718
v -1.000000 -1.000000 24.772718
v -1.000000 1.000000 26.772718
v -1.000000 -1.000000 26.772718
vn -0.0000 1.0000 -0.0000
vn -0.0000 -0.0000 1.0000
vn -1.0000 -0.0000 -0.0000
vn -0.0000 -1.0000 -0.0000
vn 1.0000 -0.0000 -0.0000
vn -0.0000 -0.0000 -1.0000
s 0
usemtl Yellow
f 7//3 6//3 8//3
f 2//4 8//4 6//4
f 1//5 4//5 2//5
f 5//6 2//6 6//6
f 7//3 5//3 6//3
f 2//4 4//4 8//4
f 1//5 3//5 4//5
f 5//6 1//6 2//6
usemtl Blue
f 5//1 3//1 1//1
f 5//1 7//1 3//1
usemtl Red
f 3//2 8//2 4//2
f 3//2 7//2 8//2
o CameraBox
v 7.835823 6.064921 7.533986
v 7.982837 6.185484 7.182061
v 7.789351 6.446319 7.645233
v 7.936365 6.566883 7.293307
v 7.466733 6.064921 7.379802
v 7.613747 6.185484 7.027876
v 7.420261 6.446319 7.491048
v 7.567275 6.566883 7.139123
vn 0.9227 -0.0000 0.3855
vn -0.1162 0.9535 0.2781
vn -0.9227 -0.0000 -0.3855
vn 0.1162 -0.9535 -0.2781
vn -0.3675 -0.3014 0.8798
vn 0.3675 0.3014 -0.8798
s 0
usemtl None
f 10//7 11//7 9//7
f 12//8 15//8 11//8
f 16//9 13//9 15//9
f 14//10 9//10 13//10
f 12//12 14//12 16//12
f 10//7 12//7 11//7
f 12//8 16//8 15//8
f 16//9 14//9 13//9
f 14//10 10//10 9//10
f 12//12 10//12 14//12
usemtl CameraFace
f 15//11 9//11 11//11
f 15//11 13//11 9//11
