# Blender 3.6.5
# www.blender.org
mtllib test_cube60.mtl
o Cube
v 1.000000 -15.875000 1.000000
v 1.000000 -15.875000 -1.000000
v 1.000000 -17.875000 1.000000
v 1.000000 -17.875000 -1.000000
v -1.000000 -15.875000 1.000000
v -1.000000 -15.875000 -1.000000
v -1.000000 -17.875000 1.000000
v -1.000000 -17.875000 -1.000000
vn -0.0000 -0.0000 1.0000
vn -0.0000 -1.0000 -0.0000
vn -1.0000 -0.0000 -0.0000
vn -0.0000 -0.0000 -1.0000
vn 1.0000 -0.0000 -0.0000
vn -0.0000 1.0000 -0.0000
s 0
usemtl Yellow
f 7//3 6//3 8//3
f 2//4 8//4 6//4
f 1//5 4//5 2//5
f 7//3 5//3 6//3
f 2//4 4//4 8//4
f 1//5 3//5 4//5
usemtl Blue
f 5//1 3//1 1//1
f 5//1 7//1 3//1
usemtl Red
f 3//2 8//2 4//2
f 3//2 7//2 8//2
usemtl Green
f 5//6 2//6 6//6
f 5//6 1//6 2//6
o CameraBox
v 7.841199 -7.567529 6.078031
v 8.065544 -7.292173 6.262012
v 7.724989 -7.710162 6.433209
v 7.949334 -7.434806 6.617190
v 7.531095 -7.314872 6.078031
v 7.755439 -7.039517 6.262012
v 7.414885 -7.457505 6.433209
v 7.639229 -7.182150 6.617190
vn 0.7753 -0.6316 -0.0000
vn -0.2905 -0.3566 0.8879
vn -0.7753 0.6316 -0.0000
vn 0.2905 0.3566 -0.8879
vn -0.5609 -0.6884 -0.4600
vn 0.5609 0.6884 0.4600
s 0
usemtl None
f 10//7 11//7 9//7
f 16//9 13//9 15//9
f 14//10 9//10 13//10
f 12//12 14//12 16//12
f 10//7 12//7 11//7
f 16//9 14//9 13//9
f 14//10 10//10 9//10
f 12//12 10//12 14//12
usemtl LookingDir
f 15//11 9//11 11//11
f 15//11 13//11 9//11
usemtl UpDir
f 12//8 15//8 11//8
f 12//8 16//8 15//8
