# Blender 3.6.5
# www.blender.org
mtllib test_cube2.mtl
o Cube
v 1.000000 1.000000 -0.946966
v 1.000000 -1.000000 -0.946966
v 1.000000 1.000000 1.053034
v 1.000000 -1.000000 1.053034
v -1.000000 1.000000 -0.946966
v -1.000000 -1.000000 -0.946966
v -1.000000 1.000000 1.053034
v -1.000000 -1.000000 1.053034
vn -0.0000 1.0000 -0.0000
vn -0.0000 -0.0000 1.0000
vn -1.0000 -0.0000 -0.0000
vn -0.0000 -1.0000 -0.0000
vn 1.0000 -0.0000 -0.0000
vn -0.0000 -0.0000 -1.0000
s 0
usemtl Yellow
f 7//3 6//3 8//3
f 2//4 8//4 6//4
f 1//5 4//5 2//5
f 5//6 2//6 6//6
f 7//3 5//3 6//3
f 2//4 4//4 8//4
f 1//5 3//5 4//5
f 5//6 1//6 2//6
usemtl Blue
f 5//1 3//1 1//1
f 5//1 7//1 3//1
usemtl Red
f 3//2 8//2 4//2
f 3//2 7//2 8//2
o CameraBox
v 7.560535 6.083090 7.726236
v 7.807240 6.285408 7.967490
v 7.415884 6.428151 7.584782
v 7.662590 6.630469 7.826036
v 7.840200 6.083090 7.440251
v 8.086905 6.285408 7.681506
v 7.695550 6.428151 7.298798
v 7.942255 6.630469 7.540051
vn -0.6992 -0.0000 0.7150
vn -0.3616 0.8627 -0.3536
vn 0.6992 -0.0000 -0.7150
vn 0.3616 -0.8627 0.3536
vn -0.6168 -0.5058 -0.6031
vn 0.6168 0.5058 0.6031
s 0
usemtl None
f 10//7 11//7 9//7
f 12//8 15//8 11//8
f 16//9 13//9 15//9
f 14//10 9//10 13//10
f 12//12 14//12 16//12
f 10//7 12//7 11//7
f 12//8 16//8 15//8
f 16//9 14//9 13//9
f 14//10 10//10 9//10
f 12//12 10//12 14//12
usemtl CameraFace
f 15//11 9//11 11//11
f 15//11 13//11 9//11
