# Blender 3.6.5
# www.blender.org
mtllib test_cube31.mtl
o Cube
v 1.000000 1.000000 8.610050
v 1.000000 -1.000000 8.610050
v 1.000000 1.000000 10.610050
v 1.000000 -1.000000 10.610050
v -1.000000 1.000000 8.610050
v -1.000000 -1.000000 8.610050
v -1.000000 1.000000 10.610050
v -1.000000 -1.000000 10.610050
vn -0.0000 1.0000 -0.0000
vn -0.0000 -0.0000 1.0000
vn -1.0000 -0.0000 -0.0000
vn -0.0000 -1.0000 -0.0000
vn 1.0000 -0.0000 -0.0000
vn -0.0000 -0.0000 -1.0000
s 0
usemtl Yellow
f 7//3 6//3 8//3
f 2//4 8//4 6//4
f 1//5 4//5 2//5
f 5//6 2//6 6//6
f 7//3 5//3 6//3
f 2//4 4//4 8//4
f 1//5 3//5 4//5
f 5//6 1//6 2//6
usemtl Blue
f 5//1 3//1 1//1
f 5//1 7//1 3//1
usemtl Red
f 3//2 8//2 4//2
f 3//2 7//2 8//2
o CameraBox
v 7.800680 6.098740 7.672469
v 8.103212 6.346840 7.589280
v 7.561459 6.412501 7.738249
v 7.863990 6.660602 7.655060
v 7.694626 6.098740 7.286785
v 7.997158 6.346840 7.203596
v 7.455404 6.412501 7.352565
v 7.757936 6.660602 7.269376
vn 0.2651 -0.0000 0.9642
vn -0.5981 0.7844 0.1645
vn -0.2651 -0.0000 -0.9642
vn 0.5981 -0.7844 -0.1645
vn -0.7563 -0.6203 0.2080
vn 0.7563 0.6203 -0.2080
s 0
usemtl None
f 10//7 11//7 9//7
f 12//8 15//8 11//8
f 16//9 13//9 15//9
f 14//10 9//10 13//10
f 12//12 14//12 16//12
f 10//7 12//7 11//7
f 12//8 16//8 15//8
f 16//9 14//9 13//9
f 14//10 10//10 9//10
f 12//12 10//12 14//12
usemtl CameraFace
f 15//11 9//11 11//11
f 15//11 13//11 9//11
