# Blender 3.6.5
# www.blender.org
mtllib test_cube55.mtl
o Cube
v 1.000000 -14.361326 1.000000
v 1.000000 -14.361326 -1.000000
v 1.000000 -16.361326 1.000000
v 1.000000 -16.361326 -1.000000
v -1.000000 -14.361326 1.000000
v -1.000000 -14.361326 -1.000000
v -1.000000 -16.361326 1.000000
v -1.000000 -16.361326 -1.000000
vn -0.0000 -0.0000 1.0000
vn -0.0000 -1.0000 -0.0000
vn -1.0000 -0.0000 -0.0000
vn -0.0000 -0.0000 -1.0000
vn 1.0000 -0.0000 -0.0000
vn -0.0000 1.0000 -0.0000
s 0
usemtl Yellow
f 7//3 6//3 8//3
f 2//4 8//4 6//4
f 1//5 4//5 2//5
f 7//3 5//3 6//3
f 2//4 4//4 8//4
f 1//5 3//5 4//5
usemtl Blue
f 5//1 3//1 1//1
f 5//1 7//1 3//1
usemtl Red
f 3//2 8//2 4//2
f 3//2 7//2 8//2
usemtl Green
f 5//6 2//6 6//6
f 5//6 1//6 2//6
o CameraBox
v 7.840634 -7.580737 6.081981
v 8.082670 -7.331696 6.280470
v 7.702298 -7.723077 6.429259
v 7.944333 -7.474037 6.627748
v 7.553786 -7.301957 6.081981
v 7.795822 -7.052917 6.280470
v 7.415450 -7.444297 6.429259
v 7.657485 -7.195257 6.627748
vn 0.7171 -0.6969 -0.0000
vn -0.3458 -0.3559 0.8682
vn -0.7171 0.6969 -0.0000
vn 0.3458 0.3559 -0.8682
vn -0.6051 -0.6226 -0.4962
vn 0.6051 0.6226 0.4962
s 0
usemtl None
f 10//7 11//7 9//7
f 16//9 13//9 15//9
f 14//10 9//10 13//10
f 12//12 14//12 16//12
f 10//7 12//7 11//7
f 16//9 14//9 13//9
f 14//10 10//10 9//10
f 12//12 10//12 14//12
usemtl LookingDir
f 15//11 9//11 11//11
f 15//11 13//11 9//11
usemtl UpDir
f 12//8 15//8 11//8
f 12//8 16//8 15//8
