# Blender 3.6.5
# www.blender.org
mtllib test_cube16.mtl
o Cube
v 1.000000 -1.080000 1.000000
v 1.000000 -1.080000 -1.000000
v 1.000000 -3.080000 1.000000
v 1.000000 -3.080000 -1.000000
v -1.000000 -1.080000 1.000000
v -1.000000 -1.080000 -1.000000
v -1.000000 -3.080000 1.000000
v -1.000000 -3.080000 -1.000000
vn -0.0000 -0.0000 1.0000
vn -0.0000 -1.0000 -0.0000
vn -1.0000 -0.0000 -0.0000
vn -0.0000 -0.0000 -1.0000
vn 1.0000 -0.0000 -0.0000
vn -0.0000 1.0000 -0.0000
s 0
usemtl Yellow
f 7//3 6//3 8//3
f 2//4 8//4 6//4
f 1//5 4//5 2//5
f 7//3 5//3 6//3
f 2//4 4//4 8//4
f 1//5 3//5 4//5
usemtl Blue
f 5//1 3//1 1//1
f 5//1 7//1 3//1
usemtl Red
f 3//2 8//2 4//2
f 3//2 7//2 8//2
usemtl Green
f 5//6 2//6 6//6
f 5//6 1//6 2//6
o CameraBox
v 7.602512 -7.739871 6.089312
v 7.873443 -7.932822 6.311497
v 7.421532 -7.610981 6.421928
v 7.692463 -7.803932 6.644114
v 7.834553 -7.414053 6.089312
v 8.105483 -7.607004 6.311497
v 7.653573 -7.285163 6.421928
v 7.924503 -7.478114 6.644114
vn -0.5801 -0.8145 -0.0000
vn -0.4525 0.3222 0.8315
vn 0.5801 0.8145 -0.0000
vn 0.4525 -0.3222 -0.8315
vn -0.6773 0.4824 -0.5555
vn 0.6773 -0.4824 0.5555
s 0
usemtl None
f 10//7 11//7 9//7
f 16//9 13//9 15//9
f 14//10 9//10 13//10
f 12//12 14//12 16//12
f 10//7 12//7 11//7
f 16//9 14//9 13//9
f 14//10 10//10 9//10
f 12//12 10//12 14//12
usemtl LookingDir
f 15//11 9//11 11//11
f 15//11 13//11 9//11
usemtl UpDir
f 12//8 15//8 11//8
f 12//8 16//8 15//8
