# Blender 3.6.5
# www.blender.org
mtllib test_cube20.mtl
o Cube
v 1.000000 -2.125000 1.000000
v 1.000000 -2.125000 -1.000000
v 1.000000 -4.125000 1.000000
v 1.000000 -4.125000 -1.000000
v -1.000000 -2.125000 1.000000
v -1.000000 -2.125000 -1.000000
v -1.000000 -4.125000 1.000000
v -1.000000 -4.125000 -1.000000
vn -0.0000 -0.0000 1.0000
vn -0.0000 -1.0000 -0.0000
vn -1.0000 -0.0000 -0.0000
vn -0.0000 -0.0000 -1.0000
vn 1.0000 -0.0000 -0.0000
vn -0.0000 1.0000 -0.0000
s 0
usemtl Yellow
f 7//3 6//3 8//3
f 2//4 8//4 6//4
f 1//5 4//5 2//5
f 7//3 5//3 6//3
f 2//4 4//4 8//4
f 1//5 3//5 4//5
usemtl Blue
f 5//1 3//1 1//1
f 5//1 7//1 3//1
usemtl Red
f 3//2 8//2 4//2
f 3//2 7//2 8//2
usemtl Green
f 5//6 2//6 6//6
f 5//6 1//6 2//6
o CameraBox
v 7.628773 -7.743661 6.092611
v 7.911378 -7.906210 6.324370
v 7.427876 -7.628108 6.418629
v 7.710480 -7.790658 6.650388
v 7.828209 -7.396925 6.092611
v 8.110814 -7.559475 6.324370
v 7.627312 -7.281373 6.418629
v 7.909916 -7.443922 6.650388
vn -0.4986 -0.8668 -0.0000
vn -0.5022 0.2889 0.8150
vn 0.4986 0.8668 -0.0000
vn 0.5022 -0.2889 -0.8150
vn -0.7065 0.4064 -0.5794
vn 0.7065 -0.4064 0.5794
s 0
usemtl None
f 10//7 11//7 9//7
f 16//9 13//9 15//9
f 14//10 9//10 13//10
f 12//12 14//12 16//12
f 10//7 12//7 11//7
f 16//9 14//9 13//9
f 14//10 10//10 9//10
f 12//12 10//12 14//12
usemtl LookingDir
f 15//11 9//11 11//11
f 15//11 13//11 9//11
usemtl UpDir
f 12//8 15//8 11//8
f 12//8 16//8 15//8
