# Blender 3.6.5
# www.blender.org
mtllib test_cube21.mtl
o Cube
v 1.000000 1.000000 3.905531
v 1.000000 -1.000000 3.905531
v 1.000000 1.000000 5.905531
v 1.000000 -1.000000 5.905531
v -1.000000 1.000000 3.905531
v -1.000000 -1.000000 3.905531
v -1.000000 1.000000 5.905531
v -1.000000 -1.000000 5.905531
vn -0.0000 1.0000 -0.0000
vn -0.0000 -0.0000 1.0000
vn -1.0000 -0.0000 -0.0000
vn -0.0000 -1.0000 -0.0000
vn 1.0000 -0.0000 -0.0000
vn -0.0000 -0.0000 -1.0000
s 0
usemtl Yellow
f 7//3 6//3 8//3
f 2//4 8//4 6//4
f 1//5 4//5 2//5
f 5//6 2//6 6//6
f 7//3 5//3 6//3
f 2//4 4//4 8//4
f 1//5 3//5 4//5
f 5//6 1//6 2//6
usemtl Blue
f 5//1 3//1 1//1
f 5//1 7//1 3//1
usemtl Red
f 3//2 8//2 4//2
f 3//2 7//2 8//2
o CameraBox
v 7.679388 6.097615 7.741423
v 7.978417 6.342843 7.843620
v 7.447337 6.413626 7.662117
v 7.746367 6.658854 7.764314
v 7.808747 6.097615 7.362918
v 8.107777 6.342843 7.465115
v 7.576696 6.413626 7.283611
v 7.875726 6.658854 7.385808
vn -0.3234 -0.0000 0.9463
vn -0.5801 0.7900 -0.1983
vn 0.3234 -0.0000 -0.9463
vn 0.5801 -0.7900 0.1983
vn -0.7476 -0.6131 -0.2555
vn 0.7476 0.6131 0.2555
s 0
usemtl None
f 10//7 11//7 9//7
f 12//8 15//8 11//8
f 16//9 13//9 15//9
f 14//10 9//10 13//10
f 12//12 14//12 16//12
f 10//7 12//7 11//7
f 12//8 16//8 15//8
f 16//9 14//9 13//9
f 14//10 10//10 9//10
f 12//12 10//12 14//12
usemtl CameraFace
f 15//11 9//11 11//11
f 15//11 13//11 9//11
