# Blender 3.6.5
# www.blender.org
mtllib test_cube51.mtl
o Cube
v 1.000000 -13.021014 1.000000
v 1.000000 -13.021014 -1.000000
v 1.000000 -15.021014 1.000000
v 1.000000 -15.021014 -1.000000
v -1.000000 -13.021014 1.000000
v -1.000000 -13.021014 -1.000000
v -1.000000 -15.021014 1.000000
v -1.000000 -15.021014 -1.000000
vn -0.0000 -0.0000 1.0000
vn -0.0000 -1.0000 -0.0000
vn -1.0000 -0.0000 -0.0000
vn -0.0000 -0.0000 -1.0000
vn 1.0000 -0.0000 -0.0000
vn -0.0000 1.0000 -0.0000
s 0
usemtl Yellow
f 7//3 6//3 8//3
f 2//4 8//4 6//4
f 1//5 4//5 2//5
f 7//3 5//3 6//3
f 2//4 4//4 8//4
f 1//5 3//5 4//5
usemtl Blue
f 5//1 3//1 1//1
f 5//1 7//1 3//1
usemtl Red
f 3//2 8//2 4//2
f 3//2 7//2 8//2
usemtl Green
f 5//6 2//6 6//6
f 5//6 1//6 2//6
o CameraBox
v 7.838388 -7.595951 6.085933
v 8.096558 -7.375672 6.297654
v 7.677327 -7.733373 6.425307
v 7.935497 -7.513094 6.637027
v 7.578758 -7.291661 6.085933
v 7.836927 -7.071382 6.297654
v 7.417697 -7.429083 6.425307
v 7.675867 -7.208805 6.637027
vn 0.6491 -0.7607 -0.0000
vn -0.4027 -0.3436 0.8484
vn -0.6491 0.7607 -0.0000
vn 0.4027 0.3436 -0.8484
vn -0.6454 -0.5507 -0.5293
vn 0.6454 0.5507 0.5293
s 0
usemtl None
f 10//7 11//7 9//7
f 16//9 13//9 15//9
f 14//10 9//10 13//10
f 12//12 14//12 16//12
f 10//7 12//7 11//7
f 16//9 14//9 13//9
f 14//10 10//10 9//10
f 12//12 10//12 14//12
usemtl LookingDir
f 15//11 9//11 11//11
f 15//11 13//11 9//11
usemtl UpDir
f 12//8 15//8 11//8
f 12//8 16//8 15//8
