# Blender 3.6.5
# www.blender.org
mtllib test_cube54.mtl
o Cube
v 1.000000 -20.624382 1.000000
v 1.000000 -20.624382 -1.000000
v 1.000000 -22.624382 1.000000
v 1.000000 -22.624382 -1.000000
v -1.000000 -20.624382 1.000000
v -1.000000 -20.624382 -1.000000
v -1.000000 -22.624382 1.000000
v -1.000000 -22.624382 -1.000000
vn -0.0000 -0.0000 1.0000
vn -0.0000 -1.0000 -0.0000
vn -1.0000 -0.0000 -0.0000
vn -0.0000 -0.0000 -1.0000
vn 1.0000 -0.0000 -0.0000
vn -0.0000 1.0000 -0.0000
s 0
usemtl Yellow
f 7//3 6//3 8//3
f 2//4 8//4 6//4
f 1//5 4//5 2//5
f 5//6 2//6 6//6
f 7//3 5//3 6//3
f 2//4 4//4 8//4
f 1//5 3//5 4//5
f 5//6 1//6 2//6
usemtl Blue
f 5//1 3//1 1//1
f 5//1 7//1 3//1
usemtl Red
f 3//2 8//2 4//2
f 3//2 7//2 8//2
o CameraBox
v 7.838536 -7.543698 6.069287
v 8.015746 -7.215861 6.214613
v 7.769431 -7.671543 6.441954
v 7.946640 -7.343706 6.587280
v 7.486654 -7.353491 6.069287
v 7.663863 -7.025654 6.214613
v 7.417549 -7.481336 6.441954
v 7.594758 -7.153499 6.587280
vn 0.8797 -0.4755 -0.0000
vn -0.1728 -0.3196 0.9317
vn -0.8797 0.4755 -0.0000
vn 0.1728 0.3196 -0.9317
vn -0.4430 -0.8196 -0.3633
vn 0.4430 0.8196 0.3633
s 0
usemtl None
f 10//7 11//7 9//7
f 16//9 13//9 15//9
f 14//10 9//10 13//10
f 12//12 14//12 16//12
f 10//7 12//7 11//7
f 16//9 14//9 13//9
f 14//10 10//10 9//10
f 12//12 10//12 14//12
usemtl LookingDir
f 15//11 9//11 11//11
f 15//11 13//11 9//11
usemtl UpDir
f 12//8 15//8 11//8
f 12//8 16//8 15//8
