# Blender 3.6.5
# www.blender.org
mtllib test_cube11.mtl
o Cube
v 1.000000 -0.030391 1.000000
v 1.000000 -0.030391 -1.000000
v 1.000000 -2.030391 1.000000
v 1.000000 -2.030391 -1.000000
v -1.000000 -0.030391 1.000000
v -1.000000 -0.030391 -1.000000
v -1.000000 -2.030391 1.000000
v -1.000000 -2.030391 -1.000000
vn -0.0000 -0.0000 1.0000
vn -0.0000 -1.0000 -0.0000
vn -1.0000 -0.0000 -0.0000
vn -0.0000 -0.0000 -1.0000
vn 1.0000 -0.0000 -0.0000
vn -0.0000 1.0000 -0.0000
s 0
usemtl Yellow
f 7//3 6//3 8//3
f 2//4 8//4 6//4
f 1//5 4//5 2//5
f 7//3 5//3 6//3
f 2//4 4//4 8//4
f 1//5 3//5 4//5
usemtl Blue
f 5//1 3//1 1//1
f 5//1 7//1 3//1
usemtl Red
f 3//2 8//2 4//2
f 3//2 7//2 8//2
usemtl Green
f 5//6 2//6 6//6
f 5//6 1//6 2//6
o CameraBox
v 7.579299 -7.733556 6.086015
v 7.837786 -7.953212 6.297995
v 7.417765 -7.596288 6.425226
v 7.676252 -7.815944 6.637206
v 7.838319 -7.428746 6.086015
v 8.096806 -7.648402 6.297995
v 7.676785 -7.291478 6.425226
v 7.935272 -7.511134 6.637206
vn -0.6475 -0.7620 -0.0000
vn -0.4038 0.3432 0.8480
vn 0.6475 0.7620 -0.0000
vn 0.4038 -0.3432 -0.8480
vn -0.6462 0.5491 -0.5300
vn 0.6462 -0.5491 0.5300
s 0
usemtl None
f 10//7 11//7 9//7
f 16//9 13//9 15//9
f 14//10 9//10 13//10
f 12//12 14//12 16//12
f 10//7 12//7 11//7
f 16//9 14//9 13//9
f 14//10 10//10 9//10
f 12//12 10//12 14//12
usemtl LookingDir
f 15//11 9//11 11//11
f 15//11 13//11 9//11
usemtl UpDir
f 12//8 15//8 11//8
f 12//8 16//8 15//8
