# Blender 3.6.5
# www.blender.org
mtllib test_cube14.mtl
o Cube
v 1.000000 1.000000 1.334394
v 1.000000 -1.000000 1.334394
v 1.000000 1.000000 3.334394
v 1.000000 -1.000000 3.334394
v -1.000000 1.000000 1.334394
v -1.000000 -1.000000 1.334394
v -1.000000 1.000000 3.334394
v -1.000000 -1.000000 3.334394
vn -0.0000 1.0000 -0.0000
vn -0.0000 -0.0000 1.0000
vn -1.0000 -0.0000 -0.0000
vn -0.0000 -1.0000 -0.0000
vn 1.0000 -0.0000 -0.0000
vn -0.0000 -0.0000 -1.0000
s 0
usemtl Yellow
f 7//3 6//3 8//3
f 2//4 8//4 6//4
f 1//5 4//5 2//5
f 5//6 2//6 6//6
f 7//3 5//3 6//3
f 2//4 4//4 8//4
f 1//5 3//5 4//5
f 5//6 1//6 2//6
usemtl Blue
f 5//1 3//1 1//1
f 5//1 7//1 3//1
usemtl Red
f 3//2 8//2 4//2
f 3//2 7//2 8//2
o CameraBox
v 7.608623 6.090121 7.741062
v 7.882483 6.314709 7.926966
v 7.422803 6.421119 7.614923
v 7.696664 6.645708 7.800827
v 7.833281 6.090121 7.410111
v 8.107141 6.314709 7.596015
v 7.647462 6.421119 7.283972
v 7.921323 6.645708 7.469876
vn -0.5616 -0.0000 0.8274
vn -0.4645 0.8275 -0.3153
vn 0.5616 -0.0000 -0.8274
vn 0.4645 -0.8275 0.3153
vn -0.6847 -0.5615 -0.4648
vn 0.6847 0.5615 0.4648
s 0
usemtl None
f 10//7 11//7 9//7
f 12//8 15//8 11//8
f 16//9 13//9 15//9
f 14//10 9//10 13//10
f 12//12 14//12 16//12
f 10//7 12//7 11//7
f 12//8 16//8 15//8
f 16//9 14//9 13//9
f 14//10 10//10 9//10
f 12//12 10//12 14//12
usemtl CameraFace
f 15//11 9//11 11//11
f 15//11 13//11 9//11
