# Blender 3.6.5
# www.blender.org
mtllib test_cube27.mtl
o Cube
v 1.000000 1.000000 6.617680
v 1.000000 -1.000000 6.617680
v 1.000000 1.000000 8.617680
v 1.000000 -1.000000 8.617680
v -1.000000 1.000000 6.617680
v -1.000000 -1.000000 6.617680
v -1.000000 1.000000 8.617680
v -1.000000 -1.000000 8.617680
vn -0.0000 1.0000 -0.0000
vn -0.0000 -0.0000 1.0000
vn -1.0000 -0.0000 -0.0000
vn -0.0000 -1.0000 -0.0000
vn 1.0000 -0.0000 -0.0000
vn -0.0000 -0.0000 -1.0000
s 0
usemtl Yellow
f 7//3 6//3 8//3
f 2//4 8//4 6//4
f 1//5 4//5 2//5
f 5//6 2//6 6//6
f 7//3 5//3 6//3
f 2//4 4//4 8//4
f 1//5 3//5 4//5
f 5//6 1//6 2//6
usemtl Blue
f 5//1 3//1 1//1
f 5//1 7//1 3//1
usemtl Red
f 3//2 8//2 4//2
f 3//2 7//2 8//2
o CameraBox
v 7.757604 6.100967 7.710750
v 8.066881 6.354599 7.706486
v 7.503995 6.410273 7.714246
v 7.813272 6.663906 7.709982
v 7.752090 6.100967 7.310788
v 8.061367 6.354599 7.306524
v 7.498481 6.410273 7.314284
v 7.807758 6.663906 7.310020
vn 0.0138 -0.0000 0.9999
vn -0.6340 0.7733 0.0087
vn -0.0138 -0.0000 -0.9999
vn 0.6340 -0.7733 -0.0087
vn -0.7732 -0.6341 0.0107
vn 0.7732 0.6341 -0.0107
s 0
usemtl None
f 10//7 11//7 9//7
f 12//8 15//8 11//8
f 16//9 13//9 15//9
f 14//10 9//10 13//10
f 12//12 14//12 16//12
f 10//7 12//7 11//7
f 12//8 16//8 15//8
f 16//9 14//9 13//9
f 14//10 10//10 9//10
f 12//12 10//12 14//12
usemtl CameraFace
f 15//11 9//11 11//11
f 15//11 13//11 9//11
