# Blender 3.6.5
# www.blender.org
mtllib test_cube10.mtl
o Cube
v 1.000000 -0.235962 1.000000
v 1.000000 -0.235962 -1.000000
v 1.000000 -2.235962 1.000000
v 1.000000 -2.235962 -1.000000
v -1.000000 -0.235962 1.000000
v -1.000000 -0.235962 -1.000000
v -1.000000 -2.235962 1.000000
v -1.000000 -2.235962 -1.000000
vn -0.0000 -0.0000 1.0000
vn -0.0000 -1.0000 -0.0000
vn -1.0000 -0.0000 -0.0000
vn -0.0000 -0.0000 -1.0000
vn 1.0000 -0.0000 -0.0000
vn -0.0000 1.0000 -0.0000
s 0
usemtl Yellow
f 7//3 6//3 8//3
f 2//4 8//4 6//4
f 1//5 4//5 2//5
f 5//6 2//6 6//6
f 7//3 5//3 6//3
f 2//4 4//4 8//4
f 1//5 3//5 4//5
f 5//6 1//6 2//6
usemtl Blue
f 5//1 3//1 1//1
f 5//1 7//1 3//1
usemtl Red
f 3//2 8//2 4//2
f 3//2 7//2 8//2
o CameraBox
v 7.583592 -7.734944 6.086651
v 7.844547 -7.949664 6.300655
v 7.418339 -7.598969 6.424589
v 7.679294 -7.813689 6.638594
v 7.837746 -7.426065 6.086651
v 8.098701 -7.640786 6.300655
v 7.672493 -7.290091 6.424589
v 7.933447 -7.504811 6.638594
vn -0.6354 -0.7722 -0.0000
vn -0.4131 0.3399 0.8448
vn 0.6354 0.7722 -0.0000
vn 0.4131 -0.3399 -0.8448
vn -0.6524 0.5368 -0.5350
vn 0.6524 -0.5368 0.5350
s 0
usemtl None
f 10//7 11//7 9//7
f 16//9 13//9 15//9
f 14//10 9//10 13//10
f 12//12 14//12 16//12
f 10//7 12//7 11//7
f 16//9 14//9 13//9
f 14//10 10//10 9//10
f 12//12 10//12 14//12
usemtl LookingDir
f 15//11 9//11 11//11
f 15//11 13//11 9//11
usemtl UpDir
f 12//8 15//8 11//8
f 12//8 16//8 15//8
