# Blender 3.6.5
# www.blender.org
mtllib test_cube61.mtl
o Cube
v 1.000000 -23.667433 1.000000
v 1.000000 -23.667433 -1.000000
v 1.000000 -25.667433 1.000000
v 1.000000 -25.667433 -1.000000
v -1.000000 -23.667433 1.000000
v -1.000000 -23.667433 -1.000000
v -1.000000 -25.667433 1.000000
v -1.000000 -25.667433 -1.000000
vn -0.0000 -0.0000 1.0000
vn -0.0000 -1.0000 -0.0000
vn -1.0000 -0.0000 -0.0000
vn -0.0000 -0.0000 -1.0000
vn 1.0000 -0.0000 -0.0000
vn -0.0000 1.0000 -0.0000
s 0
usemtl Yellow
f 7//3 6//3 8//3
f 2//4 8//4 6//4
f 1//5 4//5 2//5
f 5//6 2//6 6//6
f 7//3 5//3 6//3
f 2//4 4//4 8//4
f 1//5 3//5 4//5
f 5//6 1//6 2//6
usemtl Blue
f 5//1 3//1 1//1
f 5//1 7//1 3//1
usemtl Red
f 3//2 8//2 4//2
f 3//2 7//2 8//2
o CameraBox
v 7.836477 -7.536008 6.065876
v 7.990664 -7.189254 6.192321
v 7.785103 -7.651546 6.445364
v 7.939289 -7.304792 6.571810
v 7.470982 -7.373487 6.065876
v 7.625168 -7.026734 6.192321
v 7.419607 -7.489026 6.445364
v 7.573793 -7.142272 6.571810
vn 0.9137 -0.4063 -0.0000
vn -0.1284 -0.2888 0.9487
vn -0.9137 0.4063 -0.0000
vn 0.1284 0.2888 -0.9487
vn -0.3855 -0.8669 -0.3161
vn 0.3855 0.8669 0.3161
s 0
usemtl None
f 10//7 11//7 9//7
f 16//9 13//9 15//9
f 14//10 9//10 13//10
f 12//12 14//12 16//12
f 10//7 12//7 11//7
f 16//9 14//9 13//9
f 14//10 10//10 9//10
f 12//12 10//12 14//12
usemtl LookingDir
f 15//11 9//11 11//11
f 15//11 13//11 9//11
usemtl UpDir
f 12//8 15//8 11//8
f 12//8 16//8 15//8
