# Blender 3.6.5
# www.blender.org
mtllib test_cube50.mtl
o Cube
v 1.000000 1.000000 18.663023
v 1.000000 -1.000000 18.663023
v 1.000000 1.000000 20.663023
v 1.000000 -1.000000 20.663023
v -1.000000 1.000000 18.663023
v -1.000000 -1.000000 18.663023
v -1.000000 1.000000 20.663023
v -1.000000 -1.000000 20.663023
vn -0.0000 1.0000 -0.0000
vn -0.0000 -0.0000 1.0000
vn -1.0000 -0.0000 -0.0000
vn -0.0000 -1.0000 -0.0000
vn 1.0000 -0.0000 -0.0000
vn -0.0000 -0.0000 -1.0000
s 0
usemtl Yellow
f 7//3 6//3 8//3
f 2//4 8//4 6//4
f 1//5 4//5 2//5
f 5//6 2//6 6//6
f 7//3 5//3 6//3
f 2//4 4//4 8//4
f 1//5 3//5 4//5
f 5//6 1//6 2//6
usemtl Blue
f 5//1 3//1 1//1
f 5//1 7//1 3//1
usemtl Red
f 3//2 8//2 4//2
f 3//2 7//2 8//2
o CameraBox
v 7.839932 6.072290 7.551155
v 8.034885 6.232168 7.240619
v 7.754925 6.438950 7.686560
v 7.949878 6.598827 7.376024
v 7.501159 6.072290 7.338474
v 7.696112 6.232168 7.027938
v 7.416152 6.438950 7.473880
v 7.611105 6.598827 7.163344
vn 0.8469 -0.0000 0.5317
vn -0.2125 0.9166 0.3385
vn -0.8469 -0.0000 -0.5317
vn 0.2125 -0.9166 -0.3385
vn -0.4874 -0.3997 0.7763
vn 0.4874 0.3997 -0.7763
s 0
usemtl None
f 10//7 11//7 9//7
f 12//8 15//8 11//8
f 16//9 13//9 15//9
f 14//10 9//10 13//10
f 12//12 14//12 16//12
f 10//7 12//7 11//7
f 12//8 16//8 15//8
f 16//9 14//9 13//9
f 14//10 10//10 9//10
f 12//12 10//12 14//12
usemtl CameraFace
f 15//11 9//11 11//11
f 15//11 13//11 9//11
