# Blender 3.6.5
# www.blender.org
mtllib test_cube29.mtl
o Cube
v 1.000000 -7.599033 1.000000
v 1.000000 -7.599033 -1.000000
v 1.000000 -9.599033 1.000000
v 1.000000 -9.599033 -1.000000
v -1.000000 -7.599033 1.000000
v -1.000000 -7.599033 -1.000000
v -1.000000 -9.599033 1.000000
v -1.000000 -9.599033 -1.000000
vn -0.0000 -0.0000 1.0000
vn -0.0000 -1.0000 -0.0000
vn -1.0000 -0.0000 -0.0000
vn -0.0000 -0.0000 -1.0000
vn 1.0000 -0.0000 -0.0000
vn -0.0000 1.0000 -0.0000
s 0
usemtl Yellow
f 7//3 6//3 8//3
f 2//4 8//4 6//4
f 1//5 4//5 2//5
f 5//6 2//6 6//6
f 7//3 5//3 6//3
f 2//4 4//4 8//4
f 1//5 3//5 4//5
f 5//6 1//6 2//6
usemtl Blue
f 5//1 3//1 1//1
f 5//1 7//1 3//1
usemtl Red
f 3//2 8//2 4//2
f 3//2 7//2 8//2
o CameraBox
v 7.781047 -7.692742 6.100351
v 8.088482 -7.648952 6.352473
v 7.531444 -7.728295 6.410890
v 7.838879 -7.684505 6.663012
v 7.724641 -7.296739 6.100351
v 8.032077 -7.252949 6.352473
v 7.475038 -7.332292 6.410890
v 7.782474 -7.288502 6.663012
vn 0.1410 -0.9900 -0.0000
vn -0.6240 -0.0889 0.7763
vn -0.1410 0.9900 -0.0000
vn 0.6240 0.0889 -0.7763
vn -0.7686 -0.1095 -0.6303
vn 0.7686 0.1095 0.6303
s 0
usemtl None
f 10//7 11//7 9//7
f 16//9 13//9 15//9
f 14//10 9//10 13//10
f 12//12 14//12 16//12
f 10//7 12//7 11//7
f 16//9 14//9 13//9
f 14//10 10//10 9//10
f 12//12 10//12 14//12
usemtl LookingDir
f 15//11 9//11 11//11
f 15//11 13//11 9//11
usemtl UpDir
f 12//8 15//8 11//8
f 12//8 16//8 15//8
