# Blender 3.6.5
# www.blender.org
mtllib test_cube17.mtl
o Cube
v 1.000000 -1.325547 1.000000
v 1.000000 -1.325547 -1.000000
v 1.000000 -3.325547 1.000000
v 1.000000 -3.325547 -1.000000
v -1.000000 -1.325547 1.000000
v -1.000000 -1.325547 -1.000000
v -1.000000 -3.325547 1.000000
v -1.000000 -3.325547 -1.000000
vn -0.0000 -0.0000 1.0000
vn -0.0000 -1.0000 -0.0000
vn -1.0000 -0.0000 -0.0000
vn -0.0000 -0.0000 -1.0000
vn 1.0000 -0.0000 -0.0000
vn -0.0000 1.0000 -0.0000
s 0
usemtl Yellow
f 7//3 6//3 8//3
f 2//4 8//4 6//4
f 1//5 4//5 2//5
f 7//3 5//3 6//3
f 2//4 4//4 8//4
f 1//5 3//5 4//5
usemtl Blue
f 5//1 3//1 1//1
f 5//1 7//1 3//1
usemtl Red
f 3//2 8//2 4//2
f 3//2 7//2 8//2
usemtl Green
f 5//6 2//6 6//6
f 5//6 1//6 2//6
o CameraBox
v 7.608407 -7.741024 6.090093
v 7.882167 -7.927176 6.314598
v 7.422757 -7.614783 6.421147
v 7.696516 -7.800937 6.645653
v 7.833328 -7.410251 6.090093
v 8.107088 -7.596404 6.314598
v 7.647677 -7.284011 6.421147
v 7.921437 -7.470164 6.645653
vn -0.5623 -0.8269 -0.0000
vn -0.4641 0.3156 0.8276
vn 0.5623 0.8269 -0.0000
vn 0.4641 -0.3156 -0.8276
vn -0.6844 0.4654 -0.5613
vn 0.6844 -0.4654 0.5613
s 0
usemtl None
f 10//7 11//7 9//7
f 16//9 13//9 15//9
f 14//10 9//10 13//10
f 12//12 14//12 16//12
f 10//7 12//7 11//7
f 16//9 14//9 13//9
f 14//10 10//10 9//10
f 12//12 10//12 14//12
usemtl LookingDir
f 15//11 9//11 11//11
f 15//11 13//11 9//11
usemtl UpDir
f 12//8 15//8 11//8
f 12//8 16//8 15//8
