# Blender 3.6.5
# www.blender.org
mtllib test_cube53.mtl
o Cube
v 1.000000 -13.703359 1.000000
v 1.000000 -13.703359 -1.000000
v 1.000000 -15.703359 1.000000
v 1.000000 -15.703359 -1.000000
v -1.000000 -13.703359 1.000000
v -1.000000 -13.703359 -1.000000
v -1.000000 -15.703359 1.000000
v -1.000000 -15.703359 -1.000000
vn -0.0000 -0.0000 1.0000
vn -0.0000 -1.0000 -0.0000
vn -1.0000 -0.0000 -0.0000
vn -0.0000 -0.0000 -1.0000
vn 1.0000 -0.0000 -0.0000
vn -0.0000 1.0000 -0.0000
s 0
usemtl Yellow
f 7//3 6//3 8//3
f 2//4 8//4 6//4
f 1//5 4//5 2//5
f 7//3 5//3 6//3
f 2//4 4//4 8//4
f 1//5 3//5 4//5
usemtl Blue
f 5//1 3//1 1//1
f 5//1 7//1 3//1
usemtl Red
f 3//2 8//2 4//2
f 3//2 7//2 8//2
usemtl Green
f 5//6 2//6 6//6
f 5//6 1//6 2//6
o CameraBox
v 7.839806 -7.587747 6.083875
v 8.089747 -7.352130 6.288847
v 7.690657 -7.728348 6.427366
v 7.940599 -7.492731 6.632339
v 7.565427 -7.296686 6.083875
v 7.815369 -7.061069 6.288847
v 7.416278 -7.437287 6.427366
v 7.666220 -7.201670 6.632339
vn 0.6859 -0.7277 -0.0000
vn -0.3729 -0.3515 0.8587
vn -0.6859 0.7277 -0.0000
vn 0.3729 0.3515 -0.8587
vn -0.6249 -0.5890 -0.5124
vn 0.6249 0.5890 0.5124
s 0
usemtl None
f 10//7 11//7 9//7
f 16//9 13//9 15//9
f 14//10 9//10 13//10
f 12//12 14//12 16//12
f 10//7 12//7 11//7
f 16//9 14//9 13//9
f 14//10 10//10 9//10
f 12//12 10//12 14//12
usemtl LookingDir
f 15//11 9//11 11//11
f 15//11 13//11 9//11
usemtl UpDir
f 12//8 15//8 11//8
f 12//8 16//8 15//8
