# Blender 3.6.5
# www.blender.org
mtllib test_cube51.mtl
o Cube
v 1.000000 -19.165161 1.000000
v 1.000000 -19.165161 -1.000000
v 1.000000 -21.165161 1.000000
v 1.000000 -21.165161 -1.000000
v -1.000000 -19.165161 1.000000
v -1.000000 -19.165161 -1.000000
v -1.000000 -21.165161 1.000000
v -1.000000 -21.165161 -1.000000
vn -0.0000 -0.0000 1.0000
vn -0.0000 -1.0000 -0.0000
vn -1.0000 -0.0000 -0.0000
vn -0.0000 -0.0000 -1.0000
vn 1.0000 -0.0000 -0.0000
vn -0.0000 1.0000 -0.0000
s 0
usemtl Yellow
f 7//3 6//3 8//3
f 2//4 8//4 6//4
f 1//5 4//5 2//5
f 5//6 2//6 6//6
f 7//3 5//3 6//3
f 2//4 4//4 8//4
f 1//5 3//5 4//5
f 5//6 1//6 2//6
usemtl Blue
f 5//1 3//1 1//1
f 5//1 7//1 3//1
usemtl Red
f 3//2 8//2 4//2
f 3//2 7//2 8//2
o CameraBox
v 7.839585 -7.548996 6.071449
v 8.029763 -7.233547 6.227411
v 7.759060 -7.682562 6.439791
v 7.949239 -7.367113 6.595753
v 7.497024 -7.342472 6.071449
v 7.687202 -7.027023 6.227411
v 7.416499 -7.476038 6.439791
v 7.606678 -7.160589 6.595753
vn 0.8564 -0.5163 -0.0000
vn -0.2013 -0.3339 0.9209
vn -0.8564 0.5163 -0.0000
vn 0.2013 0.3339 -0.9209
vn -0.4754 -0.7886 -0.3899
vn 0.4754 0.7886 0.3899
s 0
usemtl None
f 10//7 11//7 9//7
f 16//9 13//9 15//9
f 14//10 9//10 13//10
f 12//12 14//12 16//12
f 10//7 12//7 11//7
f 16//9 14//9 13//9
f 14//10 10//10 9//10
f 12//12 10//12 14//12
usemtl LookingDir
f 15//11 9//11 11//11
f 15//11 13//11 9//11
usemtl UpDir
f 12//8 15//8 11//8
f 12//8 16//8 15//8
