# Blender 3.6.5
# www.blender.org
mtllib test_cube56.mtl
o Cube
v 1.000000 1.000000 21.551130
v 1.000000 -1.000000 21.551130
v 1.000000 1.000000 23.551130
v 1.000000 -1.000000 23.551130
v -1.000000 1.000000 21.551130
v -1.000000 -1.000000 21.551130
v -1.000000 1.000000 23.551130
v -1.000000 -1.000000 23.551130
vn -0.0000 1.0000 -0.0000
vn -0.0000 -0.0000 1.0000
vn -1.0000 -0.0000 -0.0000
vn -0.0000 -1.0000 -0.0000
vn 1.0000 -0.0000 -0.0000
vn -0.0000 -0.0000 -1.0000
s 0
usemtl Yellow
f 7//3 6//3 8//3
f 2//4 8//4 6//4
f 1//5 4//5 2//5
f 5//6 2//6 6//6
f 7//3 5//3 6//3
f 2//4 4//4 8//4
f 1//5 3//5 4//5
f 5//6 1//6 2//6
usemtl Blue
f 5//1 3//1 1//1
f 5//1 7//1 3//1
usemtl Red
f 3//2 8//2 4//2
f 3//2 7//2 8//2
o CameraBox
v 7.837876 6.068108 7.540951
v 8.007524 6.207233 7.206491
v 7.774941 6.443133 7.665028
v 7.944589 6.582258 7.330568
v 7.481143 6.068108 7.360005
v 7.650792 6.207233 7.025546
v 7.418208 6.443133 7.484082
v 7.587856 6.582258 7.149622
vn 0.8918 -0.0000 0.4524
vn -0.1573 0.9376 0.3102
vn -0.8918 -0.0000 -0.4524
vn 0.1573 -0.9376 -0.3102
vn -0.4241 -0.3478 0.8362
vn 0.4241 0.3478 -0.8362
s 0
usemtl None
f 10//7 11//7 9//7
f 12//8 15//8 11//8
f 16//9 13//9 15//9
f 14//10 9//10 13//10
f 12//12 14//12 16//12
f 10//7 12//7 11//7
f 12//8 16//8 15//8
f 16//9 14//9 13//9
f 14//10 10//10 9//10
f 12//12 10//12 14//12
usemtl CameraFace
f 15//11 9//11 11//11
f 15//11 13//11 9//11
