# Blender 3.6.5
# www.blender.org
mtllib test_cube70.mtl
o Cube
v 1.000000 -18.140625 1.000000
v 1.000000 -18.140625 -1.000000
v 1.000000 -20.140625 1.000000
v 1.000000 -20.140625 -1.000000
v -1.000000 -18.140625 1.000000
v -1.000000 -18.140625 -1.000000
v -1.000000 -20.140625 1.000000
v -1.000000 -20.140625 -1.000000
vn -0.0000 -0.0000 1.0000
vn -0.0000 -1.0000 -0.0000
vn -1.0000 -0.0000 -0.0000
vn -0.0000 -0.0000 -1.0000
vn 1.0000 -0.0000 -0.0000
vn -0.0000 1.0000 -0.0000
s 0
usemtl Yellow
f 7//3 6//3 8//3
f 2//4 8//4 6//4
f 1//5 4//5 2//5
f 7//3 5//3 6//3
f 2//4 4//4 8//4
f 1//5 3//5 4//5
usemtl Blue
f 5//1 3//1 1//1
f 5//1 7//1 3//1
usemtl Red
f 3//2 8//2 4//2
f 3//2 7//2 8//2
usemtl Green
f 5//6 2//6 6//6
f 5//6 1//6 2//6
o CameraBox
v 7.840274 -7.553617 6.073224
v 8.040366 -7.248598 6.237316
v 7.750268 -7.690821 6.438016
v 7.950360 -7.385802 6.602108
v 7.505816 -7.334212 6.073224
v 7.705909 -7.029193 6.237316
v 7.415810 -7.471417 6.438016
v 7.615903 -7.166398 6.602108
vn 0.8361 -0.5485 -0.0000
vn -0.2250 -0.3430 0.9120
vn -0.8361 0.5485 -0.0000
vn 0.2250 0.3430 -0.9120
vn -0.5002 -0.7625 -0.4102
vn 0.5002 0.7625 0.4102
s 0
usemtl None
f 10//7 11//7 9//7
f 16//9 13//9 15//9
f 14//10 9//10 13//10
f 12//12 14//12 16//12
f 10//7 12//7 11//7
f 16//9 14//9 13//9
f 14//10 10//10 9//10
f 12//12 10//12 14//12
usemtl LookingDir
f 15//11 9//11 11//11
f 15//11 13//11 9//11
usemtl UpDir
f 12//8 15//8 11//8
f 12//8 16//8 15//8
