# Blender 3.6.5
# www.blender.org
mtllib test_cube69.mtl
o Cube
v 1.000000 -26.282276 1.000000
v 1.000000 -26.282276 -1.000000
v 1.000000 -28.282276 1.000000
v 1.000000 -28.282276 -1.000000
v -1.000000 -26.282276 1.000000
v -1.000000 -26.282276 -1.000000
v -1.000000 -28.282276 1.000000
v -1.000000 -28.282276 -1.000000
vn -0.0000 -0.0000 1.0000
vn -0.0000 -1.0000 -0.0000
vn -1.0000 -0.0000 -0.0000
vn -0.0000 -0.0000 -1.0000
vn 1.0000 -0.0000 -0.0000
vn -0.0000 1.0000 -0.0000
s 0
usemtl Yellow
f 7//3 6//3 8//3
f 2//4 8//4 6//4
f 1//5 4//5 2//5
f 5//6 2//6 6//6
f 7//3 5//3 6//3
f 2//4 4//4 8//4
f 1//5 3//5 4//5
f 5//6 1//6 2//6
usemtl Blue
f 5//1 3//1 1//1
f 5//1 7//1 3//1
usemtl Red
f 3//2 8//2 4//2
f 3//2 7//2 8//2
o CameraBox
v 7.835019 -7.531682 6.063804
v 7.973117 -7.173769 6.177056
v 7.794250 -7.637342 6.447436
v 7.932349 -7.279428 6.560689
v 7.461834 -7.387691 6.063804
v 7.599933 -7.029778 6.177056
v 7.421066 -7.493351 6.447436
v 7.559165 -7.135437 6.560689
vn 0.9330 -0.3600 -0.0000
vn -0.1019 -0.2642 0.9591
vn -0.9330 0.3600 -0.0000
vn 0.1019 0.2642 -0.9591
vn -0.3452 -0.8948 -0.2831
vn 0.3452 0.8948 0.2831
s 0
usemtl None
f 10//7 11//7 9//7
f 16//9 13//9 15//9
f 14//10 9//10 13//10
f 12//12 14//12 16//12
f 10//7 12//7 11//7
f 16//9 14//9 13//9
f 14//10 10//10 9//10
f 12//12 10//12 14//12
usemtl LookingDir
f 15//11 9//11 11//11
f 15//11 13//11 9//11
usemtl UpDir
f 12//8 15//8 11//8
f 12//8 16//8 15//8
