# Blender 3.6.5
# www.blender.org
mtllib test_cube74.mtl
o Cube
v 1.000000 1.000000 27.303070
v 1.000000 -1.000000 27.303070
v 1.000000 1.000000 29.303070
v 1.000000 -1.000000 29.303070
v -1.000000 1.000000 27.303070
v -1.000000 -1.000000 27.303070
v -1.000000 1.000000 29.303070
v -1.000000 -1.000000 29.303070
vn -0.0000 1.0000 -0.0000
vn -0.0000 -0.0000 1.0000
vn -1.0000 -0.0000 -0.0000
vn -0.0000 -1.0000 -0.0000
vn 1.0000 -0.0000 -0.0000
vn -0.0000 -0.0000 -1.0000
s 0
usemtl Yellow
f 7//3 6//3 8//3
f 2//4 8//4 6//4
f 1//5 4//5 2//5
f 5//6 2//6 6//6
f 7//3 5//3 6//3
f 2//4 4//4 8//4
f 1//5 3//5 4//5
f 5//6 1//6 2//6
usemtl Blue
f 5//1 3//1 1//1
f 5//1 7//1 3//1
usemtl Red
f 3//2 8//2 4//2
f 3//2 7//2 8//2
o CameraBox
v 7.834530 6.063151 7.530366
v 7.967121 6.171886 7.168984
v 7.797076 6.448089 7.632447
v 7.929667 6.556824 7.271066
v 7.459008 6.063151 7.392587
v 7.591599 6.171886 7.031206
v 7.421554 6.448089 7.494668
v 7.554145 6.556824 7.133286
vn 0.9388 -0.0000 0.3444
vn -0.0936 0.9623 0.2552
vn -0.9388 -0.0000 -0.3444
vn 0.0936 -0.9623 -0.2552
vn -0.3315 -0.2718 0.9035
vn 0.3315 0.2718 -0.9035
s 0
usemtl None
f 10//7 11//7 9//7
f 12//8 15//8 11//8
f 16//9 13//9 15//9
f 14//10 9//10 13//10
f 12//12 14//12 16//12
f 10//7 12//7 11//7
f 12//8 16//8 15//8
f 16//9 14//9 13//9
f 14//10 10//10 9//10
f 12//12 10//12 14//12
usemtl CameraFace
f 15//11 9//11 11//11
f 15//11 13//11 9//11
