# Blender 3.6.5
# www.blender.org
mtllib test_cube19.mtl
o Cube
v 1.000000 1.000000 3.096764
v 1.000000 -1.000000 3.096764
v 1.000000 1.000000 5.096764
v 1.000000 -1.000000 5.096764
v -1.000000 1.000000 3.096764
v -1.000000 -1.000000 3.096764
v -1.000000 1.000000 5.096764
v -1.000000 -1.000000 5.096764
vn -0.0000 1.0000 -0.0000
vn -0.0000 -0.0000 1.0000
vn -1.0000 -0.0000 -0.0000
vn -0.0000 -1.0000 -0.0000
vn 1.0000 -0.0000 -0.0000
vn -0.0000 -0.0000 -1.0000
s 0
usemtl Yellow
f 7//3 6//3 8//3
f 2//4 8//4 6//4
f 1//5 4//5 2//5
f 5//6 2//6 6//6
f 7//3 5//3 6//3
f 2//4 4//4 8//4
f 1//5 3//5 4//5
f 5//6 1//6 2//6
usemtl Blue
f 5//1 3//1 1//1
f 5//1 7//1 3//1
usemtl Red
f 3//2 8//2 4//2
f 3//2 7//2 8//2
o CameraBox
v 7.655683 6.095502 7.744030
v 7.947954 6.335188 7.874906
v 7.436927 6.415738 7.646074
v 7.729198 6.655424 7.776949
v 7.819157 6.095502 7.378960
v 8.111428 6.335188 7.509836
v 7.600401 6.415738 7.281004
v 7.892673 6.655424 7.411880
vn -0.4087 -0.0000 0.9127
vn -0.5469 0.8006 -0.2449
vn 0.4087 -0.0000 -0.9127
vn 0.5469 -0.8006 0.2449
vn -0.7307 -0.5992 -0.3272
vn 0.7307 0.5992 0.3272
s 0
usemtl None
f 10//7 11//7 9//7
f 12//8 15//8 11//8
f 16//9 13//9 15//9
f 14//10 9//10 13//10
f 12//12 14//12 16//12
f 10//7 12//7 11//7
f 12//8 16//8 15//8
f 16//9 14//9 13//9
f 14//10 10//10 9//10
f 12//12 10//12 14//12
usemtl CameraFace
f 15//11 9//11 11//11
f 15//11 13//11 9//11
