# Blender 3.6.5
# www.blender.org
mtllib test_cube71.mtl
o Cube
v 1.000000 -18.297579 1.000000
v 1.000000 -18.297579 -1.000000
v 1.000000 -20.297579 1.000000
v 1.000000 -20.297579 -1.000000
v -1.000000 -18.297579 1.000000
v -1.000000 -18.297579 -1.000000
v -1.000000 -20.297579 1.000000
v -1.000000 -20.297579 -1.000000
vn -0.0000 -0.0000 1.0000
vn -0.0000 -1.0000 -0.0000
vn -1.0000 -0.0000 -0.0000
vn -0.0000 -0.0000 -1.0000
vn 1.0000 -0.0000 -0.0000
vn -0.0000 1.0000 -0.0000
s 0
usemtl Yellow
f 7//3 6//3 8//3
f 2//4 8//4 6//4
f 1//5 4//5 2//5
f 7//3 5//3 6//3
f 2//4 4//4 8//4
f 1//5 3//5 4//5
usemtl Blue
f 5//1 3//1 1//1
f 5//1 7//1 3//1
usemtl Red
f 3//2 8//2 4//2
f 3//2 7//2 8//2
usemtl Green
f 5//6 2//6 6//6
f 5//6 1//6 2//6
o CameraBox
v 7.840174 -7.552853 6.072937
v 8.038704 -7.246130 6.235748
v 7.751707 -7.689531 6.438303
v 7.950237 -7.382809 6.601114
v 7.504377 -7.335504 6.072937
v 7.702908 -7.028781 6.235748
v 7.415910 -7.472182 6.438303
v 7.614440 -7.165460 6.601114
vn 0.8395 -0.5434 -0.0000
vn -0.2212 -0.3417 0.9134
vn -0.8395 0.5434 -0.0000
vn 0.2212 0.3417 -0.9134
vn -0.4963 -0.7668 -0.4070
vn 0.4963 0.7668 0.4070
s 0
usemtl None
f 10//7 11//7 9//7
f 16//9 13//9 15//9
f 14//10 9//10 13//10
f 12//12 14//12 16//12
f 10//7 12//7 11//7
f 16//9 14//9 13//9
f 14//10 10//10 9//10
f 12//12 10//12 14//12
usemtl LookingDir
f 15//11 9//11 11//11
f 15//11 13//11 9//11
usemtl UpDir
f 12//8 15//8 11//8
f 12//8 16//8 15//8
