# Blender 3.6.5
# www.blender.org
mtllib test_cube10.mtl
o Cube
v 1.000000 1.000000 0.235962
v 1.000000 -1.000000 0.235962
v 1.000000 1.000000 2.235962
v 1.000000 -1.000000 2.235962
v -1.000000 1.000000 0.235962
v -1.000000 -1.000000 0.235962
v -1.000000 1.000000 2.235962
v -1.000000 -1.000000 2.235962
vn -0.0000 1.0000 -0.0000
vn -0.0000 -0.0000 1.0000
vn -1.0000 -0.0000 -0.0000
vn -0.0000 -1.0000 -0.0000
vn 1.0000 -0.0000 -0.0000
vn -0.0000 -0.0000 -1.0000
s 0
usemtl Yellow
f 7//3 6//3 8//3
f 2//4 8//4 6//4
f 1//5 4//5 2//5
f 5//6 2//6 6//6
f 7//3 5//3 6//3
f 2//4 4//4 8//4
f 1//5 3//5 4//5
f 5//6 1//6 2//6
usemtl Blue
f 5//1 3//1 1//1
f 5//1 7//1 3//1
usemtl Red
f 3//2 8//2 4//2
f 3//2 7//2 8//2
o CameraBox
v 7.583592 6.086651 7.734944
v 7.844547 6.300655 7.949664
v 7.418339 6.424589 7.598969
v 7.679294 6.638594 7.813689
v 7.837746 6.086651 7.426065
v 8.098701 6.300655 7.640786
v 7.672493 6.424589 7.290091
v 7.933447 6.638594 7.504811
vn -0.6354 -0.0000 0.7722
vn -0.4131 0.8448 -0.3399
vn 0.6354 -0.0000 -0.7722
vn 0.4131 -0.8448 0.3399
vn -0.6524 -0.5350 -0.5368
vn 0.6524 0.5350 0.5368
s 0
usemtl None
f 10//7 11//7 9//7
f 12//8 15//8 11//8
f 16//9 13//9 15//9
f 14//10 9//10 13//10
f 12//12 14//12 16//12
f 10//7 12//7 11//7
f 12//8 16//8 15//8
f 16//9 14//9 13//9
f 14//10 10//10 9//10
f 12//12 10//12 14//12
usemtl CameraFace
f 15//11 9//11 11//11
f 15//11 13//11 9//11
