# Blender 3.6.5
# www.blender.org
mtllib test_cube26.mtl
o Cube
v 1.000000 -3.964375 1.000000
v 1.000000 -3.964375 -1.000000
v 1.000000 -5.964375 1.000000
v 1.000000 -5.964375 -1.000000
v -1.000000 -3.964375 1.000000
v -1.000000 -3.964375 -1.000000
v -1.000000 -5.964375 1.000000
v -1.000000 -5.964375 -1.000000
vn -0.0000 -0.0000 1.0000
vn -0.0000 -1.0000 -0.0000
vn -1.0000 -0.0000 -0.0000
vn -0.0000 -0.0000 -1.0000
vn 1.0000 -0.0000 -0.0000
vn -0.0000 1.0000 -0.0000
s 0
usemtl Yellow
f 7//3 6//3 8//3
f 2//4 8//4 6//4
f 1//5 4//5 2//5
f 7//3 5//3 6//3
f 2//4 4//4 8//4
f 1//5 3//5 4//5
usemtl Blue
f 5//1 3//1 1//1
f 5//1 7//1 3//1
usemtl Red
f 3//2 8//2 4//2
f 3//2 7//2 8//2
usemtl Green
f 5//6 2//6 6//6
f 5//6 1//6 2//6
o CameraBox
v 7.681141 -7.741118 6.097754
v 7.980608 -7.841155 6.343340
v 7.448207 -7.663307 6.413486
v 7.747674 -7.763344 6.659073
v 7.807877 -7.361727 6.097754
v 8.107343 -7.461763 6.343340
v 7.574943 -7.283916 6.413486
v 7.874409 -7.383952 6.659073
vn -0.3168 -0.9485 -0.0000
vn -0.5823 0.1945 0.7893
vn 0.3168 0.9485 -0.0000
vn 0.5823 -0.1945 -0.7893
vn -0.7487 0.2501 -0.6140
vn 0.7487 -0.2501 0.6140
s 0
usemtl None
f 10//7 11//7 9//7
f 16//9 13//9 15//9
f 14//10 9//10 13//10
f 12//12 14//12 16//12
f 10//7 12//7 11//7
f 16//9 14//9 13//9
f 14//10 10//10 9//10
f 12//12 10//12 14//12
usemtl LookingDir
f 15//11 9//11 11//11
f 15//11 13//11 9//11
usemtl UpDir
f 12//8 15//8 11//8
f 12//8 16//8 15//8
