# Blender 3.6.5
# www.blender.org
mtllib test_cube60.mtl
o Cube
v 1.000000 1.000000 23.269794
v 1.000000 -1.000000 23.269794
v 1.000000 1.000000 25.269794
v 1.000000 -1.000000 25.269794
v -1.000000 1.000000 23.269794
v -1.000000 -1.000000 23.269794
v -1.000000 1.000000 25.269794
v -1.000000 -1.000000 25.269794
vn -0.0000 1.0000 -0.0000
vn -0.0000 -0.0000 1.0000
vn -1.0000 -0.0000 -0.0000
vn -0.0000 -1.0000 -0.0000
vn 1.0000 -0.0000 -0.0000
vn -0.0000 -0.0000 -1.0000
s 0
usemtl Yellow
f 7//3 6//3 8//3
f 2//4 8//4 6//4
f 1//5 4//5 2//5
f 5//6 2//6 6//6
f 7//3 5//3 6//3
f 2//4 4//4 8//4
f 1//5 3//5 4//5
f 5//6 1//6 2//6
usemtl Blue
f 5//1 3//1 1//1
f 5//1 7//1 3//1
usemtl Red
f 3//2 8//2 4//2
f 3//2 7//2 8//2
o CameraBox
v 7.836727 6.066252 7.536819
v 7.993638 6.194932 7.192116
v 7.783414 6.444988 7.653936
v 7.940325 6.573668 7.309233
v 7.472671 6.066252 7.371098
v 7.629582 6.194932 7.026395
v 7.419358 6.444988 7.488215
v 7.576270 6.573668 7.143512
vn 0.9101 -0.0000 0.4143
vn -0.1333 0.9468 0.2928
vn -0.9101 -0.0000 -0.4143
vn 0.1333 -0.9468 -0.2928
vn -0.3923 -0.3217 0.8618
vn 0.3923 0.3217 -0.8618
s 0
usemtl None
f 10//7 11//7 9//7
f 12//8 15//8 11//8
f 16//9 13//9 15//9
f 14//10 9//10 13//10
f 12//12 14//12 16//12
f 10//7 12//7 11//7
f 12//8 16//8 15//8
f 16//9 14//9 13//9
f 14//10 10//10 9//10
f 12//12 10//12 14//12
usemtl CameraFace
f 15//11 9//11 11//11
f 15//11 13//11 9//11
