# Blender 3.6.5
# www.blender.org
mtllib test_cube32.mtl
o Cube
v 1.000000 1.000000 9.124996
v 1.000000 -1.000000 9.124996
v 1.000000 1.000000 11.124996
v 1.000000 -1.000000 11.124996
v -1.000000 1.000000 9.124996
v -1.000000 -1.000000 9.124996
v -1.000000 1.000000 11.124996
v -1.000000 -1.000000 11.124996
vn -0.0000 1.0000 -0.0000
vn -0.0000 -0.0000 1.0000
vn -1.0000 -0.0000 -0.0000
vn -0.0000 -1.0000 -0.0000
vn 1.0000 -0.0000 -0.0000
vn -0.0000 -0.0000 -1.0000
s 0
usemtl Yellow
f 7//3 6//3 8//3
f 2//4 8//4 6//4
f 1//5 4//5 2//5
f 5//6 2//6 6//6
f 7//3 5//3 6//3
f 2//4 4//4 8//4
f 1//5 3//5 4//5
f 5//6 1//6 2//6
usemtl Blue
f 5//1 3//1 1//1
f 5//1 7//1 3//1
usemtl Red
f 3//2 8//2 4//2
f 3//2 7//2 8//2
o CameraBox
v 7.808828 6.097601 7.662005
v 8.107816 6.342796 7.559607
v 7.576860 6.413638 7.741450
v 7.875848 6.658833 7.639052
v 7.679224 6.097601 7.283583
v 7.978213 6.342796 7.181185
v 7.447257 6.413638 7.363029
v 7.746245 6.658833 7.260630
vn 0.3240 -0.0000 0.9461
vn -0.5799 0.7901 0.1986
vn -0.3240 -0.0000 -0.9461
vn 0.5799 -0.7901 -0.1986
vn -0.7475 -0.6130 0.2560
vn 0.7475 0.6130 -0.2560
s 0
usemtl None
f 10//7 11//7 9//7
f 12//8 15//8 11//8
f 16//9 13//9 15//9
f 14//10 9//10 13//10
f 12//12 14//12 16//12
f 10//7 12//7 11//7
f 12//8 16//8 15//8
f 16//9 14//9 13//9
f 14//10 10//10 9//10
f 12//12 10//12 14//12
usemtl CameraFace
f 15//11 9//11 11//11
f 15//11 13//11 9//11
