# Blender 3.6.5
# www.blender.org
mtllib test_cube55.mtl
o Cube
v 1.000000 1.000000 21.092813
v 1.000000 -1.000000 21.092813
v 1.000000 1.000000 23.092813
v 1.000000 -1.000000 23.092813
v -1.000000 1.000000 21.092813
v -1.000000 -1.000000 21.092813
v -1.000000 1.000000 23.092813
v -1.000000 -1.000000 23.092813
vn -0.0000 1.0000 -0.0000
vn -0.0000 -0.0000 1.0000
vn -1.0000 -0.0000 -0.0000
vn -0.0000 -1.0000 -0.0000
vn 1.0000 -0.0000 -0.0000
vn -0.0000 -0.0000 -1.0000
s 0
usemtl Yellow
f 7//3 6//3 8//3
f 2//4 8//4 6//4
f 1//5 4//5 2//5
f 5//6 2//6 6//6
f 7//3 5//3 6//3
f 2//4 4//4 8//4
f 1//5 3//5 4//5
f 5//6 1//6 2//6
usemtl Blue
f 5//1 3//1 1//1
f 5//1 7//1 3//1
usemtl Red
f 3//2 8//2 4//2
f 3//2 7//2 8//2
o CameraBox
v 7.838200 6.068674 7.542258
v 8.011524 6.210814 7.210965
v 7.772309 6.442567 7.668202
v 7.945633 6.584707 7.336909
v 7.483775 6.068674 7.356832
v 7.657099 6.210814 7.025538
v 7.417884 6.442567 7.482776
v 7.591208 6.584707 7.151483
vn 0.8861 -0.0000 0.4636
vn -0.1647 0.9347 0.3149
vn -0.8861 -0.0000 -0.4636
vn 0.1647 -0.9347 -0.3149
vn -0.4333 -0.3553 0.8282
vn 0.4333 0.3553 -0.8282
s 0
usemtl None
f 10//7 11//7 9//7
f 12//8 15//8 11//8
f 16//9 13//9 15//9
f 14//10 9//10 13//10
f 12//12 14//12 16//12
f 10//7 12//7 11//7
f 12//8 16//8 15//8
f 16//9 14//9 13//9
f 14//10 10//10 9//10
f 12//12 10//12 14//12
usemtl CameraFace
f 15//11 9//11 11//11
f 15//11 13//11 9//11
