# Blender 3.6.5
# www.blender.org
mtllib test_cube42.mtl
o Cube
v 1.000000 -9.749374 1.000000
v 1.000000 -9.749374 -1.000000
v 1.000000 -11.749374 1.000000
v 1.000000 -11.749374 -1.000000
v -1.000000 -9.749374 1.000000
v -1.000000 -9.749374 -1.000000
v -1.000000 -11.749374 1.000000
v -1.000000 -11.749374 -1.000000
vn -0.0000 -0.0000 1.0000
vn -0.0000 -1.0000 -0.0000
vn -1.0000 -0.0000 -0.0000
vn -0.0000 -0.0000 -1.0000
vn 1.0000 -0.0000 -0.0000
vn -0.0000 1.0000 -0.0000
s 0
usemtl Yellow
f 7//3 6//3 8//3
f 2//4 8//4 6//4
f 1//5 4//5 2//5
f 7//3 5//3 6//3
f 2//4 4//4 8//4
f 1//5 3//5 4//5
usemtl Blue
f 5//1 3//1 1//1
f 5//1 7//1 3//1
usemtl Red
f 3//2 8//2 4//2
f 3//2 7//2 8//2
usemtl Green
f 5//6 2//6 6//6
f 5//6 1//6 2//6
o CameraBox
v 7.817096 -7.649556 6.095998
v 8.110975 -7.524852 6.337004
v 7.595238 -7.743698 6.415242
v 7.889118 -7.618994 6.656248
v 7.660846 -7.281335 6.095998
v 7.954726 -7.156631 6.337004
v 7.438989 -7.375478 6.415242
v 7.732868 -7.250774 6.656248
vn 0.3906 -0.9206 -0.0000
vn -0.5546 -0.2354 0.7981
vn -0.3906 0.9206 -0.0000
vn 0.5546 0.2354 -0.7981
vn -0.7347 -0.3118 -0.6025
vn 0.7347 0.3118 0.6025
s 0
usemtl None
f 10//7 11//7 9//7
f 16//9 13//9 15//9
f 14//10 9//10 13//10
f 12//12 14//12 16//12
f 10//7 12//7 11//7
f 16//9 14//9 13//9
f 14//10 10//10 9//10
f 12//12 10//12 14//12
usemtl LookingDir
f 15//11 9//11 11//11
f 15//11 13//11 9//11
usemtl UpDir
f 12//8 15//8 11//8
f 12//8 16//8 15//8
