# Blender 3.6.5
# www.blender.org
mtllib test_cube3.mtl
o Cube
v 1.000000 0.881685 1.000000
v 1.000000 0.881685 -1.000000
v 1.000000 -1.118315 1.000000
v 1.000000 -1.118315 -1.000000
v -1.000000 0.881685 1.000000
v -1.000000 0.881685 -1.000000
v -1.000000 -1.118315 1.000000
v -1.000000 -1.118315 -1.000000
vn -0.0000 -0.0000 1.0000
vn -0.0000 -1.0000 -0.0000
vn -1.0000 -0.0000 -0.0000
vn -0.0000 -0.0000 -1.0000
vn 1.0000 -0.0000 -0.0000
vn -0.0000 1.0000 -0.0000
s 0
usemtl Yellow
f 7//3 6//3 8//3
f 2//4 8//4 6//4
f 1//5 4//5 2//5
f 5//6 2//6 6//6
f 7//3 5//3 6//3
f 2//4 4//4 8//4
f 1//5 3//5 4//5
f 5//6 1//6 2//6
usemtl Blue
f 5//1 3//1 1//1
f 5//1 7//1 3//1
usemtl Red
f 3//2 8//2 4//2
f 3//2 7//2 8//2
o CameraBox
v 7.561706 -7.726755 6.083279
v 7.809196 -7.966660 6.286242
v 7.415973 -7.585490 6.427961
v 7.663464 -7.825394 6.630924
v 7.840112 -7.439544 6.083279
v 8.087603 -7.679449 6.286242
v 7.694379 -7.298279 6.427961
v 7.941870 -7.538183 6.630924
vn -0.6960 -0.7180 -0.0000
vn -0.3643 0.3532 0.8617
vn 0.6960 0.7180 -0.0000
vn 0.3643 -0.3532 -0.8617
vn -0.6187 0.5998 -0.5074
vn 0.6187 -0.5998 0.5074
s 0
usemtl None
f 10//7 11//7 9//7
f 16//9 13//9 15//9
f 14//10 9//10 13//10
f 12//12 14//12 16//12
f 10//7 12//7 11//7
f 16//9 14//9 13//9
f 14//10 10//10 9//10
f 12//12 10//12 14//12
usemtl LookingDir
f 15//11 9//11 11//11
f 15//11 13//11 9//11
usemtl UpDir
f 12//8 15//8 11//8
f 12//8 16//8 15//8
