# Blender 3.6.5
# www.blender.org
mtllib test_cube57.mtl
o Cube
v 1.000000 -14.991172 1.000000
v 1.000000 -14.991172 -1.000000
v 1.000000 -16.991173 1.000000
v 1.000000 -16.991173 -1.000000
v -1.000000 -14.991172 1.000000
v -1.000000 -14.991172 -1.000000
v -1.000000 -16.991173 1.000000
v -1.000000 -16.991173 -1.000000
vn -0.0000 -0.0000 1.0000
vn -0.0000 -1.0000 -0.0000
vn -1.0000 -0.0000 -0.0000
vn -0.0000 -0.0000 -1.0000
vn 1.0000 -0.0000 -0.0000
vn -0.0000 1.0000 -0.0000
s 0
usemtl Yellow
f 7//3 6//3 8//3
f 2//4 8//4 6//4
f 1//5 4//5 2//5
f 7//3 5//3 6//3
f 2//4 4//4 8//4
f 1//5 3//5 4//5
usemtl Blue
f 5//1 3//1 1//1
f 5//1 7//1 3//1
usemtl Red
f 3//2 8//2 4//2
f 3//2 7//2 8//2
usemtl Green
f 5//6 2//6 6//6
f 5//6 1//6 2//6
o CameraBox
v 7.841054 -7.574780 6.080266
v 8.075619 -7.314059 6.272628
v 7.712396 -7.717786 6.430974
v 7.946961 -7.457064 6.623337
v 7.543688 -7.307248 6.080266
v 7.778254 -7.046526 6.272628
v 7.415030 -7.450253 6.430974
v 7.649595 -7.189531 6.623337
vn 0.7434 -0.6688 -0.0000
vn -0.3216 -0.3575 0.8768
vn -0.7434 0.6688 -0.0000
vn 0.3216 0.3575 -0.8768
vn -0.5864 -0.6518 -0.4809
vn 0.5864 0.6518 0.4809
s 0
usemtl None
f 10//7 11//7 9//7
f 16//9 13//9 15//9
f 14//10 9//10 13//10
f 12//12 14//12 16//12
f 10//7 12//7 11//7
f 16//9 14//9 13//9
f 14//10 10//10 9//10
f 12//12 10//12 14//12
usemtl LookingDir
f 15//11 9//11 11//11
f 15//11 13//11 9//11
usemtl UpDir
f 12//8 15//8 11//8
f 12//8 16//8 15//8
