# Blender 3.6.5
# www.blender.org
mtllib test_cube64.mtl
o Cube
v 1.000000 -24.772718 1.000000
v 1.000000 -24.772718 -1.000000
v 1.000000 -26.772718 1.000000
v 1.000000 -26.772718 -1.000000
v -1.000000 -24.772718 1.000000
v -1.000000 -24.772718 -1.000000
v -1.000000 -26.772718 1.000000
v -1.000000 -26.772718 -1.000000
vn -0.0000 -0.0000 1.0000
vn -0.0000 -1.0000 -0.0000
vn -1.0000 -0.0000 -0.0000
vn -0.0000 -0.0000 -1.0000
vn 1.0000 -0.0000 -0.0000
vn -0.0000 1.0000 -0.0000
s 0
usemtl Yellow
f 7//3 6//3 8//3
f 2//4 8//4 6//4
f 1//5 4//5 2//5
f 5//6 2//6 6//6
f 7//3 5//3 6//3
f 2//4 4//4 8//4
f 1//5 3//5 4//5
f 5//6 1//6 2//6
usemtl Blue
f 5//1 3//1 1//1
f 5//1 7//1 3//1
usemtl Red
f 3//2 8//2 4//2
f 3//2 7//2 8//2
o CameraBox
v 7.835823 -7.533986 6.064921
v 7.982837 -7.182061 6.185484
v 7.789351 -7.645233 6.446319
v 7.936365 -7.293307 6.566883
v 7.466733 -7.379802 6.064921
v 7.613747 -7.027876 6.185484
v 7.420261 -7.491048 6.446319
v 7.567275 -7.139123 6.566883
vn 0.9227 -0.3855 -0.0000
vn -0.1162 -0.2781 0.9535
vn -0.9227 0.3855 -0.0000
vn 0.1162 0.2781 -0.9535
vn -0.3675 -0.8798 -0.3014
vn 0.3675 0.8798 0.3014
s 0
usemtl None
f 10//7 11//7 9//7
f 16//9 13//9 15//9
f 14//10 9//10 13//10
f 12//12 14//12 16//12
f 10//7 12//7 11//7
f 16//9 14//9 13//9
f 14//10 10//10 9//10
f 12//12 10//12 14//12
usemtl LookingDir
f 15//11 9//11 11//11
f 15//11 13//11 9//11
usemtl UpDir
f 12//8 15//8 11//8
f 12//8 16//8 15//8
