# Blender 3.6.5
# www.blender.org
mtllib test_cube79.mtl
o Cube
v 1.000000 -18.990704 1.000000
v 1.000000 -18.990704 -1.000000
v 1.000000 -20.990704 1.000000
v 1.000000 -20.990704 -1.000000
v -1.000000 -18.990704 1.000000
v -1.000000 -18.990704 -1.000000
v -1.000000 -20.990704 1.000000
v -1.000000 -20.990704 -1.000000
vn -0.0000 -0.0000 1.0000
vn -0.0000 -1.0000 -0.0000
vn -1.0000 -0.0000 -0.0000
vn -0.0000 -0.0000 -1.0000
vn 1.0000 -0.0000 -0.0000
vn -0.0000 1.0000 -0.0000
s 0
usemtl Yellow
f 7//3 6//3 8//3
f 2//4 8//4 6//4
f 1//5 4//5 2//5
f 7//3 5//3 6//3
f 2//4 4//4 8//4
f 1//5 3//5 4//5
usemtl Blue
f 5//1 3//1 1//1
f 5//1 7//1 3//1
usemtl Red
f 3//2 8//2 4//2
f 3//2 7//2 8//2
usemtl Green
f 5//6 2//6 6//6
f 5//6 1//6 2//6
o CameraBox
v 7.839707 -7.549724 6.071735
v 8.031527 -7.235940 6.229043
v 7.757660 -7.683939 6.439505
v 7.949479 -7.370156 6.596812
v 7.498425 -7.341094 6.071735
v 7.690244 -7.027311 6.229043
v 7.416378 -7.475310 6.439505
v 7.608196 -7.161527 6.596812
vn 0.8532 -0.5216 -0.0000
vn -0.2051 -0.3355 0.9194
vn -0.8532 0.5216 -0.0000
vn 0.2051 0.3355 -0.9194
vn -0.4795 -0.7845 -0.3933
vn 0.4795 0.7845 0.3933
s 0
usemtl None
f 10//7 11//7 9//7
f 16//9 13//9 15//9
f 14//10 9//10 13//10
f 12//12 14//12 16//12
f 10//7 12//7 11//7
f 16//9 14//9 13//9
f 14//10 10//10 9//10
f 12//12 10//12 14//12
usemtl LookingDir
f 15//11 9//11 11//11
f 15//11 13//11 9//11
usemtl UpDir
f 12//8 15//8 11//8
f 12//8 16//8 15//8
