# Blender 3.6.5
# www.blender.org
mtllib test_cube46.mtl
o Cube
v 1.000000 -16.593801 1.000000
v 1.000000 -16.593801 -1.000000
v 1.000000 -18.593801 1.000000
v 1.000000 -18.593801 -1.000000
v -1.000000 -16.593801 1.000000
v -1.000000 -16.593801 -1.000000
v -1.000000 -18.593801 1.000000
v -1.000000 -18.593801 -1.000000
vn -0.0000 -0.0000 1.0000
vn -0.0000 -1.0000 -0.0000
vn -1.0000 -0.0000 -0.0000
vn -0.0000 -0.0000 -1.0000
vn 1.0000 -0.0000 -0.0000
vn -0.0000 1.0000 -0.0000
s 0
usemtl Yellow
f 7//3 6//3 8//3
f 2//4 8//4 6//4
f 1//5 4//5 2//5
f 5//6 2//6 6//6
f 7//3 5//3 6//3
f 2//4 4//4 8//4
f 1//5 3//5 4//5
f 5//6 1//6 2//6
usemtl Blue
f 5//1 3//1 1//1
f 5//1 7//1 3//1
usemtl Red
f 3//2 8//2 4//2
f 3//2 7//2 8//2
o CameraBox
v 7.841053 -7.562461 6.076365
v 8.057373 -7.276569 6.253766
v 7.734010 -7.703929 6.434875
v 7.950331 -7.418037 6.612276
v 7.522074 -7.321105 6.076365
v 7.738395 -7.035213 6.253766
v 7.415032 -7.462573 6.434875
v 7.631353 -7.176681 6.612276
vn 0.7974 -0.6034 -0.0000
vn -0.2676 -0.3537 0.8963
vn -0.7974 0.6034 -0.0000
vn 0.2676 0.3537 -0.8963
vn -0.5408 -0.7147 -0.4435
vn 0.5408 0.7147 0.4435
s 0
usemtl None
f 10//7 11//7 9//7
f 16//9 13//9 15//9
f 14//10 9//10 13//10
f 12//12 14//12 16//12
f 10//7 12//7 11//7
f 16//9 14//9 13//9
f 14//10 10//10 9//10
f 12//12 10//12 14//12
usemtl LookingDir
f 15//11 9//11 11//11
f 15//11 13//11 9//11
usemtl UpDir
f 12//8 15//8 11//8
f 12//8 16//8 15//8
