# Blender 3.6.5
# www.blender.org
mtllib test_cube38.mtl
o Cube
v 1.000000 -8.250624 1.000000
v 1.000000 -8.250624 -1.000000
v 1.000000 -10.250624 1.000000
v 1.000000 -10.250624 -1.000000
v -1.000000 -8.250624 1.000000
v -1.000000 -8.250624 -1.000000
v -1.000000 -10.250624 1.000000
v -1.000000 -10.250624 -1.000000
vn -0.0000 -0.0000 1.0000
vn -0.0000 -1.0000 -0.0000
vn -1.0000 -0.0000 -0.0000
vn -0.0000 -0.0000 -1.0000
vn 1.0000 -0.0000 -0.0000
vn -0.0000 1.0000 -0.0000
s 0
usemtl Yellow
f 7//3 6//3 8//3
f 2//4 8//4 6//4
f 1//5 4//5 2//5
f 7//3 5//3 6//3
f 2//4 4//4 8//4
f 1//5 3//5 4//5
usemtl Blue
f 5//1 3//1 1//1
f 5//1 7//1 3//1
usemtl Red
f 3//2 8//2 4//2
f 3//2 7//2 8//2
usemtl Green
f 5//6 2//6 6//6
f 5//6 1//6 2//6
o CameraBox
v 7.794253 -7.679770 6.099415
v 8.098856 -7.610364 6.349215
v 7.550696 -7.735267 6.411825
v 7.855299 -7.665861 6.661625
v 7.705388 -7.289767 6.099415
v 8.009991 -7.220361 6.349215
v 7.461831 -7.345263 6.411825
v 7.766434 -7.275857 6.661625
vn 0.2222 -0.9750 -0.0000
vn -0.6089 -0.1387 0.7810
vn -0.2222 0.9750 -0.0000
vn 0.6089 0.1387 -0.7810
vn -0.7615 -0.1735 -0.6245
vn 0.7615 0.1735 0.6245
s 0
usemtl None
f 10//7 11//7 9//7
f 16//9 13//9 15//9
f 14//10 9//10 13//10
f 12//12 14//12 16//12
f 10//7 12//7 11//7
f 16//9 14//9 13//9
f 14//10 10//10 9//10
f 12//12 10//12 14//12
usemtl LookingDir
f 15//11 9//11 11//11
f 15//11 13//11 9//11
usemtl UpDir
f 12//8 15//8 11//8
f 12//8 16//8 15//8
