# Blender 3.6.5
# www.blender.org
mtllib test_cube22.mtl
o Cube
v 1.000000 1.000000 4.329467
v 1.000000 -1.000000 4.329467
v 1.000000 1.000000 6.329467
v 1.000000 -1.000000 6.329467
v -1.000000 1.000000 4.329467
v -1.000000 -1.000000 4.329467
v -1.000000 1.000000 6.329467
v -1.000000 -1.000000 6.329467
vn -0.0000 1.0000 -0.0000
vn -0.0000 -0.0000 1.0000
vn -1.0000 -0.0000 -0.0000
vn -0.0000 -1.0000 -0.0000
vn 1.0000 -0.0000 -0.0000
vn -0.0000 -0.0000 -1.0000
s 0
usemtl Yellow
f 7//3 6//3 8//3
f 2//4 8//4 6//4
f 1//5 4//5 2//5
f 5//6 2//6 6//6
f 7//3 5//3 6//3
f 2//4 4//4 8//4
f 1//5 3//5 4//5
f 5//6 1//6 2//6
usemtl Blue
f 5//1 3//1 1//1
f 5//1 7//1 3//1
usemtl Red
f 3//2 8//2 4//2
f 3//2 7//2 8//2
o CameraBox
v 7.692062 6.098564 7.738868
v 7.994051 6.346220 7.825294
v 7.453965 6.412676 7.670728
v 7.755954 6.660332 7.757153
v 7.802119 6.098564 7.354307
v 8.104108 6.346220 7.440732
v 7.564022 6.412676 7.286166
v 7.866011 6.660332 7.372591
vn -0.2751 -0.0000 0.9614
vn -0.5952 0.7853 -0.1704
vn 0.2751 -0.0000 -0.9614
vn 0.5952 -0.7853 0.1704
vn -0.7550 -0.6191 -0.2161
vn 0.7550 0.6191 0.2161
s 0
usemtl None
f 10//7 11//7 9//7
f 12//8 15//8 11//8
f 16//9 13//9 15//9
f 14//10 9//10 13//10
f 12//12 14//12 16//12
f 10//7 12//7 11//7
f 12//8 16//8 15//8
f 16//9 14//9 13//9
f 14//10 10//10 9//10
f 12//12 10//12 14//12
usemtl CameraFace
f 15//11 9//11 11//11
f 15//11 13//11 9//11
