# Blender 3.6.5
# www.blender.org
mtllib test_cube73.mtl
o Cube
v 1.000000 -27.142063 1.000000
v 1.000000 -27.142063 -1.000000
v 1.000000 -29.142063 1.000000
v 1.000000 -29.142063 -1.000000
v -1.000000 -27.142063 1.000000
v -1.000000 -27.142063 -1.000000
v -1.000000 -29.142063 1.000000
v -1.000000 -29.142063 -1.000000
vn -0.0000 -0.0000 1.0000
vn -0.0000 -1.0000 -0.0000
vn -1.0000 -0.0000 -0.0000
vn -0.0000 -0.0000 -1.0000
vn 1.0000 -0.0000 -0.0000
vn -0.0000 1.0000 -0.0000
s 0
usemtl Yellow
f 7//3 6//3 8//3
f 2//4 8//4 6//4
f 1//5 4//5 2//5
f 5//6 2//6 6//6
f 7//3 5//3 6//3
f 2//4 4//4 8//4
f 1//5 3//5 4//5
f 5//6 1//6 2//6
usemtl Blue
f 5//1 3//1 1//1
f 5//1 7//1 3//1
usemtl Red
f 3//2 8//2 4//2
f 3//2 7//2 8//2
o CameraBox
v 7.834604 -7.530562 6.063250
v 7.968038 -7.169701 6.172676
v 7.796654 -7.633197 6.447991
v 7.930087 -7.272335 6.557417
v 7.459431 -7.391837 6.063250
v 7.592864 -7.030975 6.172676
v 7.421480 -7.494472 6.447991
v 7.554914 -7.133610 6.557417
vn 0.9379 -0.3468 -0.0000
vn -0.0949 -0.2566 0.9619
vn -0.9379 0.3468 -0.0000
vn 0.0949 0.2566 -0.9619
vn -0.3336 -0.9022 -0.2736
vn 0.3336 0.9022 0.2736
s 0
usemtl None
f 10//7 11//7 9//7
f 16//9 13//9 15//9
f 14//10 9//10 13//10
f 12//12 14//12 16//12
f 10//7 12//7 11//7
f 16//9 14//9 13//9
f 14//10 10//10 9//10
f 12//12 10//12 14//12
usemtl LookingDir
f 15//11 9//11 11//11
f 15//11 13//11 9//11
usemtl UpDir
f 12//8 15//8 11//8
f 12//8 16//8 15//8
