# Blender 3.6.5
# www.blender.org
mtllib test_cube25.mtl
o Cube
v 1.000000 -3.638672 1.000000
v 1.000000 -3.638672 -1.000000
v 1.000000 -5.638672 1.000000
v 1.000000 -5.638672 -1.000000
v -1.000000 -3.638672 1.000000
v -1.000000 -3.638672 -1.000000
v -1.000000 -5.638672 1.000000
v -1.000000 -5.638672 -1.000000
vn -0.0000 -0.0000 1.0000
vn -0.0000 -1.0000 -0.0000
vn -1.0000 -0.0000 -0.0000
vn -0.0000 -0.0000 -1.0000
vn 1.0000 -0.0000 -0.0000
vn -0.0000 1.0000 -0.0000
s 0
usemtl Yellow
f 7//3 6//3 8//3
f 2//4 8//4 6//4
f 1//5 4//5 2//5
f 7//3 5//3 6//3
f 2//4 4//4 8//4
f 1//5 3//5 4//5
usemtl Blue
f 5//1 3//1 1//1
f 5//1 7//1 3//1
usemtl Red
f 3//2 8//2 4//2
f 3//2 7//2 8//2
usemtl Green
f 5//6 2//6 6//6
f 5//6 1//6 2//6
o CameraBox
v 7.671475 -7.742603 6.096957
v 7.968426 -7.854479 6.340481
v 7.443587 -7.656747 6.414283
v 7.740538 -7.768622 6.657807
v 7.812498 -7.368287 6.096957
v 8.109448 -7.480163 6.340481
v 7.584610 -7.282431 6.414283
v 7.881561 -7.394306 6.657807
vn -0.3526 -0.9358 -0.0000
vn -0.5697 0.2146 0.7933
vn 0.3526 0.9358 -0.0000
vn 0.5697 -0.2146 -0.7933
vn -0.7424 0.2797 -0.6088
vn 0.7424 -0.2797 0.6088
s 0
usemtl None
f 10//7 11//7 9//7
f 16//9 13//9 15//9
f 14//10 9//10 13//10
f 12//12 14//12 16//12
f 10//7 12//7 11//7
f 16//9 14//9 13//9
f 14//10 10//10 9//10
f 12//12 10//12 14//12
usemtl LookingDir
f 15//11 9//11 11//11
f 15//11 13//11 9//11
usemtl UpDir
f 12//8 15//8 11//8
f 12//8 16//8 15//8
