# Blender 3.6.5
# www.blender.org
mtllib test_cube38.mtl
o Cube
v 1.000000 1.000000 12.304338
v 1.000000 -1.000000 12.304338
v 1.000000 1.000000 14.304338
v 1.000000 -1.000000 14.304338
v -1.000000 1.000000 12.304338
v -1.000000 -1.000000 12.304338
v -1.000000 1.000000 14.304338
v -1.000000 -1.000000 14.304338
vn -0.0000 1.0000 -0.0000
vn -0.0000 -0.0000 1.0000
vn -1.0000 -0.0000 -0.0000
vn -0.0000 -1.0000 -0.0000
vn 1.0000 -0.0000 -0.0000
vn -0.0000 -0.0000 -1.0000
s 0
usemtl Yellow
f 7//3 6//3 8//3
f 2//4 8//4 6//4
f 1//5 4//5 2//5
f 5//6 2//6 6//6
f 7//3 5//3 6//3
f 2//4 4//4 8//4
f 1//5 3//5 4//5
f 5//6 1//6 2//6
usemtl Blue
f 5//1 3//1 1//1
f 5//1 7//1 3//1
usemtl Red
f 3//2 8//2 4//2
f 3//2 7//2 8//2
o CameraBox
v 7.836091 6.088172 7.605668
v 8.102815 6.306907 7.403150
v 7.661882 6.423068 7.737942
v 7.928605 6.641803 7.535424
v 7.594203 6.088172 7.287093
v 7.860926 6.306907 7.084575
v 7.419994 6.423068 7.419366
v 7.686718 6.641803 7.216848
vn 0.6047 -0.0000 0.7964
vn -0.4355 0.8372 0.3307
vn -0.6047 -0.0000 -0.7964
vn 0.4355 -0.8372 -0.3307
vn -0.6668 -0.5468 0.5063
vn 0.6668 0.5468 -0.5063
s 0
usemtl None
f 10//7 11//7 9//7
f 12//8 15//8 11//8
f 16//9 13//9 15//9
f 14//10 9//10 13//10
f 12//12 14//12 16//12
f 10//7 12//7 11//7
f 12//8 16//8 15//8
f 16//9 14//9 13//9
f 14//10 10//10 9//10
f 12//12 10//12 14//12
usemtl CameraFace
f 15//11 9//11 11//11
f 15//11 13//11 9//11
