# Blender 3.6.5
# www.blender.org
mtllib test_cube79.mtl
o Cube
v 1.000000 -27.750824 1.000000
v 1.000000 -27.750824 -1.000000
v 1.000000 -29.750824 1.000000
v 1.000000 -29.750824 -1.000000
v -1.000000 -27.750824 1.000000
v -1.000000 -27.750824 -1.000000
v -1.000000 -29.750824 1.000000
v -1.000000 -29.750824 -1.000000
vn -0.0000 -0.0000 1.0000
vn -0.0000 -1.0000 -0.0000
vn -1.0000 -0.0000 -0.0000
vn -0.0000 -0.0000 -1.0000
vn 1.0000 -0.0000 -0.0000
vn -0.0000 1.0000 -0.0000
s 0
usemtl Yellow
f 7//3 6//3 8//3
f 2//4 8//4 6//4
f 1//5 4//5 2//5
f 5//6 2//6 6//6
f 7//3 5//3 6//3
f 2//4 4//4 8//4
f 1//5 3//5 4//5
f 5//6 1//6 2//6
usemtl Blue
f 5//1 3//1 1//1
f 5//1 7//1 3//1
usemtl Red
f 3//2 8//2 4//2
f 3//2 7//2 8//2
o CameraBox
v 7.834329 -7.529840 6.062888
v 7.964625 -7.167065 6.169742
v 7.798211 -7.630404 6.448352
v 7.928506 -7.267629 6.555205
v 7.457874 -7.394630 6.062888
v 7.588170 -7.031856 6.169742
v 7.421755 -7.495194 6.448352
v 7.552051 -7.132420 6.555205
vn 0.9411 -0.3380 -0.0000
vn -0.0903 -0.2514 0.9637
vn -0.9411 0.3380 -0.0000
vn 0.0903 0.2514 -0.9637
vn -0.3257 -0.9069 -0.2671
vn 0.3257 0.9069 0.2671
s 0
usemtl None
f 10//7 11//7 9//7
f 16//9 13//9 15//9
f 14//10 9//10 13//10
f 12//12 14//12 16//12
f 10//7 12//7 11//7
f 16//9 14//9 13//9
f 14//10 10//10 9//10
f 12//12 10//12 14//12
usemtl LookingDir
f 15//11 9//11 11//11
f 15//11 13//11 9//11
usemtl UpDir
f 12//8 15//8 11//8
f 12//8 16//8 15//8
