# Blender 3.6.5
# www.blender.org
mtllib test_cube66.mtl
o Cube
v 1.000000 -25.429802 1.000000
v 1.000000 -25.429802 -1.000000
v 1.000000 -27.429802 1.000000
v 1.000000 -27.429802 -1.000000
v -1.000000 -25.429802 1.000000
v -1.000000 -25.429802 -1.000000
v -1.000000 -27.429802 1.000000
v -1.000000 -27.429802 -1.000000
vn -0.0000 -0.0000 1.0000
vn -0.0000 -1.0000 -0.0000
vn -1.0000 -0.0000 -0.0000
vn -0.0000 -0.0000 -1.0000
vn 1.0000 -0.0000 -0.0000
vn -0.0000 1.0000 -0.0000
s 0
usemtl Yellow
f 7//3 6//3 8//3
f 2//4 8//4 6//4
f 1//5 4//5 2//5
f 5//6 2//6 6//6
f 7//3 5//3 6//3
f 2//4 4//4 8//4
f 1//5 3//5 4//5
f 5//6 1//6 2//6
usemtl Blue
f 5//1 3//1 1//1
f 5//1 7//1 3//1
usemtl Red
f 3//2 8//2 4//2
f 3//2 7//2 8//2
o CameraBox
v 7.835460 -7.532925 6.064410
v 7.978475 -7.178254 6.181694
v 7.791599 -7.641698 6.446830
v 7.934614 -7.287027 6.564114
v 7.464485 -7.383336 6.064410
v 7.607499 -7.028665 6.181694
v 7.420624 -7.492109 6.446830
v 7.563638 -7.137438 6.564114
vn 0.9274 -0.3740 -0.0000
vn -0.1097 -0.2719 0.9560
vn -0.9274 0.3740 -0.0000
vn 0.1097 0.2719 -0.9560
vn -0.3575 -0.8867 -0.2932
vn 0.3575 0.8867 0.2932
s 0
usemtl None
f 10//7 11//7 9//7
f 16//9 13//9 15//9
f 14//10 9//10 13//10
f 12//12 14//12 16//12
f 10//7 12//7 11//7
f 16//9 14//9 13//9
f 14//10 10//10 9//10
f 12//12 10//12 14//12
usemtl LookingDir
f 15//11 9//11 11//11
f 15//11 13//11 9//11
usemtl UpDir
f 12//8 15//8 11//8
f 12//8 16//8 15//8
