# Blender 3.6.5
# www.blender.org
mtllib test_cube49.mtl
o Cube
v 1.000000 -12.318045 1.000000
v 1.000000 -12.318045 -1.000000
v 1.000000 -14.318045 1.000000
v 1.000000 -14.318045 -1.000000
v -1.000000 -12.318045 1.000000
v -1.000000 -12.318045 -1.000000
v -1.000000 -14.318045 1.000000
v -1.000000 -14.318045 -1.000000
vn -0.0000 -0.0000 1.0000
vn -0.0000 -1.0000 -0.0000
vn -1.0000 -0.0000 -0.0000
vn -0.0000 -0.0000 -1.0000
vn 1.0000 -0.0000 -0.0000
vn -0.0000 1.0000 -0.0000
s 0
usemtl Yellow
f 7//3 6//3 8//3
f 2//4 8//4 6//4
f 1//5 4//5 2//5
f 7//3 5//3 6//3
f 2//4 4//4 8//4
f 1//5 3//5 4//5
usemtl Blue
f 5//1 3//1 1//1
f 5//1 7//1 3//1
usemtl Red
f 3//2 8//2 4//2
f 3//2 7//2 8//2
usemtl Green
f 5//6 2//6 6//6
f 5//6 1//6 2//6
o CameraBox
v 7.836144 -7.605471 6.088129
v 8.102705 -7.402597 6.306731
v 7.662191 -7.737863 6.423111
v 7.928753 -7.534988 6.641713
v 7.593893 -7.287171 6.088129
v 7.860455 -7.084297 6.306731
v 7.419940 -7.419563 6.423111
v 7.686502 -7.216689 6.641713
vn 0.6056 -0.7957 -0.0000
vn -0.4349 -0.3310 0.8375
vn -0.6056 0.7957 -0.0000
vn 0.4349 0.3310 -0.8375
vn -0.6664 -0.5072 -0.5465
vn 0.6664 0.5072 0.5465
s 0
usemtl None
f 10//7 11//7 9//7
f 16//9 13//9 15//9
f 14//10 9//10 13//10
f 12//12 14//12 16//12
f 10//7 12//7 11//7
f 16//9 14//9 13//9
f 14//10 10//10 9//10
f 12//12 10//12 14//12
usemtl LookingDir
f 15//11 9//11 11//11
f 15//11 13//11 9//11
usemtl UpDir
f 12//8 15//8 11//8
f 12//8 16//8 15//8
