# Blender 3.6.5
# www.blender.org
mtllib test_cube15.mtl
o Cube
v 1.000000 -0.845703 1.000000
v 1.000000 -0.845703 -1.000000
v 1.000000 -2.845703 1.000000
v 1.000000 -2.845703 -1.000000
v -1.000000 -0.845703 1.000000
v -1.000000 -0.845703 -1.000000
v -1.000000 -2.845703 1.000000
v -1.000000 -2.845703 -1.000000
vn -0.0000 -0.0000 1.0000
vn -0.0000 -1.0000 -0.0000
vn -1.0000 -0.0000 -0.0000
vn -0.0000 -0.0000 -1.0000
vn 1.0000 -0.0000 -0.0000
vn -0.0000 1.0000 -0.0000
s 0
usemtl Yellow
f 7//3 6//3 8//3
f 2//4 8//4 6//4
f 1//5 4//5 2//5
f 7//3 5//3 6//3
f 2//4 4//4 8//4
f 1//5 3//5 4//5
usemtl Blue
f 5//1 3//1 1//1
f 5//1 7//1 3//1
usemtl Red
f 3//2 8//2 4//2
f 3//2 7//2 8//2
usemtl Green
f 5//6 2//6 6//6
f 5//6 1//6 2//6
o CameraBox
v 7.597051 -7.738644 6.088568
v 7.865246 -7.937884 6.308510
v 7.420496 -7.607483 6.422672
v 7.688692 -7.806723 6.642614
v 7.835588 -7.417552 6.088568
v 8.103783 -7.616792 6.308510
v 7.659033 -7.286391 6.422672
v 7.927229 -7.485631 6.642614
vn -0.5963 -0.8027 -0.0000
vn -0.4414 0.3279 0.8353
vn 0.5963 0.8027 -0.0000
vn 0.4414 -0.3279 -0.8353
vn -0.6705 0.4981 -0.5499
vn 0.6705 -0.4981 0.5499
s 0
usemtl None
f 10//7 11//7 9//7
f 16//9 13//9 15//9
f 14//10 9//10 13//10
f 12//12 14//12 16//12
f 10//7 12//7 11//7
f 16//9 14//9 13//9
f 14//10 10//10 9//10
f 12//12 10//12 14//12
usemtl LookingDir
f 15//11 9//11 11//11
f 15//11 13//11 9//11
usemtl UpDir
f 12//8 15//8 11//8
f 12//8 16//8 15//8
