# Blender 3.6.5
# www.blender.org
mtllib test_cube29.mtl
o Cube
v 1.000000 -4.978984 1.000000
v 1.000000 -4.978984 -1.000000
v 1.000000 -6.978984 1.000000
v 1.000000 -6.978984 -1.000000
v -1.000000 -4.978984 1.000000
v -1.000000 -4.978984 -1.000000
v -1.000000 -6.978984 1.000000
v -1.000000 -6.978984 -1.000000
vn -0.0000 -0.0000 1.0000
vn -0.0000 -1.0000 -0.0000
vn -1.0000 -0.0000 -0.0000
vn -0.0000 -0.0000 -1.0000
vn 1.0000 -0.0000 -0.0000
vn -0.0000 1.0000 -0.0000
s 0
usemtl Yellow
f 7//3 6//3 8//3
f 2//4 8//4 6//4
f 1//5 4//5 2//5
f 7//3 5//3 6//3
f 2//4 4//4 8//4
f 1//5 3//5 4//5
usemtl Blue
f 5//1 3//1 1//1
f 5//1 7//1 3//1
usemtl Red
f 3//2 8//2 4//2
f 3//2 7//2 8//2
usemtl Green
f 5//6 2//6 6//6
f 5//6 1//6 2//6
o CameraBox
v 7.711483 -7.733294 6.099751
v 8.017107 -7.794736 6.350388
v 7.465763 -7.683894 6.411489
v 7.771387 -7.745337 6.662127
v 7.790321 -7.341140 6.099751
v 8.095945 -7.402582 6.350388
v 7.544601 -7.291740 6.411489
v 7.850225 -7.353183 6.662127
vn -0.1971 -0.9804 -0.0000
vn -0.6143 0.1235 0.7793
vn 0.1971 0.9804 -0.0000
vn 0.6143 -0.1235 -0.7793
vn -0.7641 0.1536 -0.6266
vn 0.7641 -0.1536 0.6266
s 0
usemtl None
f 10//7 11//7 9//7
f 16//9 13//9 15//9
f 14//10 9//10 13//10
f 12//12 14//12 16//12
f 10//7 12//7 11//7
f 16//9 14//9 13//9
f 14//10 10//10 9//10
f 12//12 10//12 14//12
usemtl LookingDir
f 15//11 9//11 11//11
f 15//11 13//11 9//11
usemtl UpDir
f 12//8 15//8 11//8
f 12//8 16//8 15//8
