# Blender 3.6.5
# www.blender.org
mtllib test_cube3.mtl
o Cube
v 1.000000 0.917734 1.000000
v 1.000000 0.917734 -1.000000
v 1.000000 -1.082266 1.000000
v 1.000000 -1.082266 -1.000000
v -1.000000 0.917734 1.000000
v -1.000000 0.917734 -1.000000
v -1.000000 -1.082266 1.000000
v -1.000000 -1.082266 -1.000000
vn -0.0000 -0.0000 1.0000
vn -0.0000 -1.0000 -0.0000
vn -1.0000 -0.0000 -0.0000
vn -0.0000 -0.0000 -1.0000
vn 1.0000 -0.0000 -0.0000
vn -0.0000 1.0000 -0.0000
s 0
usemtl Yellow
f 7//3 6//3 8//3
f 2//4 8//4 6//4
f 1//5 4//5 2//5
f 7//3 5//3 6//3
f 2//4 4//4 8//4
f 1//5 3//5 4//5
usemtl Blue
f 5//1 3//1 1//1
f 5//1 7//1 3//1
usemtl Red
f 3//2 8//2 4//2
f 3//2 7//2 8//2
usemtl Green
f 5//6 2//6 6//6
f 5//6 1//6 2//6
o CameraBox
v 7.561058 -7.726469 6.083174
v 7.808115 -7.967120 6.285781
v 7.415923 -7.585098 6.428066
v 7.662981 -7.825749 6.630673
v 7.840161 -7.439936 6.083174
v 8.087218 -7.680587 6.285781
v 7.695027 -7.298565 6.428066
v 7.942084 -7.539216 6.630673
vn -0.6978 -0.7163 -0.0000
vn -0.3628 0.3534 0.8622
vn 0.6978 0.7163 -0.0000
vn 0.3628 -0.3534 -0.8622
vn -0.6176 0.6016 -0.5065
vn 0.6176 -0.6016 0.5065
s 0
usemtl None
f 10//7 11//7 9//7
f 16//9 13//9 15//9
f 14//10 9//10 13//10
f 12//12 14//12 16//12
f 10//7 12//7 11//7
f 16//9 14//9 13//9
f 14//10 10//10 9//10
f 12//12 10//12 14//12
usemtl LookingDir
f 15//11 9//11 11//11
f 15//11 13//11 9//11
usemtl UpDir
f 12//8 15//8 11//8
f 12//8 16//8 15//8
