# Blender 3.6.5
# www.blender.org
mtllib test_cube1.mtl
o Cube
v 1.000000 10.289652 1.000000
v 1.000000 10.289652 -1.000000
v 1.000000 -10.308245 1.000000
v 1.000000 -10.308245 -1.000000
v -1.000000 10.289652 1.000000
v -1.000000 10.289652 -1.000000
v -1.000000 -10.308245 1.000000
v -1.000000 -10.308245 -1.000000
vn -0.0000 -0.0000 1.0000
vn -0.0000 -1.0000 -0.0000
vn -1.0000 -0.0000 -0.0000
vn -0.0000 -0.0000 -1.0000
vn 1.0000 -0.0000 -0.0000
vn -0.0000 1.0000 -0.0000
s 0
usemtl Yellow
f 7//3 6//3 8//3
f 2//4 8//4 6//4
f 1//5 4//5 2//5
f 7//3 5//3 6//3
f 2//4 4//4 8//4
f 1//5 3//5 4//5
usemtl Blue
f 5//1 3//1 1//1
f 5//1 7//1 3//1
usemtl Red
f 3//2 8//2 4//2
f 3//2 7//2 8//2
usemtl Green
f 5//6 2//6 6//6
f 5//6 1//6 2//6
o CameraBox
v 7.559757 -7.725887 6.082963
v 7.805936 -7.968038 6.284851
v 7.415828 -7.584313 6.428277
v 7.662007 -7.826465 6.630164
v 7.840257 -7.440721 6.082963
v 8.086436 -7.682872 6.284851
v 7.696328 -7.299147 6.428277
v 7.942507 -7.541298 6.630164
vn -0.7012 -0.7129 -0.0000
vn -0.3598 0.3539 0.8633
vn 0.7012 0.7129 -0.0000
vn 0.3598 -0.3539 -0.8633
vn -0.6154 0.6054 -0.5047
vn 0.6154 -0.6054 0.5047
s 0
usemtl None
f 10//7 11//7 9//7
f 16//9 13//9 15//9
f 14//10 9//10 13//10
f 12//12 14//12 16//12
f 10//7 12//7 11//7
f 16//9 14//9 13//9
f 14//10 10//10 9//10
f 12//12 10//12 14//12
usemtl LookingDir
f 15//11 9//11 11//11
f 15//11 13//11 9//11
usemtl UpDir
f 12//8 15//8 11//8
f 12//8 16//8 15//8
