# Blender 3.6.5
# www.blender.org
mtllib test_cube12.mtl
o Cube
v 1.000000 -0.215000 1.000000
v 1.000000 -0.215000 -1.000000
v 1.000000 -2.215000 1.000000
v 1.000000 -2.215000 -1.000000
v -1.000000 -0.215000 1.000000
v -1.000000 -0.215000 -1.000000
v -1.000000 -2.215000 1.000000
v -1.000000 -2.215000 -1.000000
vn -0.0000 -0.0000 1.0000
vn -0.0000 -1.0000 -0.0000
vn -1.0000 -0.0000 -0.0000
vn -0.0000 -0.0000 -1.0000
vn 1.0000 -0.0000 -0.0000
vn -0.0000 1.0000 -0.0000
s 0
usemtl Yellow
f 7//3 6//3 8//3
f 2//4 8//4 6//4
f 1//5 4//5 2//5
f 7//3 5//3 6//3
f 2//4 4//4 8//4
f 1//5 3//5 4//5
usemtl Blue
f 5//1 3//1 1//1
f 5//1 7//1 3//1
usemtl Red
f 3//2 8//2 4//2
f 3//2 7//2 8//2
usemtl Green
f 5//6 2//6 6//6
f 5//6 1//6 2//6
o CameraBox
v 7.583148 -7.734805 6.086586
v 7.843852 -7.950035 6.300384
v 7.418277 -7.598691 6.424654
v 7.678980 -7.813921 6.638453
v 7.837807 -7.426342 6.086586
v 8.098511 -7.641573 6.300384
v 7.672935 -7.290229 6.424654
v 7.933639 -7.505459 6.638453
vn -0.6366 -0.7712 -0.0000
vn -0.4122 0.3403 0.8452
vn 0.6366 0.7712 -0.0000
vn 0.4122 -0.3403 -0.8452
vn -0.6518 0.5381 -0.5345
vn 0.6518 -0.5381 0.5345
s 0
usemtl None
f 10//7 11//7 9//7
f 16//9 13//9 15//9
f 14//10 9//10 13//10
f 12//12 14//12 16//12
f 10//7 12//7 11//7
f 16//9 14//9 13//9
f 14//10 10//10 9//10
f 12//12 10//12 14//12
usemtl LookingDir
f 15//11 9//11 11//11
f 15//11 13//11 9//11
usemtl UpDir
f 12//8 15//8 11//8
f 12//8 16//8 15//8
