# Blender 3.6.5
# www.blender.org
mtllib test_cube52.mtl
o Cube
v 1.000000 1.000000 19.659883
v 1.000000 -1.000000 19.659883
v 1.000000 1.000000 21.659883
v 1.000000 -1.000000 21.659883
v -1.000000 1.000000 19.659883
v -1.000000 -1.000000 19.659883
v -1.000000 1.000000 21.659883
v -1.000000 -1.000000 21.659883
vn -0.0000 1.0000 -0.0000
vn -0.0000 -0.0000 1.0000
vn -1.0000 -0.0000 -0.0000
vn -0.0000 -1.0000 -0.0000
vn 1.0000 -0.0000 -0.0000
vn -0.0000 -0.0000 -1.0000
s 0
usemtl Yellow
f 7//3 6//3 8//3
f 2//4 8//4 6//4
f 1//5 4//5 2//5
f 5//6 2//6 6//6
f 7//3 5//3 6//3
f 2//4 4//4 8//4
f 1//5 3//5 4//5
f 5//6 1//6 2//6
usemtl Blue
f 5//1 3//1 1//1
f 5//1 7//1 3//1
usemtl Red
f 3//2 8//2 4//2
f 3//2 7//2 8//2
o CameraBox
v 7.839232 6.070671 7.547048
v 8.024864 6.222904 7.227101
v 7.762835 6.440569 7.678723
v 7.948467 6.592803 7.358777
v 7.493249 6.070671 7.346310
v 7.678881 6.222904 7.026363
v 7.416852 6.440569 7.477985
v 7.602484 6.592803 7.158039
vn 0.8650 -0.0000 0.5018
vn -0.1910 0.9247 0.3292
vn -0.8650 -0.0000 -0.5018
vn 0.1910 -0.9247 -0.3292
vn -0.4641 -0.3806 0.7999
vn 0.4641 0.3806 -0.7999
s 0
usemtl None
f 10//7 11//7 9//7
f 12//8 15//8 11//8
f 16//9 13//9 15//9
f 14//10 9//10 13//10
f 12//12 14//12 16//12
f 10//7 12//7 11//7
f 12//8 16//8 15//8
f 16//9 14//9 13//9
f 14//10 10//10 9//10
f 12//12 10//12 14//12
usemtl CameraFace
f 15//11 9//11 11//11
f 15//11 13//11 9//11
