# Blender 3.6.5
# www.blender.org
mtllib test_cube7.mtl
o Cube
v 1.000000 0.377862 1.000000
v 1.000000 0.377862 -1.000000
v 1.000000 -1.622138 1.000000
v 1.000000 -1.622138 -1.000000
v -1.000000 0.377862 1.000000
v -1.000000 0.377862 -1.000000
v -1.000000 -1.622138 1.000000
v -1.000000 -1.622138 -1.000000
vn -0.0000 -0.0000 1.0000
vn -0.0000 -1.0000 -0.0000
vn -1.0000 -0.0000 -0.0000
vn -0.0000 -0.0000 -1.0000
vn 1.0000 -0.0000 -0.0000
vn -0.0000 1.0000 -0.0000
s 0
usemtl Yellow
f 7//3 6//3 8//3
f 2//4 8//4 6//4
f 1//5 4//5 2//5
f 5//6 2//6 6//6
f 7//3 5//3 6//3
f 2//4 4//4 8//4
f 1//5 3//5 4//5
f 5//6 1//6 2//6
usemtl Blue
f 5//1 3//1 1//1
f 5//1 7//1 3//1
usemtl Red
f 3//2 8//2 4//2
f 3//2 7//2 8//2
o CameraBox
v 7.571135 -7.730627 6.084770
v 7.824702 -7.959673 6.292716
v 7.416823 -7.591238 6.426470
v 7.670390 -7.820284 6.634416
v 7.839261 -7.433796 6.084770
v 8.092828 -7.662842 6.292716
v 7.684949 -7.294407 6.426470
v 7.938516 -7.523453 6.634416
vn -0.6703 -0.7421 -0.0000
vn -0.3858 0.3485 0.8542
vn 0.6703 0.7421 -0.0000
vn 0.3858 -0.3485 -0.8542
vn -0.6339 0.5726 -0.5199
vn 0.6339 -0.5726 0.5199
s 0
usemtl None
f 10//7 11//7 9//7
f 16//9 13//9 15//9
f 14//10 9//10 13//10
f 12//12 14//12 16//12
f 10//7 12//7 11//7
f 16//9 14//9 13//9
f 14//10 10//10 9//10
f 12//12 10//12 14//12
usemtl LookingDir
f 15//11 9//11 11//11
f 15//11 13//11 9//11
usemtl UpDir
f 12//8 15//8 11//8
f 12//8 16//8 15//8
