# Blender 3.6.5
# www.blender.org
mtllib test_cube2.mtl
o Cube
v 1.000000 0.963125 1.000000
v 1.000000 0.963125 -1.000000
v 1.000000 -1.036875 1.000000
v 1.000000 -1.036875 -1.000000
v -1.000000 0.963125 1.000000
v -1.000000 0.963125 -1.000000
v -1.000000 -1.036875 1.000000
v -1.000000 -1.036875 -1.000000
vn -0.0000 -0.0000 1.0000
vn -0.0000 -1.0000 -0.0000
vn -1.0000 -0.0000 -0.0000
vn -0.0000 -0.0000 -1.0000
vn 1.0000 -0.0000 -0.0000
vn -0.0000 1.0000 -0.0000
s 0
usemtl Yellow
f 7//3 6//3 8//3
f 2//4 8//4 6//4
f 1//5 4//5 2//5
f 7//3 5//3 6//3
f 2//4 4//4 8//4
f 1//5 3//5 4//5
usemtl Blue
f 5//1 3//1 1//1
f 5//1 7//1 3//1
usemtl Red
f 3//2 8//2 4//2
f 3//2 7//2 8//2
usemtl Green
f 5//6 2//6 6//6
f 5//6 1//6 2//6
o CameraBox
v 7.560247 -7.726107 6.083043
v 7.806758 -7.967693 6.285202
v 7.415864 -7.584609 6.428197
v 7.662374 -7.826195 6.630356
v 7.840221 -7.440425 6.083043
v 8.086733 -7.682011 6.285202
v 7.695838 -7.298926 6.428197
v 7.942349 -7.540513 6.630356
vn -0.6999 -0.7142 -0.0000
vn -0.3610 0.3537 0.8629
vn 0.6999 0.7142 -0.0000
vn 0.3610 -0.3537 -0.8629
vn -0.6163 0.6040 -0.5054
vn 0.6163 -0.6040 0.5054
s 0
usemtl None
f 10//7 11//7 9//7
f 16//9 13//9 15//9
f 14//10 9//10 13//10
f 12//12 14//12 16//12
f 10//7 12//7 11//7
f 16//9 14//9 13//9
f 14//10 10//10 9//10
f 12//12 10//12 14//12
usemtl LookingDir
f 15//11 9//11 11//11
f 15//11 13//11 9//11
usemtl UpDir
f 12//8 15//8 11//8
f 12//8 16//8 15//8
