# Blender 3.6.5
# www.blender.org
mtllib test_cube_straight.mtl
o Cube
v 1.000000 1.000000 1.000000
v 1.000000 1.000000 -1.000000
v 1.000000 -1.000000 1.000000
v 1.000000 -1.000000 -1.000000
v -1.000000 1.000000 1.000000
v -1.000000 1.000000 -1.000000
v -1.000000 -1.000000 1.000000
v -1.000000 -1.000000 -1.000000
vn -0.0000 -0.0000 1.0000
vn -0.0000 -1.0000 -0.0000
vn -1.0000 -0.0000 -0.0000
vn -0.0000 -0.0000 -1.0000
vn 1.0000 -0.0000 -0.0000
vn -0.0000 1.0000 -0.0000
s 0
usemtl Yellow
f 7//3 6//3 8//3
f 2//4 8//4 6//4
f 1//5 4//5 2//5
f 5//6 2//6 6//6
f 7//3 5//3 6//3
f 2//4 4//4 8//4
f 1//5 3//5 4//5
f 5//6 1//6 2//6
usemtl Blue
f 5//1 3//1 1//1
f 5//1 7//1 3//1
usemtl Red
f 3//2 8//2 4//2
f 3//2 7//2 8//2
o CameraBox
v 3.776795 -4.173205 6.269018
v 3.950000 -4.373205 6.569017
v 3.876795 -3.826795 6.442223
v 4.050000 -4.026795 6.742223
v 4.123205 -4.173205 6.069017
v 4.296411 -4.373205 6.369018
v 4.223205 -3.826795 6.242223
v 4.396410 -4.026795 6.542222
vn -0.8660 -0.0000 0.5000
vn 0.2500 0.8660 0.4330
vn 0.8660 -0.0000 -0.5000
vn -0.2500 -0.8660 -0.4330
vn -0.4330 0.5000 -0.7500
vn 0.4330 -0.5000 0.7500
s 0
usemtl None
f 10//7 11//7 9//7
f 12//8 15//8 11//8
f 16//9 13//9 15//9
f 14//10 9//10 13//10
f 12//12 14//12 16//12
f 10//7 12//7 11//7
f 12//8 16//8 15//8
f 16//9 14//9 13//9
f 14//10 10//10 9//10
f 12//12 10//12 14//12
usemtl CameraFace
f 15//11 9//11 11//11
f 15//11 13//11 9//11
