# Blender 3.6.5
# www.blender.org
mtllib test_cube67.mtl
o Cube
v 1.000000 -17.587263 1.000000
v 1.000000 -17.587263 -1.000000
v 1.000000 -19.587263 1.000000
v 1.000000 -19.587263 -1.000000
v -1.000000 -17.587263 1.000000
v -1.000000 -17.587263 -1.000000
v -1.000000 -19.587263 1.000000
v -1.000000 -19.587263 -1.000000
vn -0.0000 -0.0000 1.0000
vn -0.0000 -1.0000 -0.0000
vn -1.0000 -0.0000 -0.0000
vn -0.0000 -0.0000 -1.0000
vn 1.0000 -0.0000 -0.0000
vn -0.0000 1.0000 -0.0000
s 0
usemtl Yellow
f 7//3 6//3 8//3
f 2//4 8//4 6//4
f 1//5 4//5 2//5
f 7//3 5//3 6//3
f 2//4 4//4 8//4
f 1//5 3//5 4//5
usemtl Blue
f 5//1 3//1 1//1
f 5//1 7//1 3//1
usemtl Red
f 3//2 8//2 4//2
f 3//2 7//2 8//2
usemtl Green
f 5//6 2//6 6//6
f 5//6 1//6 2//6
o CameraBox
v 7.840603 -7.556494 6.074280
v 8.046329 -7.257810 6.242993
v 7.744901 -7.695437 6.436959
v 7.950628 -7.396753 6.605672
v 7.511183 -7.329597 6.074280
v 7.716910 -7.030912 6.242993
v 7.415481 -7.468540 6.436959
v 7.621208 -7.169856 6.605672
vn 0.8236 -0.5672 -0.0000
vn -0.2393 -0.3474 0.9067
vn -0.8236 0.5672 -0.0000
vn 0.2393 0.3474 -0.9067
vn -0.5143 -0.7467 -0.4218
vn 0.5143 0.7467 0.4218
s 0
usemtl None
f 10//7 11//7 9//7
f 16//9 13//9 15//9
f 14//10 9//10 13//10
f 12//12 14//12 16//12
f 10//7 12//7 11//7
f 16//9 14//9 13//9
f 14//10 10//10 9//10
f 12//12 10//12 14//12
usemtl LookingDir
f 15//11 9//11 11//11
f 15//11 13//11 9//11
usemtl UpDir
f 12//8 15//8 11//8
f 12//8 16//8 15//8
