# Blender 3.6.5
# www.blender.org
mtllib test_cube6.mtl
o Cube
v 1.000000 1.000000 -0.538874
v 1.000000 -1.000000 -0.538874
v 1.000000 1.000000 1.461126
v 1.000000 -1.000000 1.461126
v -1.000000 1.000000 -0.538874
v -1.000000 -1.000000 -0.538874
v -1.000000 1.000000 1.461126
v -1.000000 -1.000000 1.461126
vn -0.0000 1.0000 -0.0000
vn -0.0000 -0.0000 1.0000
vn -1.0000 -0.0000 -0.0000
vn -0.0000 -1.0000 -0.0000
vn 1.0000 -0.0000 -0.0000
vn -0.0000 -0.0000 -1.0000
s 0
usemtl Yellow
f 7//3 6//3 8//3
f 2//4 8//4 6//4
f 1//5 4//5 2//5
f 5//6 2//6 6//6
f 7//3 5//3 6//3
f 2//4 4//4 8//4
f 1//5 3//5 4//5
f 5//6 1//6 2//6
usemtl Blue
f 5//1 3//1 1//1
f 5//1 7//1 3//1
usemtl Red
f 3//2 8//2 4//2
f 3//2 7//2 8//2
o CameraBox
v 7.568045 6.084288 7.729417
v 7.819669 6.290640 7.962019
v 7.416517 6.426952 7.589344
v 7.668141 6.633305 7.821946
v 7.839568 6.084288 7.435690
v 8.091192 6.290640 7.668293
v 7.688039 6.426952 7.295617
v 7.939663 6.633305 7.528219
vn -0.6788 -0.0000 0.7343
vn -0.3788 0.8567 -0.3502
vn 0.6788 -0.0000 -0.7343
vn 0.3788 -0.8567 0.3502
vn -0.6291 -0.5159 -0.5815
vn 0.6291 0.5159 0.5815
s 0
usemtl None
f 10//7 11//7 9//7
f 12//8 15//8 11//8
f 16//9 13//9 15//9
f 14//10 9//10 13//10
f 12//12 14//12 16//12
f 10//7 12//7 11//7
f 12//8 16//8 15//8
f 16//9 14//9 13//9
f 14//10 10//10 9//10
f 12//12 10//12 14//12
usemtl CameraFace
f 15//11 9//11 11//11
f 15//11 13//11 9//11
