# Blender 3.6.5
# www.blender.org
mtllib test_cube47.mtl
o Cube
v 1.000000 -11.598203 1.000000
v 1.000000 -11.598203 -1.000000
v 1.000000 -13.598203 1.000000
v 1.000000 -13.598203 -1.000000
v -1.000000 -11.598203 1.000000
v -1.000000 -11.598203 -1.000000
v -1.000000 -13.598203 1.000000
v -1.000000 -13.598203 -1.000000
vn -0.0000 -0.0000 1.0000
vn -0.0000 -1.0000 -0.0000
vn -1.0000 -0.0000 -0.0000
vn -0.0000 -0.0000 -1.0000
vn 1.0000 -0.0000 -0.0000
vn -0.0000 1.0000 -0.0000
s 0
usemtl Yellow
f 7//3 6//3 8//3
f 2//4 8//4 6//4
f 1//5 4//5 2//5
f 7//3 5//3 6//3
f 2//4 4//4 8//4
f 1//5 3//5 4//5
usemtl Blue
f 5//1 3//1 1//1
f 5//1 7//1 3//1
usemtl Red
f 3//2 8//2 4//2
f 3//2 7//2 8//2
usemtl Green
f 5//6 2//6 6//6
f 5//6 1//6 2//6
o CameraBox
v 7.832779 -7.616392 6.090415
v 8.107693 -7.433105 6.315866
v 7.645195 -7.741456 6.420825
v 7.920109 -7.558168 6.646277
v 7.610889 -7.283578 6.090415
v 7.885803 -7.100291 6.315866
v 7.423306 -7.408642 6.420825
v 7.698219 -7.225355 6.646277
vn 0.5547 -0.8320 -0.0000
vn -0.4690 -0.3127 0.8260
vn -0.5547 0.8320 -0.0000
vn 0.4690 0.3127 -0.8260
vn -0.6873 -0.4582 -0.5636
vn 0.6873 0.4582 0.5636
s 0
usemtl None
f 10//7 11//7 9//7
f 16//9 13//9 15//9
f 14//10 9//10 13//10
f 12//12 14//12 16//12
f 10//7 12//7 11//7
f 16//9 14//9 13//9
f 14//10 10//10 9//10
f 12//12 10//12 14//12
usemtl LookingDir
f 15//11 9//11 11//11
f 15//11 13//11 9//11
usemtl UpDir
f 12//8 15//8 11//8
f 12//8 16//8 15//8
