# Blender 3.6.5
# www.blender.org
mtllib test_cube45.mtl
o Cube
v 1.000000 -16.064697 1.000000
v 1.000000 -16.064697 -1.000000
v 1.000000 -18.064697 1.000000
v 1.000000 -18.064697 -1.000000
v -1.000000 -16.064697 1.000000
v -1.000000 -16.064697 -1.000000
v -1.000000 -18.064697 1.000000
v -1.000000 -18.064697 -1.000000
vn -0.0000 -0.0000 1.0000
vn -0.0000 -1.0000 -0.0000
vn -1.0000 -0.0000 -0.0000
vn -0.0000 -0.0000 -1.0000
vn 1.0000 -0.0000 -0.0000
vn -0.0000 1.0000 -0.0000
s 0
usemtl Yellow
f 7//3 6//3 8//3
f 2//4 8//4 6//4
f 1//5 4//5 2//5
f 5//6 2//6 6//6
f 7//3 5//3 6//3
f 2//4 4//4 8//4
f 1//5 3//5 4//5
f 5//6 1//6 2//6
usemtl Blue
f 5//1 3//1 1//1
f 5//1 7//1 3//1
usemtl Red
f 3//2 8//2 4//2
f 3//2 7//2 8//2
o CameraBox
v 7.841179 -7.566123 6.077579
v 8.063379 -7.287875 6.259801
v 7.727471 -7.708515 6.433661
v 7.949671 -7.430266 6.615884
v 7.528613 -7.316519 6.077579
v 7.750813 -7.038270 6.259801
v 7.414905 -7.458910 6.433661
v 7.637105 -7.180662 6.615884
vn 0.7814 -0.6240 -0.0000
vn -0.2843 -0.3560 0.8902
vn -0.7814 0.6240 -0.0000
vn 0.2843 0.3560 -0.8902
vn -0.5555 -0.6956 -0.4556
vn 0.5555 0.6956 0.4556
s 0
usemtl None
f 10//7 11//7 9//7
f 16//9 13//9 15//9
f 14//10 9//10 13//10
f 12//12 14//12 16//12
f 10//7 12//7 11//7
f 16//9 14//9 13//9
f 14//10 10//10 9//10
f 12//12 10//12 14//12
usemtl LookingDir
f 15//11 9//11 11//11
f 15//11 13//11 9//11
usemtl UpDir
f 12//8 15//8 11//8
f 12//8 16//8 15//8
