# Blender 3.6.5
# www.blender.org
mtllib test_cube55.mtl
o Cube
v 1.000000 -21.092813 1.000000
v 1.000000 -21.092813 -1.000000
v 1.000000 -23.092813 1.000000
v 1.000000 -23.092813 -1.000000
v -1.000000 -21.092813 1.000000
v -1.000000 -21.092813 -1.000000
v -1.000000 -23.092813 1.000000
v -1.000000 -23.092813 -1.000000
vn -0.0000 -0.0000 1.0000
vn -0.0000 -1.0000 -0.0000
vn -1.0000 -0.0000 -0.0000
vn -0.0000 -0.0000 -1.0000
vn 1.0000 -0.0000 -0.0000
vn -0.0000 1.0000 -0.0000
s 0
usemtl Yellow
f 7//3 6//3 8//3
f 2//4 8//4 6//4
f 1//5 4//5 2//5
f 5//6 2//6 6//6
f 7//3 5//3 6//3
f 2//4 4//4 8//4
f 1//5 3//5 4//5
f 5//6 1//6 2//6
usemtl Blue
f 5//1 3//1 1//1
f 5//1 7//1 3//1
usemtl Red
f 3//2 8//2 4//2
f 3//2 7//2 8//2
o CameraBox
v 7.838200 -7.542258 6.068674
v 8.011524 -7.210965 6.210814
v 7.772309 -7.668202 6.442567
v 7.945633 -7.336909 6.584707
v 7.483775 -7.356832 6.068674
v 7.657099 -7.025538 6.210814
v 7.417884 -7.482776 6.442567
v 7.591208 -7.151483 6.584707
vn 0.8861 -0.4636 -0.0000
vn -0.1647 -0.3149 0.9347
vn -0.8861 0.4636 -0.0000
vn 0.1647 0.3149 -0.9347
vn -0.4333 -0.8282 -0.3553
vn 0.4333 0.8282 0.3553
s 0
usemtl None
f 10//7 11//7 9//7
f 16//9 13//9 15//9
f 14//10 9//10 13//10
f 12//12 14//12 16//12
f 10//7 12//7 11//7
f 16//9 14//9 13//9
f 14//10 10//10 9//10
f 12//12 10//12 14//12
usemtl LookingDir
f 15//11 9//11 11//11
f 15//11 13//11 9//11
usemtl UpDir
f 12//8 15//8 11//8
f 12//8 16//8 15//8
