# Blender 3.6.5
# www.blender.org
mtllib test_cube48.mtl
o Cube
v 1.000000 -17.639198 1.000000
v 1.000000 -17.639198 -1.000000
v 1.000000 -19.639198 1.000000
v 1.000000 -19.639198 -1.000000
v -1.000000 -17.639198 1.000000
v -1.000000 -17.639198 -1.000000
v -1.000000 -19.639198 1.000000
v -1.000000 -19.639198 -1.000000
vn -0.0000 -0.0000 1.0000
vn -0.0000 -1.0000 -0.0000
vn -1.0000 -0.0000 -0.0000
vn -0.0000 -0.0000 -1.0000
vn 1.0000 -0.0000 -0.0000
vn -0.0000 1.0000 -0.0000
s 0
usemtl Yellow
f 7//3 6//3 8//3
f 2//4 8//4 6//4
f 1//5 4//5 2//5
f 5//6 2//6 6//6
f 7//3 5//3 6//3
f 2//4 4//4 8//4
f 1//5 3//5 4//5
f 5//6 1//6 2//6
usemtl Blue
f 5//1 3//1 1//1
f 5//1 7//1 3//1
usemtl Red
f 3//2 8//2 4//2
f 3//2 7//2 8//2
o CameraBox
v 7.840574 -7.556211 6.074179
v 8.045764 -7.256910 6.242451
v 7.745425 -7.695000 6.437062
v 7.950615 -7.395699 6.605334
v 7.510659 -7.330034 6.074179
v 7.715849 -7.030733 6.242451
v 7.415510 -7.468823 6.437062
v 7.620700 -7.169521 6.605334
vn 0.8248 -0.5654 -0.0000
vn -0.2379 -0.3470 0.9072
vn -0.8248 0.5654 -0.0000
vn 0.2379 0.3470 -0.9072
vn -0.5130 -0.7483 -0.4207
vn 0.5130 0.7483 0.4207
s 0
usemtl None
f 10//7 11//7 9//7
f 16//9 13//9 15//9
f 14//10 9//10 13//10
f 12//12 14//12 16//12
f 10//7 12//7 11//7
f 16//9 14//9 13//9
f 14//10 10//10 9//10
f 12//12 10//12 14//12
usemtl LookingDir
f 15//11 9//11 11//11
f 15//11 13//11 9//11
usemtl UpDir
f 12//8 15//8 11//8
f 12//8 16//8 15//8
