# Blender 3.6.5
# www.blender.org
mtllib test_cube29.mtl
o Cube
v 1.000000 1.000000 7.599033
v 1.000000 -1.000000 7.599033
v 1.000000 1.000000 9.599033
v 1.000000 -1.000000 9.599033
v -1.000000 1.000000 7.599033
v -1.000000 -1.000000 7.599033
v -1.000000 1.000000 9.599033
v -1.000000 -1.000000 9.599033
vn -0.0000 1.0000 -0.0000
vn -0.0000 -0.0000 1.0000
vn -1.0000 -0.0000 -0.0000
vn -0.0000 -1.0000 -0.0000
vn 1.0000 -0.0000 -0.0000
vn -0.0000 -0.0000 -1.0000
s 0
usemtl Yellow
f 7//3 6//3 8//3
f 2//4 8//4 6//4
f 1//5 4//5 2//5
f 5//6 2//6 6//6
f 7//3 5//3 6//3
f 2//4 4//4 8//4
f 1//5 3//5 4//5
f 5//6 1//6 2//6
usemtl Blue
f 5//1 3//1 1//1
f 5//1 7//1 3//1
usemtl Red
f 3//2 8//2 4//2
f 3//2 7//2 8//2
o CameraBox
v 7.781047 6.100351 7.692742
v 8.088482 6.352473 7.648952
v 7.531444 6.410890 7.728295
v 7.838879 6.663012 7.684505
v 7.724641 6.100351 7.296739
v 8.032077 6.352473 7.252949
v 7.475038 6.410890 7.332292
v 7.782474 6.663012 7.288502
vn 0.1410 -0.0000 0.9900
vn -0.6240 0.7763 0.0889
vn -0.1410 -0.0000 -0.9900
vn 0.6240 -0.7763 -0.0889
vn -0.7686 -0.6303 0.1095
vn 0.7686 0.6303 -0.1095
s 0
usemtl None
f 10//7 11//7 9//7
f 12//8 15//8 11//8
f 16//9 13//9 15//9
f 14//10 9//10 13//10
f 12//12 14//12 16//12
f 10//7 12//7 11//7
f 12//8 16//8 15//8
f 16//9 14//9 13//9
f 14//10 10//10 9//10
f 12//12 10//12 14//12
usemtl CameraFace
f 15//11 9//11 11//11
f 15//11 13//11 9//11
