# Blender 3.6.5
# www.blender.org
mtllib test_cube44.mtl
o Cube
v 1.000000 -10.495000 1.000000
v 1.000000 -10.495000 -1.000000
v 1.000000 -12.495000 1.000000
v 1.000000 -12.495000 -1.000000
v -1.000000 -10.495000 1.000000
v -1.000000 -10.495000 -1.000000
v -1.000000 -12.495000 1.000000
v -1.000000 -12.495000 -1.000000
vn -0.0000 -0.0000 1.0000
vn -0.0000 -1.0000 -0.0000
vn -1.0000 -0.0000 -0.0000
vn -0.0000 -0.0000 -1.0000
vn 1.0000 -0.0000 -0.0000
vn -0.0000 1.0000 -0.0000
s 0
usemtl Yellow
f 7//3 6//3 8//3
f 2//4 8//4 6//4
f 1//5 4//5 2//5
f 7//3 5//3 6//3
f 2//4 4//4 8//4
f 1//5 3//5 4//5
usemtl Blue
f 5//1 3//1 1//1
f 5//1 7//1 3//1
usemtl Red
f 3//2 8//2 4//2
f 3//2 7//2 8//2
usemtl Green
f 5//6 2//6 6//6
f 5//6 1//6 2//6
o CameraBox
v 7.824853 -7.635382 6.093850
v 8.111659 -7.485644 6.329054
v 7.616354 -7.744236 6.417391
v 7.903160 -7.594499 6.652595
v 7.639730 -7.280798 6.093850
v 7.926537 -7.131061 6.329054
v 7.431231 -7.389652 6.417391
v 7.718038 -7.239915 6.652595
vn 0.4628 -0.8865 -0.0000
vn -0.5212 -0.2721 0.8089
vn -0.4628 0.8865 -0.0000
vn 0.5212 0.2721 -0.8089
vn -0.7170 -0.3743 -0.5880
vn 0.7170 0.3743 0.5880
s 0
usemtl None
f 10//7 11//7 9//7
f 16//9 13//9 15//9
f 14//10 9//10 13//10
f 12//12 14//12 16//12
f 10//7 12//7 11//7
f 16//9 14//9 13//9
f 14//10 10//10 9//10
f 12//12 10//12 14//12
usemtl LookingDir
f 15//11 9//11 11//11
f 15//11 13//11 9//11
usemtl UpDir
f 12//8 15//8 11//8
f 12//8 16//8 15//8
