# Blender 3.6.5
# www.blender.org
mtllib test_cube77.mtl
o Cube
v 1.000000 -27.645882 1.000000
v 1.000000 -27.645882 -1.000000
v 1.000000 -29.645882 1.000000
v 1.000000 -29.645882 -1.000000
v -1.000000 -27.645882 1.000000
v -1.000000 -27.645882 -1.000000
v -1.000000 -29.645882 1.000000
v -1.000000 -29.645882 -1.000000
vn -0.0000 -0.0000 1.0000
vn -0.0000 -1.0000 -0.0000
vn -1.0000 -0.0000 -0.0000
vn -0.0000 -0.0000 -1.0000
vn 1.0000 -0.0000 -0.0000
vn -0.0000 1.0000 -0.0000
s 0
usemtl Yellow
f 7//3 6//3 8//3
f 2//4 8//4 6//4
f 1//5 4//5 2//5
f 5//6 2//6 6//6
f 7//3 5//3 6//3
f 2//4 4//4 8//4
f 1//5 3//5 4//5
f 5//6 1//6 2//6
usemtl Blue
f 5//1 3//1 1//1
f 5//1 7//1 3//1
usemtl Red
f 3//2 8//2 4//2
f 3//2 7//2 8//2
o CameraBox
v 7.834375 -7.529961 6.062949
v 7.965203 -7.167506 6.170238
v 7.797950 -7.630877 6.448292
v 7.928777 -7.268423 6.555581
v 7.458134 -7.394157 6.062949
v 7.588962 -7.031703 6.170238
v 7.421709 -7.495073 6.448292
v 7.552536 -7.132619 6.555581
vn 0.9406 -0.3395 -0.0000
vn -0.0911 -0.2523 0.9634
vn -0.9406 0.3395 -0.0000
vn 0.0911 0.2523 -0.9634
vn -0.3271 -0.9061 -0.2682
vn 0.3271 0.9061 0.2682
s 0
usemtl None
f 10//7 11//7 9//7
f 16//9 13//9 15//9
f 14//10 9//10 13//10
f 12//12 14//12 16//12
f 10//7 12//7 11//7
f 16//9 14//9 13//9
f 14//10 10//10 9//10
f 12//12 10//12 14//12
usemtl LookingDir
f 15//11 9//11 11//11
f 15//11 13//11 9//11
usemtl UpDir
f 12//8 15//8 11//8
f 12//8 16//8 15//8
