# Blender 3.6.5
# www.blender.org
mtllib test_cube24.mtl
o Cube
v 1.000000 -5.213066 1.000000
v 1.000000 -5.213066 -1.000000
v 1.000000 -7.213066 1.000000
v 1.000000 -7.213066 -1.000000
v -1.000000 -5.213066 1.000000
v -1.000000 -5.213066 -1.000000
v -1.000000 -7.213066 1.000000
v -1.000000 -7.213066 -1.000000
vn -0.0000 -0.0000 1.0000
vn -0.0000 -1.0000 -0.0000
vn -1.0000 -0.0000 -0.0000
vn -0.0000 -0.0000 -1.0000
vn 1.0000 -0.0000 -0.0000
vn -0.0000 1.0000 -0.0000
s 0
usemtl Yellow
f 7//3 6//3 8//3
f 2//4 8//4 6//4
f 1//5 4//5 2//5
f 5//6 2//6 6//6
f 7//3 5//3 6//3
f 2//4 4//4 8//4
f 1//5 3//5 4//5
f 5//6 1//6 2//6
usemtl Blue
f 5//1 3//1 1//1
f 5//1 7//1 3//1
usemtl Red
f 3//2 8//2 4//2
f 3//2 7//2 8//2
o CameraBox
v 7.718407 -7.730792 6.100088
v 8.025053 -7.783030 6.351563
v 7.470504 -7.688561 6.411151
v 7.777150 -7.740799 6.662626
v 7.785580 -7.336473 6.100088
v 8.092226 -7.388710 6.351563
v 7.537677 -7.294242 6.411151
v 7.844323 -7.346479 6.662626
vn -0.1679 -0.9858 -0.0000
vn -0.6198 0.1056 0.7777
vn 0.1679 0.9858 -0.0000
vn 0.6198 -0.1056 -0.7777
vn -0.7666 0.1306 -0.6287
vn 0.7666 -0.1306 0.6287
s 0
usemtl None
f 10//7 11//7 9//7
f 16//9 13//9 15//9
f 14//10 9//10 13//10
f 12//12 14//12 16//12
f 10//7 12//7 11//7
f 16//9 14//9 13//9
f 14//10 10//10 9//10
f 12//12 10//12 14//12
usemtl LookingDir
f 15//11 9//11 11//11
f 15//11 13//11 9//11
usemtl UpDir
f 12//8 15//8 11//8
f 12//8 16//8 15//8
