# Blender 3.6.5
# www.blender.org
mtllib test_cube.mtl
o Cube
v 1.000000 1.000000 -0.986629
v 1.000000 -1.000000 -0.986629
v 1.000000 1.000000 1.013371
v 1.000000 -1.000000 1.013371
v -1.000000 1.000000 -0.986629
v -1.000000 -1.000000 -0.986629
v -1.000000 1.000000 1.013371
v -1.000000 -1.000000 1.013371
vn -0.0000 1.0000 -0.0000
vn -0.0000 -0.0000 1.0000
vn -1.0000 -0.0000 -0.0000
vn -0.0000 -1.0000 -0.0000
vn 1.0000 -0.0000 -0.0000
vn -0.0000 -0.0000 -1.0000
s 0
usemtl Yellow
f 7//3 6//3 8//3
f 2//4 8//4 6//4
f 1//5 4//5 2//5
f 5//6 2//6 6//6
f 7//3 5//3 6//3
f 2//4 4//4 8//4
f 1//5 3//5 4//5
f 5//6 1//6 2//6
usemtl Blue
f 5//1 3//1 1//1
f 5//1 7//1 3//1
usemtl Red
f 3//2 8//2 4//2
f 3//2 7//2 8//2
o CameraBox
v 7.559829 6.082975 7.725919
v 7.806057 6.284902 7.967987
v 7.415833 6.428265 7.584357
v 7.662062 6.630192 7.826425
v 7.840251 6.082975 7.440677
v 8.086479 6.284902 7.682745
v 7.696256 6.428265 7.299114
v 7.942484 6.630192 7.541182
vn -0.7011 -0.0000 0.7131
vn -0.3600 0.8632 -0.3539
vn 0.7011 -0.0000 -0.7131
vn 0.3600 -0.8632 0.3539
vn -0.6156 -0.5048 -0.6052
vn 0.6156 0.5048 0.6052
s 0
usemtl None
f 10//7 11//7 9//7
f 12//8 15//8 11//8
f 16//9 13//9 15//9
f 14//10 9//10 13//10
f 12//12 14//12 16//12
f 10//7 12//7 11//7
f 12//8 16//8 15//8
f 16//9 14//9 13//9
f 14//10 10//10 9//10
f 12//12 10//12 14//12
usemtl CameraFace
f 15//11 9//11 11//11
f 15//11 13//11 9//11
