<?xml version="1.0" encoding="UTF-8" standalone="no"?>
<!-- Created with Inkscape (http://www.inkscape.org/) -->
<svg width="250.03101mm" height="250.03101mm" viewBox="0 0 250.03101 250.03101" version="1.1" id="svg5" inkscape:version="1.1.2 (0a00cf5339, 2022-02-04)" sodipodi:docname="CommanderX16 icon rainbow.svg" xmlns:inkscape="http://www.inkscape.org/namespaces/inkscape" xmlns:sodipodi="http://sodipodi.sourceforge.net/DTD/sodipodi-0.dtd" xmlns="http://www.w3.org/2000/svg" xmlns:svg="http://www.w3.org/2000/svg">
  <sodipodi:namedview id="namedview7" pagecolor="#ffffff" bordercolor="#666666" borderopacity="1.0" inkscape:pageshadow="2" inkscape:pageopacity="0.0" inkscape:pagecheckerboard="0" inkscape:document-units="mm" showgrid="false" inkscape:zoom="0.30009145" inkscape:cx="319.90248" inkscape:cy="541.5016" inkscape:window-width="1298" inkscape:window-height="710" inkscape:window-x="68" inkscape:window-y="24" inkscape:window-maximized="1" inkscape:current-layer="layer1" width="250.031mm" showguides="true"/>
  <defs id="defs2"/>
  <g inkscape:label="Layer 1" inkscape:groupmode="layer" id="layer1">
    <g id="g124785" transform="matrix(1,0,0,0.9999982,-0.06704142,-24.752087)">
      <path id="rect43-5" style="display:inline;fill:#ef5297;fill-opacity:1;fill-rule:evenodd;stroke:none;stroke-width:0.73869" d="m 42.505859,164.69922 4.431641,14.81836 h 13.021484 z m 860.494141,0 -17.45312,14.81836 h 13.02148 z" transform="scale(0.26458333)"/>
      <path id="rect43-5-3" style="display:inline;fill:#df62a5;fill-opacity:1;fill-rule:evenodd;stroke:none;stroke-width:1.08839" d="m 45.746094,175.5332 8.816406,29.48047 c 11.808587,0 23.617195,0 35.425781,0 L 55.265625,175.5332 Z m 844.494136,0 -34.72265,29.48047 c 11.80859,0 23.61719,0 35.42578,0 l 8.81641,-29.48047 z" transform="scale(0.26458333)"/>
      <path id="rect43-5-3-5" style="display:inline;fill:#cb73af;fill-opacity:1;fill-rule:evenodd;stroke:none;stroke-width:1.08839" d="m 53.371094,201.0293 8.818359,29.48828 H 120.02539 L 85.294922,201.0293 Z m 806.839846,0 -34.73047,29.48828 h 57.83594 l 8.81836,-29.48828 z" transform="scale(0.26458333)"/>
      <path id="rect43-5-3-5-6" style="display:inline;fill:#b976b2;fill-opacity:1;fill-rule:evenodd;stroke:none;stroke-width:1.08839" d="m 60.998047,226.53516 8.818359,29.48046 h 80.240234 l -34.7207,-29.48046 c -18.112614,0 -36.225281,0 -54.337893,0 z m 769.171873,0 -34.7207,29.48046 h 80.24023 l 8.81641,-29.48046 c -18.11196,0 -36.22398,0 -54.33594,0 z" transform="scale(0.26458333)"/>
      <path id="rect43-5-3-5-6-2" style="display:inline;fill:#9872b2;fill-opacity:1;fill-rule:evenodd;stroke:none;stroke-width:1.08839" d="m 68.625,252.03125 8.818359,29.48828 H 180.0957 l -34.73242,-29.48828 z m 731.51562,0 -34.73046,29.48828 H 868.0625 l 8.81836,-29.48828 z" transform="scale(0.26458333)"/>
      <path id="rect43-5-3-5-6-2-9" style="display:inline;fill:#816fb2;fill-opacity:1;fill-rule:evenodd;stroke:none;stroke-width:1.08839" d="m 76.251953,277.53516 8.816406,29.48046 H 210.12305 l -34.72071,-29.48046 z m 693.851567,0 -34.72266,29.48046 H 860.4375 l 8.81641,-29.48046 z" transform="scale(0.26458333)"/>
      <path id="rect43-5-3-5-6-2-9-1" style="display:inline;fill:#626fb4;fill-opacity:1;fill-rule:evenodd;stroke:none;stroke-width:1.08839" d="m 83.876953,303.03125 8.816406,29.48047 H 240.15234 l -34.7207,-29.48047 c -40.51819,0 -81.0365,0 -121.554687,0 z m 656.197267,0 -34.72266,29.48047 H 852.8125 l 8.81641,-29.48047 c -40.5182,0 -81.0365,0 -121.55469,0 z" transform="scale(0.26458333)"/>
      <path id="rect43-5-3-5-6-2-9-1-2" style="display:inline;fill:#4d73b8;fill-opacity:1;fill-rule:evenodd;stroke:none;stroke-width:1.08839" d="m 91.501953,328.5293 8.818357,29.48828 H 270.19336 L 235.46289,328.5293 Z m 618.541017,0 -34.73047,29.48828 h 169.87109 l 8.81836,-29.48828 z" transform="scale(0.26458333)"/>
      <path id="rect43-5-3-5-6-2-9-1-2-7" style="display:inline;fill:#4f82c3;fill-opacity:1;fill-rule:evenodd;stroke:none;stroke-width:1.08839" d="m 99.128906,354.0332 8.816404,29.48047 H 300.22266 L 265.5,354.0332 Z m 580.875004,0 -34.72071,29.48047 H 837.55859 L 846.375,354.0332 Z" transform="scale(0.26458333)"/>
      <path id="rect43-5-3-5-6-2-9-1-2-7-0" style="display:inline;fill:#519ad4;fill-opacity:1;fill-rule:evenodd;stroke:none;stroke-width:1.08839" d="m 106.75391,379.5293 8.82031,29.48828 H 330.25977 L 295.5293,379.5293 Z m 543.2207,0 -34.73047,29.48828 h 214.6875 L 838.75,379.5293 Z" transform="scale(0.26458333)"/>
      <path id="rect43-5-3-5-6-2-9-1-2-7-0-9" style="display:inline;fill:#4cade1;fill-opacity:1;fill-rule:evenodd;stroke:none;stroke-width:1.08839" d="m 114.38281,405.0332 8.81641,29.48047 H 360.28906 L 325.56641,405.0332 Z m 505.55469,0 -34.72266,29.48047 h 237.08985 l 8.81836,-29.48047 z" transform="scale(0.26458333)"/>
      <path id="rect43-5-3-5-6-2-9-1-2-7-0-9-3" style="display:inline;fill:#44c0ee;fill-opacity:1;fill-rule:evenodd;stroke:none;stroke-width:1.08839" d="m 122.00781,430.53125 8.81836,29.48828 h 259.50391 l -34.73242,-29.48828 z m 467.89844,0 -34.73047,29.48828 h 259.50195 l 8.81836,-29.48828 z" transform="scale(0.26458333)"/>
      <path id="rect43-5-3-5-6-2-9-1-2-7-0-9-3-6" style="display:inline;fill:#53c8ea;fill-opacity:1;fill-rule:evenodd;stroke:none;stroke-width:1.08839" d="m 129.63477,456.03516 8.8164,29.48046 h 281.90625 l -34.7207,-29.48046 z m 430.23242,0 -34.72071,29.48046 h 281.90625 l 8.81641,-29.48046 z" transform="scale(0.26458333)"/>
      <path id="rect43-5-3-5-6-2-9-1-2-7-0-9-3-6-0" style="display:inline;fill:#5cc9de;fill-opacity:1;fill-rule:evenodd;stroke:none;stroke-width:1.08839" d="m 137.25977,481.53125 4.5332,15.15625 50.32812,14.32422 h 241.61133 v -14.14063 l -18.0664,-15.33984 z m 392.57812,0 -18.06641,15.33984 v 14.14063 h 241.61133 l 50.32813,-14.32422 4.5332,-15.15625 z" transform="scale(0.26458333)"/>
      <path id="rect43-5-3-5-6-2-9-1-2-7-0-9-3-6-0-6" style="display:inline;fill:#61c6c4;fill-opacity:1;fill-rule:evenodd;stroke:none;stroke-width:1.08839" d="m 178.12891,507.0293 103.60351,29.48632 h 152 V 507.0293 Z m 333.64257,0 v 29.48632 h 152 L 767.375,507.0293 Z" transform="scale(0.26458333)"/>
      <path id="rect43-5-3-5-6-2-9-1-2-7-0-9-3-6-0-6-2" style="display:inline;fill:#6bc5a6;fill-opacity:1;fill-rule:evenodd;stroke:none;stroke-width:1.08839" d="m 267.73828,532.5332 87.88086,25.01172 v 4.46875 h 78.11328 V 532.5332 Z m 244.0332,0 v 29.48047 h 78.11329 v -4.46875 l 87.88085,-25.01172 z" transform="scale(0.26458333)"/>
      <path id="rect43-5-3-5-6-2-9-1-2-7-0-9-3-6-0-6-2-6" style="display:inline;fill:#74c58e;fill-opacity:1;fill-rule:evenodd;stroke:none;stroke-width:1.08839" d="m 355.61914,558.0293 v 29.48828 h 78.11328 V 558.0293 Z m 156.15234,0 v 29.48828 h 78.11329 V 558.0293 Z" transform="scale(0.26458333)"/>
      <path id="rect43-5-3-5-6-2-9-1-2-7-0-9-3-6-0-6-2-6-1" style="display:inline;fill:#82c566;fill-opacity:1;fill-rule:evenodd;stroke:none;stroke-width:1.08839" d="m 355.61914,583.5332 v 29.48047 h 78.11328 V 583.5332 Z m 156.15234,0 v 29.48047 h 78.11329 V 583.5332 Z" transform="scale(0.26458333)"/>
      <path id="rect43-5-3-5-6-2-9-1-2-7-0-9-3-6-0-6-2-6-1-8" style="display:inline;fill:#90c745;fill-opacity:1;fill-rule:evenodd;stroke:none;stroke-width:1.08839" d="m 355.61914,609.03125 v 24.94531 l -13.31641,4.54297 h 91.42969 v -29.48828 z m 156.15234,0 v 29.48828 h 91.42969 l -13.3164,-4.54297 v -24.94531 z" transform="scale(0.26458333)"/>
      <path id="rect43-5-3-5-6-2-9-1-2-7-0-9-3-6-0-6-2-6-1-8-7" style="display:inline;fill:#a2c63d;fill-opacity:1;fill-rule:evenodd;stroke:none;stroke-width:1.08839" d="m 353.98242,634.53516 -86.4082,29.48046 h 166.1582 v -29.48046 z m 157.78906,0 v 29.48046 h 166.15821 l -86.40821,-29.48046 z" transform="scale(0.26458333)"/>
      <path id="rect43-5-3-5-6-2-9-1-2-7-0-9-3-6-0-6-2-6-1-8-7-9" style="display:inline;fill:#bac43a;fill-opacity:1;fill-rule:evenodd;stroke:none;stroke-width:1.08839" d="m 279.25195,660.03125 -86.40625,29.48047 h 240.88672 v -29.48047 z m 232.51953,0 v 29.48047 h 240.88868 l -86.40821,-29.48047 z" transform="scale(0.26458333)"/>
      <path id="rect43-5-3-5-6-2-9-1-2-7-0-9-3-6-0-6-2-6-1-8-7-9-2" style="display:inline;fill:#cbc33d;fill-opacity:1;fill-rule:evenodd;stroke:none;stroke-width:1.08839" d="m 204.51758,685.5293 -26.94531,9.19336 -4.23438,20.29296 h 236.51758 l 23.87695,-20.83984 v -8.64648 z m 307.2539,0 v 8.64648 l 23.87696,20.83984 h 236.51953 l -4.23438,-20.29296 -26.94531,-9.19336 z" transform="scale(0.26458333)"/>
      <path id="rect43-5-3-5-6-2-9-1-2-7-0-9-3-6-0-6-2-6-1-8-7-9-2-0" style="display:inline;fill:#dec03e;fill-opacity:1;fill-rule:evenodd;stroke:none;stroke-width:1.08839" d="m 174.16797,711.0332 -6.15039,29.48047 h 212.62109 l 33.7793,-29.48047 z m 356.91797,0 33.77929,29.48047 h 212.62305 l -6.15234,-29.48047 z" transform="scale(0.26458333)"/>
      <path id="rect43-5-3-5-6-2-9-1-2-7-0-9-3-6-0-6-2-6-1-8-7-9-2-0-2" style="display:inline;fill:#f1bc3e;fill-opacity:1;fill-rule:evenodd;stroke:none;stroke-width:1.08839" d="m 168.84961,736.5293 -6.1543,29.48828 h 188.72266 l 33.78711,-29.48828 z m 391.44922,0 33.78711,29.48828 h 188.72461 l -6.1543,-29.48828 z" transform="scale(0.26458333)"/>
      <path id="rect43-5-3-5-6-2-9-1-2-7-0-9-3-6-0-6-2-6-1-8-7-9-2-0-2-3" style="display:inline;fill:#fbb441;fill-opacity:1;fill-rule:evenodd;stroke:none;stroke-width:1.08839" d="m 163.52734,762.0332 -6.15234,29.48047 h 164.83008 l 33.77734,-29.48047 z m 425.99414,0 33.77735,29.48047 h 164.83008 l -6.15039,-29.48047 z" transform="scale(0.26458333)"/>
      <path id="rect43-5-3-5-6-2-9-1-2-7-0-9-3-6-0-6-2-6-1-8-7-9-2-0-2-3-7" style="display:inline;fill:#f89841;fill-opacity:1;fill-rule:evenodd;stroke:none;stroke-width:1.08839" d="m 158.20703,787.53125 -6.15234,29.48047 h 140.93554 l 33.77735,-29.48047 z m 460.5293,0 33.77734,29.48047 h 140.93555 l -6.15039,-29.48047 z" transform="scale(0.26458333)"/>
      <path id="rect43-5-3-5-6-2-9-1-2-7-0-9-3-6-0-6-2-6-1-8-7-9-2-0-2-3-7-5" style="display:inline;fill:#f47c3e;fill-opacity:1;fill-rule:evenodd;stroke:none;stroke-width:1.08839" d="m 152.88672,813.02734 -6.15234,29.48828 h 117.0332 l 33.78711,-29.48828 z m 495.0625,0 33.78711,29.48828 h 117.03515 l -6.15234,-29.48828 z" transform="scale(0.26458333)"/>
      <path id="rect43-5-3-5-6-2-9-1-2-7-0-9-3-6-0-6-2-6-1-8-7-9-2-0-2-3-7-5-9" style="display:inline;fill:#f2653c;fill-opacity:1;fill-rule:evenodd;stroke:none;stroke-width:1.08839" d="m 147.56445,838.53125 -6.15039,29.48047 h 93.14063 l 33.77929,-29.48047 z m 529.60547,0 33.7793,29.48047 h 93.14258 l -6.15235,-29.48047 z" transform="scale(0.26458333)"/>
      <path id="rect43-5-3-5-6-2-9-1-2-7-0-9-3-6-0-6-2-6-1-8-7-9-2-0-2-3-7-5-9-2" style="display:inline;fill:#f0493a;fill-opacity:1;fill-rule:evenodd;stroke:none;stroke-width:1.08839" d="m 142.24414,864.0293 -6.15234,29.48632 h 69.24218 l 33.78516,-29.48632 z m 564.14063,0 33.78515,29.48632 h 69.24219 l -6.15234,-29.48632 z" transform="scale(0.26458333)"/>
      <path id="rect43-5-3-5-6-2-9-1-2-7-0-9-3-6-0-6-2-6-1-8-7-9-2-0-2-3-7-5-9-2-2" style="display:inline;fill:#ef3f39;fill-opacity:1;fill-rule:evenodd;stroke:none;stroke-width:1.86408" d="m 136.92188,889.5332 -16.24805,77.8711 89.22265,-77.8711 z m 598.68554,0 89.22266,77.8711 -16.24805,-77.8711 z" transform="scale(0.26458333)"/>
    </g>
  </g>
</svg>